<svg xmlns="http://www.w3.org/2000/svg" width="918.691162109375" height="537.5432739257812" viewBox="-412.52972412109375 -322.3345642089844 918.691162109375 537.5432739257812"><title>Neo4j Graph Visualization</title><desc>Created using Neo4j (http://www.neo4j.com/)</desc><g class="layer relationships"><g class="relationship" transform="translate(-276.6001580782203 -14.75956231445781) rotate(499.0577734743231)"><path class="b-outline" fill="#A5ABB6" stroke="none" d="M 24.018736134675446,-6.953439040707552 L 24.277555179777966,-5.987513214418485 A 140.9182835489913 140.9182835489913 0 0 1 42.58048696640874,-9.612935367773616 L 42.45155122193746,-10.604588318052919 A 141.9182835489913 141.9182835489913 0 0 0 24.018736134675446,-6.953439040707552 Z M 75.16296594648077,-11.055401716181791 L 75.06140697310092,-10.060572195647751 A 140.9182835489913 140.9182835489913 0 0 1 93.45729627053949,-6.940916007462546 L 92.76099048221882,-4.02284159971501 L 100.38218752000385,-5.802548236005573 L 94.38570398830039,-10.831681884459261 L 93.68939819997972,-7.913607476711725 A 141.9182835489913 141.9182835489913 0 0 0 75.16296594648077,-11.055401716181791"/><text text-anchor="middle" pointer-events="none" font-size="8px" fill="#000000" x="58.80111526867367" y="-8.275759369059102" transform="rotate(180 58.80111526867367 -11.275759369059102)" font-family="Helvetica Neue, Helvetica, Arial, sans-serif">FEEDS</text></g><g class="relationship" transform="translate(-276.6001580782203 -14.75956231445781) rotate(275.50632971109246)"><path class="b-outline" fill="#A5ABB6" stroke="none" d="M 25 0.5 L 50.90496655144126 0.5 L 50.90496655144126 -0.5 L 25 -0.5 Z M 83.57684155144126 0.5 L 109.48180810288252 0.5 L 109.48180810288252 3.5 L 116.48180810288252 0 L 109.48180810288252 -3.5 L 109.48180810288252 -0.5 L 83.57684155144126 -0.5 Z"/><text text-anchor="middle" pointer-events="none" font-size="8px" fill="#000000" x="67.24090405144126" y="3" font-family="Helvetica Neue, Helvetica, Arial, sans-serif">FEEDS</text></g><g class="relationship" transform="translate(-370.7944903827083 66.95571557312988) rotate(319.0577734743231)"><path class="b-outline" fill="#A5ABB6" stroke="none" d="M 24.018736134675446,-6.953439040707552 L 24.277555179777966,-5.987513214418485 A 140.9182835489913 140.9182835489913 0 0 1 42.58048696640874,-9.612935367773616 L 42.45155122193746,-10.604588318052919 A 141.9182835489913 141.9182835489913 0 0 0 24.018736134675446,-6.953439040707552 Z M 75.16296594648077,-11.055401716181791 L 75.06140697310092,-10.060572195647751 A 140.9182835489913 140.9182835489913 0 0 1 93.45729627053949,-6.940916007462546 L 92.76099048221882,-4.02284159971501 L 100.38218752000385,-5.802548236005573 L 94.38570398830039,-10.831681884459261 L 93.68939819997972,-7.913607476711725 A 141.9182835489913 141.9182835489913 0 0 0 75.16296594648077,-11.055401716181791"/><text text-anchor="middle" pointer-events="none" font-size="8px" fill="#000000" x="58.80111526867367" y="-8.275759369059102" font-family="Helvetica Neue, Helvetica, Arial, sans-serif">FEEDS</text></g><g class="relationship" transform="translate(-263.0241696497467 -155.58851729975487) rotate(318.1786903588642)"><path class="b-outline" fill="#A5ABB6" stroke="none" d="M 25 0.5 L 31.53692715006892 0.5 L 31.53692715006892 -0.5 L 25 -0.5 Z M 64.20880215006892 0.5 L 70.74572930013784 0.5 L 70.74572930013784 3.5 L 77.74572930013784 0 L 70.74572930013784 -3.5 L 70.74572930013784 -0.5 L 64.20880215006892 -0.5 Z"/><text text-anchor="middle" pointer-events="none" font-size="8px" fill="#000000" x="47.87286465006892" y="3" font-family="Helvetica Neue, Helvetica, Arial, sans-serif">FEEDS</text></g><g class="relationship" transform="translate(-383.5297279246814 -65.61878362620757) rotate(385.43729775600525)"><path class="b-outline" fill="#A5ABB6" stroke="none" d="M 25 0.5 L 38.253121254778065 0.5 L 38.253121254778065 -0.5 L 25 -0.5 Z M 73.15546500477807 0.5 L 86.40858625955613 0.5 L 86.40858625955613 3.5 L 93.40858625955613 0 L 86.40858625955613 -3.5 L 86.40858625955613 -0.5 L 73.15546500477807 -0.5 Z"/><text text-anchor="middle" pointer-events="none" font-size="8px" fill="#000000" x="55.704293129778065" y="3" font-family="Helvetica Neue, Helvetica, Arial, sans-serif">BIASES</text></g><g class="relationship" transform="translate(-383.5297279246814 -65.61878362620757) rotate(444.5129470597427)"><path class="b-outline" fill="#A5ABB6" stroke="none" d="M 25 0.5 L 45.64121528976082 0.5 L 45.64121528976082 -0.5 L 25 -0.5 Z M 80.54355903976082 0.5 L 101.18477432952164 0.5 L 101.18477432952164 3.5 L 108.18477432952164 0 L 101.18477432952164 -3.5 L 101.18477432952164 -0.5 L 80.54355903976082 -0.5 Z"/><text text-anchor="middle" pointer-events="none" font-size="8px" fill="#000000" x="63.09238716476082" y="3" font-family="Helvetica Neue, Helvetica, Arial, sans-serif">BIASES</text></g><g class="relationship" transform="translate(-186.45517024941762 -224.10036459823027) rotate(412.7216212067981)"><path class="b-outline" fill="#A5ABB6" stroke="none" d="M 25 0.5 L 25.898054703979774 0.5 L 25.898054703979774 -0.5 L 25 -0.5 Z M 50.120710953979774 0.5 L 51.01876565795955 0.5 L 51.01876565795955 3.5 L 58.01876565795955 0 L 51.01876565795955 -3.5 L 51.01876565795955 -0.5 L 50.120710953979774 -0.5 Z"/><text text-anchor="middle" pointer-events="none" font-size="8px" fill="#000000" x="38.009382828979774" y="3" font-family="Helvetica Neue, Helvetica, Arial, sans-serif">FE…</text></g><g class="relationship" transform="translate(-136.17168548257493 -158.04215836256336) rotate(336.182210669018)"><path class="b-outline" fill="#A5ABB6" stroke="none" d="M 25 0.5 L 49.2962546738421 0.5 L 49.2962546738421 -0.5 L 25 -0.5 Z M 81.9681296738421 0.5 L 106.2643843476842 0.5 L 106.2643843476842 3.5 L 113.2643843476842 0 L 106.2643843476842 -3.5 L 106.2643843476842 -0.5 L 81.9681296738421 -0.5 Z"/><text text-anchor="middle" pointer-events="none" font-size="8px" fill="#000000" x="65.6321921738421" y="3" font-family="Helvetica Neue, Helvetica, Arial, sans-serif">FEEDS</text></g><g class="relationship" transform="translate(-272.70001649781017 -273.9343531630176) rotate(445.32594583475975)"><path class="b-outline" fill="#A5ABB6" stroke="none" d="M 25 0.5 L 38.41918874038093 0.5 L 38.41918874038093 -0.5 L 25 -0.5 Z M 73.32153249038093 0.5 L 86.74072123076186 0.5 L 86.74072123076186 3.5 L 93.74072123076186 0 L 86.74072123076186 -3.5 L 86.74072123076186 -0.5 L 73.32153249038093 -0.5 Z"/><text text-anchor="middle" pointer-events="none" font-size="8px" fill="#000000" x="55.87036061538093" y="3" font-family="Helvetica Neue, Helvetica, Arial, sans-serif">BIASES</text></g><g class="relationship" transform="translate(-272.70001649781017 -273.9343531630176) rotate(390.02017685837393)"><path class="b-outline" fill="#A5ABB6" stroke="none" d="M 25 0.5 L 28.852442252601783 0.5 L 28.852442252601783 -0.5 L 25 -0.5 Z M 63.75478600260178 0.5 L 67.60722825520357 0.5 L 67.60722825520357 3.5 L 74.60722825520357 0 L 67.60722825520357 -3.5 L 67.60722825520357 -0.5 L 63.75478600260178 -0.5 Z"/><text text-anchor="middle" pointer-events="none" font-size="8px" fill="#000000" x="46.30361412760178" y="3" font-family="Helvetica Neue, Helvetica, Arial, sans-serif">BIASES</text></g><g class="relationship" transform="translate(-9.682680059463006 -213.87737561938167) rotate(373.93192774508947)"><path class="b-outline" fill="#A5ABB6" stroke="none" d="M 25 0.5 L 41.151100460565274 0.5 L 41.151100460565274 -0.5 L 25 -0.5 Z M 73.82297546056527 0.5 L 89.97407592113055 0.5 L 89.97407592113055 3.5 L 96.97407592113055 0 L 89.97407592113055 -3.5 L 89.97407592113055 -0.5 L 73.82297546056527 -0.5 Z"/><text text-anchor="middle" pointer-events="none" font-size="8px" fill="#000000" x="57.487037960565274" y="3" font-family="Helvetica Neue, Helvetica, Arial, sans-serif">FEEDS</text></g><g class="relationship" transform="translate(108.70321923488254 -184.50980770709458) rotate(433.86740982836125)"><path class="b-outline" fill="#A5ABB6" stroke="none" d="M 25 0.5 L 43.214765670088525 0.5 L 43.214765670088525 -0.5 L 25 -0.5 Z M 75.88664067008852 0.5 L 94.10140634017705 0.5 L 94.10140634017705 3.5 L 101.10140634017705 0 L 94.10140634017705 -3.5 L 94.10140634017705 -0.5 L 75.88664067008852 -0.5 Z"/><text text-anchor="middle" pointer-events="none" font-size="8px" fill="#000000" x="59.550703170088525" y="3" font-family="Helvetica Neue, Helvetica, Arial, sans-serif">FEEDS</text></g><g class="relationship" transform="translate(108.70321923488254 -184.50980770709458) rotate(395.71063677612506)"><path class="b-outline" fill="#A5ABB6" stroke="none" d="M 25 0.5 L 45.07024345499241 0.5 L 45.07024345499241 -0.5 L 25 -0.5 Z M 77.74211845499241 0.5 L 97.81236190998482 0.5 L 97.81236190998482 3.5 L 104.81236190998482 0 L 97.81236190998482 -3.5 L 97.81236190998482 -0.5 L 77.74211845499241 -0.5 Z"/><text text-anchor="middle" pointer-events="none" font-size="8px" fill="#000000" x="61.40618095499241" y="3" font-family="Helvetica Neue, Helvetica, Arial, sans-serif">FEEDS</text></g><g class="relationship" transform="translate(-32.020013775597434 -293.3345772065821) rotate(487.5900252480145)"><path class="b-outline" fill="#A5ABB6" stroke="none" d="M 25 0.5 L 64.41803995810675 0.5 L 64.41803995810675 -0.5 L 25 -0.5 Z M 99.32038370810675 0.5 L 138.7384236662135 0.5 L 138.7384236662135 3.5 L 145.7384236662135 0 L 138.7384236662135 -3.5 L 138.7384236662135 -0.5 L 99.32038370810675 -0.5 Z"/><text text-anchor="middle" pointer-events="none" font-size="8px" fill="#000000" x="81.86921183310675" y="3" transform="rotate(180 81.86921183310675 0)" font-family="Helvetica Neue, Helvetica, Arial, sans-serif">BIASES</text></g><g class="relationship" transform="translate(-32.020013775597434 -293.3345772065821) rotate(434.29804753369535)"><path class="b-outline" fill="#A5ABB6" stroke="none" d="M 25 0.5 L 26.9893454627816 0.5 L 26.9893454627816 -0.5 L 25 -0.5 Z M 48.5479392127816 0.5 L 50.5372846755632 0.5 L 50.5372846755632 3.5 L 57.5372846755632 0 L 50.5372846755632 -3.5 L 50.5372846755632 -0.5 L 48.5479392127816 -0.5 Z"/><text text-anchor="middle" pointer-events="none" font-size="8px" fill="#000000" x="37.7686423377816" y="3" font-family="Helvetica Neue, Helvetica, Arial, sans-serif">BI…</text></g><g class="relationship" transform="translate(-32.020013775597434 -293.3345772065821) rotate(397.71567127859396)"><path class="b-outline" fill="#A5ABB6" stroke="none" d="M 25 0.5 L 67.99524284411393 0.5 L 67.99524284411393 -0.5 L 25 -0.5 Z M 102.89758659411393 0.5 L 145.89282943822786 0.5 L 145.89282943822786 3.5 L 152.89282943822786 0 L 145.89282943822786 -3.5 L 145.89282943822786 -0.5 L 102.89758659411393 -0.5 Z"/><text text-anchor="middle" pointer-events="none" font-size="8px" fill="#000000" x="85.44641471911393" y="3" font-family="Helvetica Neue, Helvetica, Arial, sans-serif">BIASES</text></g><g class="relationship" transform="translate(192.7485772817586 -5.130137759595598) rotate(420.27542319366194)"><path class="b-outline" fill="#A5ABB6" stroke="none" d="M 24.018736134675446,6.953439040707552 L 24.277555179777966,5.987513214418485 A 92.1555268102011 92.1555268102011 0 0 0 30.431767317009157,7.412385106972849 L 30.23972898870408,8.393772533253511 A 93.1555268102011 93.1555268102011 0 0 1 24.018736134675446,6.953439040707552 Z M 62.91331441065151,8.94700299574886 L 62.75461042080602,7.959676786430421 A 92.1555268102011 92.1555268102011 0 0 0 68.95353296500173,6.743968667144825 L 68.27562335753423,3.821565792094352 L 75.88545794136408,5.6492467288957595 L 69.85741244162504,10.64050583387879 L 69.17950283415755,7.718102958828316 A 93.1555268102011 93.1555268102011 0 0 1 62.91331441065151,8.94700299574886"/><text text-anchor="middle" pointer-events="none" font-size="8px" fill="#000000" x="46.56053836433114" y="12.614357607414718" font-family="Helvetica Neue, Helvetica, Arial, sans-serif">FEEDS</text></g><g class="relationship" transform="translate(242.45011123197023 81.91914484745385) rotate(240.27542319366194)"><path class="b-outline" fill="#A5ABB6" stroke="none" d="M 24.018736134675446,6.953439040707552 L 24.277555179777966,5.987513214418485 A 92.1555268102011 92.1555268102011 0 0 0 30.431767317009157,7.412385106972849 L 30.23972898870408,8.393772533253511 A 93.1555268102011 93.1555268102011 0 0 1 24.018736134675446,6.953439040707552 Z M 62.91331441065151,8.94700299574886 L 62.75461042080602,7.959676786430421 A 92.1555268102011 92.1555268102011 0 0 0 68.95353296500173,6.743968667144825 L 68.27562335753423,3.821565792094352 L 75.88545794136408,5.6492467288957595 L 69.85741244162504,10.64050583387879 L 69.17950283415755,7.718102958828316 A 93.1555268102011 93.1555268102011 0 0 1 62.91331441065151,8.94700299574886"/><text text-anchor="middle" pointer-events="none" font-size="8px" fill="#000000" x="46.56053836433114" y="12.614357607414718" transform="rotate(180 46.56053836433114 9.614357607414718)" font-family="Helvetica Neue, Helvetica, Arial, sans-serif">FEEDS</text></g><g class="relationship" transform="translate(143.7418953635569 -63.37411579046618) rotate(409.9226288020702)"><path class="b-outline" fill="#A5ABB6" stroke="none" d="M 25 0.5 L 25.115857148374246 0.5 L 25.115857148374246 -0.5 L 25 -0.5 Z M 44.002575898374246 0.5 L 44.11843304674849 0.5 L 44.11843304674849 3.5 L 51.11843304674849 0 L 44.11843304674849 -3.5 L 44.11843304674849 -0.5 L 44.002575898374246 -0.5 Z"/><text text-anchor="middle" pointer-events="none" font-size="8px" fill="#000000" x="34.559216523374246" y="3" font-family="Helvetica Neue, Helvetica, Arial, sans-serif">F…</text></g><g class="relationship" transform="translate(74.76937292561087 21.791923810737543) rotate(309.0026098179342)"><path class="b-outline" fill="#A5ABB6" stroke="none" d="M 25 0.5 L 33.84495744269627 0.5 L 33.84495744269627 -0.5 L 25 -0.5 Z M 68.74730119269627 0.5 L 77.59225863539254 0.5 L 77.59225863539254 3.5 L 84.59225863539254 0 L 77.59225863539254 -3.5 L 77.59225863539254 -0.5 L 68.74730119269627 -0.5 Z"/><text text-anchor="middle" pointer-events="none" font-size="8px" fill="#000000" x="51.29612931769627" y="3" font-family="Helvetica Neue, Helvetica, Arial, sans-serif">BIASES</text></g><g class="relationship" transform="translate(74.76937292561087 21.791923810737543) rotate(347.14559071626695)"><path class="b-outline" fill="#A5ABB6" stroke="none" d="M 25 0.5 L 39.55479902809864 0.5 L 39.55479902809864 -0.5 L 25 -0.5 Z M 74.45714277809864 0.5 L 89.01194180619729 0.5 L 89.01194180619729 3.5 L 96.01194180619729 0 L 89.01194180619729 -3.5 L 89.01194180619729 -0.5 L 74.45714277809864 -0.5 Z"/><text text-anchor="middle" pointer-events="none" font-size="8px" fill="#000000" x="57.00597090309864" y="3" font-family="Helvetica Neue, Helvetica, Arial, sans-serif">BIASES</text></g><g class="relationship" transform="translate(74.76937292561087 21.791923810737543) rotate(379.7268975736171)"><path class="b-outline" fill="#A5ABB6" stroke="none" d="M 25 0.5 L 68.11637652025436 0.5 L 68.11637652025436 -0.5 L 25 -0.5 Z M 103.01872027025436 0.5 L 146.13509679050873 0.5 L 146.13509679050873 3.5 L 153.13509679050873 0 L 146.13509679050873 -3.5 L 146.13509679050873 -0.5 L 103.01872027025436 -0.5 Z"/><text text-anchor="middle" pointer-events="none" font-size="8px" fill="#000000" x="85.56754839525436" y="3" font-family="Helvetica Neue, Helvetica, Arial, sans-serif">BIASES</text></g><g class="relationship" transform="translate(214.10763520970977 -108.73937549469088) rotate(415.5920148390607)"><path class="b-outline" fill="#A5ABB6" stroke="none" d="M 25 0.5 L 40.25180122422594 0.5 L 40.25180122422594 -0.5 L 25 -0.5 Z M 72.92367622422594 0.5 L 88.17547744845189 0.5 L 88.17547744845189 3.5 L 95.17547744845189 0 L 88.17547744845189 -3.5 L 88.17547744845189 -0.5 L 72.92367622422594 -0.5 Z"/><text text-anchor="middle" pointer-events="none" font-size="8px" fill="#000000" x="56.58773872422594" y="3" font-family="Helvetica Neue, Helvetica, Arial, sans-serif">FEEDS</text></g><g class="relationship" transform="translate(282.0166333741122 -9.590430224100345) rotate(473.3824854899607)"><path class="b-outline" fill="#A5ABB6" stroke="none" d="M 25 0.5 L 30.012613141420417 0.5 L 30.012613141420417 -0.5 L 25 -0.5 Z M 62.68448814142042 0.5 L 67.69710128284083 0.5 L 67.69710128284083 3.5 L 74.69710128284083 0 L 67.69710128284083 -3.5 L 67.69710128284083 -0.5 L 62.68448814142042 -0.5 Z"/><text text-anchor="middle" pointer-events="none" font-size="8px" fill="#000000" x="46.34855064142042" y="3" transform="rotate(180 46.34855064142042 0)" font-family="Helvetica Neue, Helvetica, Arial, sans-serif">FEEDS</text></g><g class="relationship" transform="translate(429.91725537647505 -54.50499164976655) rotate(194.10668124466338)"><path class="b-outline" fill="#A5ABB6" stroke="none" d="M 25 0.5 L 90.3088395257298 0.5 L 90.3088395257298 -0.5 L 25 -0.5 Z M 125.2111832757298 0.5 L 190.5200228014596 0.5 L 190.5200228014596 3.5 L 197.5200228014596 0 L 190.5200228014596 -3.5 L 190.5200228014596 -0.5 L 125.2111832757298 -0.5 Z"/><text text-anchor="middle" pointer-events="none" font-size="8px" fill="#000000" x="107.7600114007298" y="3" transform="rotate(180 107.7600114007298 0)" font-family="Helvetica Neue, Helvetica, Arial, sans-serif">BIASES</text></g><g class="relationship" transform="translate(429.91725537647505 -54.50499164976655) rotate(523.1074776034454)"><path class="b-outline" fill="#A5ABB6" stroke="none" d="M 25 0.5 L 56.333871659867995 0.5 L 56.333871659867995 -0.5 L 25 -0.5 Z M 91.236215409868 0.5 L 122.57008706973599 0.5 L 122.57008706973599 3.5 L 129.570087069736 0 L 122.57008706973599 -3.5 L 122.57008706973599 -0.5 L 91.236215409868 -0.5 Z"/><text text-anchor="middle" pointer-events="none" font-size="8px" fill="#000000" x="73.785043534868" y="3" transform="rotate(180 73.785043534868 0)" font-family="Helvetica Neue, Helvetica, Arial, sans-serif">BIASES</text></g><g class="relationship" transform="translate(429.91725537647505 -54.50499164976655) rotate(219.6527278773081)"><path class="b-outline" fill="#A5ABB6" stroke="none" d="M 25 0.5 L 65.88370361376687 0.5 L 65.88370361376687 -0.5 L 25 -0.5 Z M 100.78604736376687 0.5 L 141.66975097753374 0.5 L 141.66975097753374 3.5 L 148.66975097753374 0 L 141.66975097753374 -3.5 L 141.66975097753374 -0.5 L 100.78604736376687 -0.5 Z"/><text text-anchor="middle" pointer-events="none" font-size="8px" fill="#000000" x="83.33487548876687" y="3" transform="rotate(180 83.33487548876687 0)" font-family="Helvetica Neue, Helvetica, Arial, sans-serif">BIASES</text></g><g class="relationship" transform="translate(429.91725537647505 -54.50499164976655) rotate(503.9557596719965)"><path class="b-outline" fill="#A5ABB6" stroke="none" d="M 25 0.5 L 94.97496317735647 0.5 L 94.97496317735647 -0.5 L 25 -0.5 Z M 129.87730692735647 0.5 L 199.85227010471294 0.5 L 199.85227010471294 3.5 L 206.85227010471294 0 L 199.85227010471294 -3.5 L 199.85227010471294 -0.5 L 129.87730692735647 -0.5 Z"/><text text-anchor="middle" pointer-events="none" font-size="8px" fill="#000000" x="112.42613505235647" y="3" transform="rotate(180 112.42613505235647 0)" font-family="Helvetica Neue, Helvetica, Arial, sans-serif">BIASES</text></g><g class="relationship" transform="translate(296.2043446431816 -165.32935678590837) rotate(455.2052390584422)"><path class="b-outline" fill="#A5ABB6" stroke="none" d="M 25 0.5 L 58.3559808766435 0.5 L 58.3559808766435 -0.5 L 25 -0.5 Z M 91.0278558766435 0.5 L 124.383836753287 0.5 L 124.383836753287 3.5 L 131.383836753287 0 L 124.383836753287 -3.5 L 124.383836753287 -0.5 L 91.0278558766435 -0.5 Z"/><text text-anchor="middle" pointer-events="none" font-size="8px" fill="#000000" x="74.6919183766435" y="3" transform="rotate(180 74.6919183766435 0)" font-family="Helvetica Neue, Helvetica, Arial, sans-serif">FEEDS</text></g><g class="relationship" transform="translate(321.9038604965124 107.92169557042828) rotate(198.1215381576726)"><path class="b-outline" fill="#A5ABB6" stroke="none" d="M 25 0.5 L 26.188883944717993 0.5 L 26.188883944717993 -0.5 L 25 -0.5 Z M 50.41154019471799 0.5 L 51.60042413943599 0.5 L 51.60042413943599 3.5 L 58.60042413943599 0 L 51.60042413943599 -3.5 L 51.60042413943599 -0.5 L 50.41154019471799 -0.5 Z"/><text text-anchor="middle" pointer-events="none" font-size="8px" fill="#000000" x="38.30021206971799" y="3" transform="rotate(180 38.30021206971799 0)" font-family="Helvetica Neue, Helvetica, Arial, sans-serif">FE…</text></g><g class="relationship" transform="translate(477.1613751624035 15.89046189105531) rotate(509.3420181627919)"><path class="b-outline" fill="#A5ABB6" stroke="none" d="M 25 0.5 L 69.29106301639764 0.5 L 69.29106301639764 -0.5 L 25 -0.5 Z M 104.19340676639764 0.5 L 148.4844697827953 0.5 L 148.4844697827953 3.5 L 155.4844697827953 0 L 148.4844697827953 -3.5 L 148.4844697827953 -0.5 L 104.19340676639764 -0.5 Z"/><text text-anchor="middle" pointer-events="none" font-size="8px" fill="#000000" x="86.74223489139764" y="3" transform="rotate(180 86.74223489139764 0)" font-family="Helvetica Neue, Helvetica, Arial, sans-serif">BIASES</text></g><g class="relationship" transform="translate(477.1613751624035 15.89046189105531) rotate(524.2877110898971)"><path class="b-outline" fill="#A5ABB6" stroke="none" d="M 25 0.5 L 100.9598247462832 0.5 L 100.9598247462832 -0.5 L 25 -0.5 Z M 135.8621684962832 0.5 L 211.8219932425664 0.5 L 211.8219932425664 3.5 L 218.8219932425664 0 L 211.8219932425664 -3.5 L 211.8219932425664 -0.5 L 135.8621684962832 -0.5 Z"/><text text-anchor="middle" pointer-events="none" font-size="8px" fill="#000000" x="118.4109966212832" y="3" transform="rotate(180 118.4109966212832 0)" font-family="Helvetica Neue, Helvetica, Arial, sans-serif">BIASES</text></g><g class="relationship" transform="translate(242.45011123197023 81.91914484745385) rotate(471.82070356225665)"><path class="b-outline" fill="#A5ABB6" stroke="none" d="M 25 0.5 L 25.46351224853327 0.5 L 25.46351224853327 -0.5 L 25 -0.5 Z M 58.13538724853327 0.5 L 58.59889949706654 0.5 L 58.59889949706654 3.5 L 65.59889949706654 0 L 58.59889949706654 -3.5 L 58.59889949706654 -0.5 L 58.13538724853327 -0.5 Z"/><text text-anchor="middle" pointer-events="none" font-size="8px" fill="#000000" x="41.79944974853327" y="3" transform="rotate(180 41.79944974853327 0)" font-family="Helvetica Neue, Helvetica, Arial, sans-serif">FEEDS</text></g><g class="relationship" transform="translate(208.77419992510977 166.0267758195127) rotate(535.6613182155185)"><path class="b-outline" fill="#A5ABB6" stroke="none" d="M 25 0.5 L 113.5504753979645 0.5 L 113.5504753979645 -0.5 L 25 -0.5 Z M 146.2223503979645 0.5 L 234.772825795929 0.5 L 234.772825795929 3.5 L 241.772825795929 0 L 234.772825795929 -3.5 L 234.772825795929 -0.5 L 146.2223503979645 -0.5 Z"/><text text-anchor="middle" pointer-events="none" font-size="8px" fill="#000000" x="129.8864128979645" y="3" transform="rotate(180 129.8864128979645 0)" font-family="Helvetica Neue, Helvetica, Arial, sans-serif">FEEDS</text></g><g class="relationship" transform="translate(-57.234131328743345 186.20865597685815) rotate(249.95892816899288)"><path class="b-outline" fill="#A5ABB6" stroke="none" d="M 25 0.5 L 94.88792564490925 0.5 L 94.88792564490925 -0.5 L 25 -0.5 Z M 127.55980064490925 0.5 L 197.4477262898185 0.5 L 197.4477262898185 3.5 L 204.4477262898185 0 L 197.4477262898185 -3.5 L 197.4477262898185 -0.5 L 127.55980064490925 -0.5 Z"/><text text-anchor="middle" pointer-events="none" font-size="8px" fill="#000000" x="111.22386314490925" y="3" transform="rotate(180 111.22386314490925 0)" font-family="Helvetica Neue, Helvetica, Arial, sans-serif">FEEDS</text></g><g class="relationship" transform="translate(-57.234131328743345 186.20865597685815) rotate(185.22478145649205)"><path class="b-outline" fill="#A5ABB6" stroke="none" d="M 25 0.5 L 63.55633017433438 0.5 L 63.55633017433438 -0.5 L 25 -0.5 Z M 96.22820517433438 0.5 L 134.78453534866875 0.5 L 134.78453534866875 3.5 L 141.78453534866875 0 L 134.78453534866875 -3.5 L 134.78453534866875 -0.5 L 96.22820517433438 -0.5 Z"/><text text-anchor="middle" pointer-events="none" font-size="8px" fill="#000000" x="79.89226767433438" y="3" transform="rotate(180 79.89226767433438 0)" font-family="Helvetica Neue, Helvetica, Arial, sans-serif">FEEDS</text></g><g class="relationship" transform="translate(-57.234131328743345 186.20865597685815) rotate(219.3598062582709)"><path class="b-outline" fill="#A5ABB6" stroke="none" d="M 25 0.5 L 70.82131220597888 0.5 L 70.82131220597888 -0.5 L 25 -0.5 Z M 103.49318720597888 0.5 L 149.31449941195777 0.5 L 149.31449941195777 3.5 L 156.31449941195777 0 L 149.31449941195777 -3.5 L 149.31449941195777 -0.5 L 103.49318720597888 -0.5 Z"/><text text-anchor="middle" pointer-events="none" font-size="8px" fill="#000000" x="87.15724970597888" y="3" transform="rotate(180 87.15724970597888 0)" font-family="Helvetica Neue, Helvetica, Arial, sans-serif">FEEDS</text></g><g class="relationship" transform="translate(-135.8644132125263 -29.34536943311722) rotate(534.0830087458547)"><path class="b-outline" fill="#A5ABB6" stroke="none" d="M 25 0.5 L 50.9088426116882 0.5 L 50.9088426116882 -0.5 L 25 -0.5 Z M 83.5807176116882 0.5 L 109.4895602233764 0.5 L 109.4895602233764 3.5 L 116.4895602233764 0 L 109.4895602233764 -3.5 L 109.4895602233764 -0.5 L 83.5807176116882 -0.5 Z"/><text text-anchor="middle" pointer-events="none" font-size="8px" fill="#000000" x="67.2447801116882" y="3" transform="rotate(180 67.2447801116882 0)" font-family="Helvetica Neue, Helvetica, Arial, sans-serif">FEEDS</text></g><g class="relationship" transform="translate(-223.3256944859563 171.02070419049537) rotate(253.99919369382678)"><path class="b-outline" fill="#A5ABB6" stroke="none" d="M 25 0.5 L 76.79800567435113 0.5 L 76.79800567435113 -0.5 L 25 -0.5 Z M 109.46988067435113 0.5 L 161.26788634870226 0.5 L 161.26788634870226 3.5 L 168.26788634870226 0 L 161.26788634870226 -3.5 L 161.26788634870226 -0.5 L 109.46988067435113 -0.5 Z"/><text text-anchor="middle" pointer-events="none" font-size="8px" fill="#000000" x="93.13394317435113" y="3" transform="rotate(180 93.13394317435113 0)" font-family="Helvetica Neue, Helvetica, Arial, sans-serif">FEEDS</text></g><g class="relationship" transform="translate(-197.42263213637966 71.22112648641219) rotate(227.35878234699305)"><path class="b-outline" fill="#A5ABB6" stroke="none" d="M 25 0.5 L 38.605827234098555 0.5 L 38.605827234098555 -0.5 L 25 -0.5 Z M 71.27770223409856 0.5 L 84.88352946819711 0.5 L 84.88352946819711 3.5 L 91.88352946819711 0 L 84.88352946819711 -3.5 L 84.88352946819711 -0.5 L 71.27770223409856 -0.5 Z"/><text text-anchor="middle" pointer-events="none" font-size="8px" fill="#000000" x="54.941764734098555" y="3" transform="rotate(180 54.941764734098555 0)" font-family="Helvetica Neue, Helvetica, Arial, sans-serif">FEEDS</text></g><g class="relationship" transform="translate(25.54778533927842 91.51892163976056) rotate(491.16137794339943)"><path class="b-outline" fill="#A5ABB6" stroke="none" d="M 25 0.5 L 41.93561432858457 0.5 L 41.93561432858457 -0.5 L 25 -0.5 Z M 76.83795807858456 0.5 L 93.77357240716914 0.5 L 93.77357240716914 3.5 L 100.77357240716914 0 L 93.77357240716914 -3.5 L 93.77357240716914 -0.5 L 76.83795807858456 -0.5 Z"/><text text-anchor="middle" pointer-events="none" font-size="8px" fill="#000000" x="59.38678620358457" y="3" transform="rotate(180 59.38678620358457 0)" font-family="Helvetica Neue, Helvetica, Arial, sans-serif">BIASES</text></g><g class="relationship" transform="translate(25.54778533927842 91.51892163976056) rotate(382.1288040825653)"><path class="b-outline" fill="#A5ABB6" stroke="none" d="M 25 0.5 L 77.9469314137514 0.5 L 77.9469314137514 -0.5 L 25 -0.5 Z M 112.8492751637514 0.5 L 165.7962065775028 0.5 L 165.7962065775028 3.5 L 172.7962065775028 0 L 165.7962065775028 -3.5 L 165.7962065775028 -0.5 L 112.8492751637514 -0.5 Z"/><text text-anchor="middle" pointer-events="none" font-size="8px" fill="#000000" x="95.3981032887514" y="3" font-family="Helvetica Neue, Helvetica, Arial, sans-serif">BIASES</text></g><g class="relationship" transform="translate(25.54778533927842 91.51892163976056) rotate(216.82560457592)"><path class="b-outline" fill="#A5ABB6" stroke="none" d="M 25 0.5 L 79.87302499494356 0.5 L 79.87302499494356 -0.5 L 25 -0.5 Z M 114.77536874494356 0.5 L 169.64839373988713 0.5 L 169.64839373988713 3.5 L 176.64839373988713 0 L 169.64839373988713 -3.5 L 169.64839373988713 -0.5 L 114.77536874494356 -0.5 Z"/><text text-anchor="middle" pointer-events="none" font-size="8px" fill="#000000" x="97.32419686994356" y="3" transform="rotate(180 97.32419686994356 0)" font-family="Helvetica Neue, Helvetica, Arial, sans-serif">BIASES</text></g><g class="relationship" transform="translate(25.54778533927842 91.51892163976056) rotate(522.2840961466138)"><path class="b-outline" fill="#A5ABB6" stroke="none" d="M 25 0.5 L 109.68050727392028 0.5 L 109.68050727392028 -0.5 L 25 -0.5 Z M 144.58285102392028 0.5 L 229.26335829784057 0.5 L 229.26335829784057 3.5 L 236.26335829784057 0 L 229.26335829784057 -3.5 L 229.26335829784057 -0.5 L 144.58285102392028 -0.5 Z"/><text text-anchor="middle" pointer-events="none" font-size="8px" fill="#000000" x="127.13167914892028" y="3" transform="rotate(180 127.13167914892028 0)" font-family="Helvetica Neue, Helvetica, Arial, sans-serif">BIASES</text></g><g class="relationship" transform="translate(25.54778533927842 91.51892163976056) rotate(185.20150301627018)"><path class="b-outline" fill="#A5ABB6" stroke="none" d="M 25 0.5 L 90.99502899550357 0.5 L 90.99502899550357 -0.5 L 25 -0.5 Z M 125.89737274550357 0.5 L 191.89240174100715 0.5 L 191.89240174100715 3.5 L 198.89240174100715 0 L 191.89240174100715 -3.5 L 191.89240174100715 -0.5 L 125.89737274550357 -0.5 Z"/><text text-anchor="middle" pointer-events="none" font-size="8px" fill="#000000" x="108.44620087050357" y="3" transform="rotate(180 108.44620087050357 0)" font-family="Helvetica Neue, Helvetica, Arial, sans-serif">BIASES</text></g><g class="relationship" transform="translate(25.54778533927842 91.51892163976056) rotate(199.37897589679903)"><path class="b-outline" fill="#A5ABB6" stroke="none" d="M 25 0.5 L 139.1960228108819 0.5 L 139.1960228108819 -0.5 L 25 -0.5 Z M 174.0983665608819 0.5 L 288.2943893717638 0.5 L 288.2943893717638 3.5 L 295.2943893717638 0 L 288.2943893717638 -3.5 L 288.2943893717638 -0.5 L 174.0983665608819 -0.5 Z"/><text text-anchor="middle" pointer-events="none" font-size="8px" fill="#000000" x="156.6471946858819" y="3" transform="rotate(180 156.6471946858819 0)" font-family="Helvetica Neue, Helvetica, Arial, sans-serif">BIASES</text></g><g class="relationship" transform="translate(-263.0241696497467 -155.58851729975487) rotate(358.8918959688317)"><path class="b-outline" fill="#A5ABB6" stroke="none" d="M 25 0.5 L 43.602168347053116 0.5 L 43.602168347053116 -0.5 L 25 -0.5 Z M 76.27404334705312 0.5 L 94.87621169410623 0.5 L 94.87621169410623 3.5 L 101.87621169410623 0 L 94.87621169410623 -3.5 L 94.87621169410623 -0.5 L 76.27404334705312 -0.5 Z"/><text text-anchor="middle" pointer-events="none" font-size="8px" fill="#000000" x="59.938105847053116" y="3" font-family="Helvetica Neue, Helvetica, Arial, sans-serif">FEEDS</text></g><g class="relationship" transform="translate(-136.17168548257493 -158.04215836256336) rotate(353.83105375710977)"><path class="b-outline" fill="#A5ABB6" stroke="none" d="M 25 0.5 L 103.31463641483093 0.5 L 103.31463641483093 -0.5 L 25 -0.5 Z M 135.98651141483094 0.5 L 214.30114782966186 0.5 L 214.30114782966186 3.5 L 221.30114782966186 0 L 214.30114782966186 -3.5 L 214.30114782966186 -0.5 L 135.98651141483094 -0.5 Z"/><text text-anchor="middle" pointer-events="none" font-size="8px" fill="#000000" x="119.65057391483093" y="3" font-family="Helvetica Neue, Helvetica, Arial, sans-serif">FEEDS</text></g><g class="relationship" transform="translate(108.70321923488254 -184.50980770709458) rotate(365.84076227756407)"><path class="b-outline" fill="#A5ABB6" stroke="none" d="M 25 0.5 L 74.40386529971772 0.5 L 74.40386529971772 -0.5 L 25 -0.5 Z M 107.07574029971772 0.5 L 156.47960559943544 0.5 L 156.47960559943544 3.5 L 163.47960559943544 0 L 156.47960559943544 -3.5 L 156.47960559943544 -0.5 L 107.07574029971772 -0.5 Z"/><text text-anchor="middle" pointer-events="none" font-size="8px" fill="#000000" x="90.73980279971772" y="3" font-family="Helvetica Neue, Helvetica, Arial, sans-serif">FEEDS</text></g></g><g class="layer nodes"><g class="node" aria-label="graph-node0" transform="translate(321.9038604965124,107.92169557042828)"><circle class="b-outline" cx="0" cy="0" r="25" fill="#57C7E3" stroke="#23b3d7" stroke-width="2px"/><text class="caption" text-anchor="middle" pointer-events="none" x="0" y="0" font-size="10px" fill="#2A2C34" font-family="Helvetica Neue, Helvetica, Arial, sans-serif"> Model</text><text class="caption" text-anchor="middle" pointer-events="none" x="0" y="10" font-size="10px" fill="#2A2C34" font-family="Helvetica Neue, Helvetica, Arial, sans-serif"> Definit…</text></g><g class="node" aria-label="graph-node1" transform="translate(477.1613751624035,15.89046189105531)"><circle class="b-outline" cx="0" cy="0" r="25" fill="#F16667" stroke="#eb2728" stroke-width="2px"/><text class="caption" text-anchor="middle" pointer-events="none" x="0" y="5" font-size="10px" fill="#FFFFFF" font-family="Helvetica Neue, Helvetica, Arial, sans-serif"> Aggrega…</text></g><g class="node" aria-label="graph-node2" transform="translate(242.45011123197023,81.91914484745385)"><circle class="b-outline" cx="0" cy="0" r="25" fill="#F79767" stroke="#f36924" stroke-width="2px"/><text class="caption" text-anchor="middle" pointer-events="none" x="0" y="5" font-size="10px" fill="#FFFFFF" font-family="Helvetica Neue, Helvetica, Arial, sans-serif"> Model</text></g><g class="node" aria-label="graph-node3" transform="translate(208.77419992510977,166.0267758195127)"><circle class="b-outline" cx="0" cy="0" r="25" fill="#57C7E3" stroke="#23b3d7" stroke-width="2px"/><text class="caption" text-anchor="middle" pointer-events="none" x="0" y="0" font-size="10px" fill="#2A2C34" font-family="Helvetica Neue, Helvetica, Arial, sans-serif"> Run</text><text class="caption" text-anchor="middle" pointer-events="none" x="0" y="10" font-size="10px" fill="#2A2C34" font-family="Helvetica Neue, Helvetica, Arial, sans-serif"> Model</text></g><g class="node" aria-label="graph-node4" transform="translate(-57.234131328743345,186.20865597685815)"><circle class="b-outline" cx="0" cy="0" r="25" fill="#F79767" stroke="#f36924" stroke-width="2px"/><text class="caption" text-anchor="middle" pointer-events="none" x="0" y="0" font-size="10px" fill="#FFFFFF" font-family="Helvetica Neue, Helvetica, Arial, sans-serif"> Model</text><text class="caption" text-anchor="middle" pointer-events="none" x="0" y="10" font-size="10px" fill="#FFFFFF" font-family="Helvetica Neue, Helvetica, Arial, sans-serif"> Output</text></g><g class="node" aria-label="graph-node5" transform="translate(-135.8644132125263,-29.34536943311722)"><circle class="b-outline" cx="0" cy="0" r="25" fill="#57C7E3" stroke="#23b3d7" stroke-width="2px"/><text class="caption" text-anchor="middle" pointer-events="none" x="0" y="5" font-size="10px" fill="#2A2C34" font-family="Helvetica Neue, Helvetica, Arial, sans-serif"> Post-Pro…</text></g><g class="node" aria-label="graph-node6" transform="translate(-223.3256944859563,171.02070419049537)"><circle class="b-outline" cx="0" cy="0" r="25" fill="#57C7E3" stroke="#23b3d7" stroke-width="2px"/><text class="caption" text-anchor="middle" pointer-events="none" x="0" y="0" font-size="10px" fill="#2A2C34" font-family="Helvetica Neue, Helvetica, Arial, sans-serif"> Integrate</text><text class="caption" text-anchor="middle" pointer-events="none" x="0" y="10" font-size="10px" fill="#2A2C34" font-family="Helvetica Neue, Helvetica, Arial, sans-serif"> S…</text></g><g class="node" aria-label="graph-node7" transform="translate(-197.42263213637966,71.22112648641219)"><circle class="b-outline" cx="0" cy="0" r="25" fill="#57C7E3" stroke="#23b3d7" stroke-width="2px"/><text class="caption" text-anchor="middle" pointer-events="none" x="0" y="-5" font-size="10px" fill="#2A2C34" font-family="Helvetica Neue, Helvetica, Arial, sans-serif"> Human &amp;</text><text class="caption" text-anchor="middle" pointer-events="none" x="0" y="5" font-size="10px" fill="#2A2C34" font-family="Helvetica Neue, Helvetica, Arial, sans-serif"> Model</text><text class="caption" text-anchor="middle" pointer-events="none" x="0" y="15" font-size="10px" fill="#2A2C34" font-family="Helvetica Neue, Helvetica, Arial, sans-serif"> Inter</text></g><g class="node" aria-label="graph-node8" transform="translate(25.54778533927842,91.51892163976056)"><circle class="b-outline" cx="0" cy="0" r="25" fill="#F16667" stroke="#eb2728" stroke-width="2px"/><text class="caption" text-anchor="middle" pointer-events="none" x="0" y="5" font-size="10px" fill="#FFFFFF" font-family="Helvetica Neue, Helvetica, Arial, sans-serif"> Deploym…</text></g><g class="node" aria-label="graph-node299" transform="translate(-276.6001580782203,-14.75956231445781)"><circle class="b-outline" cx="0" cy="0" r="25" fill="#F79767" stroke="#f36924" stroke-width="2px"/><text class="caption" text-anchor="middle" pointer-events="none" x="0" y="5" font-size="10px" fill="#FFFFFF" font-family="Helvetica Neue, Helvetica, Arial, sans-serif"> World</text></g><g class="node" aria-label="graph-node300" transform="translate(-370.7944903827083,66.95571557312988)"><circle class="b-outline" cx="0" cy="0" r="25" fill="#57C7E3" stroke="#23b3d7" stroke-width="2px"/><text class="caption" text-anchor="middle" pointer-events="none" x="0" y="0" font-size="10px" fill="#2A2C34" font-family="Helvetica Neue, Helvetica, Arial, sans-serif"> Data</text><text class="caption" text-anchor="middle" pointer-events="none" x="0" y="10" font-size="10px" fill="#2A2C34" font-family="Helvetica Neue, Helvetica, Arial, sans-serif"> Gener…</text></g><g class="node" aria-label="graph-node301" transform="translate(-263.0241696497467,-155.58851729975487)"><circle class="b-outline" cx="0" cy="0" r="25" fill="#57C7E3" stroke="#23b3d7" stroke-width="2px"/><text class="caption" text-anchor="middle" pointer-events="none" x="0" y="5" font-size="10px" fill="#2A2C34" font-family="Helvetica Neue, Helvetica, Arial, sans-serif"> Populati…</text></g><g class="node" aria-label="graph-node302" transform="translate(-383.5297279246814,-65.61878362620757)"><circle class="b-outline" cx="0" cy="0" r="25" fill="#F16667" stroke="#eb2728" stroke-width="2px"/><text class="caption" text-anchor="middle" pointer-events="none" x="0" y="0" font-size="10px" fill="#FFFFFF" font-family="Helvetica Neue, Helvetica, Arial, sans-serif"> Historical</text><text class="caption" text-anchor="middle" pointer-events="none" x="0" y="10" font-size="10px" fill="#FFFFFF" font-family="Helvetica Neue, Helvetica, Arial, sans-serif"> Bias</text></g><g class="node" aria-label="graph-node303" transform="translate(-186.45517024941762,-224.10036459823027)"><circle class="b-outline" cx="0" cy="0" r="25" fill="#F79767" stroke="#f36924" stroke-width="2px"/><text class="caption" text-anchor="middle" pointer-events="none" x="0" y="5" font-size="10px" fill="#FFFFFF" font-family="Helvetica Neue, Helvetica, Arial, sans-serif"> Sample</text></g><g class="node" aria-label="graph-node304" transform="translate(-136.17168548257493,-158.04215836256336)"><circle class="b-outline" cx="0" cy="0" r="25" fill="#57C7E3" stroke="#23b3d7" stroke-width="2px"/><text class="caption" text-anchor="middle" pointer-events="none" x="0" y="5" font-size="10px" fill="#2A2C34" font-family="Helvetica Neue, Helvetica, Arial, sans-serif"> Measure…</text></g><g class="node" aria-label="graph-node305" transform="translate(-272.70001649781017,-273.9343531630176)"><circle class="b-outline" cx="0" cy="0" r="25" fill="#F16667" stroke="#eb2728" stroke-width="2px"/><text class="caption" text-anchor="middle" pointer-events="none" x="0" y="5" font-size="10px" fill="#FFFFFF" font-family="Helvetica Neue, Helvetica, Arial, sans-serif"> Represe…</text></g><g class="node" aria-label="graph-node306" transform="translate(-9.682680059463006,-213.87737561938167)"><circle class="b-outline" cx="0" cy="0" r="25" fill="#F79767" stroke="#f36924" stroke-width="2px"/><text class="caption" text-anchor="middle" pointer-events="none" x="0" y="5" font-size="10px" fill="#FFFFFF" font-family="Helvetica Neue, Helvetica, Arial, sans-serif"> Dataset</text></g><g class="node" aria-label="graph-node307" transform="translate(108.70321923488254,-184.50980770709458)"><circle class="b-outline" cx="0" cy="0" r="25" fill="#57C7E3" stroke="#23b3d7" stroke-width="2px"/><text class="caption" text-anchor="middle" pointer-events="none" x="0" y="5" font-size="10px" fill="#2A2C34" font-family="Helvetica Neue, Helvetica, Arial, sans-serif"> Preproc…</text></g><g class="node" aria-label="graph-node308" transform="translate(-32.020013775597434,-293.3345772065821)"><circle class="b-outline" cx="0" cy="0" r="25" fill="#F16667" stroke="#eb2728" stroke-width="2px"/><text class="caption" text-anchor="middle" pointer-events="none" x="0" y="5" font-size="10px" fill="#FFFFFF" font-family="Helvetica Neue, Helvetica, Arial, sans-serif"> Measure…</text></g><g class="node" aria-label="graph-node309" transform="translate(143.7418953635569,-63.37411579046618)"><circle class="b-outline" cx="0" cy="0" r="25" fill="#F79767" stroke="#f36924" stroke-width="2px"/><text class="caption" text-anchor="middle" pointer-events="none" x="0" y="0" font-size="10px" fill="#FFFFFF" font-family="Helvetica Neue, Helvetica, Arial, sans-serif"> Training</text><text class="caption" text-anchor="middle" pointer-events="none" x="0" y="10" font-size="10px" fill="#FFFFFF" font-family="Helvetica Neue, Helvetica, Arial, sans-serif"> Data</text></g><g class="node" aria-label="graph-node310" transform="translate(192.7485772817586,-5.130137759595598)"><circle class="b-outline" cx="0" cy="0" r="25" fill="#57C7E3" stroke="#23b3d7" stroke-width="2px"/><text class="caption" text-anchor="middle" pointer-events="none" x="0" y="0" font-size="10px" fill="#2A2C34" font-family="Helvetica Neue, Helvetica, Arial, sans-serif"> Model</text><text class="caption" text-anchor="middle" pointer-events="none" x="0" y="10" font-size="10px" fill="#2A2C34" font-family="Helvetica Neue, Helvetica, Arial, sans-serif"> Learni…</text></g><g class="node" aria-label="graph-node311" transform="translate(74.76937292561087,21.791923810737543)"><circle class="b-outline" cx="0" cy="0" r="25" fill="#F16667" stroke="#eb2728" stroke-width="2px"/><text class="caption" text-anchor="middle" pointer-events="none" x="0" y="0" font-size="10px" fill="#FFFFFF" font-family="Helvetica Neue, Helvetica, Arial, sans-serif"> Learning</text><text class="caption" text-anchor="middle" pointer-events="none" x="0" y="10" font-size="10px" fill="#FFFFFF" font-family="Helvetica Neue, Helvetica, Arial, sans-serif"> Bias</text></g><g class="node" aria-label="graph-node312" transform="translate(214.10763520970977,-108.73937549469088)"><circle class="b-outline" cx="0" cy="0" r="25" fill="#F79767" stroke="#f36924" stroke-width="2px"/><text class="caption" text-anchor="middle" pointer-events="none" x="0" y="5" font-size="10px" fill="#FFFFFF" font-family="Helvetica Neue, Helvetica, Arial, sans-serif"> Test Data</text></g><g class="node" aria-label="graph-node313" transform="translate(282.0166333741122,-9.590430224100345)"><circle class="b-outline" cx="0" cy="0" r="25" fill="#57C7E3" stroke="#23b3d7" stroke-width="2px"/><text class="caption" text-anchor="middle" pointer-events="none" x="0" y="5" font-size="10px" fill="#2A2C34" font-family="Helvetica Neue, Helvetica, Arial, sans-serif"> Evaluation</text></g><g class="node" aria-label="graph-node314" transform="translate(429.91725537647505,-54.50499164976655)"><circle class="b-outline" cx="0" cy="0" r="25" fill="#F16667" stroke="#eb2728" stroke-width="2px"/><text class="caption" text-anchor="middle" pointer-events="none" x="0" y="5" font-size="10px" fill="#FFFFFF" font-family="Helvetica Neue, Helvetica, Arial, sans-serif">Bi…</text></g><g class="node" aria-label="graph-node315" transform="translate(296.2043446431816,-165.32935678590837)"><circle class="b-outline" cx="0" cy="0" r="25" fill="#F79767" stroke="#f36924" stroke-width="2px"/><text class="caption" text-anchor="middle" pointer-events="none" x="0" y="5" font-size="10px" fill="#FFFFFF" font-family="Helvetica Neue, Helvetica, Arial, sans-serif"> Benchm…</text></g></g></svg>