<svg xmlns="http://www.w3.org/2000/svg" width="471.92803955078125" height="603.159423828125" viewBox="-189.6964569091797 -516.2841796875 471.92803955078125 603.159423828125"><title>Neo4j Graph Visualization</title><desc>Created using Neo4j (http://www.neo4j.com/)</desc><g class="layer relationships"><g class="relationship" transform="translate(51.89578309688203 -487.2842086582019) rotate(450.4724234996836)"><path class="b-outline" fill="#A5ABB6" stroke="none" d="M 25 0.5 L 25.785458026631083 0.5 L 25.785458026631083 -0.5 L 25 -0.5 Z M 72.98858302663109 0.5 L 73.77404105326217 0.5 L 73.77404105326217 3.5 L 80.77404105326217 0 L 73.77404105326217 -3.5 L 73.77404105326217 -0.5 L 72.98858302663109 -0.5 Z"/><text text-anchor="middle" pointer-events="none" font-size="8px" fill="#000000" x="49.38702052663108" y="3" transform="rotate(180 49.38702052663108 0)" font-family="Helvetica Neue, Helvetica, Arial, sans-serif">IS_PARE…</text></g><g class="relationship" transform="translate(51.02364946213164 -381.5137631468951) rotate(451.5880050095665)"><path class="b-outline" fill="#A5ABB6" stroke="none" d="M 25 0.5 L 68.64479554976165 0.5 L 68.64479554976165 -0.5 L 25 -0.5 Z M 134.07057679976165 0.5 L 177.7153723495233 0.5 L 177.7153723495233 3.5 L 184.7153723495233 0 L 177.7153723495233 -3.5 L 177.7153723495233 -0.5 L 134.07057679976165 -0.5 Z"/><text text-anchor="middle" pointer-events="none" font-size="8px" fill="#000000" x="101.35768617476165" y="3" transform="rotate(180 101.35768617476165 0)" font-family="Helvetica Neue, Helvetica, Arial, sans-serif">IS_PARENT_OF</text></g><g class="relationship" transform="translate(45.2119399597046 -171.87893437944385) rotate(332.7128007756162)"><path class="b-outline" fill="#A5ABB6" stroke="none" d="M 25 0.5 L 31.16708428473919 0.5 L 31.16708428473919 -0.5 L 25 -0.5 Z M 96.59286553473919 0.5 L 102.75994981947838 0.5 L 102.75994981947838 3.5 L 109.75994981947838 0 L 102.75994981947838 -3.5 L 102.75994981947838 -0.5 L 96.59286553473919 -0.5 Z"/><text text-anchor="middle" pointer-events="none" font-size="8px" fill="#000000" x="63.87997490973919" y="3" font-family="Helvetica Neue, Helvetica, Arial, sans-serif">IS_PARENT_OF</text></g><g class="relationship" transform="translate(45.2119399597046 -171.87893437944385) rotate(310.16427414800535)"><path class="b-outline" fill="#A5ABB6" stroke="none" d="M 25 0.5 L 67.56575080246577 0.5 L 67.56575080246577 -0.5 L 25 -0.5 Z M 132.99153205246577 0.5 L 175.55728285493154 0.5 L 175.55728285493154 3.5 L 182.55728285493154 0 L 175.55728285493154 -3.5 L 175.55728285493154 -0.5 L 132.99153205246577 -0.5 Z"/><text text-anchor="middle" pointer-events="none" font-size="8px" fill="#000000" x="100.27864142746577" y="3" font-family="Helvetica Neue, Helvetica, Arial, sans-serif">IS_PARENT_OF</text></g><g class="relationship" transform="translate(45.2119399597046 -171.87893437944385) rotate(440.1007750685972)"><path class="b-outline" fill="#A5ABB6" stroke="none" d="M 25 0.5 L 71.17748453613508 0.5 L 71.17748453613508 -0.5 L 25 -0.5 Z M 136.60326578613507 0.5 L 182.78075032227017 0.5 L 182.78075032227017 3.5 L 189.78075032227017 0 L 182.78075032227017 -3.5 L 182.78075032227017 -0.5 L 136.60326578613507 -0.5 Z"/><text text-anchor="middle" pointer-events="none" font-size="8px" fill="#000000" x="103.89037516113508" y="3" font-family="Helvetica Neue, Helvetica, Arial, sans-serif">IS_PARENT_OF</text></g><g class="relationship" transform="translate(45.2119399597046 -171.87893437944385) rotate(289.61019967484117)"><path class="b-outline" fill="#A5ABB6" stroke="none" d="M 25 0.5 L 30.602425227764755 0.5 L 30.602425227764755 -0.5 L 25 -0.5 Z M 96.02820647776475 0.5 L 101.63063170552951 0.5 L 101.63063170552951 3.5 L 108.63063170552951 0 L 101.63063170552951 -3.5 L 101.63063170552951 -0.5 L 96.02820647776475 -0.5 Z"/><text text-anchor="middle" pointer-events="none" font-size="8px" fill="#000000" x="63.315315852764755" y="3" font-family="Helvetica Neue, Helvetica, Arial, sans-serif">IS_PARENT_OF</text></g><g class="relationship" transform="translate(45.2119399597046 -171.87893437944385) rotate(335.245303827847)"><path class="b-outline" fill="#A5ABB6" stroke="none" d="M 25 0.5 L 78.32164089857216 0.5 L 78.32164089857216 -0.5 L 25 -0.5 Z M 143.74742214857216 0.5 L 197.0690630471443 0.5 L 197.0690630471443 3.5 L 204.0690630471443 0 L 197.0690630471443 -3.5 L 197.0690630471443 -0.5 L 143.74742214857216 -0.5 Z"/><text text-anchor="middle" pointer-events="none" font-size="8px" fill="#000000" x="111.03453152357216" y="3" font-family="Helvetica Neue, Helvetica, Arial, sans-serif">IS_PARENT_OF</text></g><g class="relationship" transform="translate(45.2119399597046 -171.87893437944385) rotate(360.0894778553574)"><path class="b-outline" fill="#A5ABB6" stroke="none" d="M 25 0.5 L 62.22384911312436 0.5 L 62.22384911312436 -0.5 L 25 -0.5 Z M 127.64963036312436 0.5 L 164.87347947624872 0.5 L 164.87347947624872 3.5 L 171.87347947624872 0 L 164.87347947624872 -3.5 L 164.87347947624872 -0.5 L 127.64963036312436 -0.5 Z"/><text text-anchor="middle" pointer-events="none" font-size="8px" fill="#000000" x="94.93673973812436" y="3" font-family="Helvetica Neue, Helvetica, Arial, sans-serif">IS_PARENT_OF</text></g><g class="relationship" transform="translate(45.2119399597046 -171.87893437944385) rotate(248.75127234668366)"><path class="b-outline" fill="#A5ABB6" stroke="none" d="M 25 0.5 L 33.54125369871447 0.5 L 33.54125369871447 -0.5 L 25 -0.5 Z M 98.96703494871447 0.5 L 107.50828864742894 0.5 L 107.50828864742894 3.5 L 114.50828864742894 0 L 107.50828864742894 -3.5 L 107.50828864742894 -0.5 L 98.96703494871447 -0.5 Z"/><text text-anchor="middle" pointer-events="none" font-size="8px" fill="#000000" x="66.25414432371447" y="3" transform="rotate(180 66.25414432371447 0)" font-family="Helvetica Neue, Helvetica, Arial, sans-serif">IS_PARENT_OF</text></g><g class="relationship" transform="translate(45.2119399597046 -171.87893437944385) rotate(536.4219196762213)"><path class="b-outline" fill="#A5ABB6" stroke="none" d="M 25 0.5 L 57.34813948116647 0.5 L 57.34813948116647 -0.5 L 25 -0.5 Z M 122.77392073116647 0.5 L 155.12206021233294 0.5 L 155.12206021233294 3.5 L 162.12206021233294 0 L 155.12206021233294 -3.5 L 155.12206021233294 -0.5 L 122.77392073116647 -0.5 Z"/><text text-anchor="middle" pointer-events="none" font-size="8px" fill="#000000" x="90.06103010616647" y="3" transform="rotate(180 90.06103010616647 0)" font-family="Helvetica Neue, Helvetica, Arial, sans-serif">IS_PARENT_OF</text></g><g class="relationship" transform="translate(45.2119399597046 -171.87893437944385) rotate(227.75070301856766)"><path class="b-outline" fill="#A5ABB6" stroke="none" d="M 25 0.5 L 70.61781195995422 0.5 L 70.61781195995422 -0.5 L 25 -0.5 Z M 136.04359320995422 0.5 L 181.66140516990845 0.5 L 181.66140516990845 3.5 L 188.66140516990845 0 L 181.66140516990845 -3.5 L 181.66140516990845 -0.5 L 136.04359320995422 -0.5 Z"/><text text-anchor="middle" pointer-events="none" font-size="8px" fill="#000000" x="103.33070258495422" y="3" transform="rotate(180 103.33070258495422 0)" font-family="Helvetica Neue, Helvetica, Arial, sans-serif">IS_PARENT_OF</text></g><g class="relationship" transform="translate(45.2119399597046 -171.87893437944385) rotate(205.23950802417238)"><path class="b-outline" fill="#A5ABB6" stroke="none" d="M 25 0.5 L 26.82337552055686 0.5 L 26.82337552055686 -0.5 L 25 -0.5 Z M 92.24915677055685 0.5 L 94.07253229111372 0.5 L 94.07253229111372 3.5 L 101.07253229111372 0 L 94.07253229111372 -3.5 L 94.07253229111372 -0.5 L 92.24915677055685 -0.5 Z"/><text text-anchor="middle" pointer-events="none" font-size="8px" fill="#000000" x="59.53626614555686" y="3" transform="rotate(180 59.53626614555686 0)" font-family="Helvetica Neue, Helvetica, Arial, sans-serif">IS_PARENT_OF</text></g><g class="relationship" transform="translate(45.2119399597046 -171.87893437944385) rotate(201.5846231563704)"><path class="b-outline" fill="#A5ABB6" stroke="none" d="M 25 0.5 L 74.50539822898364 0.5 L 74.50539822898364 -0.5 L 25 -0.5 Z M 139.93117947898364 0.5 L 189.43657770796727 0.5 L 189.43657770796727 3.5 L 196.43657770796727 0 L 189.43657770796727 -3.5 L 189.43657770796727 -0.5 L 139.93117947898364 -0.5 Z"/><text text-anchor="middle" pointer-events="none" font-size="8px" fill="#000000" x="107.21828885398364" y="3" transform="rotate(180 107.21828885398364 0)" font-family="Helvetica Neue, Helvetica, Arial, sans-serif">IS_PARENT_OF</text></g><g class="relationship" transform="translate(45.2119399597046 -171.87893437944385) rotate(464.10048106923136)"><path class="b-outline" fill="#A5ABB6" stroke="none" d="M 25 0.5 L 33.78869379755048 0.5 L 33.78869379755048 -0.5 L 25 -0.5 Z M 99.21447504755048 0.5 L 108.00316884510096 0.5 L 108.00316884510096 3.5 L 115.00316884510096 0 L 108.00316884510096 -3.5 L 108.00316884510096 -0.5 L 99.21447504755048 -0.5 Z"/><text text-anchor="middle" pointer-events="none" font-size="8px" fill="#000000" x="66.50158442255048" y="3" transform="rotate(180 66.50158442255048 0)" font-family="Helvetica Neue, Helvetica, Arial, sans-serif">IS_PARENT_OF</text></g><g class="relationship" transform="translate(45.2119399597046 -171.87893437944385) rotate(507.4924132958092)"><path class="b-outline" fill="#A5ABB6" stroke="none" d="M 25 0.5 L 27.90450777151341 0.5 L 27.90450777151341 -0.5 L 25 -0.5 Z M 93.33028902151341 0.5 L 96.23479679302682 0.5 L 96.23479679302682 3.5 L 103.23479679302682 0 L 96.23479679302682 -3.5 L 96.23479679302682 -0.5 L 93.33028902151341 -0.5 Z"/><text text-anchor="middle" pointer-events="none" font-size="8px" fill="#000000" x="60.61739839651341" y="3" transform="rotate(180 60.61739839651341 0)" font-family="Helvetica Neue, Helvetica, Arial, sans-serif">IS_PARENT_OF</text></g><g class="relationship" transform="translate(45.2119399597046 -171.87893437944385) rotate(487.61494368354926)"><path class="b-outline" fill="#A5ABB6" stroke="none" d="M 25 0.5 L 67.42839984053386 0.5 L 67.42839984053386 -0.5 L 25 -0.5 Z M 132.85418109053387 0.5 L 175.2825809310677 0.5 L 175.2825809310677 3.5 L 182.2825809310677 0 L 175.2825809310677 -3.5 L 175.2825809310677 -0.5 L 132.85418109053387 -0.5 Z"/><text text-anchor="middle" pointer-events="none" font-size="8px" fill="#000000" x="100.14129046553386" y="3" transform="rotate(180 100.14129046553386 0)" font-family="Helvetica Neue, Helvetica, Arial, sans-serif">IS_PARENT_OF</text></g><g class="relationship" transform="translate(45.2119399597046 -171.87893437944385) rotate(463.8831273367156)"><path class="b-outline" fill="#A5ABB6" stroke="none" d="M 25 0.5 L 82.12106049536423 0.5 L 82.12106049536423 -0.5 L 25 -0.5 Z M 147.54684174536425 0.5 L 204.66790224072847 0.5 L 204.66790224072847 3.5 L 211.66790224072847 0 L 204.66790224072847 -3.5 L 204.66790224072847 -0.5 L 147.54684174536425 -0.5 Z"/><text text-anchor="middle" pointer-events="none" font-size="8px" fill="#000000" x="114.83395112036423" y="3" transform="rotate(180 114.83395112036423 0)" font-family="Helvetica Neue, Helvetica, Arial, sans-serif">IS_PARENT_OF</text></g><g class="relationship" transform="translate(45.2119399597046 -171.87893437944385) rotate(512.6333773357704)"><path class="b-outline" fill="#A5ABB6" stroke="none" d="M 25 0.5 L 77.50733988348843 0.5 L 77.50733988348843 -0.5 L 25 -0.5 Z M 142.93312113348844 0.5 L 195.44046101697685 0.5 L 195.44046101697685 3.5 L 202.44046101697685 0 L 195.44046101697685 -3.5 L 195.44046101697685 -0.5 L 142.93312113348844 -0.5 Z"/><text text-anchor="middle" pointer-events="none" font-size="8px" fill="#000000" x="110.22023050848843" y="3" transform="rotate(180 110.22023050848843 0)" font-family="Helvetica Neue, Helvetica, Arial, sans-serif">IS_PARENT_OF</text></g><g class="relationship" transform="translate(45.2119399597046 -171.87893437944385) rotate(388.79175476036096)"><path class="b-outline" fill="#A5ABB6" stroke="none" d="M 25 0.5 L 64.89208928043521 0.5 L 64.89208928043521 -0.5 L 25 -0.5 Z M 130.31787053043521 0.5 L 170.20995981087043 0.5 L 170.20995981087043 3.5 L 177.20995981087043 0 L 170.20995981087043 -3.5 L 170.20995981087043 -0.5 L 130.31787053043521 -0.5 Z"/><text text-anchor="middle" pointer-events="none" font-size="8px" fill="#000000" x="97.60497990543521" y="3" font-family="Helvetica Neue, Helvetica, Arial, sans-serif">IS_PARENT_OF</text></g><g class="relationship" transform="translate(45.2119399597046 -171.87893437944385) rotate(376.31713932930325)"><path class="b-outline" fill="#A5ABB6" stroke="none" d="M 25 0.5 L 25.486350240452587 0.5 L 25.486350240452587 -0.5 L 25 -0.5 Z M 78.4668189904526 0.5 L 78.95316923090517 0.5 L 78.95316923090517 3.5 L 85.95316923090517 0 L 78.95316923090517 -3.5 L 78.95316923090517 -0.5 L 78.4668189904526 -0.5 Z"/><text text-anchor="middle" pointer-events="none" font-size="8px" fill="#000000" x="51.97658461545259" y="3" font-family="Helvetica Neue, Helvetica, Arial, sans-serif">IS_PAREN…</text></g><g class="relationship" transform="translate(45.2119399597046 -171.87893437944385) rotate(423.5384901439539)"><path class="b-outline" fill="#A5ABB6" stroke="none" d="M 25 0.5 L 30.438868612742468 0.5 L 30.438868612742468 -0.5 L 25 -0.5 Z M 95.86464986274247 0.5 L 101.30351847548494 0.5 L 101.30351847548494 3.5 L 108.30351847548494 0 L 101.30351847548494 -3.5 L 101.30351847548494 -0.5 L 95.86464986274247 -0.5 Z"/><text text-anchor="middle" pointer-events="none" font-size="8px" fill="#000000" x="63.15175923774247" y="3" font-family="Helvetica Neue, Helvetica, Arial, sans-serif">IS_PARENT_OF</text></g><g class="relationship" transform="translate(45.2119399597046 -171.87893437944385) rotate(414.66761505077255)"><path class="b-outline" fill="#A5ABB6" stroke="none" d="M 25 0.5 L 76.61308081124575 0.5 L 76.61308081124575 -0.5 L 25 -0.5 Z M 142.03886206124577 0.5 L 193.6519428724915 0.5 L 193.6519428724915 3.5 L 200.6519428724915 0 L 193.6519428724915 -3.5 L 193.6519428724915 -0.5 L 142.03886206124577 -0.5 Z"/><text text-anchor="middle" pointer-events="none" font-size="8px" fill="#000000" x="109.32597143624575" y="3" font-family="Helvetica Neue, Helvetica, Arial, sans-serif">IS_PARENT_OF</text></g></g><g class="layer nodes"><g class="node" aria-label="graph-node230" transform="translate(51.89578309688203,-487.2842086582019)"><circle class="b-outline" cx="0" cy="0" r="25" fill="#C990C0" stroke="#b261a5" stroke-width="2px"/><text class="caption" text-anchor="middle" pointer-events="none" x="0" y="0" font-size="10px" fill="#FFFFFF" font-family="Helvetica Neue, Helvetica, Arial, sans-serif"> OpenAI,</text><text class="caption" text-anchor="middle" pointer-events="none" x="0" y="10" font-size="10px" fill="#FFFFFF" font-family="Helvetica Neue, Helvetica, Arial, sans-serif"> Inc.</text></g><g class="node" aria-label="graph-node231" transform="translate(51.02364946213164,-381.5137631468951)"><circle class="b-outline" cx="0" cy="0" r="25" fill="#C990C0" stroke="#b261a5" stroke-width="2px"/><text class="caption" text-anchor="middle" pointer-events="none" x="0" y="-5" font-size="10px" fill="#FFFFFF" font-family="Helvetica Neue, Helvetica, Arial, sans-serif"> OpenAI</text><text class="caption" text-anchor="middle" pointer-events="none" x="0" y="5" font-size="10px" fill="#FFFFFF" font-family="Helvetica Neue, Helvetica, Arial, sans-serif"> Global,</text><text class="caption" text-anchor="middle" pointer-events="none" x="0" y="15" font-size="10px" fill="#FFFFFF" font-family="Helvetica Neue, Helvetica, Arial, sans-serif"> LLC.</text></g><g class="node" aria-label="graph-node232" transform="translate(45.2119399597046,-171.87893437944385)"><circle class="b-outline" cx="0" cy="0" r="25" fill="#C990C0" stroke="#b261a5" stroke-width="2px"/><text class="caption" text-anchor="middle" pointer-events="none" x="0" y="-5" font-size="10px" fill="#FFFFFF" font-family="Helvetica Neue, Helvetica, Arial, sans-serif"> OpenAI</text><text class="caption" text-anchor="middle" pointer-events="none" x="0" y="5" font-size="10px" fill="#FFFFFF" font-family="Helvetica Neue, Helvetica, Arial, sans-serif"> Web</text><text class="caption" text-anchor="middle" pointer-events="none" x="0" y="15" font-size="10px" fill="#FFFFFF" font-family="Helvetica Neue, Helvetica, Arial, sans-serif"> Ser…</text></g><g class="node" aria-label="graph-node233" transform="translate(164.97575943730095,-233.65976975325574)"><circle class="b-outline" cx="0" cy="0" r="25" fill="#C990C0" stroke="#b261a5" stroke-width="2px"/><text class="caption" text-anchor="middle" pointer-events="none" x="0" y="5" font-size="10px" fill="#FFFFFF" font-family="Helvetica Neue, Helvetica, Arial, sans-serif"> Manufac…</text></g><g class="node" aria-label="graph-node234" transform="translate(179.08250808935466,-330.49386638386386)"><circle class="b-outline" cx="0" cy="0" r="25" fill="#C990C0" stroke="#b261a5" stroke-width="2px"/><text class="caption" text-anchor="middle" pointer-events="none" x="0" y="5" font-size="10px" fill="#FFFFFF" font-family="Helvetica Neue, Helvetica, Arial, sans-serif"> Energy</text></g><g class="node" aria-label="graph-node235" transform="translate(82.13613893425017,39.70408535296644)"><circle class="b-outline" cx="0" cy="0" r="25" fill="#C990C0" stroke="#b261a5" stroke-width="2px"/><text class="caption" text-anchor="middle" pointer-events="none" x="0" y="-5" font-size="10px" fill="#FFFFFF" font-family="Helvetica Neue, Helvetica, Arial, sans-serif"> Mining</text><text class="caption" text-anchor="middle" pointer-events="none" x="0" y="5" font-size="10px" fill="#FFFFFF" font-family="Helvetica Neue, Helvetica, Arial, sans-serif"> and</text><text class="caption" text-anchor="middle" pointer-events="none" x="0" y="15" font-size="10px" fill="#FFFFFF" font-family="Helvetica Neue, Helvetica, Arial, sans-serif"> Extr…</text></g><g class="node" aria-label="graph-node236" transform="translate(90.06095469250113,-297.7586849651368)"><circle class="b-outline" cx="0" cy="0" r="25" fill="#C990C0" stroke="#b261a5" stroke-width="2px"/><text class="caption" text-anchor="middle" pointer-events="none" x="0" y="0" font-size="10px" fill="#FFFFFF" font-family="Helvetica Neue, Helvetica, Arial, sans-serif"> Financial</text><text class="caption" text-anchor="middle" pointer-events="none" x="0" y="10" font-size="10px" fill="#FFFFFF" font-family="Helvetica Neue, Helvetica, Arial, sans-serif"> Servic…</text></g><g class="node" aria-label="graph-node237" transform="translate(253.23158472269648,-267.79797856763014)"><circle class="b-outline" cx="0" cy="0" r="25" fill="#C990C0" stroke="#b261a5" stroke-width="2px"/><text class="caption" text-anchor="middle" pointer-events="none" x="0" y="5" font-size="10px" fill="#FFFFFF" font-family="Helvetica Neue, Helvetica, Arial, sans-serif"> Healthca…</text></g><g class="node" aria-label="graph-node238" transform="translate(242.08517936312964,-171.57148050221954)"><circle class="b-outline" cx="0" cy="0" r="25" fill="#C990C0" stroke="#b261a5" stroke-width="2px"/><text class="caption" text-anchor="middle" pointer-events="none" x="0" y="5" font-size="10px" fill="#FFFFFF" font-family="Helvetica Neue, Helvetica, Arial, sans-serif"> Education</text></g><g class="node" aria-label="graph-node239" transform="translate(-5.348283119648862,-301.9028800336977)"><circle class="b-outline" cx="0" cy="0" r="25" fill="#C990C0" stroke="#b261a5" stroke-width="2px"/><text class="caption" text-anchor="middle" pointer-events="none" x="0" y="0" font-size="10px" fill="#FFFFFF" font-family="Helvetica Neue, Helvetica, Arial, sans-serif"> Real</text><text class="caption" text-anchor="middle" pointer-events="none" x="0" y="10" font-size="10px" fill="#FFFFFF" font-family="Helvetica Neue, Helvetica, Arial, sans-serif"> Estate</text></g><g class="node" aria-label="graph-node240" transform="translate(-141.545358953106,-160.20088998412413)"><circle class="b-outline" cx="0" cy="0" r="25" fill="#C990C0" stroke="#b261a5" stroke-width="2px"/><text class="caption" text-anchor="middle" pointer-events="none" x="0" y="5" font-size="10px" fill="#FFFFFF" font-family="Helvetica Neue, Helvetica, Arial, sans-serif"> Informati…</text></g><g class="node" aria-label="graph-node241" transform="translate(-98.44495632268837,-330.0367423109196)"><circle class="b-outline" cx="0" cy="0" r="25" fill="#C990C0" stroke="#b261a5" stroke-width="2px"/><text class="caption" text-anchor="middle" pointer-events="none" x="0" y="5" font-size="10px" fill="#FFFFFF" font-family="Helvetica Neue, Helvetica, Arial, sans-serif"> Biotechn…</text></g><g class="node" aria-label="graph-node242" transform="translate(-68.8248565713993,-225.63665415267752)"><circle class="b-outline" cx="0" cy="0" r="25" fill="#C990C0" stroke="#b261a5" stroke-width="2px"/><text class="caption" text-anchor="middle" pointer-events="none" x="0" y="5" font-size="10px" fill="#FFFFFF" font-family="Helvetica Neue, Helvetica, Arial, sans-serif"> Telecom…</text></g><g class="node" aria-label="graph-node243" transform="translate(-160.69645274143062,-253.33991744650302)"><circle class="b-outline" cx="0" cy="0" r="25" fill="#C990C0" stroke="#b261a5" stroke-width="2px"/><text class="caption" text-anchor="middle" pointer-events="none" x="0" y="0" font-size="10px" fill="#FFFFFF" font-family="Helvetica Neue, Helvetica, Arial, sans-serif"> Consumer</text><text class="caption" text-anchor="middle" pointer-events="none" x="0" y="10" font-size="10px" fill="#FFFFFF" font-family="Helvetica Neue, Helvetica, Arial, sans-serif">an…</text></g><g class="node" aria-label="graph-node244" transform="translate(11.103926247599055,-36.09406523974676)"><circle class="b-outline" cx="0" cy="0" r="25" fill="#C990C0" stroke="#b261a5" stroke-width="2px"/><text class="caption" text-anchor="middle" pointer-events="none" x="0" y="5" font-size="10px" fill="#FFFFFF" font-family="Helvetica Neue, Helvetica, Arial, sans-serif"> Transpor…</text></g><g class="node" aria-label="graph-node245" transform="translate(-62.931066442513995,-102.96410814561668)"><circle class="b-outline" cx="0" cy="0" r="25" fill="#C990C0" stroke="#b261a5" stroke-width="2px"/><text class="caption" text-anchor="middle" pointer-events="none" x="0" y="-5" font-size="10px" fill="#FFFFFF" font-family="Helvetica Neue, Helvetica, Arial, sans-serif"> Media</text><text class="caption" text-anchor="middle" pointer-events="none" x="0" y="5" font-size="10px" fill="#FFFFFF" font-family="Helvetica Neue, Helvetica, Arial, sans-serif"> and</text><text class="caption" text-anchor="middle" pointer-events="none" x="0" y="15" font-size="10px" fill="#FFFFFF" font-family="Helvetica Neue, Helvetica, Arial, sans-serif"> Co…</text></g><g class="node" aria-label="graph-node246" transform="translate(-81.30335338196484,-7.684083948268724)"><circle class="b-outline" cx="0" cy="0" r="25" fill="#C990C0" stroke="#b261a5" stroke-width="2px"/><text class="caption" text-anchor="middle" pointer-events="none" x="0" y="5" font-size="10px" fill="#FFFFFF" font-family="Helvetica Neue, Helvetica, Arial, sans-serif"> Infrastru…</text></g><g class="node" aria-label="graph-node247" transform="translate(-11.574670558680593,57.8752316695317)"><circle class="b-outline" cx="0" cy="0" r="25" fill="#C990C0" stroke="#b261a5" stroke-width="2px"/><text class="caption" text-anchor="middle" pointer-events="none" x="0" y="0" font-size="10px" fill="#FFFFFF" font-family="Helvetica Neue, Helvetica, Arial, sans-serif"> Financial</text><text class="caption" text-anchor="middle" pointer-events="none" x="0" y="10" font-size="10px" fill="#FFFFFF" font-family="Helvetica Neue, Helvetica, Arial, sans-serif"> Markets</text></g><g class="node" aria-label="graph-node248" transform="translate(-156.77414005536926,-67.3285312823771)"><circle class="b-outline" cx="0" cy="0" r="25" fill="#C990C0" stroke="#b261a5" stroke-width="2px"/><text class="caption" text-anchor="middle" pointer-events="none" x="0" y="0" font-size="10px" fill="#FFFFFF" font-family="Helvetica Neue, Helvetica, Arial, sans-serif"> Business</text><text class="caption" text-anchor="middle" pointer-events="none" x="0" y="10" font-size="10px" fill="#FFFFFF" font-family="Helvetica Neue, Helvetica, Arial, sans-serif"> Servic…</text></g><g class="node" aria-label="graph-node249" transform="translate(222.42389539422103,-74.48904425840098)"><circle class="b-outline" cx="0" cy="0" r="25" fill="#C990C0" stroke="#b261a5" stroke-width="2px"/><text class="caption" text-anchor="middle" pointer-events="none" x="0" y="-5" font-size="10px" fill="#FFFFFF" font-family="Helvetica Neue, Helvetica, Arial, sans-serif"> Research</text><text class="caption" text-anchor="middle" pointer-events="none" x="0" y="5" font-size="10px" fill="#FFFFFF" font-family="Helvetica Neue, Helvetica, Arial, sans-serif"> and</text><text class="caption" text-anchor="middle" pointer-events="none" x="0" y="15" font-size="10px" fill="#FFFFFF" font-family="Helvetica Neue, Helvetica, Arial, sans-serif"> Dev…</text></g><g class="node" aria-label="graph-node250" transform="translate(151.69605877802738,-140.70621871546615)"><circle class="b-outline" cx="0" cy="0" r="25" fill="#C990C0" stroke="#b261a5" stroke-width="2px"/><text class="caption" text-anchor="middle" pointer-events="none" x="0" y="5" font-size="10px" fill="#FFFFFF" font-family="Helvetica Neue, Helvetica, Arial, sans-serif"> Govern…</text></g><g class="node" aria-label="graph-node251" transform="translate(104.61152305619301,-52.541104811836384)"><circle class="b-outline" cx="0" cy="0" r="25" fill="#C990C0" stroke="#b261a5" stroke-width="2px"/><text class="caption" text-anchor="middle" pointer-events="none" x="0" y="5" font-size="10px" fill="#FFFFFF" font-family="Helvetica Neue, Helvetica, Arial, sans-serif"> Intellige…</text></g><g class="node" aria-label="graph-node252" transform="translate(175.7107081354824,12.21036684888604)"><circle class="b-outline" cx="0" cy="0" r="25" fill="#C990C0" stroke="#b261a5" stroke-width="2px"/><text class="caption" text-anchor="middle" pointer-events="none" x="0" y="5" font-size="10px" fill="#FFFFFF" font-family="Helvetica Neue, Helvetica, Arial, sans-serif"> Military</text></g></g></svg>