<svg xmlns="http://www.w3.org/2000/svg" width="1214.858154296875" height="1025.0181884765625" viewBox="-685.104736328125 -531.3928833007812 1214.858154296875 1025.0181884765625"><title>Neo4j Graph Visualization</title><desc>Created using Neo4j (http://www.neo4j.com/)</desc><g class="layer relationships"><g class="relationship" transform="translate(14.355255900162245 426.604560454661) rotate(277.46918730044683)"><path class="b-outline" fill="#A5ABB6" stroke="none" d="M 25 0.5 L 44.25479804966068 0.5 L 44.25479804966068 -0.5 L 25 -0.5 Z M 109.68057929966068 0.5 L 128.93537734932136 0.5 L 128.93537734932136 3.5 L 135.93537734932136 0 L 128.93537734932136 -3.5 L 128.93537734932136 -0.5 L 109.68057929966068 -0.5 Z"/><text text-anchor="middle" pointer-events="none" font-size="8px" fill="#000000" x="76.96768867466068" y="3" font-family="Helvetica Neue, Helvetica, Arial, sans-serif">IS_PARENT_OF</text></g><g class="relationship" transform="translate(35.2757269789808 267.0347338193952) rotate(334.73721391165645)"><path class="b-outline" fill="#A5ABB6" stroke="none" d="M 25 0.5 L 104.00126016311597 0.5 L 104.00126016311597 -0.5 L 25 -0.5 Z M 169.42704141311597 0.5 L 248.42830157623195 0.5 L 248.42830157623195 3.5 L 255.42830157623195 0 L 248.42830157623195 -3.5 L 248.42830157623195 -0.5 L 169.42704141311597 -0.5 Z"/><text text-anchor="middle" pointer-events="none" font-size="8px" fill="#000000" x="136.71415078811597" y="3" font-family="Helvetica Neue, Helvetica, Arial, sans-serif">IS_PARENT_OF</text></g><g class="relationship" transform="translate(288.88384620053586 147.3561885832686) rotate(532.5481587565621)"><path class="b-outline" fill="#A5ABB6" stroke="none" d="M 25 0.5 L 42.52311840096962 0.5 L 42.52311840096962 -0.5 L 25 -0.5 Z M 107.94889965096962 0.5 L 125.47201805193924 0.5 L 125.47201805193924 3.5 L 132.47201805193924 0 L 125.47201805193924 -3.5 L 125.47201805193924 -0.5 L 107.94889965096962 -0.5 Z"/><text text-anchor="middle" pointer-events="none" font-size="8px" fill="#000000" x="75.23600902596962" y="3" transform="rotate(180 75.23600902596962 0)" font-family="Helvetica Neue, Helvetica, Arial, sans-serif">IS_PARENT_OF</text></g><g class="relationship" transform="translate(288.88384620053586 147.3561885832686) rotate(231.8709466560083)"><path class="b-outline" fill="#A5ABB6" stroke="none" d="M 25 0.5 L 57.21186837611636 0.5 L 57.21186837611636 -0.5 L 25 -0.5 Z M 122.63764962611636 0.5 L 154.8495180022327 0.5 L 154.8495180022327 3.5 L 161.8495180022327 0 L 154.8495180022327 -3.5 L 154.8495180022327 -0.5 L 122.63764962611636 -0.5 Z"/><text text-anchor="middle" pointer-events="none" font-size="8px" fill="#000000" x="89.92475900111636" y="3" transform="rotate(180 89.92475900111636 0)" font-family="Helvetica Neue, Helvetica, Arial, sans-serif">IS_PARENT_OF</text></g><g class="relationship" transform="translate(288.88384620053586 147.3561885832686) rotate(502.63725153742143)"><path class="b-outline" fill="#A5ABB6" stroke="none" d="M 25 0.5 L 61.907400572199194 0.5 L 61.907400572199194 -0.5 L 25 -0.5 Z M 127.3331818221992 0.5 L 164.2405823943984 0.5 L 164.2405823943984 3.5 L 171.2405823943984 0 L 164.2405823943984 -3.5 L 164.2405823943984 -0.5 L 127.3331818221992 -0.5 Z"/><text text-anchor="middle" pointer-events="none" font-size="8px" fill="#000000" x="94.6202911971992" y="3" transform="rotate(180 94.6202911971992 0)" font-family="Helvetica Neue, Helvetica, Arial, sans-serif">IS_PARENT_OF</text></g><g class="relationship" transform="translate(288.88384620053586 147.3561885832686) rotate(494.95181001242787)"><path class="b-outline" fill="#A5ABB6" stroke="none" d="M 25 0.5 L 26.639986794224214 0.5 L 26.639986794224214 -0.5 L 25 -0.5 Z M 68.50717429422421 0.5 L 70.14716108844843 0.5 L 70.14716108844843 3.5 L 77.14716108844843 0 L 70.14716108844843 -3.5 L 70.14716108844843 -0.5 L 68.50717429422421 -0.5 Z"/><text text-anchor="middle" pointer-events="none" font-size="8px" fill="#000000" x="47.573580544224214" y="3" transform="rotate(180 47.573580544224214 0)" font-family="Helvetica Neue, Helvetica, Arial, sans-serif">IS_PAR…</text></g><g class="relationship" transform="translate(288.88384620053586 147.3561885832686) rotate(202.19433297036312)"><path class="b-outline" fill="#A5ABB6" stroke="none" d="M 25 0.5 L 62.24796311430134 0.5 L 62.24796311430134 -0.5 L 25 -0.5 Z M 127.67374436430134 0.5 L 164.92170747860268 0.5 L 164.92170747860268 3.5 L 171.92170747860268 0 L 164.92170747860268 -3.5 L 164.92170747860268 -0.5 L 127.67374436430134 -0.5 Z"/><text text-anchor="middle" pointer-events="none" font-size="8px" fill="#000000" x="94.96085373930134" y="3" transform="rotate(180 94.96085373930134 0)" font-family="Helvetica Neue, Helvetica, Arial, sans-serif">IS_PARENT_OF</text></g><g class="relationship" transform="translate(288.88384620053586 147.3561885832686) rotate(444.1568412748236)"><path class="b-outline" fill="#A5ABB6" stroke="none" d="M 25 0.5 L 25.63545347477786 0.5 L 25.63545347477786 -0.5 L 25 -0.5 Z M 91.06123472477786 0.5 L 91.69668819955572 0.5 L 91.69668819955572 3.5 L 98.69668819955572 0 L 91.69668819955572 -3.5 L 91.69668819955572 -0.5 L 91.06123472477786 -0.5 Z"/><text text-anchor="middle" pointer-events="none" font-size="8px" fill="#000000" x="58.34834409977786" y="3" font-family="Helvetica Neue, Helvetica, Arial, sans-serif">IS_PARENT_OF</text></g><g class="relationship" transform="translate(288.88384620053586 147.3561885832686) rotate(392.63870528554344)"><path class="b-outline" fill="#A5ABB6" stroke="none" d="M 25 0.5 L 73.1711773678196 0.5 L 73.1711773678196 -0.5 L 25 -0.5 Z M 138.5969586178196 0.5 L 186.7681359856392 0.5 L 186.7681359856392 3.5 L 193.7681359856392 0 L 186.7681359856392 -3.5 L 186.7681359856392 -0.5 L 138.5969586178196 -0.5 Z"/><text text-anchor="middle" pointer-events="none" font-size="8px" fill="#000000" x="105.8840679928196" y="3" font-family="Helvetica Neue, Helvetica, Arial, sans-serif">IS_PARENT_OF</text></g><g class="relationship" transform="translate(288.88384620053586 147.3561885832686) rotate(419.93015411772814)"><path class="b-outline" fill="#A5ABB6" stroke="none" d="M 25 0.5 L 63.191984707201826 0.5 L 63.191984707201826 -0.5 L 25 -0.5 Z M 128.6177659572018 0.5 L 166.80975066440365 0.5 L 166.80975066440365 3.5 L 173.80975066440365 0 L 166.80975066440365 -3.5 L 166.80975066440365 -0.5 L 128.6177659572018 -0.5 Z"/><text text-anchor="middle" pointer-events="none" font-size="8px" fill="#000000" x="95.90487533220183" y="3" font-family="Helvetica Neue, Helvetica, Arial, sans-serif">IS_PARENT_OF</text></g><g class="relationship" transform="translate(288.88384620053586 147.3561885832686) rotate(446.34554250998656)"><path class="b-outline" fill="#A5ABB6" stroke="none" d="M 25 0.5 L 73.55115825733253 0.5 L 73.55115825733253 -0.5 L 25 -0.5 Z M 138.97693950733253 0.5 L 187.52809776466506 0.5 L 187.52809776466506 3.5 L 194.52809776466506 0 L 187.52809776466506 -3.5 L 187.52809776466506 -0.5 L 138.97693950733253 -0.5 Z"/><text text-anchor="middle" pointer-events="none" font-size="8px" fill="#000000" x="106.26404888233253" y="3" font-family="Helvetica Neue, Helvetica, Arial, sans-serif">IS_PARENT_OF</text></g><g class="relationship" transform="translate(288.88384620053586 147.3561885832686) rotate(398.7213133748795)"><path class="b-outline" fill="#A5ABB6" stroke="none" d="M 25 0.5 L 25.818268898220843 0.5 L 25.818268898220843 -0.5 L 25 -0.5 Z M 91.24405014822085 0.5 L 92.06231904644169 0.5 L 92.06231904644169 3.5 L 99.06231904644169 0 L 92.06231904644169 -3.5 L 92.06231904644169 -0.5 L 91.24405014822085 -0.5 Z"/><text text-anchor="middle" pointer-events="none" font-size="8px" fill="#000000" x="58.53115952322084" y="3" font-family="Helvetica Neue, Helvetica, Arial, sans-serif">IS_PARENT_OF</text></g><g class="relationship" transform="translate(288.88384620053586 147.3561885832686) rotate(366.29866697637686)"><path class="b-outline" fill="#A5ABB6" stroke="none" d="M 25 0.5 L 70.36517776900278 0.5 L 70.36517776900278 -0.5 L 25 -0.5 Z M 135.7909590190028 0.5 L 181.15613678800557 0.5 L 181.15613678800557 3.5 L 188.15613678800557 0 L 181.15613678800557 -3.5 L 181.15613678800557 -0.5 L 135.7909590190028 -0.5 Z"/><text text-anchor="middle" pointer-events="none" font-size="8px" fill="#000000" x="103.07806839400278" y="3" font-family="Helvetica Neue, Helvetica, Arial, sans-serif">IS_PARENT_OF</text></g><g class="relationship" transform="translate(288.88384620053586 147.3561885832686) rotate(472.7782641594984)"><path class="b-outline" fill="#A5ABB6" stroke="none" d="M 25 0.5 L 56.431129586643465 0.5 L 56.431129586643465 -0.5 L 25 -0.5 Z M 121.85691083664346 0.5 L 153.28804042328693 0.5 L 153.28804042328693 3.5 L 160.28804042328693 0 L 153.28804042328693 -3.5 L 153.28804042328693 -0.5 L 121.85691083664346 -0.5 Z"/><text text-anchor="middle" pointer-events="none" font-size="8px" fill="#000000" x="89.14402021164346" y="3" transform="rotate(180 89.14402021164346 0)" font-family="Helvetica Neue, Helvetica, Arial, sans-serif">IS_PARENT_OF</text></g><g class="relationship" transform="translate(288.88384620053586 147.3561885832686) rotate(353.01108801090413)"><path class="b-outline" fill="#A5ABB6" stroke="none" d="M 25 0.5 L 26.772510271617726 0.5 L 26.772510271617726 -0.5 L 25 -0.5 Z M 92.19829152161773 0.5 L 93.97080179323545 0.5 L 93.97080179323545 3.5 L 100.97080179323545 0 L 93.97080179323545 -3.5 L 93.97080179323545 -0.5 L 92.19829152161773 -0.5 Z"/><text text-anchor="middle" pointer-events="none" font-size="8px" fill="#000000" x="59.485400896617726" y="3" font-family="Helvetica Neue, Helvetica, Arial, sans-serif">IS_PARENT_OF</text></g><g class="relationship" transform="translate(288.88384620053586 147.3561885832686) rotate(336.950873185198)"><path class="b-outline" fill="#A5ABB6" stroke="none" d="M 25 0.5 L 69.64474069017729 0.5 L 69.64474069017729 -0.5 L 25 -0.5 Z M 135.0705219401773 0.5 L 179.71526263035457 0.5 L 179.71526263035457 3.5 L 186.71526263035457 0 L 179.71526263035457 -3.5 L 179.71526263035457 -0.5 L 135.0705219401773 -0.5 Z"/><text text-anchor="middle" pointer-events="none" font-size="8px" fill="#000000" x="102.35763131517729" y="3" font-family="Helvetica Neue, Helvetica, Arial, sans-serif">IS_PARENT_OF</text></g><g class="relationship" transform="translate(288.88384620053586 147.3561885832686) rotate(210.5672994031748)"><path class="b-outline" fill="#A5ABB6" stroke="none" d="M 25 0.5 L 27.175161071625126 0.5 L 27.175161071625126 -0.5 L 25 -0.5 Z M 69.04234857162513 0.5 L 71.21750964325025 0.5 L 71.21750964325025 3.5 L 78.21750964325025 0 L 71.21750964325025 -3.5 L 71.21750964325025 -0.5 L 69.04234857162513 -0.5 Z"/><text text-anchor="middle" pointer-events="none" font-size="8px" fill="#000000" x="48.108754821625126" y="3" transform="rotate(180 48.108754821625126 0)" font-family="Helvetica Neue, Helvetica, Arial, sans-serif">IS_PAR…</text></g><g class="relationship" transform="translate(288.88384620053586 147.3561885832686) rotate(307.34032044322043)"><path class="b-outline" fill="#A5ABB6" stroke="none" d="M 25 0.5 L 26.761505661266632 0.5 L 26.761505661266632 -0.5 L 25 -0.5 Z M 92.18728691126663 0.5 L 93.94879257253326 0.5 L 93.94879257253326 3.5 L 100.94879257253326 0 L 93.94879257253326 -3.5 L 93.94879257253326 -0.5 L 92.18728691126663 -0.5 Z"/><text text-anchor="middle" pointer-events="none" font-size="8px" fill="#000000" x="59.47439628626663" y="3" font-family="Helvetica Neue, Helvetica, Arial, sans-serif">IS_PARENT_OF</text></g><g class="relationship" transform="translate(288.88384620053586 147.3561885832686) rotate(310.7652028376373)"><path class="b-outline" fill="#A5ABB6" stroke="none" d="M 25 0.5 L 74.5688459910289 0.5 L 74.5688459910289 -0.5 L 25 -0.5 Z M 139.9946272410289 0.5 L 189.5634732320578 0.5 L 189.5634732320578 3.5 L 196.5634732320578 0 L 189.5634732320578 -3.5 L 189.5634732320578 -0.5 L 139.9946272410289 -0.5 Z"/><text text-anchor="middle" pointer-events="none" font-size="8px" fill="#000000" x="107.2817366160289" y="3" font-family="Helvetica Neue, Helvetica, Arial, sans-serif">IS_PARENT_OF</text></g><g class="relationship" transform="translate(288.88384620053586 147.3561885832686) rotate(284.66855794797885)"><path class="b-outline" fill="#A5ABB6" stroke="none" d="M 25 0.5 L 64.90393942802858 0.5 L 64.90393942802858 -0.5 L 25 -0.5 Z M 130.3297206780286 0.5 L 170.23366010605716 0.5 L 170.23366010605716 3.5 L 177.23366010605716 0 L 170.23366010605716 -3.5 L 170.23366010605716 -0.5 L 130.3297206780286 -0.5 Z"/><text text-anchor="middle" pointer-events="none" font-size="8px" fill="#000000" x="97.61683005302858" y="3" font-family="Helvetica Neue, Helvetica, Arial, sans-serif">IS_PARENT_OF</text></g><g class="relationship" transform="translate(288.88384620053586 147.3561885832686) rotate(260.7704964743631)"><path class="b-outline" fill="#A5ABB6" stroke="none" d="M 25 0.5 L 26.51406941480022 0.5 L 26.51406941480022 -0.5 L 25 -0.5 Z M 91.93985066480022 0.5 L 93.45392007960044 0.5 L 93.45392007960044 3.5 L 100.45392007960044 0 L 93.45392007960044 -3.5 L 93.45392007960044 -0.5 L 91.93985066480022 -0.5 Z"/><text text-anchor="middle" pointer-events="none" font-size="8px" fill="#000000" x="59.22696003980022" y="3" transform="rotate(180 59.22696003980022 0)" font-family="Helvetica Neue, Helvetica, Arial, sans-serif">IS_PARENT_OF</text></g><g class="relationship" transform="translate(288.88384620053586 147.3561885832686) rotate(258.0316995926777)"><path class="b-outline" fill="#A5ABB6" stroke="none" d="M 25 0.5 L 74.31819151326197 0.5 L 74.31819151326197 -0.5 L 25 -0.5 Z M 139.74397276326198 0.5 L 189.06216427652393 0.5 L 189.06216427652393 3.5 L 196.06216427652393 0 L 189.06216427652393 -3.5 L 189.06216427652393 -0.5 L 139.74397276326198 -0.5 Z"/><text text-anchor="middle" pointer-events="none" font-size="8px" fill="#000000" x="107.03108213826197" y="3" transform="rotate(180 107.03108213826197 0)" font-family="Helvetica Neue, Helvetica, Arial, sans-serif">IS_PARENT_OF</text></g><g class="relationship" transform="translate(-154.8290287094769 -278.80671551550233) rotate(312.7013235812585)"><path class="b-outline" fill="#A5ABB6" stroke="none" d="M 24.018736134675446,-6.953439040707552 L 24.277555179777966,-5.987513214418485 A 253.06263172547654 253.06263172547654 0 0 1 71.05626859149152,-13.917164162275213 L 70.9822998859779,-14.914424725320117 A 254.06263172547654 254.06263172547654 0 0 0 24.018736134675446,-6.953439040707552 Z M 103.69444821508567,-15.2288201750317 L 103.63966068396999,-14.230322139763587 A 253.06263172547654 253.06263172547654 0 0 1 150.5621421099165,-7.201230488505827 L 149.84152416066001,-4.289064667126592 L 157.47729868467746,-6.005149577137258 L 151.52296604225847,-11.084118250344806 L 150.802348093002,-8.171952428965572 A 254.06263172547654 254.06263172547654 0 0 0 103.69444821508567,-15.2288201750317"/><text text-anchor="middle" pointer-events="none" font-size="8px" fill="#000000" x="87.3381137781231" y="-12.09870321628307" font-family="Helvetica Neue, Helvetica, Arial, sans-serif">FEEDS</text></g><g class="relationship" transform="translate(-154.8290287094769 -278.80671551550233) rotate(212.13282628948843)"><path class="b-outline" fill="#A5ABB6" stroke="none" d="M 25 0.5 L 85.23336608560888 0.5 L 85.23336608560888 -0.5 L 25 -0.5 Z M 117.90524108560888 0.5 L 178.13860717121776 0.5 L 178.13860717121776 3.5 L 185.13860717121776 0 L 178.13860717121776 -3.5 L 178.13860717121776 -0.5 L 117.90524108560888 -0.5 Z"/><text text-anchor="middle" pointer-events="none" font-size="8px" fill="#000000" x="101.56930358560888" y="3" transform="rotate(180 101.56930358560888 0)" font-family="Helvetica Neue, Helvetica, Arial, sans-serif">FEEDS</text></g><g class="relationship" transform="translate(-31.573578569280475 -412.37117650043007) rotate(492.7013235812585)"><path class="b-outline" fill="#A5ABB6" stroke="none" d="M 24.018736134675446,-6.953439040707552 L 24.277555179777966,-5.987513214418485 A 253.06263172547654 253.06263172547654 0 0 1 71.05626859149152,-13.917164162275213 L 70.9822998859779,-14.914424725320117 A 254.06263172547654 254.06263172547654 0 0 0 24.018736134675446,-6.953439040707552 Z M 103.69444821508567,-15.2288201750317 L 103.63966068396999,-14.230322139763587 A 253.06263172547654 253.06263172547654 0 0 1 150.5621421099165,-7.201230488505827 L 149.84152416066001,-4.289064667126592 L 157.47729868467746,-6.005149577137258 L 151.52296604225847,-11.084118250344806 L 150.802348093002,-8.171952428965572 A 254.06263172547654 254.06263172547654 0 0 0 103.69444821508567,-15.2288201750317"/><text text-anchor="middle" pointer-events="none" font-size="8px" fill="#000000" x="87.3381137781231" y="-12.09870321628307" transform="rotate(180 87.3381137781231 -15.09870321628307)" font-family="Helvetica Neue, Helvetica, Arial, sans-serif">FEEDS</text></g><g class="relationship" transform="translate(-332.7780429350964 -390.5760429716056) rotate(228.24652359188661)"><path class="b-outline" fill="#A5ABB6" stroke="none" d="M 25 0.5 L 55.1066307189018 0.5 L 55.1066307189018 -0.5 L 25 -0.5 Z M 87.7785057189018 0.5 L 117.8851364378036 0.5 L 117.8851364378036 3.5 L 124.8851364378036 0 L 117.8851364378036 -3.5 L 117.8851364378036 -0.5 L 87.7785057189018 -0.5 Z"/><text text-anchor="middle" pointer-events="none" font-size="8px" fill="#000000" x="71.4425682189018" y="3" transform="rotate(180 71.4425682189018 0)" font-family="Helvetica Neue, Helvetica, Arial, sans-serif">FEEDS</text></g><g class="relationship" transform="translate(-152.40328955544626 -456.685713453416) rotate(450.7812951653752)"><path class="b-outline" fill="#A5ABB6" stroke="none" d="M 25 0.5 L 67.99659667182708 0.5 L 67.99659667182708 -0.5 L 25 -0.5 Z M 102.89894042182708 0.5 L 145.89553709365416 0.5 L 145.89553709365416 3.5 L 152.89553709365416 0 L 145.89553709365416 -3.5 L 145.89553709365416 -0.5 L 102.89894042182708 -0.5 Z"/><text text-anchor="middle" pointer-events="none" font-size="8px" fill="#000000" x="85.44776854682708" y="3" transform="rotate(180 85.44776854682708 0)" font-family="Helvetica Neue, Helvetica, Arial, sans-serif">BIASES</text></g><g class="relationship" transform="translate(-152.40328955544626 -456.685713453416) rotate(380.1406126132391)"><path class="b-outline" fill="#A5ABB6" stroke="none" d="M 25 0.5 L 43.3986479428478 0.5 L 43.3986479428478 -0.5 L 25 -0.5 Z M 78.3009916928478 0.5 L 96.6996396356956 0.5 L 96.6996396356956 3.5 L 103.6996396356956 0 L 96.6996396356956 -3.5 L 96.6996396356956 -0.5 L 78.3009916928478 -0.5 Z"/><text text-anchor="middle" pointer-events="none" font-size="8px" fill="#000000" x="60.8498198178478" y="3" font-family="Helvetica Neue, Helvetica, Arial, sans-serif">BIASES</text></g><g class="relationship" transform="translate(-432.59059194052367 -502.39289852575797) rotate(473.1537869288784)"><path class="b-outline" fill="#A5ABB6" stroke="none" d="M 25 0.5 L 86.57640800338008 0.5 L 86.57640800338008 -0.5 L 25 -0.5 Z M 119.24828300338008 0.5 L 180.82469100676016 0.5 L 180.82469100676016 3.5 L 187.82469100676016 0 L 180.82469100676016 -3.5 L 180.82469100676016 -0.5 L 119.24828300338008 -0.5 Z"/><text text-anchor="middle" pointer-events="none" font-size="8px" fill="#000000" x="102.91234550338008" y="3" transform="rotate(180 102.91234550338008 0)" font-family="Helvetica Neue, Helvetica, Arial, sans-serif">FEEDS</text></g><g class="relationship" transform="translate(-516.2733528766505 -306.710644286315) rotate(503.55705391308345)"><path class="b-outline" fill="#A5ABB6" stroke="none" d="M 25 0.5 L 67.07535270890136 0.5 L 67.07535270890136 -0.5 L 25 -0.5 Z M 99.74722770890136 0.5 L 141.82258041780273 0.5 L 141.82258041780273 3.5 L 148.82258041780273 0 L 141.82258041780273 -3.5 L 141.82258041780273 -0.5 L 99.74722770890136 -0.5 Z"/><text text-anchor="middle" pointer-events="none" font-size="8px" fill="#000000" x="83.41129020890136" y="3" transform="rotate(180 83.41129020890136 0)" font-family="Helvetica Neue, Helvetica, Arial, sans-serif">FEEDS</text></g><g class="relationship" transform="translate(-491.23092164922014 -405.5000141979359) rotate(365.3805616860215)"><path class="b-outline" fill="#A5ABB6" stroke="none" d="M 25 0.5 L 58.625897199509694 0.5 L 58.625897199509694 -0.5 L 25 -0.5 Z M 93.5282409495097 0.5 L 127.15413814901939 0.5 L 127.15413814901939 3.5 L 134.1541381490194 0 L 127.15413814901939 -3.5 L 127.15413814901939 -0.5 L 93.5282409495097 -0.5 Z"/><text text-anchor="middle" pointer-events="none" font-size="8px" fill="#000000" x="76.0770690745097" y="3" font-family="Helvetica Neue, Helvetica, Arial, sans-serif">BIASES</text></g><g class="relationship" transform="translate(-491.23092164922014 -405.5000141979359) rotate(301.182653393882)"><path class="b-outline" fill="#A5ABB6" stroke="none" d="M 25 0.5 L 35.67682319305211 0.5 L 35.67682319305211 -0.5 L 25 -0.5 Z M 70.57916694305212 0.5 L 81.25599013610422 0.5 L 81.25599013610422 3.5 L 88.25599013610422 0 L 81.25599013610422 -3.5 L 81.25599013610422 -0.5 L 70.57916694305212 -0.5 Z"/><text text-anchor="middle" pointer-events="none" font-size="8px" fill="#000000" x="53.12799506805211" y="3" font-family="Helvetica Neue, Helvetica, Arial, sans-serif">BIASES</text></g><g class="relationship" transform="translate(-656.1047145524129 -203.45620246899844) rotate(425.7963865898672)"><path class="b-outline" fill="#A5ABB6" stroke="none" d="M 25 0.5 L 70.05123718071479 0.5 L 70.05123718071479 -0.5 L 25 -0.5 Z M 102.72311218071479 0.5 L 147.77434936142959 0.5 L 147.77434936142959 3.5 L 154.77434936142959 0 L 147.77434936142959 -3.5 L 147.77434936142959 -0.5 L 102.72311218071479 -0.5 Z"/><text text-anchor="middle" pointer-events="none" font-size="8px" fill="#000000" x="86.38717468071479" y="3" font-family="Helvetica Neue, Helvetica, Arial, sans-serif">FEEDS</text></g><g class="relationship" transform="translate(-582.4007267197443 -39.48504992719563) rotate(400.6995742232067)"><path class="b-outline" fill="#A5ABB6" stroke="none" d="M 25 0.5 L 79.47407780148359 0.5 L 79.47407780148359 -0.5 L 25 -0.5 Z M 112.14595280148359 0.5 L 166.62003060296718 0.5 L 166.62003060296718 3.5 L 173.62003060296718 0 L 166.62003060296718 -3.5 L 166.62003060296718 -0.5 L 112.14595280148359 -0.5 Z"/><text text-anchor="middle" pointer-events="none" font-size="8px" fill="#000000" x="95.81001530148359" y="3" font-family="Helvetica Neue, Helvetica, Arial, sans-serif">FEEDS</text></g><g class="relationship" transform="translate(-582.4007267197443 -39.48504992719563) rotate(451.9773868247921)"><path class="b-outline" fill="#A5ABB6" stroke="none" d="M 25 0.5 L 96.66117130131641 0.5 L 96.66117130131641 -0.5 L 25 -0.5 Z M 129.33304630131641 0.5 L 200.99421760263283 0.5 L 200.99421760263283 3.5 L 207.99421760263283 0 L 200.99421760263283 -3.5 L 200.99421760263283 -0.5 L 129.33304630131641 -0.5 Z"/><text text-anchor="middle" pointer-events="none" font-size="8px" fill="#000000" x="112.99710880131641" y="3" transform="rotate(180 112.99710880131641 0)" font-family="Helvetica Neue, Helvetica, Arial, sans-serif">FEEDS</text></g><g class="relationship" transform="translate(-533.324173214113 -174.89683941084652) rotate(277.37058703003174)"><path class="b-outline" fill="#A5ABB6" stroke="none" d="M 25 0.5 L 45.50484671987316 0.5 L 45.50484671987316 -0.5 L 25 -0.5 Z M 80.40719046987316 0.5 L 100.91203718974631 0.5 L 100.91203718974631 3.5 L 107.91203718974631 0 L 100.91203718974631 -3.5 L 100.91203718974631 -0.5 L 80.40719046987316 -0.5 Z"/><text text-anchor="middle" pointer-events="none" font-size="8px" fill="#000000" x="62.95601859487316" y="3" font-family="Helvetica Neue, Helvetica, Arial, sans-serif">BIASES</text></g><g class="relationship" transform="translate(-533.324173214113 -174.89683941084652) rotate(193.09443807953016)"><path class="b-outline" fill="#A5ABB6" stroke="none" d="M 25 0.5 L 42.077985166827304 0.5 L 42.077985166827304 -0.5 L 25 -0.5 Z M 76.9803289168273 0.5 L 94.05831408365461 0.5 L 94.05831408365461 3.5 L 101.05831408365461 0 L 94.05831408365461 -3.5 L 94.05831408365461 -0.5 L 76.9803289168273 -0.5 Z"/><text text-anchor="middle" pointer-events="none" font-size="8px" fill="#000000" x="59.529157041827304" y="3" transform="rotate(180 59.529157041827304 0)" font-family="Helvetica Neue, Helvetica, Arial, sans-serif">BIASES</text></g><g class="relationship" transform="translate(-533.324173214113 -174.89683941084652) rotate(469.921758429028)"><path class="b-outline" fill="#A5ABB6" stroke="none" d="M 25 0.5 L 51.06420987632393 0.5 L 51.06420987632393 -0.5 L 25 -0.5 Z M 85.96655362632393 0.5 L 112.03076350264786 0.5 L 112.03076350264786 3.5 L 119.03076350264786 0 L 112.03076350264786 -3.5 L 112.03076350264786 -0.5 L 85.96655362632393 -0.5 Z"/><text text-anchor="middle" pointer-events="none" font-size="8px" fill="#000000" x="68.51538175132393" y="3" transform="rotate(180 68.51538175132393 0)" font-family="Helvetica Neue, Helvetica, Arial, sans-serif">BIASES</text></g><g class="relationship" transform="translate(-340.1868919204898 293.36984406488233) rotate(358.4158868476844)"><path class="b-outline" fill="#A5ABB6" stroke="none" d="M 24.018736134675446,-6.953439040707552 L 24.277555179777966,-5.987513214418485 A 243.47454250832618 243.47454250832618 0 0 1 68.60691132831295,-13.565560666006405 L 68.5301620622183,-14.562611091087291 A 244.47454250832618 244.47454250832618 0 0 0 24.018736134675446,-6.953439040707552 Z M 101.24294444967947,-14.885407260011903 L 101.18588517255392,-13.887036467723817 A 243.47454250832618 243.47454250832618 0 0 1 145.65614902818965,-7.185226836563496 L 144.93702564902605,-4.272691589473718 L 152.57191850125974,-5.992694826363376 L 146.61498020040779,-11.068607166016534 L 145.8958568212442,-8.156071918926756 A 244.47454250832618 244.47454250832618 0 0 0 101.24294444967947,-14.885407260011903"/><text text-anchor="middle" pointer-events="none" font-size="8px" fill="#000000" x="84.88608137860773" y="-11.771830129640875" font-family="Helvetica Neue, Helvetica, Arial, sans-serif">FEEDS</text></g><g class="relationship" transform="translate(-163.41143247150882 288.4811121578772) rotate(538.4158868476844)"><path class="b-outline" fill="#A5ABB6" stroke="none" d="M 24.018736134675446,-6.953439040707552 L 24.277555179777966,-5.987513214418485 A 243.47454250832618 243.47454250832618 0 0 1 68.60691132831295,-13.565560666006405 L 68.5301620622183,-14.562611091087291 A 244.47454250832618 244.47454250832618 0 0 0 24.018736134675446,-6.953439040707552 Z M 101.24294444967947,-14.885407260011903 L 101.18588517255392,-13.887036467723817 A 243.47454250832618 243.47454250832618 0 0 1 145.65614902818965,-7.185226836563496 L 144.93702564902605,-4.272691589473718 L 152.57191850125974,-5.992694826363376 L 146.61498020040779,-11.068607166016534 L 145.8958568212442,-8.156071918926756 A 244.47454250832618 244.47454250832618 0 0 0 101.24294444967947,-14.885407260011903"/><text text-anchor="middle" pointer-events="none" font-size="8px" fill="#000000" x="84.88608137860773" y="-11.771830129640875" transform="rotate(180 84.88608137860773 -14.771830129640875)" font-family="Helvetica Neue, Helvetica, Arial, sans-serif">FEEDS</text></g><g class="relationship" transform="translate(-431.81909917869336 90.03363599808631) rotate(425.7415854415513)"><path class="b-outline" fill="#A5ABB6" stroke="none" d="M 25 0.5 L 91.67871951645876 0.5 L 91.67871951645876 -0.5 L 25 -0.5 Z M 124.35059451645876 0.5 L 191.0293140329175 0.5 L 191.0293140329175 3.5 L 198.0293140329175 0 L 191.0293140329175 -3.5 L 191.0293140329175 -0.5 L 124.35059451645876 -0.5 Z"/><text text-anchor="middle" pointer-events="none" font-size="8px" fill="#000000" x="108.01465701645876" y="3" font-family="Helvetica Neue, Helvetica, Arial, sans-serif">FEEDS</text></g><g class="relationship" transform="translate(-289.3866276366569 172.49624563733585) rotate(210.06909652447985)"><path class="b-outline" fill="#A5ABB6" stroke="none" d="M 25 0.5 L 61.339609713960925 0.5 L 61.339609713960925 -0.5 L 25 -0.5 Z M 96.24195346396093 0.5 L 132.58156317792185 0.5 L 132.58156317792185 3.5 L 139.58156317792185 0 L 132.58156317792185 -3.5 L 132.58156317792185 -0.5 L 96.24195346396093 -0.5 Z"/><text text-anchor="middle" pointer-events="none" font-size="8px" fill="#000000" x="78.79078158896093" y="3" transform="rotate(180 78.79078158896093 0)" font-family="Helvetica Neue, Helvetica, Arial, sans-serif">BIASES</text></g><g class="relationship" transform="translate(-289.3866276366569 172.49624563733585) rotate(472.7958435113005)"><path class="b-outline" fill="#A5ABB6" stroke="none" d="M 25 0.5 L 44.60623359557029 0.5 L 44.60623359557029 -0.5 L 25 -0.5 Z M 79.50857734557029 0.5 L 99.11481094114058 0.5 L 99.11481094114058 3.5 L 106.11481094114058 0 L 99.11481094114058 -3.5 L 99.11481094114058 -0.5 L 79.50857734557029 -0.5 Z"/><text text-anchor="middle" pointer-events="none" font-size="8px" fill="#000000" x="62.05740547057029" y="3" transform="rotate(180 62.05740547057029 0)" font-family="Helvetica Neue, Helvetica, Arial, sans-serif">BIASES</text></g><g class="relationship" transform="translate(-289.3866276366569 172.49624563733585) rotate(402.63564813700174)"><path class="b-outline" fill="#A5ABB6" stroke="none" d="M 25 0.5 L 64.66751629920199 0.5 L 64.66751629920199 -0.5 L 25 -0.5 Z M 99.56986004920199 0.5 L 139.23737634840398 0.5 L 139.23737634840398 3.5 L 146.23737634840398 0 L 139.23737634840398 -3.5 L 139.23737634840398 -0.5 L 99.56986004920199 -0.5 Z"/><text text-anchor="middle" pointer-events="none" font-size="8px" fill="#000000" x="82.11868817420199" y="3" font-family="Helvetica Neue, Helvetica, Arial, sans-serif">BIASES</text></g><g class="relationship" transform="translate(-590.440206191262 193.37042500541156) rotate(397.641108937627)"><path class="b-outline" fill="#A5ABB6" stroke="none" d="M 25 0.5 L 74.35919418599876 0.5 L 74.35919418599876 -0.5 L 25 -0.5 Z M 107.03106918599876 0.5 L 156.39026337199752 0.5 L 156.39026337199752 3.5 L 163.39026337199752 0 L 156.39026337199752 -3.5 L 156.39026337199752 -0.5 L 107.03106918599876 -0.5 Z"/><text text-anchor="middle" pointer-events="none" font-size="8px" fill="#000000" x="90.69513168599876" y="3" font-family="Helvetica Neue, Helvetica, Arial, sans-serif">FEEDS</text></g><g class="relationship" transform="translate(-441.2630617811676 308.4228952918876) rotate(355.89484432333165)"><path class="b-outline" fill="#A5ABB6" stroke="none" d="M 25 0.5 L 119.44722966728185 0.5 L 119.44722966728185 -0.5 L 25 -0.5 Z M 152.11910466728185 0.5 L 246.5663343345637 0.5 L 246.5663343345637 3.5 L 253.5663343345637 0 L 246.5663343345637 -3.5 L 246.5663343345637 -0.5 L 152.11910466728185 -0.5 Z"/><text text-anchor="middle" pointer-events="none" font-size="8px" fill="#000000" x="135.78316716728185" y="3" font-family="Helvetica Neue, Helvetica, Arial, sans-serif">FEEDS</text></g><g class="relationship" transform="translate(-397.0648197295993 211.75791040340422) rotate(185.4317526135693)"><path class="b-outline" fill="#A5ABB6" stroke="none" d="M 25 0.5 L 76.17264048383758 0.5 L 76.17264048383758 -0.5 L 25 -0.5 Z M 111.07498423383758 0.5 L 162.24762471767517 0.5 L 162.24762471767517 3.5 L 169.24762471767517 0 L 162.24762471767517 -3.5 L 162.24762471767517 -0.5 L 111.07498423383758 -0.5 Z"/><text text-anchor="middle" pointer-events="none" font-size="8px" fill="#000000" x="93.62381235883758" y="3" transform="rotate(180 93.62381235883758 0)" font-family="Helvetica Neue, Helvetica, Arial, sans-serif">BIASES</text></g><g class="relationship" transform="translate(-397.0648197295993 211.75791040340422) rotate(474.5713554673845)"><path class="b-outline" fill="#A5ABB6" stroke="none" d="M 25 0.5 L 32.19392174600074 0.5 L 32.19392174600074 -0.5 L 25 -0.5 Z M 67.09626549600074 0.5 L 74.29018724200148 0.5 L 74.29018724200148 3.5 L 81.29018724200148 0 L 74.29018724200148 -3.5 L 74.29018724200148 -0.5 L 67.09626549600074 -0.5 Z"/><text text-anchor="middle" pointer-events="none" font-size="8px" fill="#000000" x="49.64509362100074" y="3" transform="rotate(180 49.64509362100074 0)" font-family="Helvetica Neue, Helvetica, Arial, sans-serif">BIASES</text></g><g class="relationship" transform="translate(-397.0648197295993 211.75791040340422) rotate(215.97570282882418)"><path class="b-outline" fill="#A5ABB6" stroke="none" d="M 25 0.5 L 59.52832426916102 0.5 L 59.52832426916102 -0.5 L 25 -0.5 Z M 94.43066801916102 0.5 L 128.95899228832204 0.5 L 128.95899228832204 3.5 L 135.95899228832204 0 L 128.95899228832204 -3.5 L 128.95899228832204 -0.5 L 94.43066801916102 -0.5 Z"/><text text-anchor="middle" pointer-events="none" font-size="8px" fill="#000000" x="76.97949614416102" y="3" transform="rotate(180 76.97949614416102 0)" font-family="Helvetica Neue, Helvetica, Arial, sans-serif">BIASES</text></g><g class="relationship" transform="translate(-397.0648197295993 211.75791040340422) rotate(378.1782830908154)"><path class="b-outline" fill="#A5ABB6" stroke="none" d="M 25 0.5 L 102.01259826140722 0.5 L 102.01259826140722 -0.5 L 25 -0.5 Z M 136.91494201140722 0.5 L 213.92754027281444 0.5 L 213.92754027281444 3.5 L 220.92754027281444 0 L 213.92754027281444 -3.5 L 213.92754027281444 -0.5 L 136.91494201140722 -0.5 Z"/><text text-anchor="middle" pointer-events="none" font-size="8px" fill="#000000" x="119.46377013640722" y="3" font-family="Helvetica Neue, Helvetica, Arial, sans-serif">BIASES</text></g><g class="relationship" transform="translate(-527.323488740659 117.20381823421607) rotate(425.76930393677657)"><path class="b-outline" fill="#A5ABB6" stroke="none" d="M 25 0.5 L 85.01053659335908 0.5 L 85.01053659335908 -0.5 L 25 -0.5 Z M 117.68241159335908 0.5 L 177.69294818671816 0.5 L 177.69294818671816 3.5 L 184.69294818671816 0 L 177.69294818671816 -3.5 L 177.69294818671816 -0.5 L 117.68241159335908 -0.5 Z"/><text text-anchor="middle" pointer-events="none" font-size="8px" fill="#000000" x="101.34647409335908" y="3" font-family="Helvetica Neue, Helvetica, Arial, sans-serif">FEEDS</text></g><g class="relationship" transform="translate(-267.9745664031623 432.36956030415195) rotate(306.00574814945605)"><path class="b-outline" fill="#A5ABB6" stroke="none" d="M 25 0.5 L 69.09849689910116 0.5 L 69.09849689910116 -0.5 L 25 -0.5 Z M 101.77037189910116 0.5 L 145.86886879820233 0.5 L 145.86886879820233 3.5 L 152.86886879820233 0 L 145.86886879820233 -3.5 L 145.86886879820233 -0.5 L 101.77037189910116 -0.5 Z"/><text text-anchor="middle" pointer-events="none" font-size="8px" fill="#000000" x="85.43443439910116" y="3" font-family="Helvetica Neue, Helvetica, Arial, sans-serif">FEEDS</text></g><g class="relationship" transform="translate(-145.0743086568336 464.6253141089391) rotate(194.7058772295424)"><path class="b-outline" fill="#A5ABB6" stroke="none" d="M 25 0.5 L 42.58013341544141 0.5 L 42.58013341544141 -0.5 L 25 -0.5 Z M 77.48247716544141 0.5 L 95.06261058088282 0.5 L 95.06261058088282 3.5 L 102.06261058088282 0 L 95.06261058088282 -3.5 L 95.06261058088282 -0.5 L 77.48247716544141 -0.5 Z"/><text text-anchor="middle" pointer-events="none" font-size="8px" fill="#000000" x="60.03130529044141" y="3" transform="rotate(180 60.03130529044141 0)" font-family="Helvetica Neue, Helvetica, Arial, sans-serif">BIASES</text></g><g class="relationship" transform="translate(-145.0743086568336 464.6253141089391) rotate(264.05675080621705)"><path class="b-outline" fill="#A5ABB6" stroke="none" d="M 25 0.5 L 67.5968800385955 0.5 L 67.5968800385955 -0.5 L 25 -0.5 Z M 102.4992237885955 0.5 L 145.096103827191 0.5 L 145.096103827191 3.5 L 152.096103827191 0 L 145.096103827191 -3.5 L 145.096103827191 -0.5 L 102.4992237885955 -0.5 Z"/><text text-anchor="middle" pointer-events="none" font-size="8px" fill="#000000" x="85.0480519135955" y="3" transform="rotate(180 85.0480519135955 0)" font-family="Helvetica Neue, Helvetica, Arial, sans-serif">BIASES</text></g><g class="relationship" transform="translate(-163.41143247150882 288.4811121578772) rotate(276.8763996584444)"><path class="b-outline" fill="#A5ABB6" stroke="none" d="M 25 0.5 L 52.706649427571236 0.5 L 52.706649427571236 -0.5 L 25 -0.5 Z M 85.37852442757124 0.5 L 113.08517385514247 0.5 L 113.08517385514247 3.5 L 120.08517385514247 0 L 113.08517385514247 -3.5 L 113.08517385514247 -0.5 L 85.37852442757124 -0.5 Z"/><text text-anchor="middle" pointer-events="none" font-size="8px" fill="#000000" x="69.04258692757124" y="3" font-family="Helvetica Neue, Helvetica, Arial, sans-serif">FEEDS</text></g><g class="relationship" transform="translate(-146.0406880852226 144.43957331562785) rotate(270.8502432718962)"><path class="b-outline" fill="#A5ABB6" stroke="none" d="M 25 0.5 L 51.22546169344109 0.5 L 51.22546169344109 -0.5 L 25 -0.5 Z M 83.89733669344109 0.5 L 110.12279838688218 0.5 L 110.12279838688218 3.5 L 117.12279838688218 0 L 110.12279838688218 -3.5 L 110.12279838688218 -0.5 L 83.89733669344109 -0.5 Z"/><text text-anchor="middle" pointer-events="none" font-size="8px" fill="#000000" x="67.56139919344109" y="3" font-family="Helvetica Neue, Helvetica, Arial, sans-serif">FEEDS</text></g><g class="relationship" transform="translate(-143.93172789383823 2.332423220252565) rotate(279.673458687447)"><path class="b-outline" fill="#A5ABB6" stroke="none" d="M 25 0.5 L 64.18059288942239 0.5 L 64.18059288942239 -0.5 L 25 -0.5 Z M 96.85246788942239 0.5 L 136.03306077884477 0.5 L 136.03306077884477 3.5 L 143.03306077884477 0 L 136.03306077884477 -3.5 L 136.03306077884477 -0.5 L 96.85246788942239 -0.5 Z"/><text text-anchor="middle" pointer-events="none" font-size="8px" fill="#000000" x="80.51653038942239" y="3" font-family="Helvetica Neue, Helvetica, Arial, sans-serif">FEEDS</text></g><g class="relationship" transform="translate(-143.93172789383823 2.332423220252565) rotate(244.19868416347657)"><path class="b-outline" fill="#A5ABB6" stroke="none" d="M 25 0.5 L 57.42489181627563 0.5 L 57.42489181627563 -0.5 L 25 -0.5 Z M 90.09676681627563 0.5 L 122.52165863255127 0.5 L 122.52165863255127 3.5 L 129.52165863255127 0 L 122.52165863255127 -3.5 L 122.52165863255127 -0.5 L 90.09676681627563 -0.5 Z"/><text text-anchor="middle" pointer-events="none" font-size="8px" fill="#000000" x="73.76082931627563" y="3" transform="rotate(180 73.76082931627563 0)" font-family="Helvetica Neue, Helvetica, Arial, sans-serif">FEEDS</text></g><g class="relationship" transform="translate(-143.93172789383823 2.332423220252565) rotate(300.80506464306256)"><path class="b-outline" fill="#A5ABB6" stroke="none" d="M 25 0.5 L 97.90125967974467 0.5 L 97.90125967974467 -0.5 L 25 -0.5 Z M 130.57313467974467 0.5 L 203.47439435948934 0.5 L 203.47439435948934 3.5 L 210.47439435948934 0 L 203.47439435948934 -3.5 L 203.47439435948934 -0.5 L 130.57313467974467 -0.5 Z"/><text text-anchor="middle" pointer-events="none" font-size="8px" fill="#000000" x="114.23719717974467" y="3" font-family="Helvetica Neue, Helvetica, Arial, sans-serif">FEEDS</text></g><g class="relationship" transform="translate(-115.69667045895204 -163.31144490155754) rotate(251.2824802933464)"><path class="b-outline" fill="#A5ABB6" stroke="none" d="M 25 0.5 L 41.136390232414314 0.5 L 41.136390232414314 -0.5 L 25 -0.5 Z M 73.80826523241431 0.5 L 89.94465546482863 0.5 L 89.94465546482863 3.5 L 96.94465546482863 0 L 89.94465546482863 -3.5 L 89.94465546482863 -0.5 L 73.80826523241431 -0.5 Z"/><text text-anchor="middle" pointer-events="none" font-size="8px" fill="#000000" x="57.472327732414314" y="3" transform="rotate(180 57.472327732414314 0)" font-family="Helvetica Neue, Helvetica, Arial, sans-serif">FEEDS</text></g><g class="relationship" transform="translate(-211.18755419624017 -136.7847820957537) rotate(291.6446496340763)"><path class="b-outline" fill="#A5ABB6" stroke="none" d="M 25 0.5 L 56.56189127694506 0.5 L 56.56189127694506 -0.5 L 25 -0.5 Z M 89.23376627694506 0.5 L 120.79565755389012 0.5 L 120.79565755389012 3.5 L 127.79565755389012 0 L 120.79565755389012 -3.5 L 120.79565755389012 -0.5 L 89.23376627694506 -0.5 Z"/><text text-anchor="middle" pointer-events="none" font-size="8px" fill="#000000" x="72.89782877694506" y="3" font-family="Helvetica Neue, Helvetica, Arial, sans-serif">FEEDS</text></g><g class="relationship" transform="translate(-23.340865891409607 -199.91997948606763) rotate(210.96178227421876)"><path class="b-outline" fill="#A5ABB6" stroke="none" d="M 25 0.5 L 56.83259268456837 0.5 L 56.83259268456837 -0.5 L 25 -0.5 Z M 89.50446768456837 0.5 L 121.33706036913674 0.5 L 121.33706036913674 3.5 L 128.33706036913674 0 L 121.33706036913674 -3.5 L 121.33706036913674 -0.5 L 89.50446768456837 -0.5 Z"/><text text-anchor="middle" pointer-events="none" font-size="8px" fill="#000000" x="73.16853018456837" y="3" transform="rotate(180 73.16853018456837 0)" font-family="Helvetica Neue, Helvetica, Arial, sans-serif">FEEDS</text></g><g class="relationship" transform="translate(-32.341078017335974 -52.445783035100035) rotate(513.8542585866605)"><path class="b-outline" fill="#A5ABB6" stroke="none" d="M 25 0.5 L 41.20412761831365 0.5 L 41.20412761831365 -0.5 L 25 -0.5 Z M 76.10647136831365 0.5 L 92.3105989866273 0.5 L 92.3105989866273 3.5 L 99.3105989866273 0 L 92.3105989866273 -3.5 L 92.3105989866273 -0.5 L 76.10647136831365 -0.5 Z"/><text text-anchor="middle" pointer-events="none" font-size="8px" fill="#000000" x="58.65529949331365" y="3" transform="rotate(180 58.65529949331365 0)" font-family="Helvetica Neue, Helvetica, Arial, sans-serif">BIASES</text></g><g class="relationship" transform="translate(-32.341078017335974 -52.445783035100035) rotate(480.0060664592286)"><path class="b-outline" fill="#A5ABB6" stroke="none" d="M 25 0.5 L 92.72759139561111 0.5 L 92.72759139561111 -0.5 L 25 -0.5 Z M 127.62993514561111 0.5 L 195.35752654122223 0.5 L 195.35752654122223 3.5 L 202.35752654122223 0 L 195.35752654122223 -3.5 L 195.35752654122223 -0.5 L 127.62993514561111 -0.5 Z"/><text text-anchor="middle" pointer-events="none" font-size="8px" fill="#000000" x="110.17876327061111" y="3" transform="rotate(180 110.17876327061111 0)" font-family="Helvetica Neue, Helvetica, Arial, sans-serif">BIASES</text></g><g class="relationship" transform="translate(-32.341078017335974 -52.445783035100035) rotate(233.0619134565644)"><path class="b-outline" fill="#A5ABB6" stroke="none" d="M 25 0.5 L 48.4018197194159 0.5 L 48.4018197194159 -0.5 L 25 -0.5 Z M 83.3041634694159 0.5 L 106.7059831888318 0.5 L 106.7059831888318 3.5 L 113.7059831888318 0 L 106.7059831888318 -3.5 L 106.7059831888318 -0.5 L 83.3041634694159 -0.5 Z"/><text text-anchor="middle" pointer-events="none" font-size="8px" fill="#000000" x="65.8529915944159" y="3" transform="rotate(180 65.8529915944159 0)" font-family="Helvetica Neue, Helvetica, Arial, sans-serif">BIASES</text></g><g class="relationship" transform="translate(-32.341078017335974 -52.445783035100035) rotate(205.2472547178627)"><path class="b-outline" fill="#A5ABB6" stroke="none" d="M 25 0.5 L 77.91632632861123 0.5 L 77.91632632861123 -0.5 L 25 -0.5 Z M 112.81867007861123 0.5 L 165.73499640722247 0.5 L 165.73499640722247 3.5 L 172.73499640722247 0 L 165.73499640722247 -3.5 L 165.73499640722247 -0.5 L 112.81867007861123 -0.5 Z"/><text text-anchor="middle" pointer-events="none" font-size="8px" fill="#000000" x="95.36749820361123" y="3" transform="rotate(180 95.36749820361123 0)" font-family="Helvetica Neue, Helvetica, Arial, sans-serif">BIASES</text></g><g class="relationship" transform="translate(-32.341078017335974 -52.445783035100035) rotate(273.49237623499823)"><path class="b-outline" fill="#A5ABB6" stroke="none" d="M 25 0.5 L 52.923117355371375 0.5 L 52.923117355371375 -0.5 L 25 -0.5 Z M 87.82546110537137 0.5 L 115.74857846074275 0.5 L 115.74857846074275 3.5 L 122.74857846074275 0 L 115.74857846074275 -3.5 L 115.74857846074275 -0.5 L 87.82546110537137 -0.5 Z"/><text text-anchor="middle" pointer-events="none" font-size="8px" fill="#000000" x="70.37428923037137" y="3" font-family="Helvetica Neue, Helvetica, Arial, sans-serif">BIASES</text></g><g class="relationship" transform="translate(-32.341078017335974 -52.445783035100035) rotate(241.58138683193107)"><path class="b-outline" fill="#A5ABB6" stroke="none" d="M 25 0.5 L 107.73698785439936 0.5 L 107.73698785439936 -0.5 L 25 -0.5 Z M 142.63933160439936 0.5 L 225.37631945879872 0.5 L 225.37631945879872 3.5 L 232.37631945879872 0 L 225.37631945879872 -3.5 L 225.37631945879872 -0.5 L 142.63933160439936 -0.5 Z"/><text text-anchor="middle" pointer-events="none" font-size="8px" fill="#000000" x="125.18815972939936" y="3" transform="rotate(180 125.18815972939936 0)" font-family="Helvetica Neue, Helvetica, Arial, sans-serif">BIASES</text></g><g class="relationship" transform="translate(-332.7780429350964 -390.5760429716056) rotate(515.4375220786092)"><path class="b-outline" fill="#A5ABB6" stroke="none" d="M 25 0.5 L 81.04014225529896 0.5 L 81.04014225529896 -0.5 L 25 -0.5 Z M 113.71201725529896 0.5 L 169.75215951059792 0.5 L 169.75215951059792 3.5 L 176.75215951059792 0 L 169.75215951059792 -3.5 L 169.75215951059792 -0.5 L 113.71201725529896 -0.5 Z"/><text text-anchor="middle" pointer-events="none" font-size="8px" fill="#000000" x="97.37607975529896" y="3" transform="rotate(180 97.37607975529896 0)" font-family="Helvetica Neue, Helvetica, Arial, sans-serif">FEEDS</text></g><g class="relationship" transform="translate(-516.2733528766505 -306.710644286315) rotate(463.89913630270917)"><path class="b-outline" fill="#A5ABB6" stroke="none" d="M 25 0.5 L 117.80703167384564 0.5 L 117.80703167384564 -0.5 L 25 -0.5 Z M 150.47890667384564 0.5 L 243.28593834769129 0.5 L 243.28593834769129 3.5 L 250.28593834769129 0 L 243.28593834769129 -3.5 L 243.28593834769129 -0.5 L 150.47890667384564 -0.5 Z"/><text text-anchor="middle" pointer-events="none" font-size="8px" fill="#000000" x="134.14296917384564" y="3" transform="rotate(180 134.14296917384564 0)" font-family="Helvetica Neue, Helvetica, Arial, sans-serif">FEEDS</text></g><g class="relationship" transform="translate(-582.4007267197443 -39.48504992719563) rotate(430.6330668362924)"><path class="b-outline" fill="#A5ABB6" stroke="none" d="M 25 0.5 L 63.20758053287999 0.5 L 63.20758053287999 -0.5 L 25 -0.5 Z M 95.87945553287999 0.5 L 134.08703606575997 0.5 L 134.08703606575997 3.5 L 141.08703606575997 0 L 134.08703606575997 -3.5 L 134.08703606575997 -0.5 L 95.87945553287999 -0.5 Z"/><text text-anchor="middle" pointer-events="none" font-size="8px" fill="#000000" x="79.54351803287999" y="3" font-family="Helvetica Neue, Helvetica, Arial, sans-serif">FEEDS</text></g><g class="relationship" transform="translate(-163.41143247150882 288.4811121578772) rotate(353.83932107675116)"><path class="b-outline" fill="#A5ABB6" stroke="none" d="M 24.018736134675446,6.953439040707552 L 24.277555179777966,5.987513214418485 A 288.4053185195194 288.4053185195194 0 0 0 80.09905983707105,15.199763064330568 L 80.03379306397186,16.197630915465766 A 289.4053185195194 289.4053185195194 0 0 1 24.018736134675446,6.953439040707552 Z M 112.74351730150971,16.484467833203894 L 112.69576015229516,15.485608856821898 A 288.4053185195194 288.4053185195194 0 0 0 168.6702353459814,7.25371622554894 L 167.9447158786304,4.3427676683781495 L 175.58336855727177,6.0459955612583896 L 169.63759463578276,11.134980968443328 L 168.91207516843176,8.224032411272537 A 289.4053185195194 289.4053185195194 0 0 1 112.74351730150971,16.484467833203894"/><text text-anchor="middle" pointer-events="none" font-size="8px" fill="#000000" x="96.38898376987463" y="19.303578623984208" font-family="Helvetica Neue, Helvetica, Arial, sans-serif">FEEDS</text></g><g class="relationship" transform="translate(35.2757269789808 267.0347338193952) rotate(533.8393210767512)"><path class="b-outline" fill="#A5ABB6" stroke="none" d="M 24.018736134675446,6.953439040707552 L 24.277555179777966,5.987513214418485 A 288.4053185195194 288.4053185195194 0 0 0 63.82427760281259,13.671054650250596 L 63.70258058661731,14.663621945827686 A 289.4053185195194 289.4053185195194 0 0 1 24.018736134675446,6.953439040707552 Z M 129.09912017143625,15.237094889501066 L 128.9948485015018,14.242546037584248 A 288.4053185195194 288.4053185195194 0 0 0 168.6702353459814,7.25371622554894 L 167.9447158786304,4.3427676683781495 L 175.58336855727177,6.0459955612583896 L 169.63759463578276,11.134980968443328 L 168.91207516843176,8.224032411272537 A 289.4053185195194 289.4053185195194 0 0 1 129.09912017143625,15.237094889501066"/><text text-anchor="middle" pointer-events="none" font-size="8px" fill="#000000" x="96.38898376987463" y="19.303578623984208" transform="rotate(180 96.38898376987463 16.303578623984208)" font-family="Helvetica Neue, Helvetica, Arial, sans-serif">IS_PARENT_OF</text></g></g><g class="layer nodes"><g class="node" aria-label="graph-node30" transform="translate(14.355255900162245,426.604560454661)"><circle class="b-outline" cx="0" cy="0" r="25" fill="#C990C0" stroke="#b261a5" stroke-width="2px"/><text class="caption" text-anchor="middle" pointer-events="none" x="0" y="0" font-size="10px" fill="#FFFFFF" font-family="Helvetica Neue, Helvetica, Arial, sans-serif"> OpenAI,</text><text class="caption" text-anchor="middle" pointer-events="none" x="0" y="10" font-size="10px" fill="#FFFFFF" font-family="Helvetica Neue, Helvetica, Arial, sans-serif"> Inc.</text></g><g class="node" aria-label="graph-node31" transform="translate(35.2757269789808,267.0347338193952)"><circle class="b-outline" cx="0" cy="0" r="25" fill="#C990C0" stroke="#b261a5" stroke-width="2px"/><text class="caption" text-anchor="middle" pointer-events="none" x="0" y="-5" font-size="10px" fill="#FFFFFF" font-family="Helvetica Neue, Helvetica, Arial, sans-serif"> OpenAI</text><text class="caption" text-anchor="middle" pointer-events="none" x="0" y="5" font-size="10px" fill="#FFFFFF" font-family="Helvetica Neue, Helvetica, Arial, sans-serif"> Global,</text><text class="caption" text-anchor="middle" pointer-events="none" x="0" y="15" font-size="10px" fill="#FFFFFF" font-family="Helvetica Neue, Helvetica, Arial, sans-serif"> LLC.</text></g><g class="node" aria-label="graph-node32" transform="translate(288.88384620053586,147.3561885832686)"><circle class="b-outline" cx="0" cy="0" r="25" fill="#C990C0" stroke="#b261a5" stroke-width="2px"/><text class="caption" text-anchor="middle" pointer-events="none" x="0" y="-5" font-size="10px" fill="#FFFFFF" font-family="Helvetica Neue, Helvetica, Arial, sans-serif"> OpenAI</text><text class="caption" text-anchor="middle" pointer-events="none" x="0" y="5" font-size="10px" fill="#FFFFFF" font-family="Helvetica Neue, Helvetica, Arial, sans-serif"> Web</text><text class="caption" text-anchor="middle" pointer-events="none" x="0" y="15" font-size="10px" fill="#FFFFFF" font-family="Helvetica Neue, Helvetica, Arial, sans-serif"> Ser…</text></g><g class="node" aria-label="graph-node33" transform="translate(-211.18755419624017,-136.7847820957537)"><circle class="b-outline" cx="0" cy="0" r="25" fill="#57C7E3" stroke="#23b3d7" stroke-width="2px"/><text class="caption" text-anchor="middle" pointer-events="none" x="0" y="0" font-size="10px" fill="#2A2C34" font-family="Helvetica Neue, Helvetica, Arial, sans-serif"> Integrate</text><text class="caption" text-anchor="middle" pointer-events="none" x="0" y="10" font-size="10px" fill="#2A2C34" font-family="Helvetica Neue, Helvetica, Arial, sans-serif"> S…</text></g><g class="node" aria-label="graph-node34" transform="translate(-23.340865891409607,-199.91997948606763)"><circle class="b-outline" cx="0" cy="0" r="25" fill="#57C7E3" stroke="#23b3d7" stroke-width="2px"/><text class="caption" text-anchor="middle" pointer-events="none" x="0" y="-5" font-size="10px" fill="#2A2C34" font-family="Helvetica Neue, Helvetica, Arial, sans-serif"> Human &amp;</text><text class="caption" text-anchor="middle" pointer-events="none" x="0" y="5" font-size="10px" fill="#2A2C34" font-family="Helvetica Neue, Helvetica, Arial, sans-serif"> Model</text><text class="caption" text-anchor="middle" pointer-events="none" x="0" y="15" font-size="10px" fill="#2A2C34" font-family="Helvetica Neue, Helvetica, Arial, sans-serif"> Inter</text></g><g class="node" aria-label="graph-node35" transform="translate(-32.341078017335974,-52.445783035100035)"><circle class="b-outline" cx="0" cy="0" r="25" fill="#F16667" stroke="#eb2728" stroke-width="2px"/><text class="caption" text-anchor="middle" pointer-events="none" x="0" y="5" font-size="10px" fill="#FFFFFF" font-family="Helvetica Neue, Helvetica, Arial, sans-serif"> Deploym…</text></g><g class="node" aria-label="graph-node273" transform="translate(132.74180182736836,167.77917681511337)"><circle class="b-outline" cx="0" cy="0" r="25" fill="#C990C0" stroke="#b261a5" stroke-width="2px"/><text class="caption" text-anchor="middle" pointer-events="none" x="0" y="5" font-size="10px" fill="#FFFFFF" font-family="Helvetica Neue, Helvetica, Arial, sans-serif"> Manufac…</text></g><g class="node" aria-label="graph-node274" transform="translate(173.51644543213055,0.3762402310908144)"><circle class="b-outline" cx="0" cy="0" r="25" fill="#C990C0" stroke="#b261a5" stroke-width="2px"/><text class="caption" text-anchor="middle" pointer-events="none" x="0" y="5" font-size="10px" fill="#FFFFFF" font-family="Helvetica Neue, Helvetica, Arial, sans-serif"> Energy</text></g><g class="node" aria-label="graph-node275" transform="translate(132.9099973898705,266.4465940141024)"><circle class="b-outline" cx="0" cy="0" r="25" fill="#C990C0" stroke="#b261a5" stroke-width="2px"/><text class="caption" text-anchor="middle" pointer-events="none" x="0" y="-5" font-size="10px" fill="#FFFFFF" font-family="Helvetica Neue, Helvetica, Arial, sans-serif"> Mining</text><text class="caption" text-anchor="middle" pointer-events="none" x="0" y="5" font-size="10px" fill="#FFFFFF" font-family="Helvetica Neue, Helvetica, Arial, sans-serif"> and</text><text class="caption" text-anchor="middle" pointer-events="none" x="0" y="15" font-size="10px" fill="#FFFFFF" font-family="Helvetica Neue, Helvetica, Arial, sans-serif"> Extr…</text></g><g class="node" aria-label="graph-node276" transform="translate(216.71567134484312,219.64586320162326)"><circle class="b-outline" cx="0" cy="0" r="25" fill="#C990C0" stroke="#b261a5" stroke-width="2px"/><text class="caption" text-anchor="middle" pointer-events="none" x="0" y="0" font-size="10px" fill="#FFFFFF" font-family="Helvetica Neue, Helvetica, Arial, sans-serif"> Financial</text><text class="caption" text-anchor="middle" pointer-events="none" x="0" y="10" font-size="10px" fill="#FFFFFF" font-family="Helvetica Neue, Helvetica, Arial, sans-serif"> Servic…</text></g><g class="node" aria-label="graph-node277" transform="translate(106.55247134815052,72.96916941508775)"><circle class="b-outline" cx="0" cy="0" r="25" fill="#C990C0" stroke="#b261a5" stroke-width="2px"/><text class="caption" text-anchor="middle" pointer-events="none" x="0" y="5" font-size="10px" fill="#FFFFFF" font-family="Helvetica Neue, Helvetica, Arial, sans-serif"> Healthca…</text></g><g class="node" aria-label="graph-node278" transform="translate(301.4768709304341,270.4101864853696)"><circle class="b-outline" cx="0" cy="0" r="25" fill="#C990C0" stroke="#b261a5" stroke-width="2px"/><text class="caption" text-anchor="middle" pointer-events="none" x="0" y="5" font-size="10px" fill="#FFFFFF" font-family="Helvetica Neue, Helvetica, Arial, sans-serif"> Education</text></g><g class="node" aria-label="graph-node279" transform="translate(473.1059222150287,265.3465442549994)"><circle class="b-outline" cx="0" cy="0" r="25" fill="#C990C0" stroke="#b261a5" stroke-width="2px"/><text class="caption" text-anchor="middle" pointer-events="none" x="0" y="0" font-size="10px" fill="#FFFFFF" font-family="Helvetica Neue, Helvetica, Arial, sans-serif"> Real</text><text class="caption" text-anchor="middle" pointer-events="none" x="0" y="10" font-size="10px" fill="#FFFFFF" font-family="Helvetica Neue, Helvetica, Arial, sans-serif"> Estate</text></g><g class="node" aria-label="graph-node280" transform="translate(388.49853507785974,319.4091766977338)"><circle class="b-outline" cx="0" cy="0" r="25" fill="#C990C0" stroke="#b261a5" stroke-width="2px"/><text class="caption" text-anchor="middle" pointer-events="none" x="0" y="5" font-size="10px" fill="#FFFFFF" font-family="Helvetica Neue, Helvetica, Arial, sans-serif"> Informati…</text></g><g class="node" aria-label="graph-node281" transform="translate(302.8763647487181,366.4378973881141)"><circle class="b-outline" cx="0" cy="0" r="25" fill="#C990C0" stroke="#b261a5" stroke-width="2px"/><text class="caption" text-anchor="middle" pointer-events="none" x="0" y="5" font-size="10px" fill="#FFFFFF" font-family="Helvetica Neue, Helvetica, Arial, sans-serif"> Biotechn…</text></g><g class="node" aria-label="graph-node282" transform="translate(385.6769908898988,224.9612538066491)"><circle class="b-outline" cx="0" cy="0" r="25" fill="#C990C0" stroke="#b261a5" stroke-width="2px"/><text class="caption" text-anchor="middle" pointer-events="none" x="0" y="5" font-size="10px" fill="#FFFFFF" font-family="Helvetica Neue, Helvetica, Arial, sans-serif"> Telecom…</text></g><g class="node" aria-label="graph-node283" transform="translate(500.7532677223237,170.7418011347912)"><circle class="b-outline" cx="0" cy="0" r="25" fill="#C990C0" stroke="#b261a5" stroke-width="2px"/><text class="caption" text-anchor="middle" pointer-events="none" x="0" y="0" font-size="10px" fill="#FFFFFF" font-family="Helvetica Neue, Helvetica, Arial, sans-serif"> Consumer</text><text class="caption" text-anchor="middle" pointer-events="none" x="0" y="10" font-size="10px" fill="#FFFFFF" font-family="Helvetica Neue, Helvetica, Arial, sans-serif">an…</text></g><g class="node" aria-label="graph-node284" transform="translate(217.14664662100463,318.19363213821094)"><circle class="b-outline" cx="0" cy="0" r="25" fill="#C990C0" stroke="#b261a5" stroke-width="2px"/><text class="caption" text-anchor="middle" pointer-events="none" x="0" y="5" font-size="10px" fill="#FFFFFF" font-family="Helvetica Neue, Helvetica, Arial, sans-serif"> Transpor…</text></g><g class="node" aria-label="graph-node285" transform="translate(413.91864934852146,132.02840641574346)"><circle class="b-outline" cx="0" cy="0" r="25" fill="#C990C0" stroke="#b261a5" stroke-width="2px"/><text class="caption" text-anchor="middle" pointer-events="none" x="0" y="-5" font-size="10px" fill="#FFFFFF" font-family="Helvetica Neue, Helvetica, Arial, sans-serif"> Media</text><text class="caption" text-anchor="middle" pointer-events="none" x="0" y="5" font-size="10px" fill="#FFFFFF" font-family="Helvetica Neue, Helvetica, Arial, sans-serif"> and</text><text class="caption" text-anchor="middle" pointer-events="none" x="0" y="15" font-size="10px" fill="#FFFFFF" font-family="Helvetica Neue, Helvetica, Arial, sans-serif"> Co…</text></g><g class="node" aria-label="graph-node286" transform="translate(483.6977719945638,64.46537638216293)"><circle class="b-outline" cx="0" cy="0" r="25" fill="#C990C0" stroke="#b261a5" stroke-width="2px"/><text class="caption" text-anchor="middle" pointer-events="none" x="0" y="5" font-size="10px" fill="#FFFFFF" font-family="Helvetica Neue, Helvetica, Arial, sans-serif"> Infrastru…</text></g><g class="node" aria-label="graph-node287" transform="translate(200.01022474902203,94.8649159082088)"><circle class="b-outline" cx="0" cy="0" r="25" fill="#C990C0" stroke="#b261a5" stroke-width="2px"/><text class="caption" text-anchor="middle" pointer-events="none" x="0" y="0" font-size="10px" fill="#FFFFFF" font-family="Helvetica Neue, Helvetica, Arial, sans-serif"> Financial</text><text class="caption" text-anchor="middle" pointer-events="none" x="0" y="10" font-size="10px" fill="#FFFFFF" font-family="Helvetica Neue, Helvetica, Arial, sans-serif"> Markets</text></g><g class="node" aria-label="graph-node288" transform="translate(365.27784002212877,47.220999671151226)"><circle class="b-outline" cx="0" cy="0" r="25" fill="#C990C0" stroke="#b261a5" stroke-width="2px"/><text class="caption" text-anchor="middle" pointer-events="none" x="0" y="0" font-size="10px" fill="#FFFFFF" font-family="Helvetica Neue, Helvetica, Arial, sans-serif"> Business</text><text class="caption" text-anchor="middle" pointer-events="none" x="0" y="10" font-size="10px" fill="#FFFFFF" font-family="Helvetica Neue, Helvetica, Arial, sans-serif"> Servic…</text></g><g class="node" aria-label="graph-node289" transform="translate(433.5560959605092,-20.454159190760773)"><circle class="b-outline" cx="0" cy="0" r="25" fill="#C990C0" stroke="#b261a5" stroke-width="2px"/><text class="caption" text-anchor="middle" pointer-events="none" x="0" y="-5" font-size="10px" fill="#FFFFFF" font-family="Helvetica Neue, Helvetica, Arial, sans-serif"> Research</text><text class="caption" text-anchor="middle" pointer-events="none" x="0" y="5" font-size="10px" fill="#FFFFFF" font-family="Helvetica Neue, Helvetica, Arial, sans-serif"> and</text><text class="caption" text-anchor="middle" pointer-events="none" x="0" y="15" font-size="10px" fill="#FFFFFF" font-family="Helvetica Neue, Helvetica, Arial, sans-serif"> Dev…</text></g><g class="node" aria-label="graph-node290" transform="translate(340.0948897666397,-48.286041767856965)"><circle class="b-outline" cx="0" cy="0" r="25" fill="#C990C0" stroke="#b261a5" stroke-width="2px"/><text class="caption" text-anchor="middle" pointer-events="none" x="0" y="5" font-size="10px" fill="#FFFFFF" font-family="Helvetica Neue, Helvetica, Arial, sans-serif"> Govern…</text></g><g class="node" aria-label="graph-node291" transform="translate(268.7623576760289,23.526419291321236)"><circle class="b-outline" cx="0" cy="0" r="25" fill="#C990C0" stroke="#b261a5" stroke-width="2px"/><text class="caption" text-anchor="middle" pointer-events="none" x="0" y="5" font-size="10px" fill="#FFFFFF" font-family="Helvetica Neue, Helvetica, Arial, sans-serif"> Intellige…</text></g><g class="node" aria-label="graph-node292" transform="translate(243.0420775662657,-68.9006326342433)"><circle class="b-outline" cx="0" cy="0" r="25" fill="#C990C0" stroke="#b261a5" stroke-width="2px"/><text class="caption" text-anchor="middle" pointer-events="none" x="0" y="5" font-size="10px" fill="#FFFFFF" font-family="Helvetica Neue, Helvetica, Arial, sans-serif"> Military</text></g><g class="node" aria-label="graph-node293" transform="translate(-154.8290287094769,-278.80671551550233)"><circle class="b-outline" cx="0" cy="0" r="25" fill="#F79767" stroke="#f36924" stroke-width="2px"/><text class="caption" text-anchor="middle" pointer-events="none" x="0" y="5" font-size="10px" fill="#FFFFFF" font-family="Helvetica Neue, Helvetica, Arial, sans-serif"> World</text></g><g class="node" aria-label="graph-node294" transform="translate(-31.573578569280475,-412.37117650043007)"><circle class="b-outline" cx="0" cy="0" r="25" fill="#57C7E3" stroke="#23b3d7" stroke-width="2px"/><text class="caption" text-anchor="middle" pointer-events="none" x="0" y="0" font-size="10px" fill="#2A2C34" font-family="Helvetica Neue, Helvetica, Arial, sans-serif"> Data</text><text class="caption" text-anchor="middle" pointer-events="none" x="0" y="10" font-size="10px" fill="#2A2C34" font-family="Helvetica Neue, Helvetica, Arial, sans-serif"> Gener…</text></g><g class="node" aria-label="graph-node316" transform="translate(-332.7780429350964,-390.5760429716056)"><circle class="b-outline" cx="0" cy="0" r="25" fill="#57C7E3" stroke="#23b3d7" stroke-width="2px"/><text class="caption" text-anchor="middle" pointer-events="none" x="0" y="5" font-size="10px" fill="#2A2C34" font-family="Helvetica Neue, Helvetica, Arial, sans-serif"> Populati…</text></g><g class="node" aria-label="graph-node317" transform="translate(-152.40328955544626,-456.685713453416)"><circle class="b-outline" cx="0" cy="0" r="25" fill="#F16667" stroke="#eb2728" stroke-width="2px"/><text class="caption" text-anchor="middle" pointer-events="none" x="0" y="0" font-size="10px" fill="#FFFFFF" font-family="Helvetica Neue, Helvetica, Arial, sans-serif"> Historical</text><text class="caption" text-anchor="middle" pointer-events="none" x="0" y="10" font-size="10px" fill="#FFFFFF" font-family="Helvetica Neue, Helvetica, Arial, sans-serif"> Bias</text></g><g class="node" aria-label="graph-node318" transform="translate(-432.59059194052367,-502.39289852575797)"><circle class="b-outline" cx="0" cy="0" r="25" fill="#F79767" stroke="#f36924" stroke-width="2px"/><text class="caption" text-anchor="middle" pointer-events="none" x="0" y="5" font-size="10px" fill="#FFFFFF" font-family="Helvetica Neue, Helvetica, Arial, sans-serif"> Sample</text></g><g class="node" aria-label="graph-node319" transform="translate(-516.2733528766505,-306.710644286315)"><circle class="b-outline" cx="0" cy="0" r="25" fill="#57C7E3" stroke="#23b3d7" stroke-width="2px"/><text class="caption" text-anchor="middle" pointer-events="none" x="0" y="5" font-size="10px" fill="#2A2C34" font-family="Helvetica Neue, Helvetica, Arial, sans-serif"> Measure…</text></g><g class="node" aria-label="graph-node320" transform="translate(-491.23092164922014,-405.5000141979359)"><circle class="b-outline" cx="0" cy="0" r="25" fill="#F16667" stroke="#eb2728" stroke-width="2px"/><text class="caption" text-anchor="middle" pointer-events="none" x="0" y="5" font-size="10px" fill="#FFFFFF" font-family="Helvetica Neue, Helvetica, Arial, sans-serif"> Represe…</text></g><g class="node" aria-label="graph-node321" transform="translate(-656.1047145524129,-203.45620246899844)"><circle class="b-outline" cx="0" cy="0" r="25" fill="#F79767" stroke="#f36924" stroke-width="2px"/><text class="caption" text-anchor="middle" pointer-events="none" x="0" y="5" font-size="10px" fill="#FFFFFF" font-family="Helvetica Neue, Helvetica, Arial, sans-serif"> Dataset</text></g><g class="node" aria-label="graph-node322" transform="translate(-582.4007267197443,-39.48504992719563)"><circle class="b-outline" cx="0" cy="0" r="25" fill="#57C7E3" stroke="#23b3d7" stroke-width="2px"/><text class="caption" text-anchor="middle" pointer-events="none" x="0" y="5" font-size="10px" fill="#2A2C34" font-family="Helvetica Neue, Helvetica, Arial, sans-serif"> Preproc…</text></g><g class="node" aria-label="graph-node323" transform="translate(-533.324173214113,-174.89683941084652)"><circle class="b-outline" cx="0" cy="0" r="25" fill="#F16667" stroke="#eb2728" stroke-width="2px"/><text class="caption" text-anchor="middle" pointer-events="none" x="0" y="5" font-size="10px" fill="#FFFFFF" font-family="Helvetica Neue, Helvetica, Arial, sans-serif"> Measure…</text></g><g class="node" aria-label="graph-node324" transform="translate(-431.81909917869336,90.03363599808631)"><circle class="b-outline" cx="0" cy="0" r="25" fill="#F79767" stroke="#f36924" stroke-width="2px"/><text class="caption" text-anchor="middle" pointer-events="none" x="0" y="0" font-size="10px" fill="#FFFFFF" font-family="Helvetica Neue, Helvetica, Arial, sans-serif"> Training</text><text class="caption" text-anchor="middle" pointer-events="none" x="0" y="10" font-size="10px" fill="#FFFFFF" font-family="Helvetica Neue, Helvetica, Arial, sans-serif"> Data</text></g><g class="node" aria-label="graph-node325" transform="translate(-340.1868919204898,293.36984406488233)"><circle class="b-outline" cx="0" cy="0" r="25" fill="#57C7E3" stroke="#23b3d7" stroke-width="2px"/><text class="caption" text-anchor="middle" pointer-events="none" x="0" y="0" font-size="10px" fill="#2A2C34" font-family="Helvetica Neue, Helvetica, Arial, sans-serif"> Model</text><text class="caption" text-anchor="middle" pointer-events="none" x="0" y="10" font-size="10px" fill="#2A2C34" font-family="Helvetica Neue, Helvetica, Arial, sans-serif"> Learni…</text></g><g class="node" aria-label="graph-node326" transform="translate(-289.3866276366569,172.49624563733585)"><circle class="b-outline" cx="0" cy="0" r="25" fill="#F16667" stroke="#eb2728" stroke-width="2px"/><text class="caption" text-anchor="middle" pointer-events="none" x="0" y="0" font-size="10px" fill="#FFFFFF" font-family="Helvetica Neue, Helvetica, Arial, sans-serif"> Learning</text><text class="caption" text-anchor="middle" pointer-events="none" x="0" y="10" font-size="10px" fill="#FFFFFF" font-family="Helvetica Neue, Helvetica, Arial, sans-serif"> Bias</text></g><g class="node" aria-label="graph-node327" transform="translate(-590.440206191262,193.37042500541156)"><circle class="b-outline" cx="0" cy="0" r="25" fill="#F79767" stroke="#f36924" stroke-width="2px"/><text class="caption" text-anchor="middle" pointer-events="none" x="0" y="5" font-size="10px" fill="#FFFFFF" font-family="Helvetica Neue, Helvetica, Arial, sans-serif"> Test Data</text></g><g class="node" aria-label="graph-node328" transform="translate(-441.2630617811676,308.4228952918876)"><circle class="b-outline" cx="0" cy="0" r="25" fill="#57C7E3" stroke="#23b3d7" stroke-width="2px"/><text class="caption" text-anchor="middle" pointer-events="none" x="0" y="5" font-size="10px" fill="#2A2C34" font-family="Helvetica Neue, Helvetica, Arial, sans-serif"> Evaluation</text></g><g class="node" aria-label="graph-node329" transform="translate(-397.0648197295993,211.75791040340422)"><circle class="b-outline" cx="0" cy="0" r="25" fill="#F16667" stroke="#eb2728" stroke-width="2px"/><text class="caption" text-anchor="middle" pointer-events="none" x="0" y="5" font-size="10px" fill="#FFFFFF" font-family="Helvetica Neue, Helvetica, Arial, sans-serif">Bi…</text></g><g class="node" aria-label="graph-node330" transform="translate(-527.323488740659,117.20381823421607)"><circle class="b-outline" cx="0" cy="0" r="25" fill="#F79767" stroke="#f36924" stroke-width="2px"/><text class="caption" text-anchor="middle" pointer-events="none" x="0" y="5" font-size="10px" fill="#FFFFFF" font-family="Helvetica Neue, Helvetica, Arial, sans-serif"> Benchm…</text></g><g class="node" aria-label="graph-node331" transform="translate(-267.9745664031623,432.36956030415195)"><circle class="b-outline" cx="0" cy="0" r="25" fill="#57C7E3" stroke="#23b3d7" stroke-width="2px"/><text class="caption" text-anchor="middle" pointer-events="none" x="0" y="0" font-size="10px" fill="#2A2C34" font-family="Helvetica Neue, Helvetica, Arial, sans-serif"> Model</text><text class="caption" text-anchor="middle" pointer-events="none" x="0" y="10" font-size="10px" fill="#2A2C34" font-family="Helvetica Neue, Helvetica, Arial, sans-serif"> Definit…</text></g><g class="node" aria-label="graph-node332" transform="translate(-145.0743086568336,464.6253141089391)"><circle class="b-outline" cx="0" cy="0" r="25" fill="#F16667" stroke="#eb2728" stroke-width="2px"/><text class="caption" text-anchor="middle" pointer-events="none" x="0" y="5" font-size="10px" fill="#FFFFFF" font-family="Helvetica Neue, Helvetica, Arial, sans-serif"> Aggrega…</text></g><g class="node" aria-label="graph-node333" transform="translate(-163.41143247150882,288.4811121578772)"><circle class="b-outline" cx="0" cy="0" r="25" fill="#F79767" stroke="#f36924" stroke-width="2px"/><text class="caption" text-anchor="middle" pointer-events="none" x="0" y="5" font-size="10px" fill="#FFFFFF" font-family="Helvetica Neue, Helvetica, Arial, sans-serif"> Model</text></g><g class="node" aria-label="graph-node334" transform="translate(-146.0406880852226,144.43957331562785)"><circle class="b-outline" cx="0" cy="0" r="25" fill="#57C7E3" stroke="#23b3d7" stroke-width="2px"/><text class="caption" text-anchor="middle" pointer-events="none" x="0" y="0" font-size="10px" fill="#2A2C34" font-family="Helvetica Neue, Helvetica, Arial, sans-serif"> Run</text><text class="caption" text-anchor="middle" pointer-events="none" x="0" y="10" font-size="10px" fill="#2A2C34" font-family="Helvetica Neue, Helvetica, Arial, sans-serif"> Model</text></g><g class="node" aria-label="graph-node335" transform="translate(-143.93172789383823,2.332423220252565)"><circle class="b-outline" cx="0" cy="0" r="25" fill="#F79767" stroke="#f36924" stroke-width="2px"/><text class="caption" text-anchor="middle" pointer-events="none" x="0" y="0" font-size="10px" fill="#FFFFFF" font-family="Helvetica Neue, Helvetica, Arial, sans-serif"> Model</text><text class="caption" text-anchor="middle" pointer-events="none" x="0" y="10" font-size="10px" fill="#FFFFFF" font-family="Helvetica Neue, Helvetica, Arial, sans-serif"> Output</text></g><g class="node" aria-label="graph-node336" transform="translate(-115.69667045895204,-163.31144490155754)"><circle class="b-outline" cx="0" cy="0" r="25" fill="#57C7E3" stroke="#23b3d7" stroke-width="2px"/><text class="caption" text-anchor="middle" pointer-events="none" x="0" y="5" font-size="10px" fill="#2A2C34" font-family="Helvetica Neue, Helvetica, Arial, sans-serif"> Post-Pro…</text></g></g></svg>