<svg xmlns="http://www.w3.org/2000/svg" width="1047.498779296875" height="849.2813720703125" viewBox="-367.77935791015625 -369.3274230957031 1047.498779296875 849.2813720703125"><title>Neo4j Graph Visualization</title><desc>Created using Neo4j (http://www.neo4j.com/)</desc><g class="layer relationships"><g class="relationship" transform="translate(438.2450582355642 450.9539031396943) rotate(197.4653952944583)"><path class="b-outline" fill="#A5ABB6" stroke="none" d="M 25 0.5 L 108.04300258260022 0.5 L 108.04300258260022 -0.5 L 25 -0.5 Z M 142.94534633260022 0.5 L 225.98834891520045 0.5 L 225.98834891520045 3.5 L 232.98834891520045 0 L 225.98834891520045 -3.5 L 225.98834891520045 -0.5 L 142.94534633260022 -0.5 Z"/><text text-anchor="middle" pointer-events="none" font-size="8px" fill="#000000" x="125.49417445760022" y="3" transform="rotate(180 125.49417445760022 0)" font-family="Helvetica Neue, Helvetica, Arial, sans-serif">BIASES</text></g><g class="relationship" transform="translate(438.2450582355642 450.9539031396943) rotate(255.5838316203084)"><path class="b-outline" fill="#A5ABB6" stroke="none" d="M 25 0.5 L 35.45852933164441 0.5 L 35.45852933164441 -0.5 L 25 -0.5 Z M 70.3608730816444 0.5 L 80.81940241328881 0.5 L 80.81940241328881 3.5 L 87.81940241328881 0 L 80.81940241328881 -3.5 L 80.81940241328881 -0.5 L 70.3608730816444 -0.5 Z"/><text text-anchor="middle" pointer-events="none" font-size="8px" fill="#000000" x="52.90970120664441" y="3" transform="rotate(180 52.90970120664441 0)" font-family="Helvetica Neue, Helvetica, Arial, sans-serif">BIASES</text></g><g class="relationship" transform="translate(438.2450582355642 450.9539031396943) rotate(183.3809715919424)"><path class="b-outline" fill="#A5ABB6" stroke="none" d="M 25 0.5 L 99.5995006710408 0.5 L 99.5995006710408 -0.5 L 25 -0.5 Z M 134.5018444210408 0.5 L 209.1013450920816 0.5 L 209.1013450920816 3.5 L 216.1013450920816 0 L 209.1013450920816 -3.5 L 209.1013450920816 -0.5 L 134.5018444210408 -0.5 Z"/><text text-anchor="middle" pointer-events="none" font-size="8px" fill="#000000" x="117.0506725460408" y="3" transform="rotate(180 117.0506725460408 0)" font-family="Helvetica Neue, Helvetica, Arial, sans-serif">BIASES</text></g><g class="relationship" transform="translate(438.2450582355642 450.9539031396943) rotate(293.7887304734207)"><path class="b-outline" fill="#A5ABB6" stroke="none" d="M 25 0.5 L 135.60546610253473 0.5 L 135.60546610253473 -0.5 L 25 -0.5 Z M 170.50780985253473 0.5 L 281.11327595506947 0.5 L 281.11327595506947 3.5 L 288.11327595506947 0 L 281.11327595506947 -3.5 L 281.11327595506947 -0.5 L 170.50780985253473 -0.5 Z"/><text text-anchor="middle" pointer-events="none" font-size="8px" fill="#000000" x="153.05663797753473" y="3" font-family="Helvetica Neue, Helvetica, Arial, sans-serif">BIASES</text></g><g class="relationship" transform="translate(197.56335750497976 436.73498832018686) rotate(335.91115658632316)"><path class="b-outline" fill="#A5ABB6" stroke="none" d="M 25 0.5 L 96.60104224148189 0.5 L 96.60104224148189 -0.5 L 25 -0.5 Z M 129.27291724148188 0.5 L 200.87395948296378 0.5 L 200.87395948296378 3.5 L 207.87395948296378 0 L 200.87395948296378 -3.5 L 200.87395948296378 -0.5 L 129.27291724148188 -0.5 Z"/><text text-anchor="middle" pointer-events="none" font-size="8px" fill="#000000" x="112.93697974148189" y="3" font-family="Helvetica Neue, Helvetica, Arial, sans-serif">FEEDS</text></g><g class="relationship" transform="translate(650.7193854548522 133.3280201399302) rotate(520.1470428804553)"><path class="b-outline" fill="#A5ABB6" stroke="none" d="M 25 0.5 L 25.974336158958366 0.5 L 25.974336158958366 -0.5 L 25 -0.5 Z M 58.646211158958366 0.5 L 59.62054731791673 0.5 L 59.62054731791673 3.5 L 66.62054731791673 0 L 59.62054731791673 -3.5 L 59.62054731791673 -0.5 L 58.646211158958366 -0.5 Z"/><text text-anchor="middle" pointer-events="none" font-size="8px" fill="#000000" x="42.310273658958366" y="3" transform="rotate(180 42.310273658958366 0)" font-family="Helvetica Neue, Helvetica, Arial, sans-serif">FEEDS</text></g><g class="relationship" transform="translate(567.4043854129202 22.818885869484838) rotate(412.9866443233651)"><path class="b-outline" fill="#A5ABB6" stroke="none" d="M 25 0.5 L 48.24719875103145 0.5 L 48.24719875103145 -0.5 L 25 -0.5 Z M 83.14954250103145 0.5 L 106.3967412520629 0.5 L 106.3967412520629 3.5 L 113.3967412520629 0 L 106.3967412520629 -3.5 L 106.3967412520629 -0.5 L 83.14954250103145 -0.5 Z"/><text text-anchor="middle" pointer-events="none" font-size="8px" fill="#000000" x="65.69837062603145" y="3" font-family="Helvetica Neue, Helvetica, Arial, sans-serif">BIASES</text></g><g class="relationship" transform="translate(567.4043854129202 22.818885869484838) rotate(451.15700751172085)"><path class="b-outline" fill="#A5ABB6" stroke="none" d="M 25 0.5 L 49.875343971394926 0.5 L 49.875343971394926 -0.5 L 25 -0.5 Z M 84.77768772139493 0.5 L 109.65303169278985 0.5 L 109.65303169278985 3.5 L 116.65303169278985 0 L 109.65303169278985 -3.5 L 109.65303169278985 -0.5 L 84.77768772139493 -0.5 Z"/><text text-anchor="middle" pointer-events="none" font-size="8px" fill="#000000" x="67.32651584639493" y="3" transform="rotate(180 67.32651584639493 0)" font-family="Helvetica Neue, Helvetica, Arial, sans-serif">BIASES</text></g><g class="relationship" transform="translate(564.544096495315 164.44303682922174) rotate(182.662338008282)"><path class="b-outline" fill="#A5ABB6" stroke="none" d="M 25 0.5 L 37.02747360202735 0.5 L 37.02747360202735 -0.5 L 25 -0.5 Z M 69.69934860202736 0.5 L 81.7268222040547 0.5 L 81.7268222040547 3.5 L 88.7268222040547 0 L 81.7268222040547 -3.5 L 81.7268222040547 -0.5 L 69.69934860202736 -0.5 Z"/><text text-anchor="middle" pointer-events="none" font-size="8px" fill="#000000" x="53.36341110202735" y="3" transform="rotate(180 53.36341110202735 0)" font-family="Helvetica Neue, Helvetica, Arial, sans-serif">FEEDS</text></g><g class="relationship" transform="translate(450.94002835688605 159.16044361832002) rotate(535.2994712564687)"><path class="b-outline" fill="#A5ABB6" stroke="none" d="M 25 0.5 L 35.90982629244586 0.5 L 35.90982629244586 -0.5 L 25 -0.5 Z M 68.58170129244586 0.5 L 79.49152758489171 0.5 L 79.49152758489171 3.5 L 86.49152758489171 0 L 79.49152758489171 -3.5 L 79.49152758489171 -0.5 L 68.58170129244586 -0.5 Z"/><text text-anchor="middle" pointer-events="none" font-size="8px" fill="#000000" x="52.24576379244586" y="3" transform="rotate(180 52.24576379244586 0)" font-family="Helvetica Neue, Helvetica, Arial, sans-serif">FEEDS</text></g><g class="relationship" transform="translate(339.82348796187034 168.29691853239456) rotate(198.1418667052041)"><path class="b-outline" fill="#A5ABB6" stroke="none" d="M 25 0.5 L 84.21784364491556 0.5 L 84.21784364491556 -0.5 L 25 -0.5 Z M 116.88971864491556 0.5 L 176.10756228983112 0.5 L 176.10756228983112 3.5 L 183.10756228983112 0 L 176.10756228983112 -3.5 L 176.10756228983112 -0.5 L 116.88971864491556 -0.5 Z"/><text text-anchor="middle" pointer-events="none" font-size="8px" fill="#000000" x="100.55378114491556" y="3" transform="rotate(180 100.55378114491556 0)" font-family="Helvetica Neue, Helvetica, Arial, sans-serif">FEEDS</text></g><g class="relationship" transform="translate(339.82348796187034 168.29691853239456) rotate(518.9513661867993)"><path class="b-outline" fill="#A5ABB6" stroke="none" d="M 25 0.5 L 79.65606080308338 0.5 L 79.65606080308338 -0.5 L 25 -0.5 Z M 112.32793580308338 0.5 L 166.98399660616676 0.5 L 166.98399660616676 3.5 L 173.98399660616676 0 L 166.98399660616676 -3.5 L 166.98399660616676 -0.5 L 112.32793580308338 -0.5 Z"/><text text-anchor="middle" pointer-events="none" font-size="8px" fill="#000000" x="95.99199830308338" y="3" transform="rotate(180 95.99199830308338 0)" font-family="Helvetica Neue, Helvetica, Arial, sans-serif">FEEDS</text></g><g class="relationship" transform="translate(339.82348796187034 168.29691853239456) rotate(539.0118446744648)"><path class="b-outline" fill="#A5ABB6" stroke="none" d="M 25 0.5 L 76.90108680161416 0.5 L 76.90108680161416 -0.5 L 25 -0.5 Z M 109.57296180161416 0.5 L 161.4740486032283 0.5 L 161.4740486032283 3.5 L 168.4740486032283 0 L 161.4740486032283 -3.5 L 161.4740486032283 -0.5 L 109.57296180161416 -0.5 Z"/><text text-anchor="middle" pointer-events="none" font-size="8px" fill="#000000" x="93.23702430161416" y="3" transform="rotate(180 93.23702430161416 0)" font-family="Helvetica Neue, Helvetica, Arial, sans-serif">FEEDS</text></g><g class="relationship" transform="translate(142.06127246740272 103.49827961971609) rotate(518.4804177533874)"><path class="b-outline" fill="#A5ABB6" stroke="none" d="M 25 0.5 L 68.06966844800382 0.5 L 68.06966844800382 -0.5 L 25 -0.5 Z M 100.74154344800382 0.5 L 143.81121189600765 0.5 L 143.81121189600765 3.5 L 150.81121189600765 0 L 143.81121189600765 -3.5 L 143.81121189600765 -0.5 L 100.74154344800382 -0.5 Z"/><text text-anchor="middle" pointer-events="none" font-size="8px" fill="#000000" x="84.40560594800382" y="3" transform="rotate(180 84.40560594800382 0)" font-family="Helvetica Neue, Helvetica, Arial, sans-serif">FEEDS</text></g><g class="relationship" transform="translate(154.1165193898825 239.76406293571955) rotate(202.23056622370848)"><path class="b-outline" fill="#A5ABB6" stroke="none" d="M 25 0.5 L 75.02036517067341 0.5 L 75.02036517067341 -0.5 L 25 -0.5 Z M 107.69224017067341 0.5 L 157.71260534134683 0.5 L 157.71260534134683 3.5 L 164.71260534134683 0 L 157.71260534134683 -3.5 L 157.71260534134683 -0.5 L 107.69224017067341 -0.5 Z"/><text text-anchor="middle" pointer-events="none" font-size="8px" fill="#000000" x="91.35630267067341" y="3" transform="rotate(180 91.35630267067341 0)" font-family="Helvetica Neue, Helvetica, Arial, sans-serif">FEEDS</text></g><g class="relationship" transform="translate(146.37821248980626 171.6335156704366) rotate(181.24362465347298)"><path class="b-outline" fill="#A5ABB6" stroke="none" d="M 25 0.5 L 64.1202127208113 0.5 L 64.1202127208113 -0.5 L 25 -0.5 Z M 96.7920877208113 0.5 L 135.9123004416226 0.5 L 135.9123004416226 3.5 L 142.9123004416226 0 L 135.9123004416226 -3.5 L 135.9123004416226 -0.5 L 96.7920877208113 -0.5 Z"/><text text-anchor="middle" pointer-events="none" font-size="8px" fill="#000000" x="80.4561502208113" y="3" transform="rotate(180 80.4561502208113 0)" font-family="Helvetica Neue, Helvetica, Arial, sans-serif">FEEDS</text></g><g class="relationship" transform="translate(226.39412791158833 -19.04295580523587) rotate(418.8061988910533)"><path class="b-outline" fill="#A5ABB6" stroke="none" d="M 25 0.5 L 88.5504813525377 0.5 L 88.5504813525377 -0.5 L 25 -0.5 Z M 123.4528251025377 0.5 L 187.0033064550754 0.5 L 187.0033064550754 3.5 L 194.0033064550754 0 L 187.0033064550754 -3.5 L 187.0033064550754 -0.5 L 123.4528251025377 -0.5 Z"/><text text-anchor="middle" pointer-events="none" font-size="8px" fill="#000000" x="106.0016532275377" y="3" font-family="Helvetica Neue, Helvetica, Arial, sans-serif">BIASES</text></g><g class="relationship" transform="translate(231.41929250082694 -309.01670839530414) rotate(424.8788748860247)"><path class="b-outline" fill="#A5ABB6" stroke="none" d="M 25 0.5 L 238.70767542554387 0.5 L 238.70767542554387 -0.5 L 25 -0.5 Z M 271.37955042554387 0.5 L 485.08722585108774 0.5 L 485.08722585108774 3.5 L 492.08722585108774 0 L 485.08722585108774 -3.5 L 485.08722585108774 -0.5 L 271.37955042554387 -0.5 Z"/><text text-anchor="middle" pointer-events="none" font-size="8px" fill="#000000" x="255.04361292554387" y="3" font-family="Helvetica Neue, Helvetica, Arial, sans-serif">FEEDS</text></g><g class="relationship" transform="translate(2.844127083966214 -340.32741062646096) rotate(452.7412805569861)"><path class="b-outline" fill="#A5ABB6" stroke="none" d="M 25 0.5 L 234.61354409217236 0.5 L 234.61354409217236 -0.5 L 25 -0.5 Z M 267.28541909217233 0.5 L 476.8989631843447 0.5 L 476.8989631843447 3.5 L 483.8989631843447 0 L 476.8989631843447 -3.5 L 476.8989631843447 -0.5 L 267.28541909217233 -0.5 Z"/><text text-anchor="middle" pointer-events="none" font-size="8px" fill="#000000" x="250.94948159217236" y="3" transform="rotate(180 250.94948159217236 0)" font-family="Helvetica Neue, Helvetica, Arial, sans-serif">FEEDS</text></g><g class="relationship" transform="translate(194.24372694125537 -112.48913616066689) rotate(487.56675556522606)"><path class="b-outline" fill="#A5ABB6" stroke="none" d="M 25 0.5 L 157.089964571698 0.5 L 157.089964571698 -0.5 L 25 -0.5 Z M 189.761839571698 0.5 L 321.851804143396 0.5 L 321.851804143396 3.5 L 328.851804143396 0 L 321.851804143396 -3.5 L 321.851804143396 -0.5 L 189.761839571698 -0.5 Z"/><text text-anchor="middle" pointer-events="none" font-size="8px" fill="#000000" x="173.425902071698" y="3" transform="rotate(180 173.425902071698 0)" font-family="Helvetica Neue, Helvetica, Arial, sans-serif">FEEDS</text></g><g class="relationship" transform="translate(-110.43031806609767 48.167520825162505) rotate(413.41592311962404)"><path class="b-outline" fill="#A5ABB6" stroke="none" d="M 25 0.5 L 54.77440014252052 0.5 L 54.77440014252052 -0.5 L 25 -0.5 Z M 87.44627514252052 0.5 L 117.22067528504104 0.5 L 117.22067528504104 3.5 L 124.22067528504104 0 L 117.22067528504104 -3.5 L 117.22067528504104 -0.5 L 87.44627514252052 -0.5 Z"/><text text-anchor="middle" pointer-events="none" font-size="8px" fill="#000000" x="71.11033764252052" y="3" font-family="Helvetica Neue, Helvetica, Arial, sans-serif">FEEDS</text></g><g class="relationship" transform="translate(-70.63843817705177 -261.86034069443747) rotate(443.47779839842536)"><path class="b-outline" fill="#A5ABB6" stroke="none" d="M 25 0.5 L 196.4889091832547 0.5 L 196.4889091832547 -0.5 L 25 -0.5 Z M 229.1607841832547 0.5 L 400.6496933665094 0.5 L 400.6496933665094 3.5 L 407.6496933665094 0 L 400.6496933665094 -3.5 L 400.6496933665094 -0.5 L 229.1607841832547 -0.5 Z"/><text text-anchor="middle" pointer-events="none" font-size="8px" fill="#000000" x="212.8248466832547" y="3" font-family="Helvetica Neue, Helvetica, Arial, sans-serif">FEEDS</text></g><g class="relationship" transform="translate(19.61659027874296 -97.06579765719223) rotate(458.8165591758661)"><path class="b-outline" fill="#A5ABB6" stroke="none" d="M 25 0.5 L 114.27621745785825 0.5 L 114.27621745785825 -0.5 L 25 -0.5 Z M 146.94809245785825 0.5 L 236.2243099157165 0.5 L 236.2243099157165 3.5 L 243.2243099157165 0 L 236.2243099157165 -3.5 L 236.2243099157165 -0.5 L 146.94809245785825 -0.5 Z"/><text text-anchor="middle" pointer-events="none" font-size="8px" fill="#000000" x="130.61215495785825" y="3" transform="rotate(180 130.61215495785825 0)" font-family="Helvetica Neue, Helvetica, Arial, sans-serif">FEEDS</text></g><g class="relationship" transform="translate(166.295508170526 -204.65189242625536) rotate(476.7455206633258)"><path class="b-outline" fill="#A5ABB6" stroke="none" d="M 25 0.5 L 188.80639400025973 0.5 L 188.80639400025973 -0.5 L 25 -0.5 Z M 221.47826900025973 0.5 L 385.28466300051946 0.5 L 385.28466300051946 3.5 L 392.28466300051946 0 L 385.28466300051946 -3.5 L 385.28466300051946 -0.5 L 221.47826900025973 -0.5 Z"/><text text-anchor="middle" pointer-events="none" font-size="8px" fill="#000000" x="205.14233150025973" y="3" transform="rotate(180 205.14233150025973 0)" font-family="Helvetica Neue, Helvetica, Arial, sans-serif">FEEDS</text></g><g class="relationship" transform="translate(130.02198216171215 11.31934644475345) rotate(494.0420170867959)"><path class="b-outline" fill="#A5ABB6" stroke="none" d="M 25 0.5 L 89.13963384277245 0.5 L 89.13963384277245 -0.5 L 25 -0.5 Z M 121.81150884277245 0.5 L 185.9511426855449 0.5 L 185.9511426855449 3.5 L 192.9511426855449 0 L 185.9511426855449 -3.5 L 185.9511426855449 -0.5 L 121.81150884277245 -0.5 Z"/><text text-anchor="middle" pointer-events="none" font-size="8px" fill="#000000" x="105.47557134277245" y="3" transform="rotate(180 105.47557134277245 0)" font-family="Helvetica Neue, Helvetica, Arial, sans-serif">FEEDS</text></g><g class="relationship" transform="translate(62.5847474174491 -255.73541730582753) rotate(461.2233605743247)"><path class="b-outline" fill="#A5ABB6" stroke="none" d="M 25 0.5 L 196.15705052909152 0.5 L 196.15705052909152 -0.5 L 25 -0.5 Z M 228.82892552909152 0.5 L 399.98597605818304 0.5 L 399.98597605818304 3.5 L 406.98597605818304 0 L 399.98597605818304 -3.5 L 399.98597605818304 -0.5 L 228.82892552909152 -0.5 Z"/><text text-anchor="middle" pointer-events="none" font-size="8px" fill="#000000" x="212.49298802909152" y="3" transform="rotate(180 212.49298802909152 0)" font-family="Helvetica Neue, Helvetica, Arial, sans-serif">FEEDS</text></g><g class="relationship" transform="translate(-211.738068073438 -166.60460623527112) rotate(420.3782822525211)"><path class="b-outline" fill="#A5ABB6" stroke="none" d="M 25 0.5 L 172.61251123683533 0.5 L 172.61251123683533 -0.5 L 25 -0.5 Z M 205.28438623683533 0.5 L 352.89689747367066 0.5 L 352.89689747367066 3.5 L 359.89689747367066 0 L 352.89689747367066 -3.5 L 352.89689747367066 -0.5 L 205.28438623683533 -0.5 Z"/><text text-anchor="middle" pointer-events="none" font-size="8px" fill="#000000" x="188.94844873683533" y="3" font-family="Helvetica Neue, Helvetica, Arial, sans-serif">FEEDS</text></g><g class="relationship" transform="translate(-152.75768220819208 -88.94695393329114) rotate(422.9384904443026)"><path class="b-outline" fill="#A5ABB6" stroke="none" d="M 25 0.5 L 124.42615436876346 0.5 L 124.42615436876346 -0.5 L 25 -0.5 Z M 157.09802936876346 0.5 L 256.5241837375269 0.5 L 256.5241837375269 3.5 L 263.5241837375269 0 L 256.5241837375269 -3.5 L 256.5241837375269 -0.5 L 157.09802936876346 -0.5 Z"/><text text-anchor="middle" pointer-events="none" font-size="8px" fill="#000000" x="140.76209186876346" y="3" font-family="Helvetica Neue, Helvetica, Arial, sans-serif">FEEDS</text></g><g class="relationship" transform="translate(-169.24421379513737 -254.1930422392998) rotate(430.7116596779183)"><path class="b-outline" fill="#A5ABB6" stroke="none" d="M 25 0.5 L 203.80876915929025 0.5 L 203.80876915929025 -0.5 L 25 -0.5 Z M 236.48064415929025 0.5 L 415.2894133185805 0.5 L 415.2894133185805 3.5 L 422.2894133185805 0 L 415.2894133185805 -3.5 L 415.2894133185805 -0.5 L 236.48064415929025 -0.5 Z"/><text text-anchor="middle" pointer-events="none" font-size="8px" fill="#000000" x="220.14470665929025" y="3" font-family="Helvetica Neue, Helvetica, Arial, sans-serif">FEEDS</text></g><g class="relationship" transform="translate(-10.219674028375067 -190.68667136634798) rotate(451.80048167433335)"><path class="b-outline" fill="#A5ABB6" stroke="none" d="M 25 0.5 L 159.59058545286666 0.5 L 159.59058545286666 -0.5 L 25 -0.5 Z M 192.26246045286666 0.5 L 326.8530459057333 0.5 L 326.8530459057333 3.5 L 333.8530459057333 0 L 326.8530459057333 -3.5 L 326.8530459057333 -0.5 L 192.26246045286666 -0.5 Z"/><text text-anchor="middle" pointer-events="none" font-size="8px" fill="#000000" x="175.92652295286666" y="3" transform="rotate(180 175.92652295286666 0)" font-family="Helvetica Neue, Helvetica, Arial, sans-serif">FEEDS</text></g><g class="relationship" transform="translate(-60.69694806046989 -112.99953013339848) rotate(442.05759200005923)"><path class="b-outline" fill="#A5ABB6" stroke="none" d="M 25 0.5 L 122.01918204731183 0.5 L 122.01918204731183 -0.5 L 25 -0.5 Z M 154.69105704731183 0.5 L 251.71023909462366 0.5 L 251.71023909462366 3.5 L 258.71023909462366 0 L 251.71023909462366 -3.5 L 251.71023909462366 -0.5 L 154.69105704731183 -0.5 Z"/><text text-anchor="middle" pointer-events="none" font-size="8px" fill="#000000" x="138.35511954731183" y="3" font-family="Helvetica Neue, Helvetica, Arial, sans-serif">FEEDS</text></g><g class="relationship" transform="translate(79.15128168779364 -164.8535459508015) rotate(466.8243969357093)"><path class="b-outline" fill="#A5ABB6" stroke="none" d="M 25 0.5 L 154.02742774194462 0.5 L 154.02742774194462 -0.5 L 25 -0.5 Z M 186.69930274194462 0.5 L 315.72673048388924 0.5 L 315.72673048388924 3.5 L 322.72673048388924 0 L 315.72673048388924 -3.5 L 315.72673048388924 -0.5 L 186.69930274194462 -0.5 Z"/><text text-anchor="middle" pointer-events="none" font-size="8px" fill="#000000" x="170.36336524194462" y="3" transform="rotate(180 170.36336524194462 0)" font-family="Helvetica Neue, Helvetica, Arial, sans-serif">FEEDS</text></g><g class="relationship" transform="translate(-118.84885324153113 -182.19745433721465) rotate(434.4637009932868)"><path class="b-outline" fill="#A5ABB6" stroke="none" d="M 25 0.5 L 161.89776960755344 0.5 L 161.89776960755344 -0.5 L 25 -0.5 Z M 194.56964460755344 0.5 L 331.4674142151069 0.5 L 331.4674142151069 3.5 L 338.4674142151069 0 L 331.4674142151069 -3.5 L 331.4674142151069 -0.5 L 194.56964460755344 -0.5 Z"/><text text-anchor="middle" pointer-events="none" font-size="8px" fill="#000000" x="178.23370710755344" y="3" font-family="Helvetica Neue, Helvetica, Arial, sans-serif">FEEDS</text></g><g class="relationship" transform="translate(-58.30561169827192 -27.45187743857637) rotate(439.33337607761706)"><path class="b-outline" fill="#A5ABB6" stroke="none" d="M 25 0.5 L 79.6028287873575 0.5 L 79.6028287873575 -0.5 L 25 -0.5 Z M 112.2747037873575 0.5 L 166.877532574715 0.5 L 166.877532574715 3.5 L 173.877532574715 0 L 166.877532574715 -3.5 L 166.877532574715 -0.5 L 112.2747037873575 -0.5 Z"/><text text-anchor="middle" pointer-events="none" font-size="8px" fill="#000000" x="95.9387662873575" y="3" font-family="Helvetica Neue, Helvetica, Arial, sans-serif">FEEDS</text></g><g class="relationship" transform="translate(41.457794615337235 -13.161244308300866) rotate(469.16305857604067)"><path class="b-outline" fill="#A5ABB6" stroke="none" d="M 25 0.5 L 76.0526464031472 0.5 L 76.0526464031472 -0.5 L 25 -0.5 Z M 108.7245214031472 0.5 L 159.7771678062944 0.5 L 159.7771678062944 3.5 L 166.7771678062944 0 L 159.7771678062944 -3.5 L 159.7771678062944 -0.5 L 108.7245214031472 -0.5 Z"/><text text-anchor="middle" pointer-events="none" font-size="8px" fill="#000000" x="92.3885839031472" y="3" transform="rotate(180 92.3885839031472 0)" font-family="Helvetica Neue, Helvetica, Arial, sans-serif">FEEDS</text></g><g class="relationship" transform="translate(110.86477648870903 -74.34866492016637) rotate(478.6423411736194)"><path class="b-outline" fill="#A5ABB6" stroke="none" d="M 25 0.5 L 118.22802590594566 0.5 L 118.22802590594566 -0.5 L 25 -0.5 Z M 150.89990090594566 0.5 L 244.1279268118913 0.5 L 244.1279268118913 3.5 L 251.1279268118913 0 L 244.1279268118913 -3.5 L 244.1279268118913 -0.5 L 150.89990090594566 -0.5 Z"/><text text-anchor="middle" pointer-events="none" font-size="8px" fill="#000000" x="134.56396340594566" y="3" transform="rotate(180 134.56396340594566 0)" font-family="Helvetica Neue, Helvetica, Arial, sans-serif">FEEDS</text></g><g class="relationship" transform="translate(-15.567228983736895 62.87643377415214) rotate(453.22748965209894)"><path class="b-outline" fill="#A5ABB6" stroke="none" d="M 25 0.5 L 32.803943192923406 0.5 L 32.803943192923406 -0.5 L 25 -0.5 Z M 65.47581819292341 0.5 L 73.27976138584681 0.5 L 73.27976138584681 3.5 L 80.27976138584681 0 L 73.27976138584681 -3.5 L 73.27976138584681 -0.5 L 65.47581819292341 -0.5 Z"/><text text-anchor="middle" pointer-events="none" font-size="8px" fill="#000000" x="49.139880692923406" y="3" transform="rotate(180 49.139880692923406 0)" font-family="Helvetica Neue, Helvetica, Arial, sans-serif">FEEDS</text></g><g class="relationship" transform="translate(-188.4042515785442 -1.2266777249052203) rotate(405.39310218057483)"><path class="b-outline" fill="#A5ABB6" stroke="none" d="M 25 0.5 L 99.00520539511183 0.5 L 99.00520539511183 -0.5 L 25 -0.5 Z M 131.67708039511183 0.5 L 205.68228579022366 0.5 L 205.68228579022366 3.5 L 212.68228579022366 0 L 205.68228579022366 -3.5 L 205.68228579022366 -0.5 L 131.67708039511183 -0.5 Z"/><text text-anchor="middle" pointer-events="none" font-size="8px" fill="#000000" x="115.34114289511183" y="3" font-family="Helvetica Neue, Helvetica, Arial, sans-serif">FEEDS</text></g><g class="relationship" transform="translate(-246.15437009350325 -78.85806177670352) rotate(407.694146731551)"><path class="b-outline" fill="#A5ABB6" stroke="none" d="M 25 0.5 L 147.05146122882525 0.5 L 147.05146122882525 -0.5 L 25 -0.5 Z M 179.72333622882525 0.5 L 301.7747974576505 0.5 L 301.7747974576505 3.5 L 308.7747974576505 0 L 301.7747974576505 -3.5 L 301.7747974576505 -0.5 L 179.72333622882525 -0.5 Z"/><text text-anchor="middle" pointer-events="none" font-size="8px" fill="#000000" x="163.38739872882525" y="3" font-family="Helvetica Neue, Helvetica, Arial, sans-serif">FEEDS</text></g><g class="relationship" transform="translate(-199.45653862595827 240.48118858439614) rotate(387.92395834846866)"><path class="b-outline" fill="#A5ABB6" stroke="none" d="M 25 0.5 L 34.08867573831936 0.5 L 34.08867573831936 -0.5 L 25 -0.5 Z M 66.76055073831935 0.5 L 75.84922647663872 0.5 L 75.84922647663872 3.5 L 82.84922647663872 0 L 75.84922647663872 -3.5 L 75.84922647663872 -0.5 L 66.76055073831935 -0.5 Z"/><text text-anchor="middle" pointer-events="none" font-size="8px" fill="#000000" x="50.42461323831936" y="3" font-family="Helvetica Neue, Helvetica, Arial, sans-serif">FEEDS</text></g><g class="relationship" transform="translate(-104.16420977355692 290.98690819609067) rotate(368.94477470833067)"><path class="b-outline" fill="#A5ABB6" stroke="none" d="M 25 0.5 L 56.421072318720874 0.5 L 56.421072318720874 -0.5 L 25 -0.5 Z M 89.09294731872087 0.5 L 120.51401963744175 0.5 L 120.51401963744175 3.5 L 127.51401963744175 0 L 120.51401963744175 -3.5 L 120.51401963744175 -0.5 L 89.09294731872087 -0.5 Z"/><text text-anchor="middle" pointer-events="none" font-size="8px" fill="#000000" x="72.75700981872087" y="3" font-family="Helvetica Neue, Helvetica, Arial, sans-serif">FEEDS</text></g><g class="relationship" transform="translate(46.49503550344565 314.7001534091345) rotate(398.9317009251254)"><path class="b-outline" fill="#A5ABB6" stroke="none" d="M 25 0.5 L 77.2647046762068 0.5 L 77.2647046762068 -0.5 L 25 -0.5 Z M 109.9365796762068 0.5 L 162.2012843524136 0.5 L 162.2012843524136 3.5 L 169.2012843524136 0 L 162.2012843524136 -3.5 L 162.2012843524136 -0.5 L 109.9365796762068 -0.5 Z"/><text text-anchor="middle" pointer-events="none" font-size="8px" fill="#000000" x="93.6006421762068" y="3" font-family="Helvetica Neue, Helvetica, Arial, sans-serif">FEEDS</text></g><g class="relationship" transform="translate(564.544096495315 164.44303682922174) rotate(234.86990025578234)"><path class="b-outline" fill="#A5ABB6" stroke="none" d="M 25 0.5 L 269.6188367672588 0.5 L 269.6188367672588 -0.5 L 25 -0.5 Z M 302.2907117672588 0.5 L 546.9095485345176 0.5 L 546.9095485345176 3.5 L 553.9095485345176 0 L 546.9095485345176 -3.5 L 546.9095485345176 -0.5 L 302.2907117672588 -0.5 Z"/><text text-anchor="middle" pointer-events="none" font-size="8px" fill="#000000" x="285.9547742672588" y="3" transform="rotate(180 285.9547742672588 0)" font-family="Helvetica Neue, Helvetica, Arial, sans-serif">FEEDS</text></g><g class="relationship" transform="translate(231.41929250082694 -309.01670839530414) rotate(437.20442893896274)"><path class="b-outline" fill="#A5ABB6" stroke="none" d="M 25 0.5 L 224.89849410108798 0.5 L 224.89849410108798 -0.5 L 25 -0.5 Z M 257.570369101088 0.5 L 457.46886320217595 0.5 L 457.46886320217595 3.5 L 464.46886320217595 0 L 457.46886320217595 -3.5 L 457.46886320217595 -0.5 L 257.570369101088 -0.5 Z"/><text text-anchor="middle" pointer-events="none" font-size="8px" fill="#000000" x="241.23443160108798" y="3" font-family="Helvetica Neue, Helvetica, Arial, sans-serif">FEEDS</text></g><g class="relationship" transform="translate(226.39412791158833 -19.04295580523587) rotate(270.99282056472003)"><path class="b-outline" fill="#A5ABB6" stroke="none" d="M 25 0.5 L 124.05747396233883 0.5 L 124.05747396233883 -0.5 L 25 -0.5 Z M 158.95981771233883 0.5 L 258.01729167467767 0.5 L 258.01729167467767 3.5 L 265.01729167467767 0 L 258.01729167467767 -3.5 L 258.01729167467767 -0.5 L 158.95981771233883 -0.5 Z"/><text text-anchor="middle" pointer-events="none" font-size="8px" fill="#000000" x="141.50864583733883" y="3" font-family="Helvetica Neue, Helvetica, Arial, sans-serif">BIASES</text></g><g class="relationship" transform="translate(339.04078028332907 -302.0879868260009) rotate(183.6836452373584)"><path class="b-outline" fill="#A5ABB6" stroke="none" d="M 25 0.5 L 34.08620965472712 0.5 L 34.08620965472712 -0.5 L 25 -0.5 Z M 66.75808465472713 0.5 L 75.84429430945424 0.5 L 75.84429430945424 3.5 L 82.84429430945424 0 L 75.84429430945424 -3.5 L 75.84429430945424 -0.5 L 66.75808465472713 -0.5 Z"/><text text-anchor="middle" pointer-events="none" font-size="8px" fill="#000000" x="50.42214715472712" y="3" transform="rotate(180 50.42214715472712 0)" font-family="Helvetica Neue, Helvetica, Arial, sans-serif">FEEDS</text></g><g class="relationship" transform="translate(231.41929250082694 -309.01670839530414) rotate(187.79995062894642)"><path class="b-outline" fill="#A5ABB6" stroke="none" d="M 25 0.5 L 95.51891319943246 0.5 L 95.51891319943246 -0.5 L 25 -0.5 Z M 128.19078819943246 0.5 L 198.70970139886492 0.5 L 198.70970139886492 3.5 L 205.70970139886492 0 L 198.70970139886492 -3.5 L 198.70970139886492 -0.5 L 128.19078819943246 -0.5 Z"/><text text-anchor="middle" pointer-events="none" font-size="8px" fill="#000000" x="111.85485069943246" y="3" transform="rotate(180 111.85485069943246 0)" font-family="Helvetica Neue, Helvetica, Arial, sans-serif">FEEDS</text></g><g class="relationship" transform="translate(2.844127083966214 -340.32741062646096) rotate(409.96746294045613)"><path class="b-outline" fill="#A5ABB6" stroke="none" d="M 25 0.5 L 128.9458541758305 0.5 L 128.9458541758305 -0.5 L 25 -0.5 Z M 161.6177291758305 0.5 L 265.563583351661 0.5 L 265.563583351661 3.5 L 272.563583351661 0 L 265.563583351661 -3.5 L 265.563583351661 -0.5 L 161.6177291758305 -0.5 Z"/><text text-anchor="middle" pointer-events="none" font-size="8px" fill="#000000" x="145.2817916758305" y="3" font-family="Helvetica Neue, Helvetica, Arial, sans-serif">FEEDS</text></g><g class="relationship" transform="translate(2.844127083966214 -340.32741062646096) rotate(466.2552331429469)"><path class="b-outline" fill="#A5ABB6" stroke="none" d="M 25 0.5 L 182.50005267948862 0.5 L 182.50005267948862 -0.5 L 25 -0.5 Z M 215.17192767948862 0.5 L 372.67198035897724 0.5 L 372.67198035897724 3.5 L 379.67198035897724 0 L 372.67198035897724 -3.5 L 372.67198035897724 -0.5 L 215.17192767948862 -0.5 Z"/><text text-anchor="middle" pointer-events="none" font-size="8px" fill="#000000" x="198.83599017948862" y="3" transform="rotate(180 198.83599017948862 0)" font-family="Helvetica Neue, Helvetica, Arial, sans-serif">FEEDS</text></g><g class="relationship" transform="translate(2.844127083966214 -340.32741062646096) rotate(493.12116227399514)"><path class="b-outline" fill="#A5ABB6" stroke="none" d="M 25 0.5 L 33.915268209864855 0.5 L 33.915268209864855 -0.5 L 25 -0.5 Z M 66.58714320986485 0.5 L 75.50241141972971 0.5 L 75.50241141972971 3.5 L 82.50241141972971 0 L 75.50241141972971 -3.5 L 75.50241141972971 -0.5 L 66.58714320986485 -0.5 Z"/><text text-anchor="middle" pointer-events="none" font-size="8px" fill="#000000" x="50.251205709864855" y="3" transform="rotate(180 50.251205709864855 0)" font-family="Helvetica Neue, Helvetica, Arial, sans-serif">FEEDS</text></g><g class="relationship" transform="translate(2.844127083966214 -340.32741062646096) rotate(446.05579826755235)"><path class="b-outline" fill="#A5ABB6" stroke="none" d="M 25 0.5 L 102.08363421228748 0.5 L 102.08363421228748 -0.5 L 25 -0.5 Z M 134.75550921228748 0.5 L 211.83914342457496 0.5 L 211.83914342457496 3.5 L 218.83914342457496 0 L 211.83914342457496 -3.5 L 211.83914342457496 -0.5 L 134.75550921228748 -0.5 Z"/><text text-anchor="middle" pointer-events="none" font-size="8px" fill="#000000" x="118.41957171228748" y="3" font-family="Helvetica Neue, Helvetica, Arial, sans-serif">FEEDS</text></g><g class="relationship" transform="translate(2.844127083966214 -340.32741062646096) rotate(399.6949295776779)"><path class="b-outline" fill="#A5ABB6" stroke="none" d="M 25 0.5 L 86.37635018132023 0.5 L 86.37635018132023 -0.5 L 25 -0.5 Z M 119.04822518132023 0.5 L 180.42457536264047 0.5 L 180.42457536264047 3.5 L 187.42457536264047 0 L 180.42457536264047 -3.5 L 180.42457536264047 -0.5 L 119.04822518132023 -0.5 Z"/><text text-anchor="middle" pointer-events="none" font-size="8px" fill="#000000" x="102.71228768132023" y="3" font-family="Helvetica Neue, Helvetica, Arial, sans-serif">FEEDS</text></g><g class="relationship" transform="translate(2.844127083966214 -340.32741062646096) rotate(430.11678368220737)"><path class="b-outline" fill="#A5ABB6" stroke="none" d="M 25 0.5 L 167.13307636384712 0.5 L 167.13307636384712 -0.5 L 25 -0.5 Z M 199.80495136384712 0.5 L 341.93802772769425 0.5 L 341.93802772769425 3.5 L 348.93802772769425 0 L 341.93802772769425 -3.5 L 341.93802772769425 -0.5 L 199.80495136384712 -0.5 Z"/><text text-anchor="middle" pointer-events="none" font-size="8px" fill="#000000" x="183.46901386384712" y="3" font-family="Helvetica Neue, Helvetica, Arial, sans-serif">FEEDS</text></g><g class="relationship" transform="translate(2.844127083966214 -340.32741062646096) rotate(414.76946863969033)"><path class="b-outline" fill="#A5ABB6" stroke="none" d="M 25 0.5 L 31.944239816680366 0.5 L 31.944239816680366 -0.5 L 25 -0.5 Z M 64.61611481668037 0.5 L 71.56035463336073 0.5 L 71.56035463336073 3.5 L 78.56035463336073 0 L 71.56035463336073 -3.5 L 71.56035463336073 -0.5 L 64.61611481668037 -0.5 Z"/><text text-anchor="middle" pointer-events="none" font-size="8px" fill="#000000" x="48.280177316680366" y="3" font-family="Helvetica Neue, Helvetica, Arial, sans-serif">FEEDS</text></g><g class="relationship" transform="translate(2.844127083966214 -340.32741062646096) rotate(501.00684321161145)"><path class="b-outline" fill="#A5ABB6" stroke="none" d="M 25 0.5 L 118.20855826505206 0.5 L 118.20855826505206 -0.5 L 25 -0.5 Z M 150.88043326505206 0.5 L 244.08899153010412 0.5 L 244.08899153010412 3.5 L 251.08899153010412 0 L 244.08899153010412 -3.5 L 244.08899153010412 -0.5 L 150.88043326505206 -0.5 Z"/><text text-anchor="middle" pointer-events="none" font-size="8px" fill="#000000" x="134.54449576505206" y="3" transform="rotate(180 134.54449576505206 0)" font-family="Helvetica Neue, Helvetica, Arial, sans-serif">FEEDS</text></g><g class="relationship" transform="translate(2.844127083966214 -340.32741062646096) rotate(481.75706373019733)"><path class="b-outline" fill="#A5ABB6" stroke="none" d="M 25 0.5 L 127.98494825558245 0.5 L 127.98494825558245 -0.5 L 25 -0.5 Z M 160.65682325558245 0.5 L 263.6417715111649 0.5 L 263.6417715111649 3.5 L 270.6417715111649 0 L 263.6417715111649 -3.5 L 263.6417715111649 -0.5 L 160.65682325558245 -0.5 Z"/><text text-anchor="middle" pointer-events="none" font-size="8px" fill="#000000" x="144.32088575558245" y="3" transform="rotate(180 144.32088575558245 0)" font-family="Helvetica Neue, Helvetica, Arial, sans-serif">FEEDS</text></g><g class="relationship" transform="translate(2.844127083966214 -340.32741062646096) rotate(513.4109291682362)"><path class="b-outline" fill="#A5ABB6" stroke="none" d="M 25 0.5 L 76.38454691467355 0.5 L 76.38454691467355 -0.5 L 25 -0.5 Z M 109.05642191467355 0.5 L 160.4409688293471 0.5 L 160.4409688293471 3.5 L 167.4409688293471 0 L 160.4409688293471 -3.5 L 160.4409688293471 -0.5 L 109.05642191467355 -0.5 Z"/><text text-anchor="middle" pointer-events="none" font-size="8px" fill="#000000" x="92.72048441467355" y="3" transform="rotate(180 92.72048441467355 0)" font-family="Helvetica Neue, Helvetica, Arial, sans-serif">FEEDS</text></g><g class="relationship" transform="translate(2.844127083966214 -340.32741062646096) rotate(454.9893348491497)"><path class="b-outline" fill="#A5ABB6" stroke="none" d="M 25 0.5 L 55.26901198040363 0.5 L 55.26901198040363 -0.5 L 25 -0.5 Z M 87.94088698040363 0.5 L 118.20989896080727 0.5 L 118.20989896080727 3.5 L 125.20989896080727 0 L 118.20989896080727 -3.5 L 118.20989896080727 -0.5 L 87.94088698040363 -0.5 Z"/><text text-anchor="middle" pointer-events="none" font-size="8px" fill="#000000" x="71.60494948040363" y="3" transform="rotate(180 71.60494948040363 0)" font-family="Helvetica Neue, Helvetica, Arial, sans-serif">FEEDS</text></g><g class="relationship" transform="translate(2.844127083966214 -340.32741062646096) rotate(465.61636339140284)"><path class="b-outline" fill="#A5ABB6" stroke="none" d="M 25 0.5 L 98.1846470181032 0.5 L 98.1846470181032 -0.5 L 25 -0.5 Z M 130.8565220181032 0.5 L 204.0411690362064 0.5 L 204.0411690362064 3.5 L 211.0411690362064 0 L 204.0411690362064 -3.5 L 204.0411690362064 -0.5 L 130.8565220181032 -0.5 Z"/><text text-anchor="middle" pointer-events="none" font-size="8px" fill="#000000" x="114.5205845181032" y="3" transform="rotate(180 114.5205845181032 0)" font-family="Helvetica Neue, Helvetica, Arial, sans-serif">FEEDS</text></g><g class="relationship" transform="translate(2.844127083966214 -340.32741062646096) rotate(426.4975432357477)"><path class="b-outline" fill="#A5ABB6" stroke="none" d="M 25 0.5 L 75.83780370930997 0.5 L 75.83780370930997 -0.5 L 25 -0.5 Z M 108.50967870930997 0.5 L 159.34748241861993 0.5 L 159.34748241861993 3.5 L 166.34748241861993 0 L 159.34748241861993 -3.5 L 159.34748241861993 -0.5 L 108.50967870930997 -0.5 Z"/><text text-anchor="middle" pointer-events="none" font-size="8px" fill="#000000" x="92.17374120930997" y="3" font-family="Helvetica Neue, Helvetica, Arial, sans-serif">FEEDS</text></g><g class="relationship" transform="translate(2.844127083966214 -340.32741062646096) rotate(487.5810081072284)"><path class="b-outline" fill="#A5ABB6" stroke="none" d="M 25 0.5 L 79.9316230301403 0.5 L 79.9316230301403 -0.5 L 25 -0.5 Z M 112.6034980301403 0.5 L 167.5351210602806 0.5 L 167.5351210602806 3.5 L 174.5351210602806 0 L 167.5351210602806 -3.5 L 167.5351210602806 -0.5 L 112.6034980301403 -0.5 Z"/><text text-anchor="middle" pointer-events="none" font-size="8px" fill="#000000" x="96.2675605301403" y="3" transform="rotate(180 96.2675605301403 0)" font-family="Helvetica Neue, Helvetica, Arial, sans-serif">FEEDS</text></g><g class="relationship" transform="translate(2.844127083966214 -340.32741062646096) rotate(461.0587308060142)"><path class="b-outline" fill="#A5ABB6" stroke="none" d="M 25 0.5 L 139.56167055979728 0.5 L 139.56167055979728 -0.5 L 25 -0.5 Z M 172.23354555979728 0.5 L 286.79521611959456 0.5 L 286.79521611959456 3.5 L 293.79521611959456 0 L 286.79521611959456 -3.5 L 286.79521611959456 -0.5 L 172.23354555979728 -0.5 Z"/><text text-anchor="middle" pointer-events="none" font-size="8px" fill="#000000" x="155.89760805979728" y="3" transform="rotate(180 155.89760805979728 0)" font-family="Helvetica Neue, Helvetica, Arial, sans-serif">FEEDS</text></g><g class="relationship" transform="translate(2.844127083966214 -340.32741062646096) rotate(443.2688259160252)"><path class="b-outline" fill="#A5ABB6" stroke="none" d="M 25 0.5 L 144.8825463622743 0.5 L 144.8825463622743 -0.5 L 25 -0.5 Z M 177.5544213622743 0.5 L 297.4369677245486 0.5 L 297.4369677245486 3.5 L 304.4369677245486 0 L 297.4369677245486 -3.5 L 297.4369677245486 -0.5 L 177.5544213622743 -0.5 Z"/><text text-anchor="middle" pointer-events="none" font-size="8px" fill="#000000" x="161.2184838622743" y="3" font-family="Helvetica Neue, Helvetica, Arial, sans-serif">FEEDS</text></g><g class="relationship" transform="translate(2.844127083966214 -340.32741062646096) rotate(427.8966935451575)"><path class="b-outline" fill="#A5ABB6" stroke="none" d="M 25 0.5 L 123.70251890220959 0.5 L 123.70251890220959 -0.5 L 25 -0.5 Z M 156.3743939022096 0.5 L 255.07691280441918 0.5 L 255.07691280441918 3.5 L 262.0769128044192 0 L 255.07691280441918 -3.5 L 255.07691280441918 -0.5 L 156.3743939022096 -0.5 Z"/><text text-anchor="middle" pointer-events="none" font-size="8px" fill="#000000" x="140.0384564022096" y="3" font-family="Helvetica Neue, Helvetica, Arial, sans-serif">FEEDS</text></g><g class="relationship" transform="translate(2.844127083966214 -340.32741062646096) rotate(452.6144610235791)"><path class="b-outline" fill="#A5ABB6" stroke="none" d="M 25 0.5 L 181.97605308262467 0.5 L 181.97605308262467 -0.5 L 25 -0.5 Z M 214.64792808262467 0.5 L 371.62398116524935 0.5 L 371.62398116524935 3.5 L 378.62398116524935 0 L 371.62398116524935 -3.5 L 371.62398116524935 -0.5 L 214.64792808262467 -0.5 Z"/><text text-anchor="middle" pointer-events="none" font-size="8px" fill="#000000" x="198.31199058262467" y="3" transform="rotate(180 198.31199058262467 0)" font-family="Helvetica Neue, Helvetica, Arial, sans-serif">FEEDS</text></g><g class="relationship" transform="translate(2.844127083966214 -340.32741062646096) rotate(479.42242980447946)"><path class="b-outline" fill="#A5ABB6" stroke="none" d="M 25 0.5 L 174.82097182729 0.5 L 174.82097182729 -0.5 L 25 -0.5 Z M 207.49284682729 0.5 L 357.31381865458 0.5 L 357.31381865458 3.5 L 364.31381865458 0 L 357.31381865458 -3.5 L 357.31381865458 -0.5 L 207.49284682729 -0.5 Z"/><text text-anchor="middle" pointer-events="none" font-size="8px" fill="#000000" x="191.15690932729" y="3" transform="rotate(180 191.15690932729 0)" font-family="Helvetica Neue, Helvetica, Arial, sans-serif">FEEDS</text></g><g class="relationship" transform="translate(2.844127083966214 -340.32741062646096) rotate(493.60052876550156)"><path class="b-outline" fill="#A5ABB6" stroke="none" d="M 25 0.5 L 160.69555004757052 0.5 L 160.69555004757052 -0.5 L 25 -0.5 Z M 193.36742504757052 0.5 L 329.06297509514104 0.5 L 329.06297509514104 3.5 L 336.06297509514104 0 L 329.06297509514104 -3.5 L 329.06297509514104 -0.5 L 193.36742504757052 -0.5 Z"/><text text-anchor="middle" pointer-events="none" font-size="8px" fill="#000000" x="177.03148754757052" y="3" transform="rotate(180 177.03148754757052 0)" font-family="Helvetica Neue, Helvetica, Arial, sans-serif">FEEDS</text></g><g class="relationship" transform="translate(-21.49453591563902 167.9892074507889) rotate(183.8565836391615)"><path class="b-outline" fill="#A5ABB6" stroke="none" d="M 24.018736134675446,-6.953439040707552 L 24.277555179777966,-5.987513214418485 A 302.5019163828671 302.5019163828671 0 0 1 83.71110191963372,-15.706532203115216 L 83.64875616452065,-16.704586814256004 A 303.5019163828671 303.5019163828671 0 0 0 24.018736134675446,-6.953439040707552 Z M 116.35751918216462,-16.98172077405121 L 116.31209374621746,-15.98275304195522 A 302.5019163828671 302.5019163828671 0 0 1 175.90179016182944,-7.272191103913102 L 175.1745454020044,-4.361673098590502 L 182.81420630088635,-6.060372998541828 L 176.87144984159613,-11.15288177767657 L 176.1442050817711,-8.242363772353968 A 303.5019163828671 303.5019163828671 0 0 0 116.35751918216462,-16.98172077405121"/><text text-anchor="middle" pointer-events="none" font-size="8px" fill="#000000" x="100.0036376778652" y="-13.784140710919985" transform="rotate(180 100.0036376778652 -16.784140710919985)" font-family="Helvetica Neue, Helvetica, Arial, sans-serif">FEEDS</text></g><g class="relationship" transform="translate(-21.49453591563902 167.9892074507889) rotate(517.8367073479283)"><path class="b-outline" fill="#A5ABB6" stroke="none" d="M 25 0.5 L 76.24418757452172 0.5 L 76.24418757452172 -0.5 L 25 -0.5 Z M 108.91606257452172 0.5 L 160.16025014904343 0.5 L 160.16025014904343 3.5 L 167.16025014904343 0 L 160.16025014904343 -3.5 L 160.16025014904343 -0.5 L 108.91606257452172 -0.5 Z"/><text text-anchor="middle" pointer-events="none" font-size="8px" fill="#000000" x="92.58012507452172" y="3" transform="rotate(180 92.58012507452172 0)" font-family="Helvetica Neue, Helvetica, Arial, sans-serif">FEEDS</text></g><g class="relationship" transform="translate(-228.09415879176112 154.06193026616927) rotate(363.8565836391615)"><path class="b-outline" fill="#A5ABB6" stroke="none" d="M 24.018736134675446,-6.953439040707552 L 24.277555179777966,-5.987513214418485 A 302.5019163828671 302.5019163828671 0 0 1 83.71110191963372,-15.706532203115216 L 83.64875616452065,-16.704586814256004 A 303.5019163828671 303.5019163828671 0 0 0 24.018736134675446,-6.953439040707552 Z M 116.35751918216462,-16.98172077405121 L 116.31209374621746,-15.98275304195522 A 302.5019163828671 302.5019163828671 0 0 1 175.90179016182944,-7.272191103913102 L 175.1745454020044,-4.361673098590502 L 182.81420630088635,-6.060372998541828 L 176.87144984159613,-11.15288177767657 L 176.1442050817711,-8.242363772353968 A 303.5019163828671 303.5019163828671 0 0 0 116.35751918216462,-16.98172077405121"/><text text-anchor="middle" pointer-events="none" font-size="8px" fill="#000000" x="100.0036376778652" y="-13.784140710919985" font-family="Helvetica Neue, Helvetica, Arial, sans-serif">FEEDS</text></g><g class="relationship" transform="translate(-199.45653862595827 240.48118858439614) rotate(466.24977835930173)"><path class="b-outline" fill="#A5ABB6" stroke="none" d="M 25 0.5 L 46.117525411425206 0.5 L 46.117525411425206 -0.5 L 25 -0.5 Z M 78.7894004114252 0.5 L 99.90692582285041 0.5 L 99.90692582285041 3.5 L 106.90692582285041 0 L 99.90692582285041 -3.5 L 99.90692582285041 -0.5 L 78.7894004114252 -0.5 Z"/><text text-anchor="middle" pointer-events="none" font-size="8px" fill="#000000" x="62.453462911425206" y="3" transform="rotate(180 62.453462911425206 0)" font-family="Helvetica Neue, Helvetica, Arial, sans-serif">FEEDS</text></g><g class="relationship" transform="translate(-320.0377722376005 84.03278083841082) rotate(375.7070623171409)"><path class="b-outline" fill="#A5ABB6" stroke="none" d="M 25 0.5 L 134.11070732416857 0.5 L 134.11070732416857 -0.5 L 25 -0.5 Z M 169.01305107416857 0.5 L 278.12375839833715 0.5 L 278.12375839833715 3.5 L 285.12375839833715 0 L 278.12375839833715 -3.5 L 278.12375839833715 -0.5 L 169.01305107416857 -0.5 Z"/><text text-anchor="middle" pointer-events="none" font-size="8px" fill="#000000" x="151.56187919916857" y="3" font-family="Helvetica Neue, Helvetica, Arial, sans-serif">BIASES</text></g><g class="relationship" transform="translate(-320.0377722376005 84.03278083841082) rotate(397.29482842337706)"><path class="b-outline" fill="#A5ABB6" stroke="none" d="M 25 0.5 L 36.83660759231744 0.5 L 36.83660759231744 -0.5 L 25 -0.5 Z M 71.73895134231745 0.5 L 83.57555893463488 0.5 L 83.57555893463488 3.5 L 90.57555893463488 0 L 83.57555893463488 -3.5 L 83.57555893463488 -0.5 L 71.73895134231745 -0.5 Z"/><text text-anchor="middle" pointer-events="none" font-size="8px" fill="#000000" x="54.28777946731744" y="3" font-family="Helvetica Neue, Helvetica, Arial, sans-serif">BIASES</text></g><g class="relationship" transform="translate(-236.3674337441816 367.1185562986947) rotate(330.0637230654063)"><path class="b-outline" fill="#A5ABB6" stroke="none" d="M 25 0.5 L 56.44269691201259 0.5 L 56.44269691201259 -0.5 L 25 -0.5 Z M 89.1145719120126 0.5 L 120.55726882402519 0.5 L 120.55726882402519 3.5 L 127.55726882402519 0 L 120.55726882402519 -3.5 L 120.55726882402519 -0.5 L 89.1145719120126 -0.5 Z"/><text text-anchor="middle" pointer-events="none" font-size="8px" fill="#000000" x="72.7786344120126" y="3" font-family="Helvetica Neue, Helvetica, Arial, sans-serif">FEEDS</text></g><g class="relationship" transform="translate(-104.16420977355692 290.98690819609067) rotate(414.04102597184465)"><path class="b-outline" fill="#A5ABB6" stroke="none" d="M 25 0.5 L 71.00284281961518 0.5 L 71.00284281961518 -0.5 L 25 -0.5 Z M 103.67471781961518 0.5 L 149.67756063923036 0.5 L 149.67756063923036 3.5 L 156.67756063923036 0 L 149.67756063923036 -3.5 L 149.67756063923036 -0.5 L 103.67471781961518 -0.5 Z"/><text text-anchor="middle" pointer-events="none" font-size="8px" fill="#000000" x="87.33878031961518" y="3" font-family="Helvetica Neue, Helvetica, Arial, sans-serif">FEEDS</text></g><g class="relationship" transform="translate(-338.77936200272893 290.04832834224464) rotate(340.4158726042742)"><path class="b-outline" fill="#A5ABB6" stroke="none" d="M 25 0.5 L 52.987570434848834 0.5 L 52.987570434848834 -0.5 L 25 -0.5 Z M 87.88991418484883 0.5 L 115.87748461969767 0.5 L 115.87748461969767 3.5 L 122.87748461969767 0 L 115.87748461969767 -3.5 L 115.87748461969767 -0.5 L 87.88991418484883 -0.5 Z"/><text text-anchor="middle" pointer-events="none" font-size="8px" fill="#000000" x="70.43874230984883" y="3" font-family="Helvetica Neue, Helvetica, Arial, sans-serif">BIASES</text></g><g class="relationship" transform="translate(-338.77936200272893 290.04832834224464) rotate(396.96333687708744)"><path class="b-outline" fill="#A5ABB6" stroke="none" d="M 25 0.5 L 43.13475303619448 0.5 L 43.13475303619448 -0.5 L 25 -0.5 Z M 78.03709678619448 0.5 L 96.17184982238896 0.5 L 96.17184982238896 3.5 L 103.17184982238896 0 L 96.17184982238896 -3.5 L 96.17184982238896 -0.5 L 78.03709678619448 -0.5 Z"/><text text-anchor="middle" pointer-events="none" font-size="8px" fill="#000000" x="60.58592491119448" y="3" font-family="Helvetica Neue, Helvetica, Arial, sans-serif">BIASES</text></g><g class="relationship" transform="translate(2.5179102010316186 438.04356842455064) rotate(289.6232932617941)"><path class="b-outline" fill="#A5ABB6" stroke="none" d="M 25 0.5 L 45.63845745239611 0.5 L 45.63845745239611 -0.5 L 25 -0.5 Z M 78.31033245239611 0.5 L 98.94878990479222 0.5 L 98.94878990479222 3.5 L 105.94878990479222 0 L 98.94878990479222 -3.5 L 98.94878990479222 -0.5 L 78.31033245239611 -0.5 Z"/><text text-anchor="middle" pointer-events="none" font-size="8px" fill="#000000" x="61.97439495239611" y="3" font-family="Helvetica Neue, Helvetica, Arial, sans-serif">FEEDS</text></g><g class="relationship" transform="translate(46.49503550344565 314.7001534091345) rotate(355.6717548768587)"><path class="b-outline" fill="#A5ABB6" stroke="none" d="M 25 0.5 L 50.89847105236473 0.5 L 50.89847105236473 -0.5 L 25 -0.5 Z M 83.57034605236473 0.5 L 109.46881710472945 0.5 L 109.46881710472945 3.5 L 116.46881710472945 0 L 109.46881710472945 -3.5 L 109.46881710472945 -0.5 L 83.57034605236473 -0.5 Z"/><text text-anchor="middle" pointer-events="none" font-size="8px" fill="#000000" x="67.23440855236473" y="3" font-family="Helvetica Neue, Helvetica, Arial, sans-serif">FEEDS</text></g><g class="relationship" transform="translate(46.49503550344565 314.7001534091345) rotate(381.99161094184285)"><path class="b-outline" fill="#A5ABB6" stroke="none" d="M 25 0.5 L 58.7065954928096 0.5 L 58.7065954928096 -0.5 L 25 -0.5 Z M 91.3784704928096 0.5 L 125.0850659856192 0.5 L 125.0850659856192 3.5 L 132.0850659856192 0 L 125.0850659856192 -3.5 L 125.0850659856192 -0.5 L 91.3784704928096 -0.5 Z"/><text text-anchor="middle" pointer-events="none" font-size="8px" fill="#000000" x="75.0425329928096" y="3" font-family="Helvetica Neue, Helvetica, Arial, sans-serif">FEEDS</text></g><g class="relationship" transform="translate(-119.44693186475969 432.860049696176) rotate(276.14825291753766)"><path class="b-outline" fill="#A5ABB6" stroke="none" d="M 25 0.5 L 50.395779485272186 0.5 L 50.395779485272186 -0.5 L 25 -0.5 Z M 85.29812323527219 0.5 L 110.69390272054437 0.5 L 110.69390272054437 3.5 L 117.69390272054437 0 L 110.69390272054437 -3.5 L 110.69390272054437 -0.5 L 85.29812323527219 -0.5 Z"/><text text-anchor="middle" pointer-events="none" font-size="8px" fill="#000000" x="67.84695136027219" y="3" font-family="Helvetica Neue, Helvetica, Arial, sans-serif">BIASES</text></g><g class="relationship" transform="translate(-119.44693186475969 432.860049696176) rotate(362.43361216889275)"><path class="b-outline" fill="#A5ABB6" stroke="none" d="M 25 0.5 L 40.08629933437439 0.5 L 40.08629933437439 -0.5 L 25 -0.5 Z M 74.98864308437439 0.5 L 90.07494241874878 0.5 L 90.07494241874878 3.5 L 97.07494241874878 0 L 90.07494241874878 -3.5 L 90.07494241874878 -0.5 L 74.98864308437439 -0.5 Z"/><text text-anchor="middle" pointer-events="none" font-size="8px" fill="#000000" x="57.53747120937439" y="3" font-family="Helvetica Neue, Helvetica, Arial, sans-serif">BIASES</text></g><g class="relationship" transform="translate(-119.44693186475969 432.860049696176) rotate(324.54702249344575)"><path class="b-outline" fill="#A5ABB6" stroke="none" d="M 25 0.5 L 80.90472832792754 0.5 L 80.90472832792754 -0.5 L 25 -0.5 Z M 115.80707207792754 0.5 L 171.7118004058551 0.5 L 171.7118004058551 3.5 L 178.7118004058551 0 L 171.7118004058551 -3.5 L 171.7118004058551 -0.5 L 115.80707207792754 -0.5 Z"/><text text-anchor="middle" pointer-events="none" font-size="8px" fill="#000000" x="98.35590020292754" y="3" font-family="Helvetica Neue, Helvetica, Arial, sans-serif">BIASES</text></g><g class="relationship" transform="translate(367.8925234394238 278.6954433485018) rotate(329.84388217758635)"><path class="b-outline" fill="#A5ABB6" stroke="none" d="M 24.018736134675446,-6.953439040707552 L 24.277555179777966,-5.987513214418485 A 342.1750259536134 342.1750259536134 0 0 1 93.88953828634982,-17.12173800644922 L 93.83415893680244,-18.120203392751478 A 343.1750259536134 343.1750259536134 0 0 0 24.018736134675446,-6.953439040707552 Z M 126.5403354132341,-18.37321979636596 L 126.50041011062754,-17.374017129129868 A 342.1750259536134 342.1750259536134 0 0 1 196.27632105231282,-7.318103147441219 L 195.54478882989457,-4.408659797320134 L 203.18694423966508,-6.09610185348547 L 197.2516973488705,-11.197360947602666 L 196.52016512645224,-8.28791759748158 A 343.1750259536134 343.1750259536134 0 0 0 126.5403354132341,-18.37321979636596"/><text text-anchor="middle" pointer-events="none" font-size="8px" fill="#000000" x="110.18809907256816" y="-15.136591020522246" font-family="Helvetica Neue, Helvetica, Arial, sans-serif">FEEDS</text></g><g class="relationship" transform="translate(564.544096495315 164.44303682922174) rotate(509.84388217758635)"><path class="b-outline" fill="#A5ABB6" stroke="none" d="M 24.018736134675446,-6.953439040707552 L 24.277555179777966,-5.987513214418485 A 342.1750259536134 342.1750259536134 0 0 1 93.88953828634982,-17.12173800644922 L 93.83415893680244,-18.120203392751478 A 343.1750259536134 343.1750259536134 0 0 0 24.018736134675446,-6.953439040707552 Z M 126.5403354132341,-18.37321979636596 L 126.50041011062754,-17.374017129129868 A 342.1750259536134 342.1750259536134 0 0 1 196.27632105231282,-7.318103147441219 L 195.54478882989457,-4.408659797320134 L 203.18694423966508,-6.09610185348547 L 197.2516973488705,-11.197360947602666 L 196.52016512645224,-8.28791759748158 A 343.1750259536134 343.1750259536134 0 0 0 126.5403354132341,-18.37321979636596"/><text text-anchor="middle" pointer-events="none" font-size="8px" fill="#000000" x="110.18809907256816" y="-15.136591020522246" transform="rotate(180 110.18809907256816 -18.136591020522246)" font-family="Helvetica Neue, Helvetica, Arial, sans-serif">FEEDS</text></g><g class="relationship" transform="translate(187.56039062457796 304.02345927844885) rotate(352.0049890814274)"><path class="b-outline" fill="#A5ABB6" stroke="none" d="M 25 0.5 L 71.21512855155547 0.5 L 71.21512855155547 -0.5 L 25 -0.5 Z M 103.88700355155547 0.5 L 150.10213210311093 0.5 L 150.10213210311093 3.5 L 157.10213210311093 0 L 150.10213210311093 -3.5 L 150.10213210311093 -0.5 L 103.88700355155547 -0.5 Z"/><text text-anchor="middle" pointer-events="none" font-size="8px" fill="#000000" x="87.55106605155547" y="3" font-family="Helvetica Neue, Helvetica, Arial, sans-serif">FEEDS</text></g><g class="relationship" transform="translate(263.54558973617475 250.66139247142803) rotate(504.9208130962974)"><path class="b-outline" fill="#A5ABB6" stroke="none" d="M 25 0.5 L 25.474200115825134 0.5 L 25.474200115825134 -0.5 L 25 -0.5 Z M 60.376543865825134 0.5 L 60.85074398165027 0.5 L 60.85074398165027 3.5 L 67.85074398165027 0 L 60.85074398165027 -3.5 L 60.85074398165027 -0.5 L 60.376543865825134 -0.5 Z"/><text text-anchor="middle" pointer-events="none" font-size="8px" fill="#000000" x="42.925371990825134" y="3" transform="rotate(180 42.925371990825134 0)" font-family="Helvetica Neue, Helvetica, Arial, sans-serif">BIASES</text></g><g class="relationship" transform="translate(263.54558973617475 250.66139247142803) rotate(375.03809567760027)"><path class="b-outline" fill="#A5ABB6" stroke="none" d="M 25 0.5 L 33.07241228471819 0.5 L 33.07241228471819 -0.5 L 25 -0.5 Z M 67.97475603471818 0.5 L 76.04716831943638 0.5 L 76.04716831943638 3.5 L 83.04716831943638 0 L 76.04716831943638 -3.5 L 76.04716831943638 -0.5 L 67.97475603471818 -0.5 Z"/><text text-anchor="middle" pointer-events="none" font-size="8px" fill="#000000" x="50.52358415971819" y="3" font-family="Helvetica Neue, Helvetica, Arial, sans-serif">BIASES</text></g><g class="relationship" transform="translate(263.54558973617475 250.66139247142803) rotate(344.0161088433597)"><path class="b-outline" fill="#A5ABB6" stroke="none" d="M 25 0.5 L 135.60050163959244 0.5 L 135.60050163959244 -0.5 L 25 -0.5 Z M 170.50284538959244 0.5 L 281.1033470291849 0.5 L 281.1033470291849 3.5 L 288.1033470291849 0 L 281.1033470291849 -3.5 L 281.1033470291849 -0.5 L 170.50284538959244 -0.5 Z"/><text text-anchor="middle" pointer-events="none" font-size="8px" fill="#000000" x="153.05167351459244" y="3" font-family="Helvetica Neue, Helvetica, Arial, sans-serif">BIASES</text></g><g class="relationship" transform="translate(192.15038682240322 373.52392911128896) rotate(351.69142404266813)"><path class="b-outline" fill="#A5ABB6" stroke="none" d="M 25 0.5 L 90.32367476505704 0.5 L 90.32367476505704 -0.5 L 25 -0.5 Z M 122.99554976505704 0.5 L 188.31922453011407 0.5 L 188.31922453011407 3.5 L 195.31922453011407 0 L 188.31922453011407 -3.5 L 188.31922453011407 -0.5 L 122.99554976505704 -0.5 Z"/><text text-anchor="middle" pointer-events="none" font-size="8px" fill="#000000" x="106.65961226505704" y="3" font-family="Helvetica Neue, Helvetica, Arial, sans-serif">FEEDS</text></g><g class="relationship" transform="translate(410.1571784325971 341.68685152272394) rotate(311.0572534991623)"><path class="b-outline" fill="#A5ABB6" stroke="none" d="M 25 0.5 L 97.69138944570327 0.5 L 97.69138944570327 -0.5 L 25 -0.5 Z M 130.36326444570327 0.5 L 203.05465389140653 0.5 L 203.05465389140653 3.5 L 210.05465389140653 0 L 203.05465389140653 -3.5 L 203.05465389140653 -0.5 L 130.36326444570327 -0.5 Z"/><text text-anchor="middle" pointer-events="none" font-size="8px" fill="#000000" x="114.02732694570327" y="3" font-family="Helvetica Neue, Helvetica, Arial, sans-serif">FEEDS</text></g><g class="relationship" transform="translate(226.39412791158833 -19.04295580523587) rotate(398.43610655282407)"><path class="b-outline" fill="#A5ABB6" stroke="none" d="M 25 0.5 L 122.3817561046699 0.5 L 122.3817561046699 -0.5 L 25 -0.5 Z M 157.2840998546699 0.5 L 254.6658559593398 0.5 L 254.6658559593398 3.5 L 261.6658559593398 0 L 254.6658559593398 -3.5 L 254.6658559593398 -0.5 L 157.2840998546699 -0.5 Z"/><text text-anchor="middle" pointer-events="none" font-size="8px" fill="#000000" x="139.8329279796699" y="3" font-family="Helvetica Neue, Helvetica, Arial, sans-serif">BIASES</text></g><g class="relationship" transform="translate(226.39412791158833 -19.04295580523587) rotate(484.53574135475435)"><path class="b-outline" fill="#A5ABB6" stroke="none" d="M 25 0.5 L 53.42689089696826 0.5 L 53.42689089696826 -0.5 L 25 -0.5 Z M 88.32923464696826 0.5 L 116.75612554393652 0.5 L 116.75612554393652 3.5 L 123.75612554393652 0 L 116.75612554393652 -3.5 L 116.75612554393652 -0.5 L 88.32923464696826 -0.5 Z"/><text text-anchor="middle" pointer-events="none" font-size="8px" fill="#000000" x="70.87806277196826" y="3" transform="rotate(180 70.87806277196826 0)" font-family="Helvetica Neue, Helvetica, Arial, sans-serif">BIASES</text></g><g class="relationship" transform="translate(226.39412791158833 -19.04295580523587) rotate(465.60357149979154)"><path class="b-outline" fill="#A5ABB6" stroke="none" d="M 25 0.5 L 113.40388538299663 0.5 L 113.40388538299663 -0.5 L 25 -0.5 Z M 148.30622913299663 0.5 L 236.71011451599327 0.5 L 236.71011451599327 3.5 L 243.71011451599327 0 L 236.71011451599327 -3.5 L 236.71011451599327 -0.5 L 148.30622913299663 -0.5 Z"/><text text-anchor="middle" pointer-events="none" font-size="8px" fill="#000000" x="130.85505725799663" y="3" transform="rotate(180 130.85505725799663 0)" font-family="Helvetica Neue, Helvetica, Arial, sans-serif">BIASES</text></g><g class="relationship" transform="translate(226.39412791158833 -19.04295580523587) rotate(472.7649825723306)"><path class="b-outline" fill="#A5ABB6" stroke="none" d="M 25 0.5 L 82.44136109426078 0.5 L 82.44136109426078 -0.5 L 25 -0.5 Z M 117.34370484426078 0.5 L 174.78506593852157 0.5 L 174.78506593852157 3.5 L 181.78506593852157 0 L 174.78506593852157 -3.5 L 174.78506593852157 -0.5 L 117.34370484426078 -0.5 Z"/><text text-anchor="middle" pointer-events="none" font-size="8px" fill="#000000" x="99.89253296926078" y="3" transform="rotate(180 99.89253296926078 0)" font-family="Helvetica Neue, Helvetica, Arial, sans-serif">BIASES</text></g><g class="relationship" transform="translate(226.39412791158833 -19.04295580523587) rotate(502.96542211127706)"><path class="b-outline" fill="#A5ABB6" stroke="none" d="M 25 0.5 L 134.3145839650084 0.5 L 134.3145839650084 -0.5 L 25 -0.5 Z M 169.2169277150084 0.5 L 278.5315116800168 0.5 L 278.5315116800168 3.5 L 285.5315116800168 0 L 278.5315116800168 -3.5 L 278.5315116800168 -0.5 L 169.2169277150084 -0.5 Z"/><text text-anchor="middle" pointer-events="none" font-size="8px" fill="#000000" x="151.7657558400084" y="3" transform="rotate(180 151.7657558400084 0)" font-family="Helvetica Neue, Helvetica, Arial, sans-serif">BIASES</text></g></g><g class="layer nodes"><g class="node" aria-label="graph-node161" transform="translate(339.04078028332907,-302.0879868260009)"><circle class="b-outline" cx="0" cy="0" r="25" fill="#C990C0" stroke="#b261a5" stroke-width="2px"/><text class="caption" text-anchor="middle" pointer-events="none" x="0" y="0" font-size="10px" fill="#FFFFFF" font-family="Helvetica Neue, Helvetica, Arial, sans-serif"> OpenAI,</text><text class="caption" text-anchor="middle" pointer-events="none" x="0" y="10" font-size="10px" fill="#FFFFFF" font-family="Helvetica Neue, Helvetica, Arial, sans-serif"> Inc.</text></g><g class="node" aria-label="graph-node162" transform="translate(231.41929250082694,-309.01670839530414)"><circle class="b-outline" cx="0" cy="0" r="25" fill="#C990C0" stroke="#b261a5" stroke-width="2px"/><text class="caption" text-anchor="middle" pointer-events="none" x="0" y="-5" font-size="10px" fill="#FFFFFF" font-family="Helvetica Neue, Helvetica, Arial, sans-serif"> OpenAI</text><text class="caption" text-anchor="middle" pointer-events="none" x="0" y="5" font-size="10px" fill="#FFFFFF" font-family="Helvetica Neue, Helvetica, Arial, sans-serif"> Global,</text><text class="caption" text-anchor="middle" pointer-events="none" x="0" y="15" font-size="10px" fill="#FFFFFF" font-family="Helvetica Neue, Helvetica, Arial, sans-serif"> LLC.</text></g><g class="node" aria-label="graph-node163" transform="translate(2.844127083966214,-340.32741062646096)"><circle class="b-outline" cx="0" cy="0" r="25" fill="#C990C0" stroke="#b261a5" stroke-width="2px"/><text class="caption" text-anchor="middle" pointer-events="none" x="0" y="-5" font-size="10px" fill="#FFFFFF" font-family="Helvetica Neue, Helvetica, Arial, sans-serif"> OpenAI</text><text class="caption" text-anchor="middle" pointer-events="none" x="0" y="5" font-size="10px" fill="#FFFFFF" font-family="Helvetica Neue, Helvetica, Arial, sans-serif"> Web</text><text class="caption" text-anchor="middle" pointer-events="none" x="0" y="15" font-size="10px" fill="#FFFFFF" font-family="Helvetica Neue, Helvetica, Arial, sans-serif"> Ser…</text></g><g class="node" aria-label="graph-node164" transform="translate(194.24372694125537,-112.48913616066689)"><circle class="b-outline" cx="0" cy="0" r="25" fill="#C990C0" stroke="#b261a5" stroke-width="2px"/><text class="caption" text-anchor="middle" pointer-events="none" x="0" y="5" font-size="10px" fill="#FFFFFF" font-family="Helvetica Neue, Helvetica, Arial, sans-serif"> Manufac…</text></g><g class="node" aria-label="graph-node165" transform="translate(-110.43031806609767,48.167520825162505)"><circle class="b-outline" cx="0" cy="0" r="25" fill="#C990C0" stroke="#b261a5" stroke-width="2px"/><text class="caption" text-anchor="middle" pointer-events="none" x="0" y="5" font-size="10px" fill="#FFFFFF" font-family="Helvetica Neue, Helvetica, Arial, sans-serif"> Energy</text></g><g class="node" aria-label="graph-node166" transform="translate(-70.63843817705177,-261.86034069443747)"><circle class="b-outline" cx="0" cy="0" r="25" fill="#C990C0" stroke="#b261a5" stroke-width="2px"/><text class="caption" text-anchor="middle" pointer-events="none" x="0" y="-5" font-size="10px" fill="#FFFFFF" font-family="Helvetica Neue, Helvetica, Arial, sans-serif"> Mining</text><text class="caption" text-anchor="middle" pointer-events="none" x="0" y="5" font-size="10px" fill="#FFFFFF" font-family="Helvetica Neue, Helvetica, Arial, sans-serif"> and</text><text class="caption" text-anchor="middle" pointer-events="none" x="0" y="15" font-size="10px" fill="#FFFFFF" font-family="Helvetica Neue, Helvetica, Arial, sans-serif"> Extr…</text></g><g class="node" aria-label="graph-node167" transform="translate(19.61659027874296,-97.06579765719223)"><circle class="b-outline" cx="0" cy="0" r="25" fill="#C990C0" stroke="#b261a5" stroke-width="2px"/><text class="caption" text-anchor="middle" pointer-events="none" x="0" y="0" font-size="10px" fill="#FFFFFF" font-family="Helvetica Neue, Helvetica, Arial, sans-serif"> Financial</text><text class="caption" text-anchor="middle" pointer-events="none" x="0" y="10" font-size="10px" fill="#FFFFFF" font-family="Helvetica Neue, Helvetica, Arial, sans-serif"> Servic…</text></g><g class="node" aria-label="graph-node168" transform="translate(166.295508170526,-204.65189242625536)"><circle class="b-outline" cx="0" cy="0" r="25" fill="#C990C0" stroke="#b261a5" stroke-width="2px"/><text class="caption" text-anchor="middle" pointer-events="none" x="0" y="5" font-size="10px" fill="#FFFFFF" font-family="Helvetica Neue, Helvetica, Arial, sans-serif"> Healthca…</text></g><g class="node" aria-label="graph-node169" transform="translate(130.02198216171215,11.31934644475345)"><circle class="b-outline" cx="0" cy="0" r="25" fill="#C990C0" stroke="#b261a5" stroke-width="2px"/><text class="caption" text-anchor="middle" pointer-events="none" x="0" y="5" font-size="10px" fill="#FFFFFF" font-family="Helvetica Neue, Helvetica, Arial, sans-serif"> Education</text></g><g class="node" aria-label="graph-node170" transform="translate(62.5847474174491,-255.73541730582753)"><circle class="b-outline" cx="0" cy="0" r="25" fill="#C990C0" stroke="#b261a5" stroke-width="2px"/><text class="caption" text-anchor="middle" pointer-events="none" x="0" y="0" font-size="10px" fill="#FFFFFF" font-family="Helvetica Neue, Helvetica, Arial, sans-serif"> Real</text><text class="caption" text-anchor="middle" pointer-events="none" x="0" y="10" font-size="10px" fill="#FFFFFF" font-family="Helvetica Neue, Helvetica, Arial, sans-serif"> Estate</text></g><g class="node" aria-label="graph-node171" transform="translate(-211.738068073438,-166.60460623527112)"><circle class="b-outline" cx="0" cy="0" r="25" fill="#C990C0" stroke="#b261a5" stroke-width="2px"/><text class="caption" text-anchor="middle" pointer-events="none" x="0" y="5" font-size="10px" fill="#FFFFFF" font-family="Helvetica Neue, Helvetica, Arial, sans-serif"> Informati…</text></g><g class="node" aria-label="graph-node172" transform="translate(-152.75768220819208,-88.94695393329114)"><circle class="b-outline" cx="0" cy="0" r="25" fill="#C990C0" stroke="#b261a5" stroke-width="2px"/><text class="caption" text-anchor="middle" pointer-events="none" x="0" y="5" font-size="10px" fill="#FFFFFF" font-family="Helvetica Neue, Helvetica, Arial, sans-serif"> Biotechn…</text></g><g class="node" aria-label="graph-node173" transform="translate(-169.24421379513737,-254.1930422392998)"><circle class="b-outline" cx="0" cy="0" r="25" fill="#C990C0" stroke="#b261a5" stroke-width="2px"/><text class="caption" text-anchor="middle" pointer-events="none" x="0" y="5" font-size="10px" fill="#FFFFFF" font-family="Helvetica Neue, Helvetica, Arial, sans-serif"> Telecom…</text></g><g class="node" aria-label="graph-node174" transform="translate(-10.219674028375067,-190.68667136634798)"><circle class="b-outline" cx="0" cy="0" r="25" fill="#C990C0" stroke="#b261a5" stroke-width="2px"/><text class="caption" text-anchor="middle" pointer-events="none" x="0" y="0" font-size="10px" fill="#FFFFFF" font-family="Helvetica Neue, Helvetica, Arial, sans-serif"> Consumer</text><text class="caption" text-anchor="middle" pointer-events="none" x="0" y="10" font-size="10px" fill="#FFFFFF" font-family="Helvetica Neue, Helvetica, Arial, sans-serif">an…</text></g><g class="node" aria-label="graph-node175" transform="translate(-60.69694806046989,-112.99953013339848)"><circle class="b-outline" cx="0" cy="0" r="25" fill="#C990C0" stroke="#b261a5" stroke-width="2px"/><text class="caption" text-anchor="middle" pointer-events="none" x="0" y="5" font-size="10px" fill="#FFFFFF" font-family="Helvetica Neue, Helvetica, Arial, sans-serif"> Transpor…</text></g><g class="node" aria-label="graph-node176" transform="translate(79.15128168779364,-164.8535459508015)"><circle class="b-outline" cx="0" cy="0" r="25" fill="#C990C0" stroke="#b261a5" stroke-width="2px"/><text class="caption" text-anchor="middle" pointer-events="none" x="0" y="-5" font-size="10px" fill="#FFFFFF" font-family="Helvetica Neue, Helvetica, Arial, sans-serif"> Media</text><text class="caption" text-anchor="middle" pointer-events="none" x="0" y="5" font-size="10px" fill="#FFFFFF" font-family="Helvetica Neue, Helvetica, Arial, sans-serif"> and</text><text class="caption" text-anchor="middle" pointer-events="none" x="0" y="15" font-size="10px" fill="#FFFFFF" font-family="Helvetica Neue, Helvetica, Arial, sans-serif"> Co…</text></g><g class="node" aria-label="graph-node177" transform="translate(-118.84885324153113,-182.19745433721465)"><circle class="b-outline" cx="0" cy="0" r="25" fill="#C990C0" stroke="#b261a5" stroke-width="2px"/><text class="caption" text-anchor="middle" pointer-events="none" x="0" y="5" font-size="10px" fill="#FFFFFF" font-family="Helvetica Neue, Helvetica, Arial, sans-serif"> Infrastru…</text></g><g class="node" aria-label="graph-node178" transform="translate(-58.30561169827192,-27.45187743857637)"><circle class="b-outline" cx="0" cy="0" r="25" fill="#C990C0" stroke="#b261a5" stroke-width="2px"/><text class="caption" text-anchor="middle" pointer-events="none" x="0" y="0" font-size="10px" fill="#FFFFFF" font-family="Helvetica Neue, Helvetica, Arial, sans-serif"> Financial</text><text class="caption" text-anchor="middle" pointer-events="none" x="0" y="10" font-size="10px" fill="#FFFFFF" font-family="Helvetica Neue, Helvetica, Arial, sans-serif"> Markets</text></g><g class="node" aria-label="graph-node179" transform="translate(41.457794615337235,-13.161244308300866)"><circle class="b-outline" cx="0" cy="0" r="25" fill="#C990C0" stroke="#b261a5" stroke-width="2px"/><text class="caption" text-anchor="middle" pointer-events="none" x="0" y="0" font-size="10px" fill="#FFFFFF" font-family="Helvetica Neue, Helvetica, Arial, sans-serif"> Business</text><text class="caption" text-anchor="middle" pointer-events="none" x="0" y="10" font-size="10px" fill="#FFFFFF" font-family="Helvetica Neue, Helvetica, Arial, sans-serif"> Servic…</text></g><g class="node" aria-label="graph-node180" transform="translate(110.86477648870903,-74.34866492016637)"><circle class="b-outline" cx="0" cy="0" r="25" fill="#C990C0" stroke="#b261a5" stroke-width="2px"/><text class="caption" text-anchor="middle" pointer-events="none" x="0" y="-5" font-size="10px" fill="#FFFFFF" font-family="Helvetica Neue, Helvetica, Arial, sans-serif"> Research</text><text class="caption" text-anchor="middle" pointer-events="none" x="0" y="5" font-size="10px" fill="#FFFFFF" font-family="Helvetica Neue, Helvetica, Arial, sans-serif"> and</text><text class="caption" text-anchor="middle" pointer-events="none" x="0" y="15" font-size="10px" fill="#FFFFFF" font-family="Helvetica Neue, Helvetica, Arial, sans-serif"> Dev…</text></g><g class="node" aria-label="graph-node181" transform="translate(-15.567228983736895,62.87643377415214)"><circle class="b-outline" cx="0" cy="0" r="25" fill="#C990C0" stroke="#b261a5" stroke-width="2px"/><text class="caption" text-anchor="middle" pointer-events="none" x="0" y="5" font-size="10px" fill="#FFFFFF" font-family="Helvetica Neue, Helvetica, Arial, sans-serif"> Govern…</text></g><g class="node" aria-label="graph-node182" transform="translate(-188.4042515785442,-1.2266777249052203)"><circle class="b-outline" cx="0" cy="0" r="25" fill="#C990C0" stroke="#b261a5" stroke-width="2px"/><text class="caption" text-anchor="middle" pointer-events="none" x="0" y="5" font-size="10px" fill="#FFFFFF" font-family="Helvetica Neue, Helvetica, Arial, sans-serif"> Intellige…</text></g><g class="node" aria-label="graph-node183" transform="translate(-246.15437009350325,-78.85806177670352)"><circle class="b-outline" cx="0" cy="0" r="25" fill="#C990C0" stroke="#b261a5" stroke-width="2px"/><text class="caption" text-anchor="middle" pointer-events="none" x="0" y="5" font-size="10px" fill="#FFFFFF" font-family="Helvetica Neue, Helvetica, Arial, sans-serif"> Military</text></g><g class="node" aria-label="graph-node184" transform="translate(-21.49453591563902,167.9892074507889)"><circle class="b-outline" cx="0" cy="0" r="25" fill="#F79767" stroke="#f36924" stroke-width="2px"/><text class="caption" text-anchor="middle" pointer-events="none" x="0" y="5" font-size="10px" fill="#FFFFFF" font-family="Helvetica Neue, Helvetica, Arial, sans-serif"> World</text></g><g class="node" aria-label="graph-node185" transform="translate(-228.09415879176112,154.06193026616927)"><circle class="b-outline" cx="0" cy="0" r="25" fill="#57C7E3" stroke="#23b3d7" stroke-width="2px"/><text class="caption" text-anchor="middle" pointer-events="none" x="0" y="0" font-size="10px" fill="#2A2C34" font-family="Helvetica Neue, Helvetica, Arial, sans-serif"> Data</text><text class="caption" text-anchor="middle" pointer-events="none" x="0" y="10" font-size="10px" fill="#2A2C34" font-family="Helvetica Neue, Helvetica, Arial, sans-serif"> Gener…</text></g><g class="node" aria-label="graph-node186" transform="translate(-199.45653862595827,240.48118858439614)"><circle class="b-outline" cx="0" cy="0" r="25" fill="#57C7E3" stroke="#23b3d7" stroke-width="2px"/><text class="caption" text-anchor="middle" pointer-events="none" x="0" y="5" font-size="10px" fill="#2A2C34" font-family="Helvetica Neue, Helvetica, Arial, sans-serif"> Populati…</text></g><g class="node" aria-label="graph-node187" transform="translate(-320.0377722376005,84.03278083841082)"><circle class="b-outline" cx="0" cy="0" r="25" fill="#F16667" stroke="#eb2728" stroke-width="2px"/><text class="caption" text-anchor="middle" pointer-events="none" x="0" y="0" font-size="10px" fill="#FFFFFF" font-family="Helvetica Neue, Helvetica, Arial, sans-serif"> Historical</text><text class="caption" text-anchor="middle" pointer-events="none" x="0" y="10" font-size="10px" fill="#FFFFFF" font-family="Helvetica Neue, Helvetica, Arial, sans-serif"> Bias</text></g><g class="node" aria-label="graph-node188" transform="translate(-236.3674337441816,367.1185562986947)"><circle class="b-outline" cx="0" cy="0" r="25" fill="#F79767" stroke="#f36924" stroke-width="2px"/><text class="caption" text-anchor="middle" pointer-events="none" x="0" y="5" font-size="10px" fill="#FFFFFF" font-family="Helvetica Neue, Helvetica, Arial, sans-serif"> Sample</text></g><g class="node" aria-label="graph-node189" transform="translate(-104.16420977355692,290.98690819609067)"><circle class="b-outline" cx="0" cy="0" r="25" fill="#57C7E3" stroke="#23b3d7" stroke-width="2px"/><text class="caption" text-anchor="middle" pointer-events="none" x="0" y="5" font-size="10px" fill="#2A2C34" font-family="Helvetica Neue, Helvetica, Arial, sans-serif"> Measure…</text></g><g class="node" aria-label="graph-node190" transform="translate(-338.77936200272893,290.04832834224464)"><circle class="b-outline" cx="0" cy="0" r="25" fill="#F16667" stroke="#eb2728" stroke-width="2px"/><text class="caption" text-anchor="middle" pointer-events="none" x="0" y="5" font-size="10px" fill="#FFFFFF" font-family="Helvetica Neue, Helvetica, Arial, sans-serif"> Represe…</text></g><g class="node" aria-label="graph-node191" transform="translate(2.5179102010316186,438.04356842455064)"><circle class="b-outline" cx="0" cy="0" r="25" fill="#F79767" stroke="#f36924" stroke-width="2px"/><text class="caption" text-anchor="middle" pointer-events="none" x="0" y="5" font-size="10px" fill="#FFFFFF" font-family="Helvetica Neue, Helvetica, Arial, sans-serif"> Dataset</text></g><g class="node" aria-label="graph-node192" transform="translate(46.49503550344565,314.7001534091345)"><circle class="b-outline" cx="0" cy="0" r="25" fill="#57C7E3" stroke="#23b3d7" stroke-width="2px"/><text class="caption" text-anchor="middle" pointer-events="none" x="0" y="5" font-size="10px" fill="#2A2C34" font-family="Helvetica Neue, Helvetica, Arial, sans-serif"> Preproc…</text></g><g class="node" aria-label="graph-node193" transform="translate(-119.44693186475969,432.860049696176)"><circle class="b-outline" cx="0" cy="0" r="25" fill="#F16667" stroke="#eb2728" stroke-width="2px"/><text class="caption" text-anchor="middle" pointer-events="none" x="0" y="5" font-size="10px" fill="#FFFFFF" font-family="Helvetica Neue, Helvetica, Arial, sans-serif"> Measure…</text></g><g class="node" aria-label="graph-node194" transform="translate(187.56039062457796,304.02345927844885)"><circle class="b-outline" cx="0" cy="0" r="25" fill="#F79767" stroke="#f36924" stroke-width="2px"/><text class="caption" text-anchor="middle" pointer-events="none" x="0" y="0" font-size="10px" fill="#FFFFFF" font-family="Helvetica Neue, Helvetica, Arial, sans-serif"> Training</text><text class="caption" text-anchor="middle" pointer-events="none" x="0" y="10" font-size="10px" fill="#FFFFFF" font-family="Helvetica Neue, Helvetica, Arial, sans-serif"> Data</text></g><g class="node" aria-label="graph-node195" transform="translate(367.8925234394238,278.6954433485018)"><circle class="b-outline" cx="0" cy="0" r="25" fill="#57C7E3" stroke="#23b3d7" stroke-width="2px"/><text class="caption" text-anchor="middle" pointer-events="none" x="0" y="0" font-size="10px" fill="#2A2C34" font-family="Helvetica Neue, Helvetica, Arial, sans-serif"> Model</text><text class="caption" text-anchor="middle" pointer-events="none" x="0" y="10" font-size="10px" fill="#2A2C34" font-family="Helvetica Neue, Helvetica, Arial, sans-serif"> Learni…</text></g><g class="node" aria-label="graph-node196" transform="translate(263.54558973617475,250.66139247142803)"><circle class="b-outline" cx="0" cy="0" r="25" fill="#F16667" stroke="#eb2728" stroke-width="2px"/><text class="caption" text-anchor="middle" pointer-events="none" x="0" y="0" font-size="10px" fill="#FFFFFF" font-family="Helvetica Neue, Helvetica, Arial, sans-serif"> Learning</text><text class="caption" text-anchor="middle" pointer-events="none" x="0" y="10" font-size="10px" fill="#FFFFFF" font-family="Helvetica Neue, Helvetica, Arial, sans-serif"> Bias</text></g><g class="node" aria-label="graph-node197" transform="translate(192.15038682240322,373.52392911128896)"><circle class="b-outline" cx="0" cy="0" r="25" fill="#F79767" stroke="#f36924" stroke-width="2px"/><text class="caption" text-anchor="middle" pointer-events="none" x="0" y="5" font-size="10px" fill="#FFFFFF" font-family="Helvetica Neue, Helvetica, Arial, sans-serif"> Test Data</text></g><g class="node" aria-label="graph-node198" transform="translate(410.1571784325971,341.68685152272394)"><circle class="b-outline" cx="0" cy="0" r="25" fill="#57C7E3" stroke="#23b3d7" stroke-width="2px"/><text class="caption" text-anchor="middle" pointer-events="none" x="0" y="5" font-size="10px" fill="#2A2C34" font-family="Helvetica Neue, Helvetica, Arial, sans-serif"> Evaluation</text></g><g class="node" aria-label="graph-node199" transform="translate(438.2450582355642,450.9539031396943)"><circle class="b-outline" cx="0" cy="0" r="25" fill="#F16667" stroke="#eb2728" stroke-width="2px"/><text class="caption" text-anchor="middle" pointer-events="none" x="0" y="5" font-size="10px" fill="#FFFFFF" font-family="Helvetica Neue, Helvetica, Arial, sans-serif">Bi…</text></g><g class="node" aria-label="graph-node200" transform="translate(197.56335750497976,436.73498832018686)"><circle class="b-outline" cx="0" cy="0" r="25" fill="#F79767" stroke="#f36924" stroke-width="2px"/><text class="caption" text-anchor="middle" pointer-events="none" x="0" y="5" font-size="10px" fill="#FFFFFF" font-family="Helvetica Neue, Helvetica, Arial, sans-serif"> Benchm…</text></g><g class="node" aria-label="graph-node201" transform="translate(650.7193854548522,133.3280201399302)"><circle class="b-outline" cx="0" cy="0" r="25" fill="#57C7E3" stroke="#23b3d7" stroke-width="2px"/><text class="caption" text-anchor="middle" pointer-events="none" x="0" y="0" font-size="10px" fill="#2A2C34" font-family="Helvetica Neue, Helvetica, Arial, sans-serif"> Model</text><text class="caption" text-anchor="middle" pointer-events="none" x="0" y="10" font-size="10px" fill="#2A2C34" font-family="Helvetica Neue, Helvetica, Arial, sans-serif"> Definit…</text></g><g class="node" aria-label="graph-node202" transform="translate(567.4043854129202,22.818885869484838)"><circle class="b-outline" cx="0" cy="0" r="25" fill="#F16667" stroke="#eb2728" stroke-width="2px"/><text class="caption" text-anchor="middle" pointer-events="none" x="0" y="5" font-size="10px" fill="#FFFFFF" font-family="Helvetica Neue, Helvetica, Arial, sans-serif"> Aggrega…</text></g><g class="node" aria-label="graph-node203" transform="translate(564.544096495315,164.44303682922174)"><circle class="b-outline" cx="0" cy="0" r="25" fill="#F79767" stroke="#f36924" stroke-width="2px"/><text class="caption" text-anchor="middle" pointer-events="none" x="0" y="5" font-size="10px" fill="#FFFFFF" font-family="Helvetica Neue, Helvetica, Arial, sans-serif"> Model</text></g><g class="node" aria-label="graph-node204" transform="translate(450.94002835688605,159.16044361832002)"><circle class="b-outline" cx="0" cy="0" r="25" fill="#57C7E3" stroke="#23b3d7" stroke-width="2px"/><text class="caption" text-anchor="middle" pointer-events="none" x="0" y="0" font-size="10px" fill="#2A2C34" font-family="Helvetica Neue, Helvetica, Arial, sans-serif"> Run</text><text class="caption" text-anchor="middle" pointer-events="none" x="0" y="10" font-size="10px" fill="#2A2C34" font-family="Helvetica Neue, Helvetica, Arial, sans-serif"> Model</text></g><g class="node" aria-label="graph-node205" transform="translate(339.82348796187034,168.29691853239456)"><circle class="b-outline" cx="0" cy="0" r="25" fill="#F79767" stroke="#f36924" stroke-width="2px"/><text class="caption" text-anchor="middle" pointer-events="none" x="0" y="0" font-size="10px" fill="#FFFFFF" font-family="Helvetica Neue, Helvetica, Arial, sans-serif"> Model</text><text class="caption" text-anchor="middle" pointer-events="none" x="0" y="10" font-size="10px" fill="#FFFFFF" font-family="Helvetica Neue, Helvetica, Arial, sans-serif"> Output</text></g><g class="node" aria-label="graph-node206" transform="translate(142.06127246740272,103.49827961971609)"><circle class="b-outline" cx="0" cy="0" r="25" fill="#57C7E3" stroke="#23b3d7" stroke-width="2px"/><text class="caption" text-anchor="middle" pointer-events="none" x="0" y="5" font-size="10px" fill="#2A2C34" font-family="Helvetica Neue, Helvetica, Arial, sans-serif"> Post-Pro…</text></g><g class="node" aria-label="graph-node207" transform="translate(154.1165193898825,239.76406293571955)"><circle class="b-outline" cx="0" cy="0" r="25" fill="#57C7E3" stroke="#23b3d7" stroke-width="2px"/><text class="caption" text-anchor="middle" pointer-events="none" x="0" y="0" font-size="10px" fill="#2A2C34" font-family="Helvetica Neue, Helvetica, Arial, sans-serif"> Integrate</text><text class="caption" text-anchor="middle" pointer-events="none" x="0" y="10" font-size="10px" fill="#2A2C34" font-family="Helvetica Neue, Helvetica, Arial, sans-serif"> S…</text></g><g class="node" aria-label="graph-node208" transform="translate(146.37821248980626,171.6335156704366)"><circle class="b-outline" cx="0" cy="0" r="25" fill="#57C7E3" stroke="#23b3d7" stroke-width="2px"/><text class="caption" text-anchor="middle" pointer-events="none" x="0" y="-5" font-size="10px" fill="#2A2C34" font-family="Helvetica Neue, Helvetica, Arial, sans-serif"> Human &amp;</text><text class="caption" text-anchor="middle" pointer-events="none" x="0" y="5" font-size="10px" fill="#2A2C34" font-family="Helvetica Neue, Helvetica, Arial, sans-serif"> Model</text><text class="caption" text-anchor="middle" pointer-events="none" x="0" y="15" font-size="10px" fill="#2A2C34" font-family="Helvetica Neue, Helvetica, Arial, sans-serif"> Inter</text></g><g class="node" aria-label="graph-node209" transform="translate(226.39412791158833,-19.04295580523587)"><circle class="b-outline" cx="0" cy="0" r="25" fill="#F16667" stroke="#eb2728" stroke-width="2px"/><text class="caption" text-anchor="middle" pointer-events="none" x="0" y="5" font-size="10px" fill="#FFFFFF" font-family="Helvetica Neue, Helvetica, Arial, sans-serif"> Deploym…</text></g></g></svg>