<svg xmlns="http://www.w3.org/2000/svg" width="457.7801208496094" height="690.4612426757812" viewBox="-262.9578857421875 -314.9319763183594 457.7801208496094 690.4612426757812"><title>Neo4j Graph Visualization</title><desc>Created using Neo4j (http://www.neo4j.com/)</desc><g class="layer relationships"><g class="relationship" transform="translate(-29.051536971610233 -285.9319634374459) rotate(451.7178493651461)"><path class="b-outline" fill="#A5ABB6" stroke="none" d="M 25 0.5 L 32.42573363179777 0.5 L 32.42573363179777 -0.5 L 25 -0.5 Z M 97.85151488179777 0.5 L 105.27724851359554 0.5 L 105.27724851359554 3.5 L 112.27724851359554 0 L 105.27724851359554 -3.5 L 105.27724851359554 -0.5 L 97.85151488179777 -0.5 Z"/><text text-anchor="middle" pointer-events="none" font-size="8px" fill="#000000" x="65.13862425679777" y="3" transform="rotate(180 65.13862425679777 0)" font-family="Helvetica Neue, Helvetica, Arial, sans-serif">IS_PARENT_OF</text></g><g class="relationship" transform="translate(-33.16678431948529 -148.71641148093744) rotate(451.1963454047485)"><path class="b-outline" fill="#A5ABB6" stroke="none" d="M 25 0.5 L 106.46659345123481 0.5 L 106.46659345123481 -0.5 L 25 -0.5 Z M 171.89237470123481 0.5 L 253.35896815246963 0.5 L 253.35896815246963 3.5 L 260.35896815246963 0 L 253.35896815246963 -3.5 L 253.35896815246963 -0.5 L 171.89237470123481 -0.5 Z"/><text text-anchor="middle" pointer-events="none" font-size="8px" fill="#000000" x="139.17948407623481" y="3" transform="rotate(180 139.17948407623481 0)" font-family="Helvetica Neue, Helvetica, Arial, sans-serif">IS_PARENT_OF</text></g><g class="relationship" transform="translate(-39.12469408589686 136.5803533381847) rotate(344.1828915746032)"><path class="b-outline" fill="#A5ABB6" stroke="none" d="M 25 0.5 L 26.56385155669252 0.5 L 26.56385155669252 -0.5 L 25 -0.5 Z M 84.43103905669253 0.5 L 85.99489061338504 0.5 L 85.99489061338504 3.5 L 92.99489061338504 0 L 85.99489061338504 -3.5 L 85.99489061338504 -0.5 L 84.43103905669253 -0.5 Z"/><text text-anchor="middle" pointer-events="none" font-size="8px" fill="#000000" x="55.49744530669252" y="3" font-family="Helvetica Neue, Helvetica, Arial, sans-serif">IS_PARENT…</text></g><g class="relationship" transform="translate(-39.12469408589686 136.5803533381847) rotate(200.79967483646448)"><path class="b-outline" fill="#A5ABB6" stroke="none" d="M 25 0.5 L 67.99517464702863 0.5 L 67.99517464702863 -0.5 L 25 -0.5 Z M 133.42095589702865 0.5 L 176.41613054405727 0.5 L 176.41613054405727 3.5 L 183.41613054405727 0 L 176.41613054405727 -3.5 L 176.41613054405727 -0.5 L 133.42095589702865 -0.5 Z"/><text text-anchor="middle" pointer-events="none" font-size="8px" fill="#000000" x="100.70806527202863" y="3" transform="rotate(180 100.70806527202863 0)" font-family="Helvetica Neue, Helvetica, Arial, sans-serif">IS_PARENT_OF</text></g><g class="relationship" transform="translate(-39.12469408589686 136.5803533381847) rotate(286.63197608027787)"><path class="b-outline" fill="#A5ABB6" stroke="none" d="M 25 0.5 L 25.71282858971138 0.5 L 25.71282858971138 -0.5 L 25 -0.5 Z M 78.69329733971138 0.5 L 79.40612592942276 0.5 L 79.40612592942276 3.5 L 86.40612592942276 0 L 79.40612592942276 -3.5 L 79.40612592942276 -0.5 L 78.69329733971138 -0.5 Z"/><text text-anchor="middle" pointer-events="none" font-size="8px" fill="#000000" x="52.20306296471138" y="3" font-family="Helvetica Neue, Helvetica, Arial, sans-serif">IS_PAREN…</text></g><g class="relationship" transform="translate(-39.12469408589686 136.5803533381847) rotate(478.35652743681356)"><path class="b-outline" fill="#A5ABB6" stroke="none" d="M 25 0.5 L 55.545652239677125 0.5 L 55.545652239677125 -0.5 L 25 -0.5 Z M 120.97143348967712 0.5 L 151.51708572935425 0.5 L 151.51708572935425 3.5 L 158.51708572935425 0 L 151.51708572935425 -3.5 L 151.51708572935425 -0.5 L 120.97143348967712 -0.5 Z"/><text text-anchor="middle" pointer-events="none" font-size="8px" fill="#000000" x="88.25854286467712" y="3" transform="rotate(180 88.25854286467712 0)" font-family="Helvetica Neue, Helvetica, Arial, sans-serif">IS_PARENT_OF</text></g><g class="relationship" transform="translate(-39.12469408589686 136.5803533381847) rotate(506.34188487688914)"><path class="b-outline" fill="#A5ABB6" stroke="none" d="M 25 0.5 L 25.854791953532306 0.5 L 25.854791953532306 -0.5 L 25 -0.5 Z M 83.7219794535323 0.5 L 84.57677140706461 0.5 L 84.57677140706461 3.5 L 91.57677140706461 0 L 84.57677140706461 -3.5 L 84.57677140706461 -0.5 L 83.7219794535323 -0.5 Z"/><text text-anchor="middle" pointer-events="none" font-size="8px" fill="#000000" x="54.788385703532306" y="3" transform="rotate(180 54.788385703532306 0)" font-family="Helvetica Neue, Helvetica, Arial, sans-serif">IS_PARENT…</text></g><g class="relationship" transform="translate(-39.12469408589686 136.5803533381847) rotate(450.57162748744327)"><path class="b-outline" fill="#A5ABB6" stroke="none" d="M 25 0.5 L 68.76676891197089 0.5 L 68.76676891197089 -0.5 L 25 -0.5 Z M 134.19255016197087 0.5 L 177.95931907394177 0.5 L 177.95931907394177 3.5 L 184.95931907394177 0 L 177.95931907394177 -3.5 L 177.95931907394177 -0.5 L 134.19255016197087 -0.5 Z"/><text text-anchor="middle" pointer-events="none" font-size="8px" fill="#000000" x="101.47965953697089" y="3" transform="rotate(180 101.47965953697089 0)" font-family="Helvetica Neue, Helvetica, Arial, sans-serif">IS_PARENT_OF</text></g><g class="relationship" transform="translate(-39.12469408589686 136.5803533381847) rotate(505.359779794259)"><path class="b-outline" fill="#A5ABB6" stroke="none" d="M 25 0.5 L 70.6315842618217 0.5 L 70.6315842618217 -0.5 L 25 -0.5 Z M 136.0573655118217 0.5 L 181.6889497736434 0.5 L 181.6889497736434 3.5 L 188.6889497736434 0 L 181.6889497736434 -3.5 L 181.6889497736434 -0.5 L 136.0573655118217 -0.5 Z"/><text text-anchor="middle" pointer-events="none" font-size="8px" fill="#000000" x="103.3444748868217" y="3" transform="rotate(180 103.3444748868217 0)" font-family="Helvetica Neue, Helvetica, Arial, sans-serif">IS_PARENT_OF</text></g><g class="relationship" transform="translate(-39.12469408589686 136.5803533381847) rotate(532.4261414335328)"><path class="b-outline" fill="#A5ABB6" stroke="none" d="M 25 0.5 L 57.84296043536324 0.5 L 57.84296043536324 -0.5 L 25 -0.5 Z M 123.26874168536324 0.5 L 156.11170212072648 0.5 L 156.11170212072648 3.5 L 163.11170212072648 0 L 156.11170212072648 -3.5 L 156.11170212072648 -0.5 L 123.26874168536324 -0.5 Z"/><text text-anchor="middle" pointer-events="none" font-size="8px" fill="#000000" x="90.55585106036324" y="3" transform="rotate(180 90.55585106036324 0)" font-family="Helvetica Neue, Helvetica, Arial, sans-serif">IS_PARENT_OF</text></g><g class="relationship" transform="translate(-39.12469408589686 136.5803533381847) rotate(395.9399770864534)"><path class="b-outline" fill="#A5ABB6" stroke="none" d="M 25 0.5 L 71.5663737317338 0.5 L 71.5663737317338 -0.5 L 25 -0.5 Z M 136.9921549817338 0.5 L 183.5585287134676 0.5 L 183.5585287134676 3.5 L 190.5585287134676 0 L 183.5585287134676 -3.5 L 183.5585287134676 -0.5 L 136.9921549817338 -0.5 Z"/><text text-anchor="middle" pointer-events="none" font-size="8px" fill="#000000" x="104.2792643567338" y="3" font-family="Helvetica Neue, Helvetica, Arial, sans-serif">IS_PARENT_OF</text></g><g class="relationship" transform="translate(-39.12469408589686 136.5803533381847) rotate(369.3607854758371)"><path class="b-outline" fill="#A5ABB6" stroke="none" d="M 25 0.5 L 59.56883335315156 0.5 L 59.56883335315156 -0.5 L 25 -0.5 Z M 124.99461460315156 0.5 L 159.56344795630312 0.5 L 159.56344795630312 3.5 L 166.56344795630312 0 L 159.56344795630312 -3.5 L 159.56344795630312 -0.5 L 124.99461460315156 -0.5 Z"/><text text-anchor="middle" pointer-events="none" font-size="8px" fill="#000000" x="92.28172397815156" y="3" font-family="Helvetica Neue, Helvetica, Arial, sans-serif">IS_PARENT_OF</text></g><g class="relationship" transform="translate(-39.12469408589686 136.5803533381847) rotate(226.7355182838416)"><path class="b-outline" fill="#A5ABB6" stroke="none" d="M 25 0.5 L 76.12853004981586 0.5 L 76.12853004981586 -0.5 L 25 -0.5 Z M 141.55431129981588 0.5 L 192.68284134963173 0.5 L 192.68284134963173 3.5 L 199.68284134963173 0 L 192.68284134963173 -3.5 L 192.68284134963173 -0.5 L 141.55431129981588 -0.5 Z"/><text text-anchor="middle" pointer-events="none" font-size="8px" fill="#000000" x="108.84142067481586" y="3" transform="rotate(180 108.84142067481586 0)" font-family="Helvetica Neue, Helvetica, Arial, sans-serif">IS_PARENT_OF</text></g><g class="relationship" transform="translate(-39.12469408589686 136.5803533381847) rotate(342.283877070965)"><path class="b-outline" fill="#A5ABB6" stroke="none" d="M 25 0.5 L 71.36222564008868 0.5 L 71.36222564008868 -0.5 L 25 -0.5 Z M 136.7880068900887 0.5 L 183.15023253017736 0.5 L 183.15023253017736 3.5 L 190.15023253017736 0 L 183.15023253017736 -3.5 L 183.15023253017736 -0.5 L 136.7880068900887 -0.5 Z"/><text text-anchor="middle" pointer-events="none" font-size="8px" fill="#000000" x="104.07511626508868" y="3" font-family="Helvetica Neue, Helvetica, Arial, sans-serif">IS_PARENT_OF</text></g><g class="relationship" transform="translate(-39.12469408589686 136.5803533381847) rotate(393.5753801197004)"><path class="b-outline" fill="#A5ABB6" stroke="none" d="M 25 0.5 L 26.487671968836388 0.5 L 26.487671968836388 -0.5 L 25 -0.5 Z M 84.3548594688364 0.5 L 85.84253143767278 0.5 L 85.84253143767278 3.5 L 92.84253143767278 0 L 85.84253143767278 -3.5 L 85.84253143767278 -0.5 L 84.3548594688364 -0.5 Z"/><text text-anchor="middle" pointer-events="none" font-size="8px" fill="#000000" x="55.42126571883639" y="3" font-family="Helvetica Neue, Helvetica, Arial, sans-serif">IS_PARENT…</text></g><g class="relationship" transform="translate(-39.12469408589686 136.5803533381847) rotate(240.7562395705209)"><path class="b-outline" fill="#A5ABB6" stroke="none" d="M 25 0.5 L 34.0938741588472 0.5 L 34.0938741588472 -0.5 L 25 -0.5 Z M 99.5196554088472 0.5 L 108.6135295676944 0.5 L 108.6135295676944 3.5 L 115.6135295676944 0 L 108.6135295676944 -3.5 L 108.6135295676944 -0.5 L 99.5196554088472 -0.5 Z"/><text text-anchor="middle" pointer-events="none" font-size="8px" fill="#000000" x="66.8067647838472" y="3" transform="rotate(180 66.8067647838472 0)" font-family="Helvetica Neue, Helvetica, Arial, sans-serif">IS_PARENT_OF</text></g><g class="relationship" transform="translate(-39.12469408589686 136.5803533381847) rotate(288.0140989411824)"><path class="b-outline" fill="#A5ABB6" stroke="none" d="M 25 0.5 L 67.48775501936655 0.5 L 67.48775501936655 -0.5 L 25 -0.5 Z M 132.91353626936655 0.5 L 175.4012912887331 0.5 L 175.4012912887331 3.5 L 182.4012912887331 0 L 175.4012912887331 -3.5 L 175.4012912887331 -0.5 L 132.91353626936655 -0.5 Z"/><text text-anchor="middle" pointer-events="none" font-size="8px" fill="#000000" x="100.20064564436655" y="3" font-family="Helvetica Neue, Helvetica, Arial, sans-serif">IS_PARENT_OF</text></g><g class="relationship" transform="translate(-39.12469408589686 136.5803533381847) rotate(260.6594131079685)"><path class="b-outline" fill="#A5ABB6" stroke="none" d="M 25 0.5 L 68.107793761212 0.5 L 68.107793761212 -0.5 L 25 -0.5 Z M 133.533575011212 0.5 L 176.641368772424 0.5 L 176.641368772424 3.5 L 183.641368772424 0 L 176.641368772424 -3.5 L 176.641368772424 -0.5 L 133.533575011212 -0.5 Z"/><text text-anchor="middle" pointer-events="none" font-size="8px" fill="#000000" x="100.820684386212" y="3" transform="rotate(180 100.820684386212 0)" font-family="Helvetica Neue, Helvetica, Arial, sans-serif">IS_PARENT_OF</text></g><g class="relationship" transform="translate(-39.12469408589686 136.5803533381847) rotate(315.6777732559868)"><path class="b-outline" fill="#A5ABB6" stroke="none" d="M 25 0.5 L 55.76150027445179 0.5 L 55.76150027445179 -0.5 L 25 -0.5 Z M 121.18728152445179 0.5 L 151.94878179890358 0.5 L 151.94878179890358 3.5 L 158.94878179890358 0 L 151.94878179890358 -3.5 L 151.94878179890358 -0.5 L 121.18728152445179 -0.5 Z"/><text text-anchor="middle" pointer-events="none" font-size="8px" fill="#000000" x="88.47439089945179" y="3" font-family="Helvetica Neue, Helvetica, Arial, sans-serif">IS_PARENT_OF</text></g><g class="relationship" transform="translate(-39.12469408589686 136.5803533381847) rotate(197.34211485286136)"><path class="b-outline" fill="#A5ABB6" stroke="none" d="M 25 0.5 L 26.714321752952415 0.5 L 26.714321752952415 -0.5 L 25 -0.5 Z M 79.69479050295242 0.5 L 81.40911225590483 0.5 L 81.40911225590483 3.5 L 88.40911225590483 0 L 81.40911225590483 -3.5 L 81.40911225590483 -0.5 L 79.69479050295242 -0.5 Z"/><text text-anchor="middle" pointer-events="none" font-size="8px" fill="#000000" x="53.204556127952415" y="3" transform="rotate(180 53.204556127952415 0)" font-family="Helvetica Neue, Helvetica, Arial, sans-serif">IS_PAREN…</text></g><g class="relationship" transform="translate(-39.12469408589686 136.5803533381847) rotate(422.3580249389569)"><path class="b-outline" fill="#A5ABB6" stroke="none" d="M 25 0.5 L 54.762314526808325 0.5 L 54.762314526808325 -0.5 L 25 -0.5 Z M 120.18809577680832 0.5 L 149.95041030361665 0.5 L 149.95041030361665 3.5 L 156.95041030361665 0 L 149.95041030361665 -3.5 L 149.95041030361665 -0.5 L 120.18809577680832 -0.5 Z"/><text text-anchor="middle" pointer-events="none" font-size="8px" fill="#000000" x="87.47520515180832" y="3" font-family="Helvetica Neue, Helvetica, Arial, sans-serif">IS_PARENT_OF</text></g><g class="relationship" transform="translate(-39.12469408589686 136.5803533381847) rotate(450.407691065322)"><path class="b-outline" fill="#A5ABB6" stroke="none" d="M 25 0.5 L 26.491272942919217 0.5 L 26.491272942919217 -0.5 L 25 -0.5 Z M 79.47174169291921 0.5 L 80.96301463583843 0.5 L 80.96301463583843 3.5 L 87.96301463583843 0 L 80.96301463583843 -3.5 L 80.96301463583843 -0.5 L 79.47174169291921 -0.5 Z"/><text text-anchor="middle" pointer-events="none" font-size="8px" fill="#000000" x="52.98150731791922" y="3" transform="rotate(180 52.98150731791922 0)" font-family="Helvetica Neue, Helvetica, Arial, sans-serif">IS_PAREN…</text></g></g><g class="layer nodes"><g class="node" aria-label="graph-node35" transform="translate(-29.051536971610233,-285.9319634374459)"><circle class="b-outline" cx="0" cy="0" r="25" fill="#C990C0" stroke="#b261a5" stroke-width="2px"/><text class="caption" text-anchor="middle" pointer-events="none" x="0" y="0" font-size="10px" fill="#FFFFFF" font-family="Helvetica Neue, Helvetica, Arial, sans-serif"> OpenAI,</text><text class="caption" text-anchor="middle" pointer-events="none" x="0" y="10" font-size="10px" fill="#FFFFFF" font-family="Helvetica Neue, Helvetica, Arial, sans-serif"> Inc.</text></g><g class="node" aria-label="graph-node50" transform="translate(-33.16678431948529,-148.71641148093744)"><circle class="b-outline" cx="0" cy="0" r="25" fill="#C990C0" stroke="#b261a5" stroke-width="2px"/><text class="caption" text-anchor="middle" pointer-events="none" x="0" y="-5" font-size="10px" fill="#FFFFFF" font-family="Helvetica Neue, Helvetica, Arial, sans-serif"> OpenAI</text><text class="caption" text-anchor="middle" pointer-events="none" x="0" y="5" font-size="10px" fill="#FFFFFF" font-family="Helvetica Neue, Helvetica, Arial, sans-serif"> Global,</text><text class="caption" text-anchor="middle" pointer-events="none" x="0" y="15" font-size="10px" fill="#FFFFFF" font-family="Helvetica Neue, Helvetica, Arial, sans-serif"> LLC.</text></g><g class="node" aria-label="graph-node51" transform="translate(-214.93461786195647,258.0457309452164)"><circle class="b-outline" cx="0" cy="0" r="25" fill="#C990C0" stroke="#b261a5" stroke-width="2px"/><text class="caption" text-anchor="middle" pointer-events="none" x="0" y="0" font-size="10px" fill="#FFFFFF" font-family="Helvetica Neue, Helvetica, Arial, sans-serif"> Real</text><text class="caption" text-anchor="middle" pointer-events="none" x="0" y="10" font-size="10px" fill="#FFFFFF" font-family="Helvetica Neue, Helvetica, Arial, sans-serif"> Estate</text></g><g class="node" aria-label="graph-node52" transform="translate(-225.59526825719718,161.37425264794473)"><circle class="b-outline" cx="0" cy="0" r="25" fill="#C990C0" stroke="#b261a5" stroke-width="2px"/><text class="caption" text-anchor="middle" pointer-events="none" x="0" y="5" font-size="10px" fill="#FFFFFF" font-family="Helvetica Neue, Helvetica, Arial, sans-serif"> Informati…</text></g><g class="node" aria-label="graph-node53" transform="translate(135.39845603263183,263.09971697008234)"><circle class="b-outline" cx="0" cy="0" r="25" fill="#C990C0" stroke="#b261a5" stroke-width="2px"/><text class="caption" text-anchor="middle" pointer-events="none" x="0" y="5" font-size="10px" fill="#FFFFFF" font-family="Helvetica Neue, Helvetica, Arial, sans-serif"> Biotechn…</text></g><g class="node" aria-label="graph-node54" transform="translate(149.88784030597049,167.73828067089437)"><circle class="b-outline" cx="0" cy="0" r="25" fill="#C990C0" stroke="#b261a5" stroke-width="2px"/><text class="caption" text-anchor="middle" pointer-events="none" x="0" y="5" font-size="10px" fill="#FFFFFF" font-family="Helvetica Neue, Helvetica, Arial, sans-serif"> Telecom…</text></g><g class="node" aria-label="graph-node55" transform="translate(-193.11491403176572,-27.033189371356073)"><circle class="b-outline" cx="0" cy="0" r="25" fill="#C990C0" stroke="#b261a5" stroke-width="2px"/><text class="caption" text-anchor="middle" pointer-events="none" x="0" y="0" font-size="10px" fill="#FFFFFF" font-family="Helvetica Neue, Helvetica, Arial, sans-serif"> Consumer</text><text class="caption" text-anchor="middle" pointer-events="none" x="0" y="10" font-size="10px" fill="#FFFFFF" font-family="Helvetica Neue, Helvetica, Arial, sans-serif">an…</text></g><g class="node" aria-label="graph-node56" transform="translate(165.82222997412228,71.1098952969724)"><circle class="b-outline" cx="0" cy="0" r="25" fill="#C990C0" stroke="#b261a5" stroke-width="2px"/><text class="caption" text-anchor="middle" pointer-events="none" x="0" y="5" font-size="10px" fill="#FFFFFF" font-family="Helvetica Neue, Helvetica, Arial, sans-serif"> Transpor…</text></g><g class="node" aria-label="graph-node63" transform="translate(59.05686626529409,201.75123197768397)"><circle class="b-outline" cx="0" cy="0" r="25" fill="#C990C0" stroke="#b261a5" stroke-width="2px"/><text class="caption" text-anchor="middle" pointer-events="none" x="0" y="-5" font-size="10px" fill="#FFFFFF" font-family="Helvetica Neue, Helvetica, Arial, sans-serif"> Media</text><text class="caption" text-anchor="middle" pointer-events="none" x="0" y="5" font-size="10px" fill="#FFFFFF" font-family="Helvetica Neue, Helvetica, Arial, sans-serif"> and</text><text class="caption" text-anchor="middle" pointer-events="none" x="0" y="15" font-size="10px" fill="#FFFFFF" font-family="Helvetica Neue, Helvetica, Arial, sans-serif"> Co…</text></g><g class="node" aria-label="graph-node150" transform="translate(-107.81809056986708,13.888128739472087)"><circle class="b-outline" cx="0" cy="0" r="25" fill="#C990C0" stroke="#b261a5" stroke-width="2px"/><text class="caption" text-anchor="middle" pointer-events="none" x="0" y="5" font-size="10px" fill="#FFFFFF" font-family="Helvetica Neue, Helvetica, Arial, sans-serif"> Infrastru…</text></g><g class="node" aria-label="graph-node151" transform="translate(25.014365611096274,-60.65421931432837)"><circle class="b-outline" cx="0" cy="0" r="25" fill="#C990C0" stroke="#b261a5" stroke-width="2px"/><text class="caption" text-anchor="middle" pointer-events="none" x="0" y="0" font-size="10px" fill="#FFFFFF" font-family="Helvetica Neue, Helvetica, Arial, sans-serif"> Financial</text><text class="caption" text-anchor="middle" pointer-events="none" x="0" y="10" font-size="10px" fill="#FFFFFF" font-family="Helvetica Neue, Helvetica, Arial, sans-serif"> Markets</text></g><g class="node" aria-label="graph-node152" transform="translate(-72.98778167994537,-69.29463800808935)"><circle class="b-outline" cx="0" cy="0" r="25" fill="#C990C0" stroke="#b261a5" stroke-width="2px"/><text class="caption" text-anchor="middle" pointer-events="none" x="0" y="0" font-size="10px" fill="#FFFFFF" font-family="Helvetica Neue, Helvetica, Arial, sans-serif"> Business</text><text class="caption" text-anchor="middle" pointer-events="none" x="0" y="10" font-size="10px" fill="#FFFFFF" font-family="Helvetica Neue, Helvetica, Arial, sans-serif"> Servic…</text></g><g class="node" aria-label="graph-node153" transform="translate(92.47626414218378,8.05665078199619)"><circle class="b-outline" cx="0" cy="0" r="25" fill="#C990C0" stroke="#b261a5" stroke-width="2px"/><text class="caption" text-anchor="middle" pointer-events="none" x="0" y="-5" font-size="10px" fill="#FFFFFF" font-family="Helvetica Neue, Helvetica, Arial, sans-serif"> Research</text><text class="caption" text-anchor="middle" pointer-events="none" x="0" y="5" font-size="10px" fill="#FFFFFF" font-family="Helvetica Neue, Helvetica, Arial, sans-serif"> and</text><text class="caption" text-anchor="middle" pointer-events="none" x="0" y="15" font-size="10px" fill="#FFFFFF" font-family="Helvetica Neue, Helvetica, Arial, sans-serif"> Dev…</text></g><g class="node" aria-label="graph-node154" transform="translate(-147.37845019062743,102.77575258784405)"><circle class="b-outline" cx="0" cy="0" r="25" fill="#C990C0" stroke="#b261a5" stroke-width="2px"/><text class="caption" text-anchor="middle" pointer-events="none" x="0" y="5" font-size="10px" fill="#FFFFFF" font-family="Helvetica Neue, Helvetica, Arial, sans-serif"> Govern…</text></g><g class="node" aria-label="graph-node307" transform="translate(-39.12469408589686,136.5803533381847)"><circle class="b-outline" cx="0" cy="0" r="25" fill="#C990C0" stroke="#b261a5" stroke-width="2px"/><text class="caption" text-anchor="middle" pointer-events="none" x="0" y="-5" font-size="10px" fill="#FFFFFF" font-family="Helvetica Neue, Helvetica, Arial, sans-serif"> OpenAI</text><text class="caption" text-anchor="middle" pointer-events="none" x="0" y="5" font-size="10px" fill="#FFFFFF" font-family="Helvetica Neue, Helvetica, Arial, sans-serif"> Web</text><text class="caption" text-anchor="middle" pointer-events="none" x="0" y="15" font-size="10px" fill="#FFFFFF" font-family="Helvetica Neue, Helvetica, Arial, sans-serif"> Ser…</text></g><g class="node" aria-label="graph-node308" transform="translate(74.40251447371183,104.41877490167431)"><circle class="b-outline" cx="0" cy="0" r="25" fill="#C990C0" stroke="#b261a5" stroke-width="2px"/><text class="caption" text-anchor="middle" pointer-events="none" x="0" y="5" font-size="10px" fill="#FFFFFF" font-family="Helvetica Neue, Helvetica, Arial, sans-serif"> Manufac…</text></g><g class="node" aria-label="graph-node309" transform="translate(-233.95786431020585,62.57144001483583)"><circle class="b-outline" cx="0" cy="0" r="25" fill="#C990C0" stroke="#b261a5" stroke-width="2px"/><text class="caption" text-anchor="middle" pointer-events="none" x="0" y="5" font-size="10px" fill="#FFFFFF" font-family="Helvetica Neue, Helvetica, Arial, sans-serif"> Energy</text></g><g class="node" aria-label="graph-node310" transform="translate(-7.23768167017526,29.835127057090435)"><circle class="b-outline" cx="0" cy="0" r="25" fill="#C990C0" stroke="#b261a5" stroke-width="2px"/><text class="caption" text-anchor="middle" pointer-events="none" x="0" y="-5" font-size="10px" fill="#FFFFFF" font-family="Helvetica Neue, Helvetica, Arial, sans-serif"> Mining</text><text class="caption" text-anchor="middle" pointer-events="none" x="0" y="5" font-size="10px" fill="#FFFFFF" font-family="Helvetica Neue, Helvetica, Arial, sans-serif"> and</text><text class="caption" text-anchor="middle" pointer-events="none" x="0" y="15" font-size="10px" fill="#FFFFFF" font-family="Helvetica Neue, Helvetica, Arial, sans-serif"> Extr…</text></g><g class="node" aria-label="graph-node311" transform="translate(-126.28735401730707,298.0770761169349)"><circle class="b-outline" cx="0" cy="0" r="25" fill="#C990C0" stroke="#b261a5" stroke-width="2px"/><text class="caption" text-anchor="middle" pointer-events="none" x="0" y="0" font-size="10px" fill="#FFFFFF" font-family="Helvetica Neue, Helvetica, Arial, sans-serif"> Financial</text><text class="caption" text-anchor="middle" pointer-events="none" x="0" y="10" font-size="10px" fill="#FFFFFF" font-family="Helvetica Neue, Helvetica, Arial, sans-serif"> Servic…</text></g><g class="node" aria-label="graph-node312" transform="translate(-136.1584780813405,201.19140808286895)"><circle class="b-outline" cx="0" cy="0" r="25" fill="#C990C0" stroke="#b261a5" stroke-width="2px"/><text class="caption" text-anchor="middle" pointer-events="none" x="0" y="5" font-size="10px" fill="#FFFFFF" font-family="Helvetica Neue, Helvetica, Arial, sans-serif"> Healthca…</text></g><g class="node" aria-label="graph-node313" transform="translate(-41.21937763897354,346.52922322513064)"><circle class="b-outline" cx="0" cy="0" r="25" fill="#C990C0" stroke="#b261a5" stroke-width="2px"/><text class="caption" text-anchor="middle" pointer-events="none" x="0" y="5" font-size="10px" fill="#FFFFFF" font-family="Helvetica Neue, Helvetica, Arial, sans-serif"> Education</text></g><g class="node" aria-label="graph-node314" transform="translate(45.29031561486137,297.7636587605371)"><circle class="b-outline" cx="0" cy="0" r="25" fill="#C990C0" stroke="#b261a5" stroke-width="2px"/><text class="caption" text-anchor="middle" pointer-events="none" x="0" y="5" font-size="10px" fill="#FFFFFF" font-family="Helvetica Neue, Helvetica, Arial, sans-serif"> Intellige…</text></g><g class="node" aria-label="graph-node315" transform="translate(-39.92848144238112,249.54050826682405)"><circle class="b-outline" cx="0" cy="0" r="25" fill="#C990C0" stroke="#b261a5" stroke-width="2px"/><text class="caption" text-anchor="middle" pointer-events="none" x="0" y="5" font-size="10px" fill="#FFFFFF" font-family="Helvetica Neue, Helvetica, Arial, sans-serif"> Military</text></g></g></svg>