<svg xmlns="http://www.w3.org/2000/svg" width="953.79150390625" height="780.46484375" viewBox="-537.315185546875 -451.9215393066406 953.79150390625 780.46484375"><title>Neo4j Graph Visualization</title><desc>Created using Neo4j (http://www.neo4j.com/)</desc><g class="layer relationships"><g class="relationship" transform="translate(-259.984164248096 -284.24037016248116) rotate(238.0282959740892)"><path class="b-outline" fill="#A5ABB6" stroke="none" d="M 24.018736134675446,-6.953439040707552 L 24.277555179777966,-5.987513214418485 A 189.98160485983942 189.98160485983942 0 0 1 54.982870436009094,-11.561457087233492 L 54.885673961043736,-12.55672230075919 A 190.98160485983942 190.98160485983942 0 0 0 24.018736134675446,-6.953439040707552 Z M 87.60097260525797,-12.935874696326238 L 87.52686829621209,-11.938624200522497 A 189.98160485983942 189.98160485983942 0 0 1 118.35311682955796,-7.077797455798609 L 117.64402653432585,-4.162803295734541 L 125.27295158557948,-5.909085793601003 L 119.29857055653413,-10.964456335884034 L 118.58948026130201,-8.049462175819965 A 190.98160485983942 190.98160485983942 0 0 0 87.60097260525797,-12.935874696326238"/><text text-anchor="middle" pointer-events="none" font-size="8px" fill="#000000" x="71.24098348973297" y="-9.948188401723513" transform="rotate(180 71.24098348973297 -12.948188401723513)" font-family="Helvetica Neue, Helvetica, Arial, sans-serif">FEEDS</text></g><g class="relationship" transform="translate(-259.984164248096 -284.24037016248116) rotate(482.65316071651745)"><path class="b-outline" fill="#A5ABB6" stroke="none" d="M 25 0.5 L 81.80551997188842 0.5 L 81.80551997188842 -0.5 L 25 -0.5 Z M 114.47739497188842 0.5 L 171.28291494377683 0.5 L 171.28291494377683 3.5 L 178.28291494377683 0 L 171.28291494377683 -3.5 L 171.28291494377683 -0.5 L 114.47739497188842 -0.5 Z"/><text text-anchor="middle" pointer-events="none" font-size="8px" fill="#000000" x="98.14145747188842" y="3" transform="rotate(180 98.14145747188842 0)" font-family="Helvetica Neue, Helvetica, Arial, sans-serif">FEEDS</text></g><g class="relationship" transform="translate(-339.1786613313157 -411.1174449522762) rotate(418.0282959740892)"><path class="b-outline" fill="#A5ABB6" stroke="none" d="M 24.018736134675446,-6.953439040707552 L 24.277555179777966,-5.987513214418485 A 189.98160485983942 189.98160485983942 0 0 1 54.982870436009094,-11.561457087233492 L 54.885673961043736,-12.55672230075919 A 190.98160485983942 190.98160485983942 0 0 0 24.018736134675446,-6.953439040707552 Z M 87.60097260525797,-12.935874696326238 L 87.52686829621209,-11.938624200522497 A 189.98160485983942 189.98160485983942 0 0 1 118.35311682955796,-7.077797455798609 L 117.64402653432585,-4.162803295734541 L 125.27295158557948,-5.909085793601003 L 119.29857055653413,-10.964456335884034 L 118.58948026130201,-8.049462175819965 A 190.98160485983942 190.98160485983942 0 0 0 87.60097260525797,-12.935874696326238"/><text text-anchor="middle" pointer-events="none" font-size="8px" fill="#000000" x="71.24098348973297" y="-9.948188401723513" font-family="Helvetica Neue, Helvetica, Arial, sans-serif">FEEDS</text></g><g class="relationship" transform="translate(-369.66590928674196 -113.08588347482149) rotate(466.56530071494353)"><path class="b-outline" fill="#A5ABB6" stroke="none" d="M 25 0.5 L 74.76531858535138 0.5 L 74.76531858535138 -0.5 L 25 -0.5 Z M 107.43719358535138 0.5 L 157.20251217070276 0.5 L 157.20251217070276 3.5 L 164.20251217070276 0 L 157.20251217070276 -3.5 L 157.20251217070276 -0.5 L 107.43719358535138 -0.5 Z"/><text text-anchor="middle" pointer-events="none" font-size="8px" fill="#000000" x="91.10125608535138" y="3" transform="rotate(180 91.10125608535138 0)" font-family="Helvetica Neue, Helvetica, Arial, sans-serif">FEEDS</text></g><g class="relationship" transform="translate(-411.50720135573334 -286.644618220892) rotate(360.9090479598687)"><path class="b-outline" fill="#A5ABB6" stroke="none" d="M 25 0.5 L 54.81988325664115 0.5 L 54.81988325664115 -0.5 L 25 -0.5 Z M 89.72222700664115 0.5 L 119.5421102632823 0.5 L 119.5421102632823 3.5 L 126.5421102632823 0 L 119.5421102632823 -3.5 L 119.5421102632823 -0.5 L 89.72222700664115 -0.5 Z"/><text text-anchor="middle" pointer-events="none" font-size="8px" fill="#000000" x="72.27105513164115" y="3" font-family="Helvetica Neue, Helvetica, Arial, sans-serif">BIASES</text></g><g class="relationship" transform="translate(-411.50720135573334 -286.644618220892) rotate(300.15996975143423)"><path class="b-outline" fill="#A5ABB6" stroke="none" d="M 25 0.5 L 51.029558700211865 0.5 L 51.029558700211865 -0.5 L 25 -0.5 Z M 85.93190245021187 0.5 L 111.96146115042373 0.5 L 111.96146115042373 3.5 L 118.96146115042373 0 L 111.96146115042373 -3.5 L 111.96146115042373 -0.5 L 85.93190245021187 -0.5 Z"/><text text-anchor="middle" pointer-events="none" font-size="8px" fill="#000000" x="68.48073057521187" y="3" font-family="Helvetica Neue, Helvetica, Arial, sans-serif">BIASES</text></g><g class="relationship" transform="translate(-423.60904755221657 68.26385720813842) rotate(371.98113576963704)"><path class="b-outline" fill="#A5ABB6" stroke="none" d="M 25 0.5 L 50.381652537332585 0.5 L 50.381652537332585 -0.5 L 25 -0.5 Z M 83.05352753733258 0.5 L 108.43518007466517 0.5 L 108.43518007466517 3.5 L 115.43518007466517 0 L 108.43518007466517 -3.5 L 108.43518007466517 -0.5 L 83.05352753733258 -0.5 Z"/><text text-anchor="middle" pointer-events="none" font-size="8px" fill="#000000" x="66.71759003733258" y="3" font-family="Helvetica Neue, Helvetica, Arial, sans-serif">FEEDS</text></g><g class="relationship" transform="translate(-286.23310727585744 97.4167444714927) rotate(391.6845382665367)"><path class="b-outline" fill="#A5ABB6" stroke="none" d="M 25 0.5 L 42.46185763872561 0.5 L 42.46185763872561 -0.5 L 25 -0.5 Z M 75.1337326387256 0.5 L 92.59559027745122 0.5 L 92.59559027745122 3.5 L 99.59559027745122 0 L 92.59559027745122 -3.5 L 92.59559027745122 -0.5 L 75.1337326387256 -0.5 Z"/><text text-anchor="middle" pointer-events="none" font-size="8px" fill="#000000" x="58.79779513872561" y="3" font-family="Helvetica Neue, Helvetica, Arial, sans-serif">FEEDS</text></g><g class="relationship" transform="translate(-508.3151645217552 -40.18416506112913) rotate(332.2646257654203)"><path class="b-outline" fill="#A5ABB6" stroke="none" d="M 25 0.5 L 57.37231841509933 0.5 L 57.37231841509933 -0.5 L 25 -0.5 Z M 92.27466216509933 0.5 L 124.64698058019866 0.5 L 124.64698058019866 3.5 L 131.64698058019866 0 L 124.64698058019866 -3.5 L 124.64698058019866 -0.5 L 92.27466216509933 -0.5 Z"/><text text-anchor="middle" pointer-events="none" font-size="8px" fill="#000000" x="74.82349029009933" y="3" font-family="Helvetica Neue, Helvetica, Arial, sans-serif">BIASES</text></g><g class="relationship" transform="translate(-508.3151645217552 -40.18416506112913) rotate(412.0074689420519)"><path class="b-outline" fill="#A5ABB6" stroke="none" d="M 25 0.5 L 47.85307905866817 0.5 L 47.85307905866817 -0.5 L 25 -0.5 Z M 82.75542280866817 0.5 L 105.60850186733634 0.5 L 105.60850186733634 3.5 L 112.60850186733634 0 L 105.60850186733634 -3.5 L 105.60850186733634 -0.5 L 82.75542280866817 -0.5 Z"/><text text-anchor="middle" pointer-events="none" font-size="8px" fill="#000000" x="65.30425093366817" y="3" font-family="Helvetica Neue, Helvetica, Arial, sans-serif">BIASES</text></g><g class="relationship" transform="translate(-180.20813073769813 162.85958568937738) rotate(353.7571364505352)"><path class="b-outline" fill="#A5ABB6" stroke="none" d="M 25 0.5 L 47.74449096442167 0.5 L 47.74449096442167 -0.5 L 25 -0.5 Z M 80.41636596442167 0.5 L 103.16085692884334 0.5 L 103.16085692884334 3.5 L 110.16085692884334 0 L 103.16085692884334 -3.5 L 103.16085692884334 -0.5 L 80.41636596442167 -0.5 Z"/><text text-anchor="middle" pointer-events="none" font-size="8px" fill="#000000" x="64.08042846442167" y="3" font-family="Helvetica Neue, Helvetica, Arial, sans-serif">FEEDS</text></g><g class="relationship" transform="translate(-45.848792507177514 148.1617805472543) rotate(275.4641504977315)"><path class="b-outline" fill="#A5ABB6" stroke="none" d="M 25 0.5 L 58.67194507047698 0.5 L 58.67194507047698 -0.5 L 25 -0.5 Z M 91.34382007047698 0.5 L 125.01576514095396 0.5 L 125.01576514095396 3.5 L 132.01576514095396 0 L 125.01576514095396 -3.5 L 125.01576514095396 -0.5 L 91.34382007047698 -0.5 Z"/><text text-anchor="middle" pointer-events="none" font-size="8px" fill="#000000" x="75.00788257047698" y="3" font-family="Helvetica Neue, Helvetica, Arial, sans-serif">FEEDS</text></g><g class="relationship" transform="translate(-45.848792507177514 148.1617805472543) rotate(392.70488059999684)"><path class="b-outline" fill="#A5ABB6" stroke="none" d="M 25 0.5 L 77.22625328050167 0.5 L 77.22625328050167 -0.5 L 25 -0.5 Z M 109.89812828050167 0.5 L 162.12438156100333 0.5 L 162.12438156100333 3.5 L 169.12438156100333 0 L 162.12438156100333 -3.5 L 162.12438156100333 -0.5 L 109.89812828050167 -0.5 Z"/><text text-anchor="middle" pointer-events="none" font-size="8px" fill="#000000" x="93.56219078050167" y="3" font-family="Helvetica Neue, Helvetica, Arial, sans-serif">FEEDS</text></g><g class="relationship" transform="translate(-172.34299467020986 -52.371089597597575) rotate(487.24728461911116)"><path class="b-outline" fill="#A5ABB6" stroke="none" d="M 25 0.5 L 73.13303639668129 0.5 L 73.13303639668129 -0.5 L 25 -0.5 Z M 108.03538014668129 0.5 L 156.16841654336258 0.5 L 156.16841654336258 3.5 L 163.16841654336258 0 L 156.16841654336258 -3.5 L 156.16841654336258 -0.5 L 108.03538014668129 -0.5 Z"/><text text-anchor="middle" pointer-events="none" font-size="8px" fill="#000000" x="90.58420827168129" y="3" transform="rotate(180 90.58420827168129 0)" font-family="Helvetica Neue, Helvetica, Arial, sans-serif">BIASES</text></g><g class="relationship" transform="translate(-172.34299467020986 -52.371089597597575) rotate(452.09281818579643)"><path class="b-outline" fill="#A5ABB6" stroke="none" d="M 25 0.5 L 86.73599536168535 0.5 L 86.73599536168535 -0.5 L 25 -0.5 Z M 121.63833911168535 0.5 L 183.3743344733707 0.5 L 183.3743344733707 3.5 L 190.3743344733707 0 L 183.3743344733707 -3.5 L 183.3743344733707 -0.5 L 121.63833911168535 -0.5 Z"/><text text-anchor="middle" pointer-events="none" font-size="8px" fill="#000000" x="104.18716723668535" y="3" transform="rotate(180 104.18716723668535 0)" font-family="Helvetica Neue, Helvetica, Arial, sans-serif">BIASES</text></g><g class="relationship" transform="translate(-172.34299467020986 -52.371089597597575) rotate(417.75666595979357)"><path class="b-outline" fill="#A5ABB6" stroke="none" d="M 25 0.5 L 97.59651387781649 0.5 L 97.59651387781649 -0.5 L 25 -0.5 Z M 132.4988576278165 0.5 L 205.09537150563298 0.5 L 205.09537150563298 3.5 L 212.09537150563298 0 L 205.09537150563298 -3.5 L 205.09537150563298 -0.5 L 132.4988576278165 -0.5 Z"/><text text-anchor="middle" pointer-events="none" font-size="8px" fill="#000000" x="115.04768575281649" y="3" font-family="Helvetica Neue, Helvetica, Arial, sans-serif">BIASES</text></g><g class="relationship" transform="translate(91.09168055063988 -6.2892981835421455) rotate(350.10703126209125)"><path class="b-outline" fill="#A5ABB6" stroke="none" d="M 24.018736134675446,-6.953439040707552 L 24.277555179777966,-5.987513214418485 A 185.52648916942806 185.52648916942806 0 0 1 53.85216396069109,-11.390181096015795 L 53.75275400543506,-12.385227658140394 A 186.52648916942806 186.52648916942806 0 0 0 24.018736134675446,-6.953439040707552 Z M 86.46809390044143,-12.76995510842724 L 86.39211139513766,-11.772845957487505 A 185.52648916942806 185.52648916942806 0 0 1 116.08559286689812,-7.067161855348401 L 115.37749588654064,-4.151926244560034 L 123.00582545546389,-5.900808169645672 L 117.02972217404142,-10.954142669732889 L 116.32162519368394,-8.038907058944522 A 186.52648916942806 186.52648916942806 0 0 0 86.46809390044143,-12.76995510842724"/><text text-anchor="middle" pointer-events="none" font-size="8px" fill="#000000" x="70.10785181755614" y="-9.796313190679626" font-family="Helvetica Neue, Helvetica, Arial, sans-serif">FEEDS</text></g><g class="relationship" transform="translate(236.20085471138927 -31.596553632263415) rotate(530.1070312620913)"><path class="b-outline" fill="#A5ABB6" stroke="none" d="M 24.018736134675446,-6.953439040707552 L 24.277555179777966,-5.987513214418485 A 185.52648916942806 185.52648916942806 0 0 1 53.85216396069109,-11.390181096015795 L 53.75275400543506,-12.385227658140394 A 186.52648916942806 186.52648916942806 0 0 0 24.018736134675446,-6.953439040707552 Z M 86.46809390044143,-12.76995510842724 L 86.39211139513766,-11.772845957487505 A 185.52648916942806 185.52648916942806 0 0 1 116.08559286689812,-7.067161855348401 L 115.37749588654064,-4.151926244560034 L 123.00582545546389,-5.900808169645672 L 117.02972217404142,-10.954142669732889 L 116.32162519368394,-8.038907058944522 A 186.52648916942806 186.52648916942806 0 0 0 86.46809390044143,-12.76995510842724"/><text text-anchor="middle" pointer-events="none" font-size="8px" fill="#000000" x="70.10785181755614" y="-9.796313190679626" transform="rotate(180 70.10785181755614 -12.796313190679626)" font-family="Helvetica Neue, Helvetica, Arial, sans-serif">FEEDS</text></g><g class="relationship" transform="translate(-30.897292470171678 -8.140500784281699) rotate(360.86940608411976)"><path class="b-outline" fill="#A5ABB6" stroke="none" d="M 25 0.5 L 41.165571681620406 0.5 L 41.165571681620406 -0.5 L 25 -0.5 Z M 73.8374466816204 0.5 L 90.00301836324081 0.5 L 90.00301836324081 3.5 L 97.00301836324081 0 L 90.00301836324081 -3.5 L 90.00301836324081 -0.5 L 73.8374466816204 -0.5 Z"/><text text-anchor="middle" pointer-events="none" font-size="8px" fill="#000000" x="57.501509181620406" y="3" font-family="Helvetica Neue, Helvetica, Arial, sans-serif">FEEDS</text></g><g class="relationship" transform="translate(34.8197466779508 -135.83936561023006) rotate(477.23148678449076)"><path class="b-outline" fill="#A5ABB6" stroke="none" d="M 25 0.5 L 50.8571307651399 0.5 L 50.8571307651399 -0.5 L 25 -0.5 Z M 85.7594745151399 0.5 L 111.6166052802798 0.5 L 111.6166052802798 3.5 L 118.6166052802798 0 L 111.6166052802798 -3.5 L 111.6166052802798 -0.5 L 85.7594745151399 -0.5 Z"/><text text-anchor="middle" pointer-events="none" font-size="8px" fill="#000000" x="68.3083026401399" y="3" transform="rotate(180 68.3083026401399 0)" font-family="Helvetica Neue, Helvetica, Arial, sans-serif">BIASES</text></g><g class="relationship" transform="translate(34.8197466779508 -135.83936561023006) rotate(426.5215908024082)"><path class="b-outline" fill="#A5ABB6" stroke="none" d="M 25 0.5 L 49.67062099382994 0.5 L 49.67062099382994 -0.5 L 25 -0.5 Z M 84.57296474382994 0.5 L 109.24358573765988 0.5 L 109.24358573765988 3.5 L 116.24358573765988 0 L 109.24358573765988 -3.5 L 109.24358573765988 -0.5 L 84.57296474382994 -0.5 Z"/><text text-anchor="middle" pointer-events="none" font-size="8px" fill="#000000" x="67.12179286882994" y="3" font-family="Helvetica Neue, Helvetica, Arial, sans-serif">BIASES</text></g><g class="relationship" transform="translate(34.8197466779508 -135.83936561023006) rotate(387.36786794542945)"><path class="b-outline" fill="#A5ABB6" stroke="none" d="M 25 0.5 L 92.429728767314 0.5 L 92.429728767314 -0.5 L 25 -0.5 Z M 127.332072517314 0.5 L 194.761801284628 0.5 L 194.761801284628 3.5 L 201.761801284628 0 L 194.761801284628 -3.5 L 194.761801284628 -0.5 L 127.332072517314 -0.5 Z"/><text text-anchor="middle" pointer-events="none" font-size="8px" fill="#000000" x="109.880900642314" y="3" font-family="Helvetica Neue, Helvetica, Arial, sans-serif">BIASES</text></g><g class="relationship" transform="translate(117.50003360407014 253.0495135026356) rotate(307.5282807264098)"><path class="b-outline" fill="#A5ABB6" stroke="none" d="M 25 0.5 L 46.31118146533686 0.5 L 46.31118146533686 -0.5 L 25 -0.5 Z M 78.98305646533686 0.5 L 100.29423793067372 0.5 L 100.29423793067372 3.5 L 107.29423793067372 0 L 100.29423793067372 -3.5 L 100.29423793067372 -0.5 L 78.98305646533686 -0.5 Z"/><text text-anchor="middle" pointer-events="none" font-size="8px" fill="#000000" x="62.64711896533686" y="3" font-family="Helvetica Neue, Helvetica, Arial, sans-serif">FEEDS</text></g><g class="relationship" transform="translate(198.0874585809836 148.13320244830976) rotate(281.97274694952466)"><path class="b-outline" fill="#A5ABB6" stroke="none" d="M 25 0.5 L 72.02729805342413 0.5 L 72.02729805342413 -0.5 L 25 -0.5 Z M 104.69917305342413 0.5 L 151.72647110684827 0.5 L 151.72647110684827 3.5 L 158.72647110684827 0 L 151.72647110684827 -3.5 L 151.72647110684827 -0.5 L 104.69917305342413 -0.5 Z"/><text text-anchor="middle" pointer-events="none" font-size="8px" fill="#000000" x="88.36323555342413" y="3" font-family="Helvetica Neue, Helvetica, Arial, sans-serif">FEEDS</text></g><g class="relationship" transform="translate(302.1115775224846 162.0150408211004) rotate(513.7514643933182)"><path class="b-outline" fill="#A5ABB6" stroke="none" d="M 25 0.5 L 81.96711775850713 0.5 L 81.96711775850713 -0.5 L 25 -0.5 Z M 116.86946150850713 0.5 L 173.83657926701426 0.5 L 173.83657926701426 3.5 L 180.83657926701426 0 L 173.83657926701426 -3.5 L 173.83657926701426 -0.5 L 116.86946150850713 -0.5 Z"/><text text-anchor="middle" pointer-events="none" font-size="8px" fill="#000000" x="99.41828963350713" y="3" transform="rotate(180 99.41828963350713 0)" font-family="Helvetica Neue, Helvetica, Arial, sans-serif">BIASES</text></g><g class="relationship" transform="translate(302.1115775224846 162.0150408211004) rotate(187.60111344544282)"><path class="b-outline" fill="#A5ABB6" stroke="none" d="M 25 0.5 L 31.52197067946264 0.5 L 31.52197067946264 -0.5 L 25 -0.5 Z M 66.42431442946264 0.5 L 72.94628510892528 0.5 L 72.94628510892528 3.5 L 79.94628510892528 0 L 72.94628510892528 -3.5 L 72.94628510892528 -0.5 L 66.42431442946264 -0.5 Z"/><text text-anchor="middle" pointer-events="none" font-size="8px" fill="#000000" x="48.97314255446264" y="3" transform="rotate(180 48.97314255446264 0)" font-family="Helvetica Neue, Helvetica, Arial, sans-serif">BIASES</text></g><g class="relationship" transform="translate(302.1115775224846 162.0150408211004) rotate(466.364699566648)"><path class="b-outline" fill="#A5ABB6" stroke="none" d="M 25 0.5 L 50.71635624023877 0.5 L 50.71635624023877 -0.5 L 25 -0.5 Z M 85.61869999023877 0.5 L 111.33505623047753 0.5 L 111.33505623047753 3.5 L 118.33505623047753 0 L 111.33505623047753 -3.5 L 111.33505623047753 -0.5 L 85.61869999023877 -0.5 Z"/><text text-anchor="middle" pointer-events="none" font-size="8px" fill="#000000" x="68.16752811523877" y="3" transform="rotate(180 68.16752811523877 0)" font-family="Helvetica Neue, Helvetica, Arial, sans-serif">BIASES</text></g><g class="relationship" transform="translate(302.1115775224846 162.0150408211004) rotate(251.20001067581313)"><path class="b-outline" fill="#A5ABB6" stroke="none" d="M 25 0.5 L 81.3103468994819 0.5 L 81.3103468994819 -0.5 L 25 -0.5 Z M 116.2126906494819 0.5 L 172.5230375489638 0.5 L 172.5230375489638 3.5 L 179.5230375489638 0 L 172.5230375489638 -3.5 L 172.5230375489638 -0.5 L 116.2126906494819 -0.5 Z"/><text text-anchor="middle" pointer-events="none" font-size="8px" fill="#000000" x="98.7615187744819" y="3" transform="rotate(180 98.7615187744819 0)" font-family="Helvetica Neue, Helvetica, Arial, sans-serif">BIASES</text></g><g class="relationship" transform="translate(261.726873610802 299.54327077611686) rotate(247.20241745059502)"><path class="b-outline" fill="#A5ABB6" stroke="none" d="M 25 0.5 L 62.28437657692113 0.5 L 62.28437657692113 -0.5 L 25 -0.5 Z M 94.95625157692113 0.5 L 132.24062815384227 0.5 L 132.24062815384227 3.5 L 139.24062815384227 0 L 132.24062815384227 -3.5 L 132.24062815384227 -0.5 L 94.95625157692113 -0.5 Z"/><text text-anchor="middle" pointer-events="none" font-size="8px" fill="#000000" x="78.62031407692113" y="3" transform="rotate(180 78.62031407692113 0)" font-family="Helvetica Neue, Helvetica, Arial, sans-serif">FEEDS</text></g><g class="relationship" transform="translate(387.47630493692685 21.077469279045797) rotate(199.1980872682973)"><path class="b-outline" fill="#A5ABB6" stroke="none" d="M 25 0.5 L 60.25590748218315 0.5 L 60.25590748218315 -0.5 L 25 -0.5 Z M 92.92778248218315 0.5 L 128.1836899643663 0.5 L 128.1836899643663 3.5 L 135.1836899643663 0 L 128.1836899643663 -3.5 L 128.1836899643663 -0.5 L 92.92778248218315 -0.5 Z"/><text text-anchor="middle" pointer-events="none" font-size="8px" fill="#000000" x="76.59184498218315" y="3" transform="rotate(180 76.59184498218315 0)" font-family="Helvetica Neue, Helvetica, Arial, sans-serif">FEEDS</text></g><g class="relationship" transform="translate(371.0752841965331 -115.55818871707356) rotate(443.15526643859414)"><path class="b-outline" fill="#A5ABB6" stroke="none" d="M 25 0.5 L 47.85706985039094 0.5 L 47.85706985039094 -0.5 L 25 -0.5 Z M 82.75941360039094 0.5 L 105.61648345078189 0.5 L 105.61648345078189 3.5 L 112.61648345078189 0 L 105.61648345078189 -3.5 L 105.61648345078189 -0.5 L 82.75941360039094 -0.5 Z"/><text text-anchor="middle" pointer-events="none" font-size="8px" fill="#000000" x="65.30824172539094" y="3" font-family="Helvetica Neue, Helvetica, Arial, sans-serif">BIASES</text></g><g class="relationship" transform="translate(371.0752841965331 -115.55818871707356) rotate(508.0970311796414)"><path class="b-outline" fill="#A5ABB6" stroke="none" d="M 25 0.5 L 58.48538755303959 0.5 L 58.48538755303959 -0.5 L 25 -0.5 Z M 93.38773130303959 0.5 L 126.87311885607917 0.5 L 126.87311885607917 3.5 L 133.87311885607917 0 L 126.87311885607917 -3.5 L 126.87311885607917 -0.5 L 93.38773130303959 -0.5 Z"/><text text-anchor="middle" pointer-events="none" font-size="8px" fill="#000000" x="75.93655942803959" y="3" transform="rotate(180 75.93655942803959 0)" font-family="Helvetica Neue, Helvetica, Arial, sans-serif">BIASES</text></g><g class="relationship" transform="translate(236.20085471138927 -31.596553632263415) rotate(250.5162294169)"><path class="b-outline" fill="#A5ABB6" stroke="none" d="M 25 0.5 L 78.76082019859368 0.5 L 78.76082019859368 -0.5 L 25 -0.5 Z M 111.43269519859368 0.5 L 165.19351539718735 0.5 L 165.19351539718735 3.5 L 172.19351539718735 0 L 165.19351539718735 -3.5 L 165.19351539718735 -0.5 L 111.43269519859368 -0.5 Z"/><text text-anchor="middle" pointer-events="none" font-size="8px" fill="#000000" x="95.09675769859368" y="3" transform="rotate(180 95.09675769859368 0)" font-family="Helvetica Neue, Helvetica, Arial, sans-serif">FEEDS</text></g><g class="relationship" transform="translate(170.4289618721503 -217.49798081087448) rotate(231.45675043301463)"><path class="b-outline" fill="#A5ABB6" stroke="none" d="M 25 0.5 L 71.5460664127645 0.5 L 71.5460664127645 -0.5 L 25 -0.5 Z M 104.2179414127645 0.5 L 150.764007825529 0.5 L 150.764007825529 3.5 L 157.764007825529 0 L 150.764007825529 -3.5 L 150.764007825529 -0.5 L 104.2179414127645 -0.5 Z"/><text text-anchor="middle" pointer-events="none" font-size="8px" fill="#000000" x="87.8820039127645" y="3" transform="rotate(180 87.8820039127645 0)" font-family="Helvetica Neue, Helvetica, Arial, sans-serif">FEEDS</text></g><g class="relationship" transform="translate(56.547756593447524 -360.44466192211956) rotate(501.58159507147843)"><path class="b-outline" fill="#A5ABB6" stroke="none" d="M 25 0.5 L 85.00974940342833 0.5 L 85.00974940342833 -0.5 L 25 -0.5 Z M 117.68162440342833 0.5 L 177.69137380685666 0.5 L 177.69137380685666 3.5 L 184.69137380685666 0 L 177.69137380685666 -3.5 L 177.69137380685666 -0.5 L 117.68162440342833 -0.5 Z"/><text text-anchor="middle" pointer-events="none" font-size="8px" fill="#000000" x="101.34568690342833" y="3" transform="rotate(180 101.34568690342833 0)" font-family="Helvetica Neue, Helvetica, Arial, sans-serif">FEEDS</text></g><g class="relationship" transform="translate(56.547756593447524 -360.44466192211956) rotate(529.7381689824308)"><path class="b-outline" fill="#A5ABB6" stroke="none" d="M 25 0.5 L 69.5859604568776 0.5 L 69.5859604568776 -0.5 L 25 -0.5 Z M 102.2578354568776 0.5 L 146.8437959137552 0.5 L 146.8437959137552 3.5 L 153.8437959137552 0 L 146.8437959137552 -3.5 L 146.8437959137552 -0.5 L 102.2578354568776 -0.5 Z"/><text text-anchor="middle" pointer-events="none" font-size="8px" fill="#000000" x="85.9218979568776" y="3" transform="rotate(180 85.9218979568776 0)" font-family="Helvetica Neue, Helvetica, Arial, sans-serif">FEEDS</text></g><g class="relationship" transform="translate(56.547756593447524 -360.44466192211956) rotate(203.12477122906415)"><path class="b-outline" fill="#A5ABB6" stroke="none" d="M 25 0.5 L 59.70485560186714 0.5 L 59.70485560186714 -0.5 L 25 -0.5 Z M 92.37673060186714 0.5 L 127.08158620373428 0.5 L 127.08158620373428 3.5 L 134.08158620373428 0 L 127.08158620373428 -3.5 L 127.08158620373428 -0.5 L 92.37673060186714 -0.5 Z"/><text text-anchor="middle" pointer-events="none" font-size="8px" fill="#000000" x="76.04079310186714" y="3" transform="rotate(180 76.04079310186714 0)" font-family="Helvetica Neue, Helvetica, Arial, sans-serif">FEEDS</text></g><g class="relationship" transform="translate(-107.74415308881628 -230.14254888490987) rotate(199.56244671028037)"><path class="b-outline" fill="#A5ABB6" stroke="none" d="M 25 0.5 L 60.947097947978904 0.5 L 60.947097947978904 -0.5 L 25 -0.5 Z M 93.6189729479789 0.5 L 129.5660708959578 0.5 L 129.5660708959578 3.5 L 136.5660708959578 0 L 129.5660708959578 -3.5 L 129.5660708959578 -0.5 L 93.6189729479789 -0.5 Z"/><text text-anchor="middle" pointer-events="none" font-size="8px" fill="#000000" x="77.2830354479789" y="3" transform="rotate(180 77.2830354479789 0)" font-family="Helvetica Neue, Helvetica, Arial, sans-serif">FEEDS</text></g><g class="relationship" transform="translate(-119.43524199041502 -328.5842233458357) rotate(522.4892667738075)"><path class="b-outline" fill="#A5ABB6" stroke="none" d="M 25 0.5 L 53.85323548854453 0.5 L 53.85323548854453 -0.5 L 25 -0.5 Z M 86.52511048854453 0.5 L 115.37834597708905 0.5 L 115.37834597708905 3.5 L 122.37834597708905 0 L 115.37834597708905 -3.5 L 115.37834597708905 -0.5 L 86.52511048854453 -0.5 Z"/><text text-anchor="middle" pointer-events="none" font-size="8px" fill="#000000" x="70.18917298854453" y="3" transform="rotate(180 70.18917298854453 0)" font-family="Helvetica Neue, Helvetica, Arial, sans-serif">FEEDS</text></g><g class="relationship" transform="translate(-89.75190868039113 -422.92152972020074) rotate(500.8317238793243)"><path class="b-outline" fill="#A5ABB6" stroke="none" d="M 25 0.5 L 89.94963173833622 0.5 L 89.94963173833622 -0.5 L 25 -0.5 Z M 122.62150673833622 0.5 L 187.57113847667244 0.5 L 187.57113847667244 3.5 L 194.57113847667244 0 L 187.57113847667244 -3.5 L 187.57113847667244 -0.5 L 122.62150673833622 -0.5 Z"/><text text-anchor="middle" pointer-events="none" font-size="8px" fill="#000000" x="106.28556923833622" y="3" transform="rotate(180 106.28556923833622 0)" font-family="Helvetica Neue, Helvetica, Arial, sans-serif">FEEDS</text></g><g class="relationship" transform="translate(0.5584889739566279 -262.98703625294326) rotate(299.8773063943339)"><path class="b-outline" fill="#A5ABB6" stroke="none" d="M 25 0.5 L 35.24666369195103 0.5 L 35.24666369195103 -0.5 L 25 -0.5 Z M 70.14900744195103 0.5 L 80.39567113390206 0.5 L 80.39567113390206 3.5 L 87.39567113390206 0 L 80.39567113390206 -3.5 L 80.39567113390206 -0.5 L 70.14900744195103 -0.5 Z"/><text text-anchor="middle" pointer-events="none" font-size="8px" fill="#000000" x="52.69783556695103" y="3" font-family="Helvetica Neue, Helvetica, Arial, sans-serif">BIASES</text></g><g class="relationship" transform="translate(0.5584889739566279 -262.98703625294326) rotate(374.9913138309105)"><path class="b-outline" fill="#A5ABB6" stroke="none" d="M 25 0.5 L 66.9766845296508 0.5 L 66.9766845296508 -0.5 L 25 -0.5 Z M 101.8790282796508 0.5 L 143.8557128093016 0.5 L 143.8557128093016 3.5 L 150.8557128093016 0 L 143.8557128093016 -3.5 L 143.8557128093016 -0.5 L 101.8790282796508 -0.5 Z"/><text text-anchor="middle" pointer-events="none" font-size="8px" fill="#000000" x="84.4278564046508" y="3" font-family="Helvetica Neue, Helvetica, Arial, sans-serif">BIASES</text></g><g class="relationship" transform="translate(0.5584889739566279 -262.98703625294326) rotate(523.1292438847131)"><path class="b-outline" fill="#A5ABB6" stroke="none" d="M 25 0.5 L 35.635537315953165 0.5 L 35.635537315953165 -0.5 L 25 -0.5 Z M 70.53788106595317 0.5 L 81.17341838190633 0.5 L 81.17341838190633 3.5 L 88.17341838190633 0 L 81.17341838190633 -3.5 L 81.17341838190633 -0.5 L 70.53788106595317 -0.5 Z"/><text text-anchor="middle" pointer-events="none" font-size="8px" fill="#000000" x="53.086709190953165" y="3" transform="rotate(180 53.086709190953165 0)" font-family="Helvetica Neue, Helvetica, Arial, sans-serif">BIASES</text></g><g class="relationship" transform="translate(0.5584889739566279 -262.98703625294326) rotate(208.66418289344767)"><path class="b-outline" fill="#A5ABB6" stroke="none" d="M 25 0.5 L 47.42551718137713 0.5 L 47.42551718137713 -0.5 L 25 -0.5 Z M 82.32786093137713 0.5 L 104.75337811275426 0.5 L 104.75337811275426 3.5 L 111.75337811275426 0 L 104.75337811275426 -3.5 L 104.75337811275426 -0.5 L 82.32786093137713 -0.5 Z"/><text text-anchor="middle" pointer-events="none" font-size="8px" fill="#000000" x="64.87668905637713" y="3" transform="rotate(180 64.87668905637713 0)" font-family="Helvetica Neue, Helvetica, Arial, sans-serif">BIASES</text></g><g class="relationship" transform="translate(0.5584889739566279 -262.98703625294326) rotate(240.54783525266856)"><path class="b-outline" fill="#A5ABB6" stroke="none" d="M 25 0.5 L 70.88429257789348 0.5 L 70.88429257789348 -0.5 L 25 -0.5 Z M 105.78663632789348 0.5 L 151.67092890578695 0.5 L 151.67092890578695 3.5 L 158.67092890578695 0 L 151.67092890578695 -3.5 L 151.67092890578695 -0.5 L 105.78663632789348 -0.5 Z"/><text text-anchor="middle" pointer-events="none" font-size="8px" fill="#000000" x="88.33546445289348" y="3" transform="rotate(180 88.33546445289348 0)" font-family="Helvetica Neue, Helvetica, Arial, sans-serif">BIASES</text></g><g class="relationship" transform="translate(0.5584889739566279 -262.98703625294326) rotate(184.66348234873544)"><path class="b-outline" fill="#A5ABB6" stroke="none" d="M 25 0.5 L 109.75286244515507 0.5 L 109.75286244515507 -0.5 L 25 -0.5 Z M 144.65520619515507 0.5 L 229.40806864031015 0.5 L 229.40806864031015 3.5 L 236.40806864031015 0 L 229.40806864031015 -3.5 L 229.40806864031015 -0.5 L 144.65520619515507 -0.5 Z"/><text text-anchor="middle" pointer-events="none" font-size="8px" fill="#000000" x="127.20403432015507" y="3" transform="rotate(180 127.20403432015507 0)" font-family="Helvetica Neue, Helvetica, Arial, sans-serif">BIASES</text></g></g><g class="layer nodes"><g class="node" aria-label="graph-node269" transform="translate(-259.984164248096,-284.24037016248116)"><circle class="b-outline" cx="0" cy="0" r="25" fill="#F79767" stroke="#f36924" stroke-width="2px"/><text class="caption" text-anchor="middle" pointer-events="none" x="0" y="5" font-size="10px" fill="#FFFFFF" font-family="Helvetica Neue, Helvetica, Arial, sans-serif"> World</text></g><g class="node" aria-label="graph-node270" transform="translate(-339.1786613313157,-411.1174449522762)"><circle class="b-outline" cx="0" cy="0" r="25" fill="#57C7E3" stroke="#23b3d7" stroke-width="2px"/><text class="caption" text-anchor="middle" pointer-events="none" x="0" y="0" font-size="10px" fill="#2A2C34" font-family="Helvetica Neue, Helvetica, Arial, sans-serif"> Data</text><text class="caption" text-anchor="middle" pointer-events="none" x="0" y="10" font-size="10px" fill="#2A2C34" font-family="Helvetica Neue, Helvetica, Arial, sans-serif"> Gener…</text></g><g class="node" aria-label="graph-node271" transform="translate(-369.66590928674196,-113.08588347482149)"><circle class="b-outline" cx="0" cy="0" r="25" fill="#57C7E3" stroke="#23b3d7" stroke-width="2px"/><text class="caption" text-anchor="middle" pointer-events="none" x="0" y="5" font-size="10px" fill="#2A2C34" font-family="Helvetica Neue, Helvetica, Arial, sans-serif"> Populati…</text></g><g class="node" aria-label="graph-node272" transform="translate(-411.50720135573334,-286.644618220892)"><circle class="b-outline" cx="0" cy="0" r="25" fill="#F16667" stroke="#eb2728" stroke-width="2px"/><text class="caption" text-anchor="middle" pointer-events="none" x="0" y="0" font-size="10px" fill="#FFFFFF" font-family="Helvetica Neue, Helvetica, Arial, sans-serif"> Historical</text><text class="caption" text-anchor="middle" pointer-events="none" x="0" y="10" font-size="10px" fill="#FFFFFF" font-family="Helvetica Neue, Helvetica, Arial, sans-serif"> Bias</text></g><g class="node" aria-label="graph-node273" transform="translate(-423.60904755221657,68.26385720813842)"><circle class="b-outline" cx="0" cy="0" r="25" fill="#F79767" stroke="#f36924" stroke-width="2px"/><text class="caption" text-anchor="middle" pointer-events="none" x="0" y="5" font-size="10px" fill="#FFFFFF" font-family="Helvetica Neue, Helvetica, Arial, sans-serif"> Sample</text></g><g class="node" aria-label="graph-node274" transform="translate(-286.23310727585744,97.4167444714927)"><circle class="b-outline" cx="0" cy="0" r="25" fill="#57C7E3" stroke="#23b3d7" stroke-width="2px"/><text class="caption" text-anchor="middle" pointer-events="none" x="0" y="5" font-size="10px" fill="#2A2C34" font-family="Helvetica Neue, Helvetica, Arial, sans-serif"> Measure…</text></g><g class="node" aria-label="graph-node275" transform="translate(-508.3151645217552,-40.18416506112913)"><circle class="b-outline" cx="0" cy="0" r="25" fill="#F16667" stroke="#eb2728" stroke-width="2px"/><text class="caption" text-anchor="middle" pointer-events="none" x="0" y="5" font-size="10px" fill="#FFFFFF" font-family="Helvetica Neue, Helvetica, Arial, sans-serif"> Represe…</text></g><g class="node" aria-label="graph-node276" transform="translate(-180.20813073769813,162.85958568937738)"><circle class="b-outline" cx="0" cy="0" r="25" fill="#F79767" stroke="#f36924" stroke-width="2px"/><text class="caption" text-anchor="middle" pointer-events="none" x="0" y="5" font-size="10px" fill="#FFFFFF" font-family="Helvetica Neue, Helvetica, Arial, sans-serif"> Dataset</text></g><g class="node" aria-label="graph-node277" transform="translate(-45.848792507177514,148.1617805472543)"><circle class="b-outline" cx="0" cy="0" r="25" fill="#57C7E3" stroke="#23b3d7" stroke-width="2px"/><text class="caption" text-anchor="middle" pointer-events="none" x="0" y="5" font-size="10px" fill="#2A2C34" font-family="Helvetica Neue, Helvetica, Arial, sans-serif"> Preproc…</text></g><g class="node" aria-label="graph-node278" transform="translate(-172.34299467020986,-52.371089597597575)"><circle class="b-outline" cx="0" cy="0" r="25" fill="#F16667" stroke="#eb2728" stroke-width="2px"/><text class="caption" text-anchor="middle" pointer-events="none" x="0" y="5" font-size="10px" fill="#FFFFFF" font-family="Helvetica Neue, Helvetica, Arial, sans-serif"> Measure…</text></g><g class="node" aria-label="graph-node279" transform="translate(-30.897292470171678,-8.140500784281699)"><circle class="b-outline" cx="0" cy="0" r="25" fill="#F79767" stroke="#f36924" stroke-width="2px"/><text class="caption" text-anchor="middle" pointer-events="none" x="0" y="0" font-size="10px" fill="#FFFFFF" font-family="Helvetica Neue, Helvetica, Arial, sans-serif"> Training</text><text class="caption" text-anchor="middle" pointer-events="none" x="0" y="10" font-size="10px" fill="#FFFFFF" font-family="Helvetica Neue, Helvetica, Arial, sans-serif"> Data</text></g><g class="node" aria-label="graph-node280" transform="translate(91.09168055063988,-6.2892981835421455)"><circle class="b-outline" cx="0" cy="0" r="25" fill="#57C7E3" stroke="#23b3d7" stroke-width="2px"/><text class="caption" text-anchor="middle" pointer-events="none" x="0" y="0" font-size="10px" fill="#2A2C34" font-family="Helvetica Neue, Helvetica, Arial, sans-serif"> Model</text><text class="caption" text-anchor="middle" pointer-events="none" x="0" y="10" font-size="10px" fill="#2A2C34" font-family="Helvetica Neue, Helvetica, Arial, sans-serif"> Learni…</text></g><g class="node" aria-label="graph-node281" transform="translate(34.8197466779508,-135.83936561023006)"><circle class="b-outline" cx="0" cy="0" r="25" fill="#F16667" stroke="#eb2728" stroke-width="2px"/><text class="caption" text-anchor="middle" pointer-events="none" x="0" y="0" font-size="10px" fill="#FFFFFF" font-family="Helvetica Neue, Helvetica, Arial, sans-serif"> Learning</text><text class="caption" text-anchor="middle" pointer-events="none" x="0" y="10" font-size="10px" fill="#FFFFFF" font-family="Helvetica Neue, Helvetica, Arial, sans-serif"> Bias</text></g><g class="node" aria-label="graph-node282" transform="translate(117.50003360407014,253.0495135026356)"><circle class="b-outline" cx="0" cy="0" r="25" fill="#F79767" stroke="#f36924" stroke-width="2px"/><text class="caption" text-anchor="middle" pointer-events="none" x="0" y="5" font-size="10px" fill="#FFFFFF" font-family="Helvetica Neue, Helvetica, Arial, sans-serif"> Test Data</text></g><g class="node" aria-label="graph-node283" transform="translate(198.0874585809836,148.13320244830976)"><circle class="b-outline" cx="0" cy="0" r="25" fill="#57C7E3" stroke="#23b3d7" stroke-width="2px"/><text class="caption" text-anchor="middle" pointer-events="none" x="0" y="5" font-size="10px" fill="#2A2C34" font-family="Helvetica Neue, Helvetica, Arial, sans-serif"> Evaluation</text></g><g class="node" aria-label="graph-node284" transform="translate(302.1115775224846,162.0150408211004)"><circle class="b-outline" cx="0" cy="0" r="25" fill="#F16667" stroke="#eb2728" stroke-width="2px"/><text class="caption" text-anchor="middle" pointer-events="none" x="0" y="5" font-size="10px" fill="#FFFFFF" font-family="Helvetica Neue, Helvetica, Arial, sans-serif">Bi…</text></g><g class="node" aria-label="graph-node285" transform="translate(261.726873610802,299.54327077611686)"><circle class="b-outline" cx="0" cy="0" r="25" fill="#F79767" stroke="#f36924" stroke-width="2px"/><text class="caption" text-anchor="middle" pointer-events="none" x="0" y="5" font-size="10px" fill="#FFFFFF" font-family="Helvetica Neue, Helvetica, Arial, sans-serif"> Benchm…</text></g><g class="node" aria-label="graph-node286" transform="translate(387.47630493692685,21.077469279045797)"><circle class="b-outline" cx="0" cy="0" r="25" fill="#57C7E3" stroke="#23b3d7" stroke-width="2px"/><text class="caption" text-anchor="middle" pointer-events="none" x="0" y="0" font-size="10px" fill="#2A2C34" font-family="Helvetica Neue, Helvetica, Arial, sans-serif"> Model</text><text class="caption" text-anchor="middle" pointer-events="none" x="0" y="10" font-size="10px" fill="#2A2C34" font-family="Helvetica Neue, Helvetica, Arial, sans-serif"> Definit…</text></g><g class="node" aria-label="graph-node287" transform="translate(371.0752841965331,-115.55818871707356)"><circle class="b-outline" cx="0" cy="0" r="25" fill="#F16667" stroke="#eb2728" stroke-width="2px"/><text class="caption" text-anchor="middle" pointer-events="none" x="0" y="5" font-size="10px" fill="#FFFFFF" font-family="Helvetica Neue, Helvetica, Arial, sans-serif"> Aggrega…</text></g><g class="node" aria-label="graph-node288" transform="translate(236.20085471138927,-31.596553632263415)"><circle class="b-outline" cx="0" cy="0" r="25" fill="#F79767" stroke="#f36924" stroke-width="2px"/><text class="caption" text-anchor="middle" pointer-events="none" x="0" y="5" font-size="10px" fill="#FFFFFF" font-family="Helvetica Neue, Helvetica, Arial, sans-serif"> Model</text></g><g class="node" aria-label="graph-node289" transform="translate(170.4289618721503,-217.49798081087448)"><circle class="b-outline" cx="0" cy="0" r="25" fill="#57C7E3" stroke="#23b3d7" stroke-width="2px"/><text class="caption" text-anchor="middle" pointer-events="none" x="0" y="0" font-size="10px" fill="#2A2C34" font-family="Helvetica Neue, Helvetica, Arial, sans-serif"> Run</text><text class="caption" text-anchor="middle" pointer-events="none" x="0" y="10" font-size="10px" fill="#2A2C34" font-family="Helvetica Neue, Helvetica, Arial, sans-serif"> Model</text></g><g class="node" aria-label="graph-node290" transform="translate(56.547756593447524,-360.44466192211956)"><circle class="b-outline" cx="0" cy="0" r="25" fill="#F79767" stroke="#f36924" stroke-width="2px"/><text class="caption" text-anchor="middle" pointer-events="none" x="0" y="0" font-size="10px" fill="#FFFFFF" font-family="Helvetica Neue, Helvetica, Arial, sans-serif"> Model</text><text class="caption" text-anchor="middle" pointer-events="none" x="0" y="10" font-size="10px" fill="#FFFFFF" font-family="Helvetica Neue, Helvetica, Arial, sans-serif"> Output</text></g><g class="node" aria-label="graph-node291" transform="translate(-107.74415308881628,-230.14254888490987)"><circle class="b-outline" cx="0" cy="0" r="25" fill="#57C7E3" stroke="#23b3d7" stroke-width="2px"/><text class="caption" text-anchor="middle" pointer-events="none" x="0" y="5" font-size="10px" fill="#2A2C34" font-family="Helvetica Neue, Helvetica, Arial, sans-serif"> Post-Pro…</text></g><g class="node" aria-label="graph-node292" transform="translate(-119.43524199041502,-328.5842233458357)"><circle class="b-outline" cx="0" cy="0" r="25" fill="#57C7E3" stroke="#23b3d7" stroke-width="2px"/><text class="caption" text-anchor="middle" pointer-events="none" x="0" y="0" font-size="10px" fill="#2A2C34" font-family="Helvetica Neue, Helvetica, Arial, sans-serif"> Integrate</text><text class="caption" text-anchor="middle" pointer-events="none" x="0" y="10" font-size="10px" fill="#2A2C34" font-family="Helvetica Neue, Helvetica, Arial, sans-serif"> S…</text></g><g class="node" aria-label="graph-node293" transform="translate(-89.75190868039113,-422.92152972020074)"><circle class="b-outline" cx="0" cy="0" r="25" fill="#57C7E3" stroke="#23b3d7" stroke-width="2px"/><text class="caption" text-anchor="middle" pointer-events="none" x="0" y="-5" font-size="10px" fill="#2A2C34" font-family="Helvetica Neue, Helvetica, Arial, sans-serif"> Human &amp;</text><text class="caption" text-anchor="middle" pointer-events="none" x="0" y="5" font-size="10px" fill="#2A2C34" font-family="Helvetica Neue, Helvetica, Arial, sans-serif"> Model</text><text class="caption" text-anchor="middle" pointer-events="none" x="0" y="15" font-size="10px" fill="#2A2C34" font-family="Helvetica Neue, Helvetica, Arial, sans-serif"> Inter</text></g><g class="node" aria-label="graph-node294" transform="translate(0.5584889739566279,-262.98703625294326)"><circle class="b-outline" cx="0" cy="0" r="25" fill="#F16667" stroke="#eb2728" stroke-width="2px"/><text class="caption" text-anchor="middle" pointer-events="none" x="0" y="5" font-size="10px" fill="#FFFFFF" font-family="Helvetica Neue, Helvetica, Arial, sans-serif"> Deploym…</text></g></g></svg>