<svg xmlns="http://www.w3.org/2000/svg" width="1238.2911376953125" height="899.2305908203125" viewBox="-655.2128295898438 -541.6441040039062 1238.2911376953125 899.2305908203125"><title>Neo4j Graph Visualization</title><desc>Created using Neo4j (http://www.neo4j.com/)</desc><g class="layer relationships"><g class="relationship" transform="translate(-87.8166817622133 -196.29906378866292) rotate(509.1604000000017)"><path class="b-outline" fill="#A5ABB6" stroke="none" d="M 25 0.5 L 37.16492634254493 0.5 L 37.16492634254493 -0.5 L 25 -0.5 Z M 102.59070759254493 0.5 L 114.75563393508986 0.5 L 114.75563393508986 3.5 L 121.75563393508986 0 L 114.75563393508986 -3.5 L 114.75563393508986 -0.5 L 102.59070759254493 -0.5 Z"/><text text-anchor="middle" pointer-events="none" font-size="8px" fill="#000000" x="69.87781696754493" y="3" transform="rotate(180 69.87781696754493 0)" font-family="Helvetica Neue, Helvetica, Arial, sans-serif">IS_PARENT_OF</text></g><g class="relationship" transform="translate(-213.82191924046577 -121.06678202252678) rotate(223.63166496275136)"><path class="b-outline" fill="#A5ABB6" stroke="none" d="M 25 0.5 L 92.16957692226384 0.5 L 92.16957692226384 -0.5 L 25 -0.5 Z M 157.59535817226384 0.5 L 224.7649350945277 0.5 L 224.7649350945277 3.5 L 231.7649350945277 0 L 224.7649350945277 -3.5 L 224.7649350945277 -0.5 L 157.59535817226384 -0.5 Z"/><text text-anchor="middle" pointer-events="none" font-size="8px" fill="#000000" x="124.88246754726384" y="3" transform="rotate(180 124.88246754726384 0)" font-family="Helvetica Neue, Helvetica, Arial, sans-serif">IS_PARENT_OF</text></g><g class="relationship" transform="translate(-399.66597265682515 -298.2396346379159) rotate(387.5652749282641)"><path class="b-outline" fill="#A5ABB6" stroke="none" d="M 25 0.5 L 47.341277613512716 0.5 L 47.341277613512716 -0.5 L 25 -0.5 Z M 112.76705886351272 0.5 L 135.10833647702543 0.5 L 135.10833647702543 3.5 L 142.10833647702543 0 L 135.10833647702543 -3.5 L 135.10833647702543 -0.5 L 112.76705886351272 -0.5 Z"/><text text-anchor="middle" pointer-events="none" font-size="8px" fill="#000000" x="80.05416823851272" y="3" font-family="Helvetica Neue, Helvetica, Arial, sans-serif">IS_PARENT_OF</text></g><g class="relationship" transform="translate(-399.66597265682515 -298.2396346379159) rotate(263.71778563972254)"><path class="b-outline" fill="#A5ABB6" stroke="none" d="M 25 0.5 L 27.020577269598355 0.5 L 27.020577269598355 -0.5 L 25 -0.5 Z M 92.44635851959836 0.5 L 94.46693578919671 0.5 L 94.46693578919671 3.5 L 101.46693578919671 0 L 94.46693578919671 -3.5 L 94.46693578919671 -0.5 L 92.44635851959836 -0.5 Z"/><text text-anchor="middle" pointer-events="none" font-size="8px" fill="#000000" x="59.733467894598355" y="3" transform="rotate(180 59.733467894598355 0)" font-family="Helvetica Neue, Helvetica, Arial, sans-serif">IS_PARENT_OF</text></g><g class="relationship" transform="translate(-399.66597265682515 -298.2396346379159) rotate(489.3882619145308)"><path class="b-outline" fill="#A5ABB6" stroke="none" d="M 25 0.5 L 32.008961001208505 0.5 L 32.008961001208505 -0.5 L 25 -0.5 Z M 97.4347422512085 0.5 L 104.44370325241701 0.5 L 104.44370325241701 3.5 L 111.44370325241701 0 L 104.44370325241701 -3.5 L 104.44370325241701 -0.5 L 97.4347422512085 -0.5 Z"/><text text-anchor="middle" pointer-events="none" font-size="8px" fill="#000000" x="64.7218516262085" y="3" transform="rotate(180 64.7218516262085 0)" font-family="Helvetica Neue, Helvetica, Arial, sans-serif">IS_PARENT_OF</text></g><g class="relationship" transform="translate(-399.66597265682515 -298.2396346379159) rotate(510.43965452537304)"><path class="b-outline" fill="#A5ABB6" stroke="none" d="M 25 0.5 L 68.41596047648929 0.5 L 68.41596047648929 -0.5 L 25 -0.5 Z M 133.8417417264893 0.5 L 177.25770220297858 0.5 L 177.25770220297858 3.5 L 184.25770220297858 0 L 177.25770220297858 -3.5 L 177.25770220297858 -0.5 L 133.8417417264893 -0.5 Z"/><text text-anchor="middle" pointer-events="none" font-size="8px" fill="#000000" x="101.12885110148929" y="3" transform="rotate(180 101.12885110148929 0)" font-family="Helvetica Neue, Helvetica, Arial, sans-serif">IS_PARENT_OF</text></g><g class="relationship" transform="translate(-399.66597265682515 -298.2396346379159) rotate(536.0776999354307)"><path class="b-outline" fill="#A5ABB6" stroke="none" d="M 25 0.5 L 77.32648365355577 0.5 L 77.32648365355577 -0.5 L 25 -0.5 Z M 142.75226490355578 0.5 L 195.07874855711154 0.5 L 195.07874855711154 3.5 L 202.07874855711154 0 L 195.07874855711154 -3.5 L 195.07874855711154 -0.5 L 142.75226490355578 -0.5 Z"/><text text-anchor="middle" pointer-events="none" font-size="8px" fill="#000000" x="110.03937427855577" y="3" transform="rotate(180 110.03937427855577 0)" font-family="Helvetica Neue, Helvetica, Arial, sans-serif">IS_PARENT_OF</text></g><g class="relationship" transform="translate(-399.66597265682515 -298.2396346379159) rotate(216.94447915228642)"><path class="b-outline" fill="#A5ABB6" stroke="none" d="M 25 0.5 L 26.39304681390103 0.5 L 26.39304681390103 -0.5 L 25 -0.5 Z M 79.37351556390104 0.5 L 80.76656237780206 0.5 L 80.76656237780206 3.5 L 87.76656237780206 0 L 80.76656237780206 -3.5 L 80.76656237780206 -0.5 L 79.37351556390104 -0.5 Z"/><text text-anchor="middle" pointer-events="none" font-size="8px" fill="#000000" x="52.88328118890103" y="3" transform="rotate(180 52.88328118890103 0)" font-family="Helvetica Neue, Helvetica, Arial, sans-serif">IS_PAREN…</text></g><g class="relationship" transform="translate(-399.66597265682515 -298.2396346379159) rotate(283.788584178625)"><path class="b-outline" fill="#A5ABB6" stroke="none" d="M 25 0.5 L 67.44681690161568 0.5 L 67.44681690161568 -0.5 L 25 -0.5 Z M 132.87259815161568 0.5 L 175.31941505323135 0.5 L 175.31941505323135 3.5 L 182.31941505323135 0 L 175.31941505323135 -3.5 L 175.31941505323135 -0.5 L 132.87259815161568 -0.5 Z"/><text text-anchor="middle" pointer-events="none" font-size="8px" fill="#000000" x="100.15970752661568" y="3" font-family="Helvetica Neue, Helvetica, Arial, sans-serif">IS_PARENT_OF</text></g><g class="relationship" transform="translate(-399.66597265682515 -298.2396346379159) rotate(532.0598224565305)"><path class="b-outline" fill="#A5ABB6" stroke="none" d="M 25 0.5 L 30.468644772653903 0.5 L 30.468644772653903 -0.5 L 25 -0.5 Z M 95.8944260226539 0.5 L 101.3630707953078 0.5 L 101.3630707953078 3.5 L 108.3630707953078 0 L 101.3630707953078 -3.5 L 101.3630707953078 -0.5 L 95.8944260226539 -0.5 Z"/><text text-anchor="middle" pointer-events="none" font-size="8px" fill="#000000" x="63.1815353976539" y="3" transform="rotate(180 63.1815353976539 0)" font-family="Helvetica Neue, Helvetica, Arial, sans-serif">IS_PARENT_OF</text></g><g class="relationship" transform="translate(-399.66597265682515 -298.2396346379159) rotate(230.50413783583173)"><path class="b-outline" fill="#A5ABB6" stroke="none" d="M 25 0.5 L 64.51379758812021 0.5 L 64.51379758812021 -0.5 L 25 -0.5 Z M 129.9395788381202 0.5 L 169.45337642624042 0.5 L 169.45337642624042 3.5 L 176.45337642624042 0 L 169.45337642624042 -3.5 L 169.45337642624042 -0.5 L 129.9395788381202 -0.5 Z"/><text text-anchor="middle" pointer-events="none" font-size="8px" fill="#000000" x="97.22668821312021" y="3" transform="rotate(180 97.22668821312021 0)" font-family="Helvetica Neue, Helvetica, Arial, sans-serif">IS_PARENT_OF</text></g><g class="relationship" transform="translate(-399.66597265682515 -298.2396346379159) rotate(257.24240726491115)"><path class="b-outline" fill="#A5ABB6" stroke="none" d="M 25 0.5 L 73.70281211387196 0.5 L 73.70281211387196 -0.5 L 25 -0.5 Z M 139.12859336387197 0.5 L 187.8314054777439 0.5 L 187.8314054777439 3.5 L 194.8314054777439 0 L 187.8314054777439 -3.5 L 187.8314054777439 -0.5 L 139.12859336387197 -0.5 Z"/><text text-anchor="middle" pointer-events="none" font-size="8px" fill="#000000" x="106.41570273887196" y="3" transform="rotate(180 106.41570273887196 0)" font-family="Helvetica Neue, Helvetica, Arial, sans-serif">IS_PARENT_OF</text></g><g class="relationship" transform="translate(-399.66597265682515 -298.2396346379159) rotate(352.41918789483293)"><path class="b-outline" fill="#A5ABB6" stroke="none" d="M 25 0.5 L 26.340384875684798 0.5 L 26.340384875684798 -0.5 L 25 -0.5 Z M 84.2075723756848 0.5 L 85.5479572513696 0.5 L 85.5479572513696 3.5 L 92.5479572513696 0 L 85.5479572513696 -3.5 L 85.5479572513696 -0.5 L 84.2075723756848 -0.5 Z"/><text text-anchor="middle" pointer-events="none" font-size="8px" fill="#000000" x="55.2739786256848" y="3" font-family="Helvetica Neue, Helvetica, Arial, sans-serif">IS_PARENT…</text></g><g class="relationship" transform="translate(-399.66597265682515 -298.2396346379159) rotate(307.92769427236533)"><path class="b-outline" fill="#A5ABB6" stroke="none" d="M 25 0.5 L 32.1870942136203 0.5 L 32.1870942136203 -0.5 L 25 -0.5 Z M 97.6128754636203 0.5 L 104.7999696772406 0.5 L 104.7999696772406 3.5 L 111.7999696772406 0 L 104.7999696772406 -3.5 L 104.7999696772406 -0.5 L 97.6128754636203 -0.5 Z"/><text text-anchor="middle" pointer-events="none" font-size="8px" fill="#000000" x="64.8999848386203" y="3" font-family="Helvetica Neue, Helvetica, Arial, sans-serif">IS_PARENT_OF</text></g><g class="relationship" transform="translate(-399.66597265682515 -298.2396346379159) rotate(308.7967608952247)"><path class="b-outline" fill="#A5ABB6" stroke="none" d="M 25 0.5 L 79.71685847512774 0.5 L 79.71685847512774 -0.5 L 25 -0.5 Z M 145.14263972512774 0.5 L 199.85949820025547 0.5 L 199.85949820025547 3.5 L 206.85949820025547 0 L 199.85949820025547 -3.5 L 199.85949820025547 -0.5 L 145.14263972512774 -0.5 Z"/><text text-anchor="middle" pointer-events="none" font-size="8px" fill="#000000" x="112.42974910012774" y="3" font-family="Helvetica Neue, Helvetica, Arial, sans-serif">IS_PARENT_OF</text></g><g class="relationship" transform="translate(-399.66597265682515 -298.2396346379159) rotate(482.51941047360856)"><path class="b-outline" fill="#A5ABB6" stroke="none" d="M 25 0.5 L 78.84296099733463 0.5 L 78.84296099733463 -0.5 L 25 -0.5 Z M 144.26874224733461 0.5 L 198.11170324466926 0.5 L 198.11170324466926 3.5 L 205.11170324466926 0 L 198.11170324466926 -3.5 L 198.11170324466926 -0.5 L 144.26874224733461 -0.5 Z"/><text text-anchor="middle" pointer-events="none" font-size="8px" fill="#000000" x="111.55585162233463" y="3" transform="rotate(180 111.55585162233463 0)" font-family="Helvetica Neue, Helvetica, Arial, sans-serif">IS_PARENT_OF</text></g><g class="relationship" transform="translate(-278.3054513688263 -33.25066573097632) rotate(489.66948944508727)"><path class="b-outline" fill="#A5ABB6" stroke="none" d="M 24.018736134675446,-6.953439040707552 L 24.277555179777966,-5.987513214418485 A 223.15374534415741 223.15374534415741 0 0 1 63.42239567908339,-12.813810591850938 L 63.33899309602113,-13.81032652706648 A 224.15374534415741 224.15374534415741 0 0 0 24.018736134675446,-6.953439040707552 Z M 96.0530121071862,-14.152474651573812 L 95.99047013348482,-13.154432317038072 A 223.15374534415741 223.15374534415741 0 0 1 135.2695214142277,-7.148351724341044 L 134.55384182474126,-4.2349683432542875 L 142.1866959016779,-5.963996579053775 L 136.22376086687632,-11.032862899123385 L 135.50808127738986,-8.119479518036629 A 224.15374534415741 224.15374534415741 0 0 0 96.0530121071862,-14.152474651573812"/><text text-anchor="middle" pointer-events="none" font-size="8px" fill="#000000" x="79.69498119004272" y="-11.07906144095" transform="rotate(180 79.69498119004272 -14.07906144095)" font-family="Helvetica Neue, Helvetica, Arial, sans-serif">FEEDS</text></g><g class="relationship" transform="translate(-278.3054513688263 -33.25066573097632) rotate(394.28114785115054)"><path class="b-outline" fill="#A5ABB6" stroke="none" d="M 25 0.5 L 247.0902211467876 0.5 L 247.0902211467876 -0.5 L 25 -0.5 Z M 279.7620961467876 0.5 L 501.8523172935752 0.5 L 501.8523172935752 3.5 L 508.8523172935752 0 L 501.8523172935752 -3.5 L 501.8523172935752 -0.5 L 279.7620961467876 -0.5 Z"/><text text-anchor="middle" pointer-events="none" font-size="8px" fill="#000000" x="263.4261586467876" y="3" font-family="Helvetica Neue, Helvetica, Arial, sans-serif">FEEDS</text></g><g class="relationship" transform="translate(162.8079994901707 267.4438971579913) rotate(339.843840769567)"><path class="b-outline" fill="#A5ABB6" stroke="none" d="M 25 0.5 L 70.75478927110028 0.5 L 70.75478927110028 -0.5 L 25 -0.5 Z M 103.42666427110028 0.5 L 149.18145354220056 0.5 L 149.18145354220056 3.5 L 156.18145354220056 0 L 149.18145354220056 -3.5 L 149.18145354220056 -0.5 L 103.42666427110028 -0.5 Z"/><text text-anchor="middle" pointer-events="none" font-size="8px" fill="#000000" x="87.09072677110028" y="3" font-family="Helvetica Neue, Helvetica, Arial, sans-serif">FEEDS</text></g><g class="relationship" transform="translate(-387.4501311323185 13.489938322608793) rotate(336.8172384661657)"><path class="b-outline" fill="#A5ABB6" stroke="none" d="M 25 0.5 L 38.41473835125966 0.5 L 38.41473835125966 -0.5 L 25 -0.5 Z M 73.31708210125966 0.5 L 86.73182045251932 0.5 L 86.73182045251932 3.5 L 93.73182045251932 0 L 86.73182045251932 -3.5 L 86.73182045251932 -0.5 L 73.31708210125966 -0.5 Z"/><text text-anchor="middle" pointer-events="none" font-size="8px" fill="#000000" x="55.86591022625966" y="3" font-family="Helvetica Neue, Helvetica, Arial, sans-serif">BIASES</text></g><g class="relationship" transform="translate(-387.4501311323185 13.489938322608793) rotate(447.97318445548507)"><path class="b-outline" fill="#A5ABB6" stroke="none" d="M 25 0.5 L 26.443186610448898 0.5 L 26.443186610448898 -0.5 L 25 -0.5 Z M 48.0017803604489 0.5 L 49.444966970897795 0.5 L 49.444966970897795 3.5 L 56.444966970897795 0 L 49.444966970897795 -3.5 L 49.444966970897795 -0.5 L 48.0017803604489 -0.5 Z"/><text text-anchor="middle" pointer-events="none" font-size="8px" fill="#000000" x="37.2224834854489" y="3" font-family="Helvetica Neue, Helvetica, Arial, sans-serif">BI…</text></g><g class="relationship" transform="translate(332.8933497294516 205.01239275800316) rotate(367.6804304855554)"><path class="b-outline" fill="#A5ABB6" stroke="none" d="M 25 0.5 L 48.69227094227064 0.5 L 48.69227094227064 -0.5 L 25 -0.5 Z M 81.36414594227064 0.5 L 105.05641688454128 0.5 L 105.05641688454128 3.5 L 112.05641688454128 0 L 105.05641688454128 -3.5 L 105.05641688454128 -0.5 L 81.36414594227064 -0.5 Z"/><text text-anchor="middle" pointer-events="none" font-size="8px" fill="#000000" x="65.02820844227064" y="3" font-family="Helvetica Neue, Helvetica, Arial, sans-serif">FEEDS</text></g><g class="relationship" transform="translate(468.72022050820124 223.32966831093444) rotate(262.3217321701858)"><path class="b-outline" fill="#A5ABB6" stroke="none" d="M 25 0.5 L 29.88078822044684 0.5 L 29.88078822044684 -0.5 L 25 -0.5 Z M 62.55266322044684 0.5 L 67.43345144089368 0.5 L 67.43345144089368 3.5 L 74.43345144089368 0 L 67.43345144089368 -3.5 L 67.43345144089368 -0.5 L 62.55266322044684 -0.5 Z"/><text text-anchor="middle" pointer-events="none" font-size="8px" fill="#000000" x="46.21672572044684" y="3" transform="rotate(180 46.21672572044684 0)" font-family="Helvetica Neue, Helvetica, Arial, sans-serif">FEEDS</text></g><g class="relationship" transform="translate(284.300438390838 328.58644794090003) rotate(206.71438372055854)"><path class="b-outline" fill="#A5ABB6" stroke="none" d="M 25 0.5 L 47.05401951924753 0.5 L 47.05401951924753 -0.5 L 25 -0.5 Z M 81.95636326924753 0.5 L 104.01038278849506 0.5 L 104.01038278849506 3.5 L 111.01038278849506 0 L 104.01038278849506 -3.5 L 104.01038278849506 -0.5 L 81.95636326924753 -0.5 Z"/><text text-anchor="middle" pointer-events="none" font-size="8px" fill="#000000" x="64.50519139424753" y="3" transform="rotate(180 64.50519139424753 0)" font-family="Helvetica Neue, Helvetica, Arial, sans-serif">BIASES</text></g><g class="relationship" transform="translate(284.300438390838 328.58644794090003) rotate(291.4661949006112)"><path class="b-outline" fill="#A5ABB6" stroke="none" d="M 25 0.5 L 45.44125643333197 0.5 L 45.44125643333197 -0.5 L 25 -0.5 Z M 80.34360018333197 0.5 L 100.78485661666394 0.5 L 100.78485661666394 3.5 L 107.78485661666394 0 L 100.78485661666394 -3.5 L 100.78485661666394 -0.5 L 80.34360018333197 -0.5 Z"/><text text-anchor="middle" pointer-events="none" font-size="8px" fill="#000000" x="62.89242830833197" y="3" font-family="Helvetica Neue, Helvetica, Arial, sans-serif">BIASES</text></g><g class="relationship" transform="translate(455.43488743802004 124.78774225576282) rotate(250.03518802665684)"><path class="b-outline" fill="#A5ABB6" stroke="none" d="M 25 0.5 L 37.707977776779586 0.5 L 37.707977776779586 -0.5 L 25 -0.5 Z M 70.37985277677959 0.5 L 83.08783055355917 0.5 L 83.08783055355917 3.5 L 90.08783055355917 0 L 83.08783055355917 -3.5 L 83.08783055355917 -0.5 L 70.37985277677959 -0.5 Z"/><text text-anchor="middle" pointer-events="none" font-size="8px" fill="#000000" x="54.043915276779586" y="3" transform="rotate(180 54.043915276779586 0)" font-family="Helvetica Neue, Helvetica, Arial, sans-serif">FEEDS</text></g><g class="relationship" transform="translate(416.13895681706083 16.61640326914627) rotate(536.9021499730447)"><path class="b-outline" fill="#A5ABB6" stroke="none" d="M 25 0.5 L 35.63783303688959 0.5 L 35.63783303688959 -0.5 L 25 -0.5 Z M 68.30970803688959 0.5 L 78.94754107377918 0.5 L 78.94754107377918 3.5 L 85.94754107377918 0 L 78.94754107377918 -3.5 L 78.94754107377918 -0.5 L 68.30970803688959 -0.5 Z"/><text text-anchor="middle" pointer-events="none" font-size="8px" fill="#000000" x="51.97377053688959" y="3" transform="rotate(180 51.97377053688959 0)" font-family="Helvetica Neue, Helvetica, Arial, sans-serif">FEEDS</text></g><g class="relationship" transform="translate(416.13895681706083 16.61640326914627) rotate(262.7933303255486)"><path class="b-outline" fill="#A5ABB6" stroke="none" d="M 25 0.5 L 44.724279473866815 0.5 L 44.724279473866815 -0.5 L 25 -0.5 Z M 77.39615447386682 0.5 L 97.12043394773363 0.5 L 97.12043394773363 3.5 L 104.12043394773363 0 L 97.12043394773363 -3.5 L 97.12043394773363 -0.5 L 77.39615447386682 -0.5 Z"/><text text-anchor="middle" pointer-events="none" font-size="8px" fill="#000000" x="61.060216973866815" y="3" transform="rotate(180 61.060216973866815 0)" font-family="Helvetica Neue, Helvetica, Arial, sans-serif">FEEDS</text></g><g class="relationship" transform="translate(554.0782896062211 96.33650343342157) rotate(483.9069008538268)"><path class="b-outline" fill="#A5ABB6" stroke="none" d="M 25 0.5 L 55.5557949413454 0.5 L 55.5557949413454 -0.5 L 25 -0.5 Z M 90.4581386913454 0.5 L 121.0139336326908 0.5 L 121.0139336326908 3.5 L 128.0139336326908 0 L 121.0139336326908 -3.5 L 121.0139336326908 -0.5 L 90.4581386913454 -0.5 Z"/><text text-anchor="middle" pointer-events="none" font-size="8px" fill="#000000" x="73.0069668163454" y="3" transform="rotate(180 73.0069668163454 0)" font-family="Helvetica Neue, Helvetica, Arial, sans-serif">BIASES</text></g><g class="relationship" transform="translate(554.0782896062211 96.33650343342157) rotate(523.9111080116558)"><path class="b-outline" fill="#A5ABB6" stroke="none" d="M 25 0.5 L 30.38106405390571 0.5 L 30.38106405390571 -0.5 L 25 -0.5 Z M 65.2834078039057 0.5 L 70.66447185781142 0.5 L 70.66447185781142 3.5 L 77.66447185781142 0 L 70.66447185781142 -3.5 L 70.66447185781142 -0.5 L 65.2834078039057 -0.5 Z"/><text text-anchor="middle" pointer-events="none" font-size="8px" fill="#000000" x="47.83223592890571" y="3" transform="rotate(180 47.83223592890571 0)" font-family="Helvetica Neue, Helvetica, Arial, sans-serif">BIASES</text></g><g class="relationship" transform="translate(554.0782896062211 96.33650343342157) rotate(210.0251616535195)"><path class="b-outline" fill="#A5ABB6" stroke="none" d="M 25 0.5 L 58.70834403571966 0.5 L 58.70834403571966 -0.5 L 25 -0.5 Z M 93.61068778571966 0.5 L 127.31903182143932 0.5 L 127.31903182143932 3.5 L 134.31903182143932 0 L 127.31903182143932 -3.5 L 127.31903182143932 -0.5 L 93.61068778571966 -0.5 Z"/><text text-anchor="middle" pointer-events="none" font-size="8px" fill="#000000" x="76.15951591071966" y="3" transform="rotate(180 76.15951591071966 0)" font-family="Helvetica Neue, Helvetica, Arial, sans-serif">BIASES</text></g><g class="relationship" transform="translate(208.03562360397453 18.021357821564237) rotate(202.29367079545995)"><path class="b-outline" fill="#A5ABB6" stroke="none" d="M 24.018736134675446,-6.953439040707552 L 24.277555179777966,-5.987513214418485 A 158.1179442284885 158.1179442284885 0 0 1 46.91425278210967,-10.314179859303607 L 46.79859710605285,-11.307469225297126 A 159.1179442284885 159.1179442284885 0 0 0 24.018736134675446,-6.953439040707552 Z M 79.51281965010246,-11.730352418218132 L 79.42287800837924,-10.734405380929417 A 158.1179442284885 158.1179442284885 0 0 1 102.163851207833,-6.994317074873446 L 101.46255773599559,-4.077437326519355 L 109.08678619929879,-5.844112265311816 L 103.09890917028291,-10.8834900726789 L 102.39761569844549,-7.966610324324809 A 159.1179442284885 159.1179442284885 0 0 0 79.51281965010246,-11.730352418218132"/><text text-anchor="middle" pointer-events="none" font-size="8px" fill="#000000" x="63.15127339469891" y="-8.862000912970558" transform="rotate(180 63.15127339469891 -11.862000912970558)" font-family="Helvetica Neue, Helvetica, Arial, sans-serif">FEEDS</text></g><g class="relationship" transform="translate(84.61249907575046 -32.582228001068565) rotate(382.29367079545995)"><path class="b-outline" fill="#A5ABB6" stroke="none" d="M 24.018736134675446,-6.953439040707552 L 24.277555179777966,-5.987513214418485 A 158.1179442284885 158.1179442284885 0 0 1 46.91425278210967,-10.314179859303607 L 46.79859710605285,-11.307469225297126 A 159.1179442284885 159.1179442284885 0 0 0 24.018736134675446,-6.953439040707552 Z M 79.51281965010246,-11.730352418218132 L 79.42287800837924,-10.734405380929417 A 158.1179442284885 158.1179442284885 0 0 1 102.163851207833,-6.994317074873446 L 101.46255773599559,-4.077437326519355 L 109.08678619929879,-5.844112265311816 L 103.09890917028291,-10.8834900726789 L 102.39761569844549,-7.966610324324809 A 159.1179442284885 159.1179442284885 0 0 0 79.51281965010246,-11.730352418218132"/><text text-anchor="middle" pointer-events="none" font-size="8px" fill="#000000" x="63.15127339469891" y="-8.862000912970558" font-family="Helvetica Neue, Helvetica, Arial, sans-serif">FEEDS</text></g><g class="relationship" transform="translate(305.3535435090415 22.61215747435314) rotate(182.7008242109248)"><path class="b-outline" fill="#A5ABB6" stroke="none" d="M 25 0.5 L 28.87713306658685 0.5 L 28.87713306658685 -0.5 L 25 -0.5 Z M 61.54900806658685 0.5 L 65.4261411331737 0.5 L 65.4261411331737 3.5 L 72.4261411331737 0 L 65.4261411331737 -3.5 L 65.4261411331737 -0.5 L 61.54900806658685 -0.5 Z"/><text text-anchor="middle" pointer-events="none" font-size="8px" fill="#000000" x="45.21307056658685" y="3" transform="rotate(180 45.21307056658685 0)" font-family="Helvetica Neue, Helvetica, Arial, sans-serif">FEEDS</text></g><g class="relationship" transform="translate(190.0002964457763 164.41304994586903) rotate(309.127921728274)"><path class="b-outline" fill="#A5ABB6" stroke="none" d="M 25 0.5 L 70.44612665421957 0.5 L 70.44612665421957 -0.5 L 25 -0.5 Z M 105.34847040421957 0.5 L 150.79459705843914 0.5 L 150.79459705843914 3.5 L 157.79459705843914 0 L 150.79459705843914 -3.5 L 150.79459705843914 -0.5 L 105.34847040421957 -0.5 Z"/><text text-anchor="middle" pointer-events="none" font-size="8px" fill="#000000" x="87.89729852921957" y="3" font-family="Helvetica Neue, Helvetica, Arial, sans-serif">BIASES</text></g><g class="relationship" transform="translate(190.0002964457763 164.41304994586903) rotate(277.02339834912)"><path class="b-outline" fill="#A5ABB6" stroke="none" d="M 25 0.5 L 52.79806633923596 0.5 L 52.79806633923596 -0.5 L 25 -0.5 Z M 87.70041008923596 0.5 L 115.49847642847192 0.5 L 115.49847642847192 3.5 L 122.49847642847192 0 L 115.49847642847192 -3.5 L 115.49847642847192 -0.5 L 87.70041008923596 -0.5 Z"/><text text-anchor="middle" pointer-events="none" font-size="8px" fill="#000000" x="70.24923821423596" y="3" font-family="Helvetica Neue, Helvetica, Arial, sans-serif">BIASES</text></g><g class="relationship" transform="translate(190.0002964457763 164.41304994586903) rotate(241.8542762349394)"><path class="b-outline" fill="#A5ABB6" stroke="none" d="M 25 0.5 L 90.75572962161392 0.5 L 90.75572962161392 -0.5 L 25 -0.5 Z M 125.65807337161392 0.5 L 191.41380299322785 0.5 L 191.41380299322785 3.5 L 198.41380299322785 0 L 191.41380299322785 -3.5 L 191.41380299322785 -0.5 L 125.65807337161392 -0.5 Z"/><text text-anchor="middle" pointer-events="none" font-size="8px" fill="#000000" x="108.20690149661392" y="3" transform="rotate(180 108.20690149661392 0)" font-family="Helvetica Neue, Helvetica, Arial, sans-serif">BIASES</text></g><g class="relationship" transform="translate(399.9409633188301 -111.48399278598822) rotate(522.8856563637654)"><path class="b-outline" fill="#A5ABB6" stroke="none" d="M 25 0.5 L 77.92097157579859 0.5 L 77.92097157579859 -0.5 L 25 -0.5 Z M 110.59284657579859 0.5 L 163.51381815159718 0.5 L 163.51381815159718 3.5 L 170.51381815159718 0 L 163.51381815159718 -3.5 L 163.51381815159718 -0.5 L 110.59284657579859 -0.5 Z"/><text text-anchor="middle" pointer-events="none" font-size="8px" fill="#000000" x="94.25690907579859" y="3" transform="rotate(180 94.25690907579859 0)" font-family="Helvetica Neue, Helvetica, Arial, sans-serif">FEEDS</text></g><g class="relationship" transform="translate(213.08461948302278 -53.94826600227262) rotate(530.5576317104512)"><path class="b-outline" fill="#A5ABB6" stroke="none" d="M 25 0.5 L 45.28240342982093 0.5 L 45.28240342982093 -0.5 L 25 -0.5 Z M 77.95427842982093 0.5 L 98.23668185964186 0.5 L 98.23668185964186 3.5 L 105.23668185964186 0 L 98.23668185964186 -3.5 L 98.23668185964186 -0.5 L 77.95427842982093 -0.5 Z"/><text text-anchor="middle" pointer-events="none" font-size="8px" fill="#000000" x="61.61834092982093" y="3" transform="rotate(180 61.61834092982093 0)" font-family="Helvetica Neue, Helvetica, Arial, sans-serif">FEEDS</text></g><g class="relationship" transform="translate(256.31606962065166 -200.49954792400243) rotate(391.7897257217196)"><path class="b-outline" fill="#A5ABB6" stroke="none" d="M 25 0.5 L 63.53533466057333 0.5 L 63.53533466057333 -0.5 L 25 -0.5 Z M 98.43767841057333 0.5 L 136.97301307114665 0.5 L 136.97301307114665 3.5 L 143.97301307114665 0 L 136.97301307114665 -3.5 L 136.97301307114665 -0.5 L 98.43767841057333 -0.5 Z"/><text text-anchor="middle" pointer-events="none" font-size="8px" fill="#000000" x="80.98650653557333" y="3" font-family="Helvetica Neue, Helvetica, Arial, sans-serif">BIASES</text></g><g class="relationship" transform="translate(256.31606962065166 -200.49954792400243) rotate(466.43563553239426)"><path class="b-outline" fill="#A5ABB6" stroke="none" d="M 25 0.5 L 55.446204575216896 0.5 L 55.446204575216896 -0.5 L 25 -0.5 Z M 90.3485483252169 0.5 L 120.79475290043379 0.5 L 120.79475290043379 3.5 L 127.79475290043379 0 L 120.79475290043379 -3.5 L 120.79475290043379 -0.5 L 90.3485483252169 -0.5 Z"/><text text-anchor="middle" pointer-events="none" font-size="8px" fill="#000000" x="72.8973764502169" y="3" transform="rotate(180 72.8973764502169 0)" font-family="Helvetica Neue, Helvetica, Arial, sans-serif">BIASES</text></g><g class="relationship" transform="translate(256.31606962065166 -200.49954792400243) rotate(412.070186977954)"><path class="b-outline" fill="#A5ABB6" stroke="none" d="M 25 0.5 L 26.44410991072111 0.5 L 26.44410991072111 -0.5 L 25 -0.5 Z M 53.33864116072111 0.5 L 54.78275107144222 0.5 L 54.78275107144222 3.5 L 61.78275107144222 0 L 54.78275107144222 -3.5 L 54.78275107144222 -0.5 L 53.33864116072111 -0.5 Z"/><text text-anchor="middle" pointer-events="none" font-size="8px" fill="#000000" x="39.89137553572111" y="3" font-family="Helvetica Neue, Helvetica, Arial, sans-serif">BIA…</text></g><g class="relationship" transform="translate(256.31606962065166 -200.49954792400243) rotate(495.63873336428907)"><path class="b-outline" fill="#A5ABB6" stroke="none" d="M 25 0.5 L 99.13040713274039 0.5 L 99.13040713274039 -0.5 L 25 -0.5 Z M 134.0327508827404 0.5 L 208.16315801548078 0.5 L 208.16315801548078 3.5 L 215.16315801548078 0 L 208.16315801548078 -3.5 L 208.16315801548078 -0.5 L 134.0327508827404 -0.5 Z"/><text text-anchor="middle" pointer-events="none" font-size="8px" fill="#000000" x="116.58157900774039" y="3" transform="rotate(180 116.58157900774039 0)" font-family="Helvetica Neue, Helvetica, Arial, sans-serif">BIASES</text></g><g class="relationship" transform="translate(309.6610539984383 -132.04840823106815) rotate(501.03796964161717)"><path class="b-outline" fill="#A5ABB6" stroke="none" d="M 25 0.5 L 42.266075188536185 0.5 L 42.266075188536185 -0.5 L 25 -0.5 Z M 74.93795018853618 0.5 L 92.20402537707237 0.5 L 92.20402537707237 3.5 L 99.20402537707237 0 L 92.20402537707237 -3.5 L 92.20402537707237 -0.5 L 74.93795018853618 -0.5 Z"/><text text-anchor="middle" pointer-events="none" font-size="8px" fill="#000000" x="58.602012688536185" y="3" transform="rotate(180 58.602012688536185 0)" font-family="Helvetica Neue, Helvetica, Arial, sans-serif">FEEDS</text></g><g class="relationship" transform="translate(150.16849128873196 -150.31099636298163) rotate(479.1107744296842)"><path class="b-outline" fill="#A5ABB6" stroke="none" d="M 25 0.5 L 47.53922672065603 0.5 L 47.53922672065603 -0.5 L 25 -0.5 Z M 80.21110172065603 0.5 L 102.75032844131206 0.5 L 102.75032844131206 3.5 L 109.75032844131206 0 L 102.75032844131206 -3.5 L 102.75032844131206 -0.5 L 80.21110172065603 -0.5 Z"/><text text-anchor="middle" pointer-events="none" font-size="8px" fill="#000000" x="63.87516422065603" y="3" transform="rotate(180 63.87516422065603 0)" font-family="Helvetica Neue, Helvetica, Arial, sans-serif">FEEDS</text></g><g class="relationship" transform="translate(40.86290433410733 -167.52887085576486) rotate(368.9517067197657)"><path class="b-outline" fill="#A5ABB6" stroke="none" d="M 25 0.5 L 34.37550916937551 0.5 L 34.37550916937551 -0.5 L 25 -0.5 Z M 69.2778529193755 0.5 L 78.65336208875102 0.5 L 78.65336208875102 3.5 L 85.65336208875102 0 L 78.65336208875102 -3.5 L 78.65336208875102 -0.5 L 69.2778529193755 -0.5 Z"/><text text-anchor="middle" pointer-events="none" font-size="8px" fill="#000000" x="51.82668104437551" y="3" font-family="Helvetica Neue, Helvetica, Arial, sans-serif">BIASES</text></g><g class="relationship" transform="translate(40.86290433410733 -167.52887085576486) rotate(432.03734685692297)"><path class="b-outline" fill="#A5ABB6" stroke="none" d="M 25 0.5 L 49.97946934903477 0.5 L 49.97946934903477 -0.5 L 25 -0.5 Z M 84.88181309903477 0.5 L 109.86128244806955 0.5 L 109.86128244806955 3.5 L 116.86128244806955 0 L 109.86128244806955 -3.5 L 109.86128244806955 -0.5 L 84.88181309903477 -0.5 Z"/><text text-anchor="middle" pointer-events="none" font-size="8px" fill="#000000" x="67.43064122403477" y="3" font-family="Helvetica Neue, Helvetica, Arial, sans-serif">BIASES</text></g><g class="relationship" transform="translate(84.61249907575046 -32.582228001068565) rotate(511.52753258473365)"><path class="b-outline" fill="#A5ABB6" stroke="none" d="M 25 0.5 L 38.69808060727304 0.5 L 38.69808060727304 -0.5 L 25 -0.5 Z M 71.36995560727304 0.5 L 85.06803621454608 0.5 L 85.06803621454608 3.5 L 92.06803621454608 0 L 85.06803621454608 -3.5 L 85.06803621454608 -0.5 L 71.36995560727304 -0.5 Z"/><text text-anchor="middle" pointer-events="none" font-size="8px" fill="#000000" x="55.03401810727304" y="3" transform="rotate(180 55.03401810727304 0)" font-family="Helvetica Neue, Helvetica, Arial, sans-serif">FEEDS</text></g><g class="relationship" transform="translate(-18.295725278204245 23.22836654375238) rotate(497.41980907070183)"><path class="b-outline" fill="#A5ABB6" stroke="none" d="M 25 0.5 L 30.395289061621995 0.5 L 30.395289061621995 -0.5 L 25 -0.5 Z M 63.067164061621995 0.5 L 68.46245312324399 0.5 L 68.46245312324399 3.5 L 75.46245312324399 0 L 68.46245312324399 -3.5 L 68.46245312324399 -0.5 L 63.067164061621995 -0.5 Z"/><text text-anchor="middle" pointer-events="none" font-size="8px" fill="#000000" x="46.731226561621995" y="3" transform="rotate(180 46.731226561621995 0)" font-family="Helvetica Neue, Helvetica, Arial, sans-serif">FEEDS</text></g><g class="relationship" transform="translate(-92.2693500598273 91.20341582073075) rotate(521.362134342213)"><path class="b-outline" fill="#A5ABB6" stroke="none" d="M 25 0.5 L 59.46798091525564 0.5 L 59.46798091525564 -0.5 L 25 -0.5 Z M 92.13985591525564 0.5 L 126.60783683051127 0.5 L 126.60783683051127 3.5 L 133.60783683051127 0 L 126.60783683051127 -3.5 L 126.60783683051127 -0.5 L 92.13985591525564 -0.5 Z"/><text text-anchor="middle" pointer-events="none" font-size="8px" fill="#000000" x="75.80391841525564" y="3" transform="rotate(180 75.80391841525564 0)" font-family="Helvetica Neue, Helvetica, Arial, sans-serif">FEEDS</text></g><g class="relationship" transform="translate(-92.2693500598273 91.20341582073075) rotate(235.46623804871717)"><path class="b-outline" fill="#A5ABB6" stroke="none" d="M 25 0.5 L 27.377094470153708 0.5 L 27.377094470153708 -0.5 L 25 -0.5 Z M 51.59975072015371 0.5 L 53.976845190307415 0.5 L 53.976845190307415 3.5 L 60.976845190307415 0 L 53.976845190307415 -3.5 L 53.976845190307415 -0.5 L 51.59975072015371 -0.5 Z"/><text text-anchor="middle" pointer-events="none" font-size="8px" fill="#000000" x="39.48842259515371" y="3" transform="rotate(180 39.48842259515371 0)" font-family="Helvetica Neue, Helvetica, Arial, sans-serif">FE…</text></g><g class="relationship" transform="translate(-92.2693500598273 91.20341582073075) rotate(185.0738978498129)"><path class="b-outline" fill="#A5ABB6" stroke="none" d="M 25 0.5 L 26.477857859010605 0.5 L 26.477857859010605 -0.5 L 25 -0.5 Z M 50.700514109010605 0.5 L 52.17837196802121 0.5 L 52.17837196802121 3.5 L 59.17837196802121 0 L 52.17837196802121 -3.5 L 52.17837196802121 -0.5 L 50.700514109010605 -0.5 Z"/><text text-anchor="middle" pointer-events="none" font-size="8px" fill="#000000" x="38.589185984010605" y="3" transform="rotate(180 38.589185984010605 0)" font-family="Helvetica Neue, Helvetica, Arial, sans-serif">FE…</text></g><g class="relationship" transform="translate(-242.55938098885596 141.89219670373976) rotate(258.46455367162173)"><path class="b-outline" fill="#A5ABB6" stroke="none" d="M 25 0.5 L 69.54079858025143 0.5 L 69.54079858025143 -0.5 L 25 -0.5 Z M 102.21267358025143 0.5 L 146.75347216050287 0.5 L 146.75347216050287 3.5 L 153.75347216050287 0 L 146.75347216050287 -3.5 L 146.75347216050287 -0.5 L 102.21267358025143 -0.5 Z"/><text text-anchor="middle" pointer-events="none" font-size="8px" fill="#000000" x="85.87673608025143" y="3" transform="rotate(180 85.87673608025143 0)" font-family="Helvetica Neue, Helvetica, Arial, sans-serif">FEEDS</text></g><g class="relationship" transform="translate(-141.0089152231082 20.376353926477492) rotate(201.33525177816)"><path class="b-outline" fill="#A5ABB6" stroke="none" d="M 25 0.5 L 53.863106040186835 0.5 L 53.863106040186835 -0.5 L 25 -0.5 Z M 86.53498104018684 0.5 L 115.39808708037367 0.5 L 115.39808708037367 3.5 L 122.39808708037367 0 L 115.39808708037367 -3.5 L 115.39808708037367 -0.5 L 86.53498104018684 -0.5 Z"/><text text-anchor="middle" pointer-events="none" font-size="8px" fill="#000000" x="70.19904354018684" y="3" transform="rotate(180 70.19904354018684 0)" font-family="Helvetica Neue, Helvetica, Arial, sans-serif">FEEDS</text></g><g class="relationship" transform="translate(-176.11786566697688 83.7586365987436) rotate(228.8683535836705)"><path class="b-outline" fill="#A5ABB6" stroke="none" d="M 25 0.5 L 57.838832379383334 0.5 L 57.838832379383334 -0.5 L 25 -0.5 Z M 90.51070737938333 0.5 L 123.34953975876667 0.5 L 123.34953975876667 3.5 L 130.34953975876667 0 L 123.34953975876667 -3.5 L 123.34953975876667 -0.5 L 90.51070737938333 -0.5 Z"/><text text-anchor="middle" pointer-events="none" font-size="8px" fill="#000000" x="74.17476987938333" y="3" transform="rotate(180 74.17476987938333 0)" font-family="Helvetica Neue, Helvetica, Arial, sans-serif">FEEDS</text></g><g class="relationship" transform="translate(-123.12373662488352 276.56362631377357) rotate(279.45059798284177)"><path class="b-outline" fill="#A5ABB6" stroke="none" d="M 25 0.5 L 73.00413771994927 0.5 L 73.00413771994927 -0.5 L 25 -0.5 Z M 107.90648146994927 0.5 L 155.91061918989854 0.5 L 155.91061918989854 3.5 L 162.91061918989854 0 L 155.91061918989854 -3.5 L 155.91061918989854 -0.5 L 107.90648146994927 -0.5 Z"/><text text-anchor="middle" pointer-events="none" font-size="8px" fill="#000000" x="90.45530959494927" y="3" font-family="Helvetica Neue, Helvetica, Arial, sans-serif">BIASES</text></g><g class="relationship" transform="translate(-123.12373662488352 276.56362631377357) rotate(292.479362561882)"><path class="b-outline" fill="#A5ABB6" stroke="none" d="M 25 0.5 L 116.13243929501152 0.5 L 116.13243929501152 -0.5 L 25 -0.5 Z M 151.03478304501152 0.5 L 242.16722234002305 0.5 L 242.16722234002305 3.5 L 249.16722234002305 0 L 242.16722234002305 -3.5 L 242.16722234002305 -0.5 L 151.03478304501152 -0.5 Z"/><text text-anchor="middle" pointer-events="none" font-size="8px" fill="#000000" x="133.58361117001152" y="3" font-family="Helvetica Neue, Helvetica, Arial, sans-serif">BIASES</text></g><g class="relationship" transform="translate(-123.12373662488352 276.56362631377357) rotate(228.43124004835124)"><path class="b-outline" fill="#A5ABB6" stroke="none" d="M 25 0.5 L 69.05058796591588 0.5 L 69.05058796591588 -0.5 L 25 -0.5 Z M 103.95293171591588 0.5 L 148.00351968183176 0.5 L 148.00351968183176 3.5 L 155.00351968183176 0 L 148.00351968183176 -3.5 L 148.00351968183176 -0.5 L 103.95293171591588 -0.5 Z"/><text text-anchor="middle" pointer-events="none" font-size="8px" fill="#000000" x="86.50175984091588" y="3" transform="rotate(180 86.50175984091588 0)" font-family="Helvetica Neue, Helvetica, Arial, sans-serif">BIASES</text></g><g class="relationship" transform="translate(-123.12373662488352 276.56362631377357) rotate(266.0064944835731)"><path class="b-outline" fill="#A5ABB6" stroke="none" d="M 25 0.5 L 107.45423897938437 0.5 L 107.45423897938437 -0.5 L 25 -0.5 Z M 142.35658272938437 0.5 L 224.81082170876874 0.5 L 224.81082170876874 3.5 L 231.81082170876874 0 L 224.81082170876874 -3.5 L 224.81082170876874 -0.5 L 142.35658272938437 -0.5 Z"/><text text-anchor="middle" pointer-events="none" font-size="8px" fill="#000000" x="124.90541085438437" y="3" transform="rotate(180 124.90541085438437 0)" font-family="Helvetica Neue, Helvetica, Arial, sans-serif">BIASES</text></g><g class="relationship" transform="translate(-123.12373662488352 276.56362631377357) rotate(254.6312756513767)"><path class="b-outline" fill="#A5ABB6" stroke="none" d="M 25 0.5 L 79.02650284783856 0.5 L 79.02650284783856 -0.5 L 25 -0.5 Z M 113.92884659783856 0.5 L 167.95534944567711 0.5 L 167.95534944567711 3.5 L 174.95534944567711 0 L 167.95534944567711 -3.5 L 167.95534944567711 -0.5 L 113.92884659783856 -0.5 Z"/><text text-anchor="middle" pointer-events="none" font-size="8px" fill="#000000" x="96.47767472283856" y="3" transform="rotate(180 96.47767472283856 0)" font-family="Helvetica Neue, Helvetica, Arial, sans-serif">BIASES</text></g><g class="relationship" transform="translate(-123.12373662488352 276.56362631377357) rotate(243.3943411378621)"><path class="b-outline" fill="#A5ABB6" stroke="none" d="M 25 0.5 L 152.30172142411638 0.5 L 152.30172142411638 -0.5 L 25 -0.5 Z M 187.20406517411638 0.5 L 314.50578659823276 0.5 L 314.50578659823276 3.5 L 321.50578659823276 0 L 314.50578659823276 -3.5 L 314.50578659823276 -0.5 L 187.20406517411638 -0.5 Z"/><text text-anchor="middle" pointer-events="none" font-size="8px" fill="#000000" x="169.75289329911638" y="3" transform="rotate(180 169.75289329911638 0)" font-family="Helvetica Neue, Helvetica, Arial, sans-serif">BIASES</text></g><g class="relationship" transform="translate(-213.82191924046577 -121.06678202252678) rotate(396.4267218255301)"><path class="b-outline" fill="#A5ABB6" stroke="none" d="M 25 0.5 L 101.66671928693252 0.5 L 101.66671928693252 -0.5 L 25 -0.5 Z M 134.3385942869325 0.5 L 211.00531357386504 0.5 L 211.00531357386504 3.5 L 218.00531357386504 0 L 211.00531357386504 -3.5 L 211.00531357386504 -0.5 L 134.3385942869325 -0.5 Z"/><text text-anchor="middle" pointer-events="none" font-size="8px" fill="#000000" x="118.00265678693252" y="3" font-family="Helvetica Neue, Helvetica, Arial, sans-serif">FEEDS</text></g><g class="relationship" transform="translate(-399.66597265682515 -298.2396346379159) rotate(201.73291297416347)"><path class="b-outline" fill="#A5ABB6" stroke="none" d="M 25 0.5 L 64.01347097430323 0.5 L 64.01347097430323 -0.5 L 25 -0.5 Z M 129.43925222430323 0.5 L 168.45272319860646 0.5 L 168.45272319860646 3.5 L 175.45272319860646 0 L 168.45272319860646 -3.5 L 168.45272319860646 -0.5 L 129.43925222430323 -0.5 Z"/><text text-anchor="middle" pointer-events="none" font-size="8px" fill="#000000" x="96.72636159930323" y="3" transform="rotate(180 96.72636159930323 0)" font-family="Helvetica Neue, Helvetica, Arial, sans-serif">IS_PARENT_OF</text></g><g class="relationship" transform="translate(-399.66597265682515 -298.2396346379159) rotate(457.7704037812331)"><path class="b-outline" fill="#A5ABB6" stroke="none" d="M 25 0.5 L 57.49847882462409 0.5 L 57.49847882462409 -0.5 L 25 -0.5 Z M 122.92426007462409 0.5 L 155.42273889924817 0.5 L 155.42273889924817 3.5 L 162.42273889924817 0 L 155.42273889924817 -3.5 L 155.42273889924817 -0.5 L 122.92426007462409 -0.5 Z"/><text text-anchor="middle" pointer-events="none" font-size="8px" fill="#000000" x="90.21136944962409" y="3" transform="rotate(180 90.21136944962409 0)" font-family="Helvetica Neue, Helvetica, Arial, sans-serif">IS_PARENT_OF</text></g><g class="relationship" transform="translate(-399.66597265682515 -298.2396346379159) rotate(420.7710050626604)"><path class="b-outline" fill="#A5ABB6" stroke="none" d="M 25 0.5 L 47.46219182825946 0.5 L 47.46219182825946 -0.5 L 25 -0.5 Z M 112.88797307825946 0.5 L 135.35016490651893 0.5 L 135.35016490651893 3.5 L 142.35016490651893 0 L 135.35016490651893 -3.5 L 135.35016490651893 -0.5 L 112.88797307825946 -0.5 Z"/><text text-anchor="middle" pointer-events="none" font-size="8px" fill="#000000" x="80.17508245325946" y="3" font-family="Helvetica Neue, Helvetica, Arial, sans-serif">IS_PARENT_OF</text></g><g class="relationship" transform="translate(-399.66597265682515 -298.2396346379159) rotate(443.69438092876834)"><path class="b-outline" fill="#A5ABB6" stroke="none" d="M 25 0.5 L 27.0304195994161 0.5 L 27.0304195994161 -0.5 L 25 -0.5 Z M 63.1202633494161 0.5 L 65.1506829488322 0.5 L 65.1506829488322 3.5 L 72.1506829488322 0 L 65.1506829488322 -3.5 L 65.1506829488322 -0.5 L 63.1202633494161 -0.5 Z"/><text text-anchor="middle" pointer-events="none" font-size="8px" fill="#000000" x="45.0753414744161" y="3" font-family="Helvetica Neue, Helvetica, Arial, sans-serif">IS_PA…</text></g><g class="relationship" transform="translate(-399.66597265682515 -298.2396346379159) rotate(360.796660213879)"><path class="b-outline" fill="#A5ABB6" stroke="none" d="M 25 0.5 L 70.11128980132496 0.5 L 70.11128980132496 -0.5 L 25 -0.5 Z M 135.53707105132497 0.5 L 180.64836085264992 0.5 L 180.64836085264992 3.5 L 187.64836085264992 0 L 180.64836085264992 -3.5 L 180.64836085264992 -0.5 L 135.53707105132497 -0.5 Z"/><text text-anchor="middle" pointer-events="none" font-size="8px" fill="#000000" x="102.82418042632496" y="3" font-family="Helvetica Neue, Helvetica, Arial, sans-serif">IS_PARENT_OF</text></g><g class="relationship" transform="translate(-399.66597265682515 -298.2396346379159) rotate(333.8767526516458)"><path class="b-outline" fill="#A5ABB6" stroke="none" d="M 25 0.5 L 64.2194126013174 0.5 L 64.2194126013174 -0.5 L 25 -0.5 Z M 129.6451938513174 0.5 L 168.8646064526348 0.5 L 168.8646064526348 3.5 L 175.8646064526348 0 L 168.8646064526348 -3.5 L 168.8646064526348 -0.5 L 129.6451938513174 -0.5 Z"/><text text-anchor="middle" pointer-events="none" font-size="8px" fill="#000000" x="96.9323032263174" y="3" font-family="Helvetica Neue, Helvetica, Arial, sans-serif">IS_PARENT_OF</text></g><g class="relationship" transform="translate(-384.5696484729499 94.88395201243557) rotate(309.66948944508727)"><path class="b-outline" fill="#A5ABB6" stroke="none" d="M 24.018736134675446,-6.953439040707552 L 24.277555179777966,-5.987513214418485 A 223.15374534415741 223.15374534415741 0 0 1 63.42239567908339,-12.813810591850938 L 63.33899309602113,-13.81032652706648 A 224.15374534415741 224.15374534415741 0 0 0 24.018736134675446,-6.953439040707552 Z M 96.0530121071862,-14.152474651573812 L 95.99047013348482,-13.154432317038072 A 223.15374534415741 223.15374534415741 0 0 1 135.2695214142277,-7.148351724341044 L 134.55384182474126,-4.2349683432542875 L 142.1866959016779,-5.963996579053775 L 136.22376086687632,-11.032862899123385 L 135.50808127738986,-8.119479518036629 A 224.15374534415741 224.15374534415741 0 0 0 96.0530121071862,-14.152474651573812"/><text text-anchor="middle" pointer-events="none" font-size="8px" fill="#000000" x="79.69498119004272" y="-11.07906144095" font-family="Helvetica Neue, Helvetica, Arial, sans-serif">FEEDS</text></g></g><g class="layer nodes"><g class="node" aria-label="graph-node36" transform="translate(-87.8166817622133,-196.29906378866292)"><circle class="b-outline" cx="0" cy="0" r="25" fill="#C990C0" stroke="#b261a5" stroke-width="2px"/><text class="caption" text-anchor="middle" pointer-events="none" x="0" y="0" font-size="10px" fill="#FFFFFF" font-family="Helvetica Neue, Helvetica, Arial, sans-serif"> OpenAI,</text><text class="caption" text-anchor="middle" pointer-events="none" x="0" y="10" font-size="10px" fill="#FFFFFF" font-family="Helvetica Neue, Helvetica, Arial, sans-serif"> Inc.</text></g><g class="node" aria-label="graph-node37" transform="translate(-213.82191924046577,-121.06678202252678)"><circle class="b-outline" cx="0" cy="0" r="25" fill="#C990C0" stroke="#b261a5" stroke-width="2px"/><text class="caption" text-anchor="middle" pointer-events="none" x="0" y="-5" font-size="10px" fill="#FFFFFF" font-family="Helvetica Neue, Helvetica, Arial, sans-serif"> OpenAI</text><text class="caption" text-anchor="middle" pointer-events="none" x="0" y="5" font-size="10px" fill="#FFFFFF" font-family="Helvetica Neue, Helvetica, Arial, sans-serif"> Global,</text><text class="caption" text-anchor="middle" pointer-events="none" x="0" y="15" font-size="10px" fill="#FFFFFF" font-family="Helvetica Neue, Helvetica, Arial, sans-serif"> LLC.</text></g><g class="node" aria-label="graph-node38" transform="translate(-581.6859765543197,-195.0044462938899)"><circle class="b-outline" cx="0" cy="0" r="25" fill="#C990C0" stroke="#b261a5" stroke-width="2px"/><text class="caption" text-anchor="middle" pointer-events="none" x="0" y="0" font-size="10px" fill="#FFFFFF" font-family="Helvetica Neue, Helvetica, Arial, sans-serif"> Financial</text><text class="caption" text-anchor="middle" pointer-events="none" x="0" y="10" font-size="10px" fill="#FFFFFF" font-family="Helvetica Neue, Helvetica, Arial, sans-serif"> Servic…</text></g><g class="node" aria-label="graph-node39" transform="translate(-626.2128417162902,-282.7066321716352)"><circle class="b-outline" cx="0" cy="0" r="25" fill="#C990C0" stroke="#b261a5" stroke-width="2px"/><text class="caption" text-anchor="middle" pointer-events="none" x="0" y="5" font-size="10px" fill="#FFFFFF" font-family="Helvetica Neue, Helvetica, Arial, sans-serif"> Healthca…</text></g><g class="node" aria-label="graph-node40" transform="translate(-585.8705205013907,-372.46335456448674)"><circle class="b-outline" cx="0" cy="0" r="25" fill="#C990C0" stroke="#b261a5" stroke-width="2px"/><text class="caption" text-anchor="middle" pointer-events="none" x="0" y="5" font-size="10px" fill="#FFFFFF" font-family="Helvetica Neue, Helvetica, Arial, sans-serif"> Education</text></g><g class="node" aria-label="graph-node41" transform="translate(-425.0062358082573,-112.53784649382743)"><circle class="b-outline" cx="0" cy="0" r="25" fill="#C990C0" stroke="#b261a5" stroke-width="2px"/><text class="caption" text-anchor="middle" pointer-events="none" x="0" y="0" font-size="10px" fill="#FFFFFF" font-family="Helvetica Neue, Helvetica, Arial, sans-serif"> Real</text><text class="caption" text-anchor="middle" pointer-events="none" x="0" y="10" font-size="10px" fill="#FFFFFF" font-family="Helvetica Neue, Helvetica, Arial, sans-serif"> Estate</text></g><g class="node" aria-label="graph-node42" transform="translate(-317.94866203261256,-152.1973159813531)"><circle class="b-outline" cx="0" cy="0" r="25" fill="#C990C0" stroke="#b261a5" stroke-width="2px"/><text class="caption" text-anchor="middle" pointer-events="none" x="0" y="5" font-size="10px" fill="#FFFFFF" font-family="Helvetica Neue, Helvetica, Arial, sans-serif"> Informati…</text></g><g class="node" aria-label="graph-node43" transform="translate(-388.99573928767694,-201.6766949701923)"><circle class="b-outline" cx="0" cy="0" r="25" fill="#C990C0" stroke="#b261a5" stroke-width="2px"/><text class="caption" text-anchor="middle" pointer-events="none" x="0" y="5" font-size="10px" fill="#FFFFFF" font-family="Helvetica Neue, Helvetica, Arial, sans-serif"> Biotechn…</text></g><g class="node" aria-label="graph-node44" transform="translate(-187.03816720922703,-295.28299400077714)"><circle class="b-outline" cx="0" cy="0" r="25" fill="#C990C0" stroke="#b261a5" stroke-width="2px"/><text class="caption" text-anchor="middle" pointer-events="none" x="0" y="5" font-size="10px" fill="#FFFFFF" font-family="Helvetica Neue, Helvetica, Arial, sans-serif"> Telecom…</text></g><g class="node" aria-label="graph-node45" transform="translate(-219.31988667664143,-386.68102425273395)"><circle class="b-outline" cx="0" cy="0" r="25" fill="#C990C0" stroke="#b261a5" stroke-width="2px"/><text class="caption" text-anchor="middle" pointer-events="none" x="0" y="0" font-size="10px" fill="#FFFFFF" font-family="Helvetica Neue, Helvetica, Arial, sans-serif"> Consumer</text><text class="caption" text-anchor="middle" pointer-events="none" x="0" y="10" font-size="10px" fill="#FFFFFF" font-family="Helvetica Neue, Helvetica, Arial, sans-serif">an…</text></g><g class="node" aria-label="graph-node46" transform="translate(-489.7910736984119,-366.01694465203866)"><circle class="b-outline" cx="0" cy="0" r="25" fill="#C990C0" stroke="#b261a5" stroke-width="2px"/><text class="caption" text-anchor="middle" pointer-events="none" x="0" y="5" font-size="10px" fill="#FFFFFF" font-family="Helvetica Neue, Helvetica, Arial, sans-serif"> Transpor…</text></g><g class="node" aria-label="graph-node47" transform="translate(-350.25347146476827,-499.5844746114275)"><circle class="b-outline" cx="0" cy="0" r="25" fill="#C990C0" stroke="#b261a5" stroke-width="2px"/><text class="caption" text-anchor="middle" pointer-events="none" x="0" y="-5" font-size="10px" fill="#FFFFFF" font-family="Helvetica Neue, Helvetica, Arial, sans-serif"> Media</text><text class="caption" text-anchor="middle" pointer-events="none" x="0" y="5" font-size="10px" fill="#FFFFFF" font-family="Helvetica Neue, Helvetica, Arial, sans-serif"> and</text><text class="caption" text-anchor="middle" pointer-events="none" x="0" y="15" font-size="10px" fill="#FFFFFF" font-family="Helvetica Neue, Helvetica, Arial, sans-serif"> Co…</text></g><g class="node" aria-label="graph-node48" transform="translate(-531.7504702771013,-279.8169817248974)"><circle class="b-outline" cx="0" cy="0" r="25" fill="#C990C0" stroke="#b261a5" stroke-width="2px"/><text class="caption" text-anchor="middle" pointer-events="none" x="0" y="5" font-size="10px" fill="#FFFFFF" font-family="Helvetica Neue, Helvetica, Arial, sans-serif"> Infrastru…</text></g><g class="node" aria-label="graph-node49" transform="translate(-527.7948513087664,-453.69526602169253)"><circle class="b-outline" cx="0" cy="0" r="25" fill="#C990C0" stroke="#b261a5" stroke-width="2px"/><text class="caption" text-anchor="middle" pointer-events="none" x="0" y="0" font-size="10px" fill="#FFFFFF" font-family="Helvetica Neue, Helvetica, Arial, sans-serif"> Financial</text><text class="caption" text-anchor="middle" pointer-events="none" x="0" y="10" font-size="10px" fill="#FFFFFF" font-family="Helvetica Neue, Helvetica, Arial, sans-serif"> Markets</text></g><g class="node" aria-label="graph-node57" transform="translate(-448.2106129055106,-512.6440766101987)"><circle class="b-outline" cx="0" cy="0" r="25" fill="#C990C0" stroke="#b261a5" stroke-width="2px"/><text class="caption" text-anchor="middle" pointer-events="none" x="0" y="0" font-size="10px" fill="#FFFFFF" font-family="Helvetica Neue, Helvetica, Arial, sans-serif"> Business</text><text class="caption" text-anchor="middle" pointer-events="none" x="0" y="10" font-size="10px" fill="#FFFFFF" font-family="Helvetica Neue, Helvetica, Arial, sans-serif"> Servic…</text></g><g class="node" aria-label="graph-node58" transform="translate(-283.14541085127206,-313.74708221925886)"><circle class="b-outline" cx="0" cy="0" r="25" fill="#C990C0" stroke="#b261a5" stroke-width="2px"/><text class="caption" text-anchor="middle" pointer-events="none" x="0" y="-5" font-size="10px" fill="#FFFFFF" font-family="Helvetica Neue, Helvetica, Arial, sans-serif"> Research</text><text class="caption" text-anchor="middle" pointer-events="none" x="0" y="5" font-size="10px" fill="#FFFFFF" font-family="Helvetica Neue, Helvetica, Arial, sans-serif"> and</text><text class="caption" text-anchor="middle" pointer-events="none" x="0" y="15" font-size="10px" fill="#FFFFFF" font-family="Helvetica Neue, Helvetica, Arial, sans-serif"> Dev…</text></g><g class="node" aria-label="graph-node59" transform="translate(-315.579609028266,-406.14568245461464)"><circle class="b-outline" cx="0" cy="0" r="25" fill="#C990C0" stroke="#b261a5" stroke-width="2px"/><text class="caption" text-anchor="middle" pointer-events="none" x="0" y="5" font-size="10px" fill="#FFFFFF" font-family="Helvetica Neue, Helvetica, Arial, sans-serif"> Govern…</text></g><g class="node" aria-label="graph-node60" transform="translate(-254.39214296183096,-478.94475717577893)"><circle class="b-outline" cx="0" cy="0" r="25" fill="#C990C0" stroke="#b261a5" stroke-width="2px"/><text class="caption" text-anchor="middle" pointer-events="none" x="0" y="5" font-size="10px" fill="#FFFFFF" font-family="Helvetica Neue, Helvetica, Arial, sans-serif"> Intellige…</text></g><g class="node" aria-label="graph-node61" transform="translate(416.13895681706083,16.61640326914627)"><circle class="b-outline" cx="0" cy="0" r="25" fill="#57C7E3" stroke="#23b3d7" stroke-width="2px"/><text class="caption" text-anchor="middle" pointer-events="none" x="0" y="5" font-size="10px" fill="#2A2C34" font-family="Helvetica Neue, Helvetica, Arial, sans-serif"> Preproc…</text></g><g class="node" aria-label="graph-node62" transform="translate(213.08461948302278,-53.94826600227262)"><circle class="b-outline" cx="0" cy="0" r="25" fill="#57C7E3" stroke="#23b3d7" stroke-width="2px"/><text class="caption" text-anchor="middle" pointer-events="none" x="0" y="5" font-size="10px" fill="#2A2C34" font-family="Helvetica Neue, Helvetica, Arial, sans-serif"> Evaluation</text></g><g class="node" aria-label="graph-node64" transform="translate(256.31606962065166,-200.49954792400243)"><circle class="b-outline" cx="0" cy="0" r="25" fill="#F16667" stroke="#eb2728" stroke-width="2px"/><text class="caption" text-anchor="middle" pointer-events="none" x="0" y="5" font-size="10px" fill="#FFFFFF" font-family="Helvetica Neue, Helvetica, Arial, sans-serif">Bi…</text></g><g class="node" aria-label="graph-node65" transform="translate(309.6610539984383,-132.04840823106815)"><circle class="b-outline" cx="0" cy="0" r="25" fill="#F79767" stroke="#f36924" stroke-width="2px"/><text class="caption" text-anchor="middle" pointer-events="none" x="0" y="5" font-size="10px" fill="#FFFFFF" font-family="Helvetica Neue, Helvetica, Arial, sans-serif"> Benchm…</text></g><g class="node" aria-label="graph-node66" transform="translate(150.16849128873196,-150.31099636298163)"><circle class="b-outline" cx="0" cy="0" r="25" fill="#57C7E3" stroke="#23b3d7" stroke-width="2px"/><text class="caption" text-anchor="middle" pointer-events="none" x="0" y="0" font-size="10px" fill="#2A2C34" font-family="Helvetica Neue, Helvetica, Arial, sans-serif"> Model</text><text class="caption" text-anchor="middle" pointer-events="none" x="0" y="10" font-size="10px" fill="#2A2C34" font-family="Helvetica Neue, Helvetica, Arial, sans-serif"> Definit…</text></g><g class="node" aria-label="graph-node67" transform="translate(40.86290433410733,-167.52887085576486)"><circle class="b-outline" cx="0" cy="0" r="25" fill="#F16667" stroke="#eb2728" stroke-width="2px"/><text class="caption" text-anchor="middle" pointer-events="none" x="0" y="5" font-size="10px" fill="#FFFFFF" font-family="Helvetica Neue, Helvetica, Arial, sans-serif"> Aggrega…</text></g><g class="node" aria-label="graph-node68" transform="translate(84.61249907575046,-32.582228001068565)"><circle class="b-outline" cx="0" cy="0" r="25" fill="#F79767" stroke="#f36924" stroke-width="2px"/><text class="caption" text-anchor="middle" pointer-events="none" x="0" y="5" font-size="10px" fill="#FFFFFF" font-family="Helvetica Neue, Helvetica, Arial, sans-serif"> Model</text></g><g class="node" aria-label="graph-node69" transform="translate(-18.295725278204245,23.22836654375238)"><circle class="b-outline" cx="0" cy="0" r="25" fill="#57C7E3" stroke="#23b3d7" stroke-width="2px"/><text class="caption" text-anchor="middle" pointer-events="none" x="0" y="0" font-size="10px" fill="#2A2C34" font-family="Helvetica Neue, Helvetica, Arial, sans-serif"> Run</text><text class="caption" text-anchor="middle" pointer-events="none" x="0" y="10" font-size="10px" fill="#2A2C34" font-family="Helvetica Neue, Helvetica, Arial, sans-serif"> Model</text></g><g class="node" aria-label="graph-node70" transform="translate(-92.2693500598273,91.20341582073075)"><circle class="b-outline" cx="0" cy="0" r="25" fill="#F79767" stroke="#f36924" stroke-width="2px"/><text class="caption" text-anchor="middle" pointer-events="none" x="0" y="0" font-size="10px" fill="#FFFFFF" font-family="Helvetica Neue, Helvetica, Arial, sans-serif"> Model</text><text class="caption" text-anchor="middle" pointer-events="none" x="0" y="10" font-size="10px" fill="#FFFFFF" font-family="Helvetica Neue, Helvetica, Arial, sans-serif"> Output</text></g><g class="node" aria-label="graph-node71" transform="translate(-242.55938098885596,141.89219670373976)"><circle class="b-outline" cx="0" cy="0" r="25" fill="#57C7E3" stroke="#23b3d7" stroke-width="2px"/><text class="caption" text-anchor="middle" pointer-events="none" x="0" y="5" font-size="10px" fill="#2A2C34" font-family="Helvetica Neue, Helvetica, Arial, sans-serif"> Post-Pro…</text></g><g class="node" aria-label="graph-node72" transform="translate(-141.0089152231082,20.376353926477492)"><circle class="b-outline" cx="0" cy="0" r="25" fill="#57C7E3" stroke="#23b3d7" stroke-width="2px"/><text class="caption" text-anchor="middle" pointer-events="none" x="0" y="0" font-size="10px" fill="#2A2C34" font-family="Helvetica Neue, Helvetica, Arial, sans-serif"> Integrate</text><text class="caption" text-anchor="middle" pointer-events="none" x="0" y="10" font-size="10px" fill="#2A2C34" font-family="Helvetica Neue, Helvetica, Arial, sans-serif"> S…</text></g><g class="node" aria-label="graph-node73" transform="translate(-176.11786566697688,83.7586365987436)"><circle class="b-outline" cx="0" cy="0" r="25" fill="#57C7E3" stroke="#23b3d7" stroke-width="2px"/><text class="caption" text-anchor="middle" pointer-events="none" x="0" y="-5" font-size="10px" fill="#2A2C34" font-family="Helvetica Neue, Helvetica, Arial, sans-serif"> Human &amp;</text><text class="caption" text-anchor="middle" pointer-events="none" x="0" y="5" font-size="10px" fill="#2A2C34" font-family="Helvetica Neue, Helvetica, Arial, sans-serif"> Model</text><text class="caption" text-anchor="middle" pointer-events="none" x="0" y="15" font-size="10px" fill="#2A2C34" font-family="Helvetica Neue, Helvetica, Arial, sans-serif"> Inter</text></g><g class="node" aria-label="graph-node74" transform="translate(-123.12373662488352,276.56362631377357)"><circle class="b-outline" cx="0" cy="0" r="25" fill="#F16667" stroke="#eb2728" stroke-width="2px"/><text class="caption" text-anchor="middle" pointer-events="none" x="0" y="5" font-size="10px" fill="#FFFFFF" font-family="Helvetica Neue, Helvetica, Arial, sans-serif"> Deploym…</text></g><g class="node" aria-label="graph-node316" transform="translate(-399.66597265682515,-298.2396346379159)"><circle class="b-outline" cx="0" cy="0" r="25" fill="#C990C0" stroke="#b261a5" stroke-width="2px"/><text class="caption" text-anchor="middle" pointer-events="none" x="0" y="-5" font-size="10px" fill="#FFFFFF" font-family="Helvetica Neue, Helvetica, Arial, sans-serif"> OpenAI</text><text class="caption" text-anchor="middle" pointer-events="none" x="0" y="5" font-size="10px" fill="#FFFFFF" font-family="Helvetica Neue, Helvetica, Arial, sans-serif"> Web</text><text class="caption" text-anchor="middle" pointer-events="none" x="0" y="15" font-size="10px" fill="#FFFFFF" font-family="Helvetica Neue, Helvetica, Arial, sans-serif"> Ser…</text></g><g class="node" aria-label="graph-node317" transform="translate(-251.5270718767346,-220.90877277937182)"><circle class="b-outline" cx="0" cy="0" r="25" fill="#C990C0" stroke="#b261a5" stroke-width="2px"/><text class="caption" text-anchor="middle" pointer-events="none" x="0" y="5" font-size="10px" fill="#FFFFFF" font-family="Helvetica Neue, Helvetica, Arial, sans-serif"> Manufac…</text></g><g class="node" aria-label="graph-node318" transform="translate(-413.5047135320781,-423.94713281879774)"><circle class="b-outline" cx="0" cy="0" r="25" fill="#C990C0" stroke="#b261a5" stroke-width="2px"/><text class="caption" text-anchor="middle" pointer-events="none" x="0" y="5" font-size="10px" fill="#FFFFFF" font-family="Helvetica Neue, Helvetica, Arial, sans-serif"> Energy</text></g><g class="node" aria-label="graph-node319" transform="translate(-486.24935242105994,-192.78726384505072)"><circle class="b-outline" cx="0" cy="0" r="25" fill="#C990C0" stroke="#b261a5" stroke-width="2px"/><text class="caption" text-anchor="middle" pointer-events="none" x="0" y="-5" font-size="10px" fill="#FFFFFF" font-family="Helvetica Neue, Helvetica, Arial, sans-serif"> Mining</text><text class="caption" text-anchor="middle" pointer-events="none" x="0" y="5" font-size="10px" fill="#FFFFFF" font-family="Helvetica Neue, Helvetica, Arial, sans-serif"> and</text><text class="caption" text-anchor="middle" pointer-events="none" x="0" y="15" font-size="10px" fill="#FFFFFF" font-family="Helvetica Neue, Helvetica, Arial, sans-serif"> Extr…</text></g><g class="node" aria-label="graph-node320" transform="translate(-523.3706414161678,-104.20728966083732)"><circle class="b-outline" cx="0" cy="0" r="25" fill="#C990C0" stroke="#b261a5" stroke-width="2px"/><text class="caption" text-anchor="middle" pointer-events="none" x="0" y="5" font-size="10px" fill="#FFFFFF" font-family="Helvetica Neue, Helvetica, Arial, sans-serif"> Military</text></g><g class="node" aria-label="graph-node321" transform="translate(-278.3054513688263,-33.25066573097632)"><circle class="b-outline" cx="0" cy="0" r="25" fill="#F79767" stroke="#f36924" stroke-width="2px"/><text class="caption" text-anchor="middle" pointer-events="none" x="0" y="5" font-size="10px" fill="#FFFFFF" font-family="Helvetica Neue, Helvetica, Arial, sans-serif"> World</text></g><g class="node" aria-label="graph-node322" transform="translate(-384.5696484729499,94.88395201243557)"><circle class="b-outline" cx="0" cy="0" r="25" fill="#57C7E3" stroke="#23b3d7" stroke-width="2px"/><text class="caption" text-anchor="middle" pointer-events="none" x="0" y="0" font-size="10px" fill="#2A2C34" font-family="Helvetica Neue, Helvetica, Arial, sans-serif"> Data</text><text class="caption" text-anchor="middle" pointer-events="none" x="0" y="10" font-size="10px" fill="#2A2C34" font-family="Helvetica Neue, Helvetica, Arial, sans-serif"> Gener…</text></g><g class="node" aria-label="graph-node323" transform="translate(162.8079994901707,267.4438971579913)"><circle class="b-outline" cx="0" cy="0" r="25" fill="#57C7E3" stroke="#23b3d7" stroke-width="2px"/><text class="caption" text-anchor="middle" pointer-events="none" x="0" y="5" font-size="10px" fill="#2A2C34" font-family="Helvetica Neue, Helvetica, Arial, sans-serif"> Populati…</text></g><g class="node" aria-label="graph-node324" transform="translate(-387.4501311323185,13.489938322608793)"><circle class="b-outline" cx="0" cy="0" r="25" fill="#F16667" stroke="#eb2728" stroke-width="2px"/><text class="caption" text-anchor="middle" pointer-events="none" x="0" y="0" font-size="10px" fill="#FFFFFF" font-family="Helvetica Neue, Helvetica, Arial, sans-serif"> Historical</text><text class="caption" text-anchor="middle" pointer-events="none" x="0" y="10" font-size="10px" fill="#FFFFFF" font-family="Helvetica Neue, Helvetica, Arial, sans-serif"> Bias</text></g><g class="node" aria-label="graph-node325" transform="translate(332.8933497294516,205.01239275800316)"><circle class="b-outline" cx="0" cy="0" r="25" fill="#F79767" stroke="#f36924" stroke-width="2px"/><text class="caption" text-anchor="middle" pointer-events="none" x="0" y="5" font-size="10px" fill="#FFFFFF" font-family="Helvetica Neue, Helvetica, Arial, sans-serif"> Sample</text></g><g class="node" aria-label="graph-node326" transform="translate(468.72022050820124,223.32966831093444)"><circle class="b-outline" cx="0" cy="0" r="25" fill="#57C7E3" stroke="#23b3d7" stroke-width="2px"/><text class="caption" text-anchor="middle" pointer-events="none" x="0" y="5" font-size="10px" fill="#2A2C34" font-family="Helvetica Neue, Helvetica, Arial, sans-serif"> Measure…</text></g><g class="node" aria-label="graph-node327" transform="translate(284.300438390838,328.58644794090003)"><circle class="b-outline" cx="0" cy="0" r="25" fill="#F16667" stroke="#eb2728" stroke-width="2px"/><text class="caption" text-anchor="middle" pointer-events="none" x="0" y="5" font-size="10px" fill="#FFFFFF" font-family="Helvetica Neue, Helvetica, Arial, sans-serif"> Represe…</text></g><g class="node" aria-label="graph-node328" transform="translate(455.43488743802004,124.78774225576282)"><circle class="b-outline" cx="0" cy="0" r="25" fill="#F79767" stroke="#f36924" stroke-width="2px"/><text class="caption" text-anchor="middle" pointer-events="none" x="0" y="5" font-size="10px" fill="#FFFFFF" font-family="Helvetica Neue, Helvetica, Arial, sans-serif"> Dataset</text></g><g class="node" aria-label="graph-node329" transform="translate(554.0782896062211,96.33650343342157)"><circle class="b-outline" cx="0" cy="0" r="25" fill="#F16667" stroke="#eb2728" stroke-width="2px"/><text class="caption" text-anchor="middle" pointer-events="none" x="0" y="5" font-size="10px" fill="#FFFFFF" font-family="Helvetica Neue, Helvetica, Arial, sans-serif"> Measure…</text></g><g class="node" aria-label="graph-node330" transform="translate(305.3535435090415,22.61215747435314)"><circle class="b-outline" cx="0" cy="0" r="25" fill="#F79767" stroke="#f36924" stroke-width="2px"/><text class="caption" text-anchor="middle" pointer-events="none" x="0" y="0" font-size="10px" fill="#FFFFFF" font-family="Helvetica Neue, Helvetica, Arial, sans-serif"> Training</text><text class="caption" text-anchor="middle" pointer-events="none" x="0" y="10" font-size="10px" fill="#FFFFFF" font-family="Helvetica Neue, Helvetica, Arial, sans-serif"> Data</text></g><g class="node" aria-label="graph-node331" transform="translate(208.03562360397453,18.021357821564237)"><circle class="b-outline" cx="0" cy="0" r="25" fill="#57C7E3" stroke="#23b3d7" stroke-width="2px"/><text class="caption" text-anchor="middle" pointer-events="none" x="0" y="0" font-size="10px" fill="#2A2C34" font-family="Helvetica Neue, Helvetica, Arial, sans-serif"> Model</text><text class="caption" text-anchor="middle" pointer-events="none" x="0" y="10" font-size="10px" fill="#2A2C34" font-family="Helvetica Neue, Helvetica, Arial, sans-serif"> Learni…</text></g><g class="node" aria-label="graph-node332" transform="translate(190.0002964457763,164.41304994586903)"><circle class="b-outline" cx="0" cy="0" r="25" fill="#F16667" stroke="#eb2728" stroke-width="2px"/><text class="caption" text-anchor="middle" pointer-events="none" x="0" y="0" font-size="10px" fill="#FFFFFF" font-family="Helvetica Neue, Helvetica, Arial, sans-serif"> Learning</text><text class="caption" text-anchor="middle" pointer-events="none" x="0" y="10" font-size="10px" fill="#FFFFFF" font-family="Helvetica Neue, Helvetica, Arial, sans-serif"> Bias</text></g><g class="node" aria-label="graph-node333" transform="translate(399.9409633188301,-111.48399278598822)"><circle class="b-outline" cx="0" cy="0" r="25" fill="#F79767" stroke="#f36924" stroke-width="2px"/><text class="caption" text-anchor="middle" pointer-events="none" x="0" y="5" font-size="10px" fill="#FFFFFF" font-family="Helvetica Neue, Helvetica, Arial, sans-serif"> Test Data</text></g></g></svg>